M48
; DRILL file {KiCad 9.0.7} date 2026-02-21T19:12:59+0100
; FORMAT={-:-/ absolute / metric / decimal}
; #@! TF.CreationDate,2026-02-21T19:12:59+01:00
; #@! TF.GenerationSoftware,Kicad,Pcbnew,9.0.7
; #@! TF.FileFunction,Plated,1,2,PTH
FMAT,2
METRIC
; #@! TA.AperFunction,Plated,PTH,ComponentDrill
T1C0.800
; #@! TA.AperFunction,Plated,PTH,ComponentDrill
T2C1.000
; #@! TA.AperFunction,Plated,PTH,ComponentDrill
T3C1.100
%
G90
G05
T1
X74.1Y-45.4
X74.1Y-47.4
X86.146Y-57.89
X86.146Y-65.51
X86.146Y-94.99
X86.146Y-102.61
X86.146Y-135.89
X86.146Y-143.51
X91.427Y-57.89
X91.427Y-65.51
X91.427Y-94.99
X91.427Y-102.61
X91.427Y-135.89
X91.427Y-143.51
X93.6Y-71.8
X93.6Y-76.8
X93.6Y-109.0
X93.6Y-114.0
X93.6Y-149.8
X93.6Y-154.8
X96.709Y-57.89
X96.709Y-65.51
X96.709Y-94.99
X96.709Y-102.61
X96.709Y-135.89
X96.709Y-143.51
X98.085Y-70.49
X98.085Y-78.11
X98.085Y-107.59
X98.085Y-115.21
X98.085Y-148.49
X98.085Y-156.11
X100.625Y-70.49
X100.625Y-78.11
X100.625Y-107.59
X100.625Y-115.21
X100.625Y-148.49
X100.625Y-156.11
X101.991Y-57.89
X101.991Y-65.51
X101.991Y-94.99
X101.991Y-102.61
X101.991Y-135.89
X101.991Y-143.51
X103.165Y-70.49
X103.165Y-78.11
X103.165Y-107.59
X103.165Y-115.21
X103.165Y-148.49
X103.165Y-156.11
X105.705Y-70.49
X105.705Y-78.11
X105.705Y-107.59
X105.705Y-115.21
X105.705Y-148.49
X105.705Y-156.11
X107.273Y-57.89
X107.273Y-65.51
X107.273Y-94.99
X107.273Y-102.61
X107.273Y-135.89
X107.273Y-143.51
X108.245Y-70.49
X108.245Y-78.11
X108.245Y-107.59
X108.245Y-115.21
X108.245Y-148.49
X108.245Y-156.11
X110.785Y-70.49
X110.785Y-78.11
X110.785Y-107.59
X110.785Y-115.21
X110.785Y-148.49
X110.785Y-156.11
X112.5Y-57.89
X112.5Y-65.51
X112.555Y-94.99
X112.555Y-102.61
X112.555Y-135.89
X112.555Y-143.51
X113.325Y-70.49
X113.325Y-78.11
X113.325Y-107.59
X113.325Y-115.21
X113.325Y-148.49
X113.325Y-156.11
X117.836Y-57.89
X117.836Y-65.51
X117.836Y-94.99
X117.836Y-102.61
X117.836Y-135.89
X117.836Y-143.51
X117.9Y-71.8
X117.9Y-76.8
X117.9Y-109.0
X117.9Y-114.0
X117.9Y-149.8
X117.9Y-154.8
X123.118Y-57.89
X123.118Y-65.51
X123.118Y-94.99
X123.118Y-102.61
X123.118Y-135.89
X123.118Y-143.51
X125.9Y-45.445
X125.9Y-47.445
X128.4Y-57.89
X128.4Y-65.51
X128.4Y-94.99
X128.4Y-102.61
X128.4Y-135.89
X128.4Y-143.51
T2
X52.8Y-159.7
X53.0Y-52.0
X53.0Y-54.54
X53.0Y-57.08
X53.0Y-59.62
X53.0Y-62.16
X53.0Y-64.7
X53.0Y-67.24
X53.0Y-69.78
X53.0Y-94.0
X53.0Y-96.54
X53.0Y-99.08
X53.0Y-101.62
X53.0Y-104.16
X53.0Y-106.7
X53.0Y-109.24
X53.0Y-111.78
X53.0Y-135.0
X53.0Y-137.54
X53.0Y-140.08
X53.0Y-142.62
X53.0Y-145.16
X53.0Y-147.7
X53.0Y-150.24
X53.0Y-152.78
X59.0Y-64.46
X59.0Y-67.0
X59.0Y-106.46
X59.0Y-109.0
X59.0Y-147.46
X59.0Y-150.0
X61.54Y-64.46
X61.54Y-67.0
X61.54Y-106.46
X61.54Y-109.0
X61.54Y-147.46
X61.54Y-150.0
X63.52Y-157.147
X63.52Y-159.688
X64.08Y-64.46
X64.08Y-67.0
X64.08Y-106.46
X64.08Y-109.0
X64.08Y-147.46
X64.08Y-150.0
X66.06Y-157.147
X66.06Y-159.688
X68.6Y-157.147
X68.6Y-159.688
X70.0Y-64.46
X70.0Y-67.0
X70.0Y-106.46
X70.0Y-109.0
X70.0Y-147.46
X70.0Y-150.0
X71.14Y-157.147
X71.14Y-159.688
X72.54Y-64.46
X72.54Y-67.0
X72.54Y-106.46
X72.54Y-109.0
X72.54Y-147.46
X72.54Y-150.0
X73.68Y-157.147
X73.68Y-159.688
X75.08Y-64.46
X75.08Y-67.0
X75.08Y-106.46
X75.08Y-109.0
X75.08Y-147.46
X75.08Y-150.0
X91.11Y-46.212
X91.11Y-48.752
X93.65Y-46.212
X93.65Y-48.752
X93.675Y-53.925
X96.19Y-46.212
X96.19Y-48.752
X96.215Y-53.925
X98.73Y-46.212
X98.73Y-48.752
X98.755Y-53.925
X101.27Y-46.212
X101.27Y-48.752
X101.295Y-53.925
X103.81Y-46.212
X103.81Y-48.752
X103.835Y-53.925
X106.35Y-46.212
X106.35Y-48.752
X106.375Y-53.925
X108.89Y-46.212
X108.89Y-48.752
X135.0Y-64.46
X135.0Y-67.0
X135.0Y-106.46
X135.0Y-109.0
X135.0Y-147.46
X135.0Y-150.0
X137.54Y-64.46
X137.54Y-67.0
X137.54Y-106.46
X137.54Y-109.0
X137.54Y-147.46
X137.54Y-150.0
X140.08Y-64.46
X140.08Y-67.0
X140.08Y-106.46
X140.08Y-109.0
X140.08Y-147.46
X140.08Y-150.0
X147.0Y-52.0
X147.0Y-54.54
X147.0Y-57.08
X147.0Y-59.62
X147.0Y-62.16
X147.0Y-64.7
X147.0Y-67.24
X147.0Y-69.78
X147.0Y-94.0
X147.0Y-96.54
X147.0Y-99.08
X147.0Y-101.62
X147.0Y-104.16
X147.0Y-106.7
X147.0Y-109.24
X147.0Y-111.78
X147.0Y-135.0
X147.0Y-137.54
X147.0Y-140.08
X147.0Y-142.62
X147.0Y-145.16
X147.0Y-147.7
X147.0Y-150.24
X147.0Y-152.78
T3
X82.3Y-44.22
X82.3Y-54.38
X117.8Y-44.22
X117.8Y-54.38
T2
X54.684Y-166.623G85X53.623Y-167.684
G05
X54.684Y-185.123G85X53.623Y-186.184
G05
X54.684Y-203.623G85X53.623Y-204.684
G05
X60.5Y-165.25G85X62.0Y-165.25
G05
X60.5Y-183.75G85X62.0Y-183.75
G05
X60.5Y-202.25G85X62.0Y-202.25
G05
X65.25Y-170.5G85X65.25Y-172.0
G05
X65.25Y-189.0G85X65.25Y-190.5
G05
X65.25Y-207.5G85X65.25Y-209.0
G05
X71.184Y-166.623G85X70.123Y-167.684
G05
X71.184Y-185.123G85X70.123Y-186.184
G05
X71.184Y-203.623G85X70.123Y-204.684
G05
X77.0Y-165.25G85X78.5Y-165.25
G05
X77.0Y-183.75G85X78.5Y-183.75
G05
X77.0Y-202.25G85X78.5Y-202.25
G05
X81.75Y-170.5G85X81.75Y-172.0
G05
X81.75Y-189.0G85X81.75Y-190.5
G05
X81.75Y-207.5G85X81.75Y-209.0
G05
X87.684Y-166.623G85X86.623Y-167.684
G05
X87.684Y-185.123G85X86.623Y-186.184
G05
X87.684Y-203.623G85X86.623Y-204.684
G05
X93.5Y-165.25G85X95.0Y-165.25
G05
X93.5Y-183.75G85X95.0Y-183.75
G05
X93.5Y-202.25G85X95.0Y-202.25
G05
X98.25Y-170.5G85X98.25Y-172.0
G05
X98.25Y-189.0G85X98.25Y-190.5
G05
X98.25Y-207.5G85X98.25Y-209.0
G05
X104.184Y-166.623G85X103.123Y-167.684
G05
X104.184Y-185.123G85X103.123Y-186.184
G05
X104.184Y-203.623G85X103.123Y-204.684
G05
X110.0Y-165.25G85X111.5Y-165.25
G05
X110.0Y-183.75G85X111.5Y-183.75
G05
X110.0Y-202.25G85X111.5Y-202.25
G05
X114.75Y-170.5G85X114.75Y-172.0
G05
X114.75Y-189.0G85X114.75Y-190.5
G05
X114.75Y-207.5G85X114.75Y-209.0
G05
X120.684Y-166.623G85X119.623Y-167.684
G05
X120.684Y-185.123G85X119.623Y-186.184
G05
X120.684Y-203.623G85X119.623Y-204.684
G05
X126.5Y-165.25G85X128.0Y-165.25
G05
X126.5Y-183.75G85X128.0Y-183.75
G05
X126.5Y-202.25G85X128.0Y-202.25
G05
X131.25Y-170.5G85X131.25Y-172.0
G05
X131.25Y-189.0G85X131.25Y-190.5
G05
X131.25Y-207.5G85X131.25Y-209.0
G05
X134.75Y-170.0G85X134.75Y-168.5
G05
X134.75Y-188.5G85X134.75Y-187.0
G05
X134.75Y-207.0G85X134.75Y-205.5
G05
X136.123Y-175.816G85X137.184Y-176.877
G05
X136.123Y-194.316G85X137.184Y-195.377
G05
X136.123Y-212.816G85X137.184Y-213.877
G05
X140.0Y-165.25G85X141.5Y-165.25
G05
X140.0Y-183.75G85X141.5Y-183.75
G05
X140.0Y-202.25G85X141.5Y-202.25
G05
M30
