%TF.GenerationSoftware,KiCad,Pcbnew,9.0.7*%
%TF.CreationDate,2026-02-21T19:12:40+01:00*%
%TF.ProjectId,DMH_VCLFO_v2_PCB_Main,444d485f-5643-44c4-964f-5f76325f5043,1*%
%TF.SameCoordinates,Original*%
%TF.FileFunction,Soldermask,Bot*%
%TF.FilePolarity,Negative*%
%FSLAX46Y46*%
G04 Gerber Fmt 4.6, Leading zero omitted, Abs format (unit mm)*
G04 Created by KiCad (PCBNEW 9.0.7) date 2026-02-21 19:12:40*
%MOMM*%
%LPD*%
G01*
G04 APERTURE LIST*
G04 Aperture macros list*
%AMRoundRect*
0 Rectangle with rounded corners*
0 $1 Rounding radius*
0 $2 $3 $4 $5 $6 $7 $8 $9 X,Y pos of 4 corners*
0 Add a 4 corners polygon primitive as box body*
4,1,4,$2,$3,$4,$5,$6,$7,$8,$9,$2,$3,0*
0 Add four circle primitives for the rounded corners*
1,1,$1+$1,$2,$3*
1,1,$1+$1,$4,$5*
1,1,$1+$1,$6,$7*
1,1,$1+$1,$8,$9*
0 Add four rect primitives between the rounded corners*
20,1,$1+$1,$2,$3,$4,$5,0*
20,1,$1+$1,$4,$5,$6,$7,0*
20,1,$1+$1,$6,$7,$8,$9,0*
20,1,$1+$1,$8,$9,$2,$3,0*%
%AMHorizOval*
0 Thick line with rounded ends*
0 $1 width*
0 $2 $3 position (X,Y) of the first rounded end (center of the circle)*
0 $4 $5 position (X,Y) of the second rounded end (center of the circle)*
0 Add line between two ends*
20,1,$1,$2,$3,$4,$5,0*
0 Add two circle primitives to create the rounded ends*
1,1,$1,$2,$3*
1,1,$1,$4,$5*%
G04 Aperture macros list end*
%ADD10HorizOval,1.712000X-0.533159X-0.533159X0.533159X0.533159X0*%
%ADD11O,1.712000X3.220000*%
%ADD12O,3.220000X1.712000*%
%ADD13R,1.700000X1.700000*%
%ADD14C,1.700000*%
%ADD15HorizOval,1.712000X-0.533159X0.533159X0.533159X-0.533159X0*%
%ADD16C,1.600000*%
%ADD17RoundRect,0.250000X0.600000X-0.600000X0.600000X0.600000X-0.600000X0.600000X-0.600000X-0.600000X0*%
%ADD18RoundRect,0.250000X-0.550000X0.550000X-0.550000X-0.550000X0.550000X-0.550000X0.550000X0.550000X0*%
%ADD19RoundRect,0.249999X-0.850001X0.850001X-0.850001X-0.850001X0.850001X-0.850001X0.850001X0.850001X0*%
%ADD20C,2.200000*%
%ADD21RoundRect,0.250000X-0.600000X0.600000X-0.600000X-0.600000X0.600000X-0.600000X0.600000X0.600000X0*%
%ADD22RoundRect,0.250000X0.550000X-0.550000X0.550000X0.550000X-0.550000X0.550000X-0.550000X-0.550000X0*%
%ADD23RoundRect,0.249999X0.850001X-0.850001X0.850001X0.850001X-0.850001X0.850001X-0.850001X-0.850001X0*%
G04 APERTURE END LIST*
D10*
%TO.C,J16*%
X103653810Y-204153810D03*
D11*
X114750000Y-208250000D03*
D12*
X110750000Y-202250000D03*
%TD*%
D10*
%TO.C,J7*%
X54153810Y-185653810D03*
D11*
X65250000Y-189750000D03*
D12*
X61250000Y-183750000D03*
%TD*%
D10*
%TO.C,J9*%
X87153810Y-185653810D03*
D11*
X98250000Y-189750000D03*
D12*
X94250000Y-183750000D03*
%TD*%
D13*
%TO.C,J22*%
X53000000Y-52000000D03*
D14*
X53000000Y-54540000D03*
X53000000Y-57080000D03*
X53000000Y-59620000D03*
X53000000Y-62160000D03*
X53000000Y-64700000D03*
X53000000Y-67240000D03*
X53000000Y-69780000D03*
%TD*%
D10*
%TO.C,J1*%
X54153810Y-167153810D03*
D11*
X65250000Y-171250000D03*
D12*
X61250000Y-165250000D03*
%TD*%
D13*
%TO.C,J32*%
X53000000Y-135000000D03*
D14*
X53000000Y-137540000D03*
X53000000Y-140080000D03*
X53000000Y-142620000D03*
X53000000Y-145160000D03*
X53000000Y-147700000D03*
X53000000Y-150240000D03*
X53000000Y-152780000D03*
%TD*%
D10*
%TO.C,J15*%
X87153810Y-204153810D03*
D11*
X98250000Y-208250000D03*
D12*
X94250000Y-202250000D03*
%TD*%
D10*
%TO.C,J14*%
X70653810Y-204153810D03*
D11*
X81750000Y-208250000D03*
D12*
X77750000Y-202250000D03*
%TD*%
D10*
%TO.C,J11*%
X120153810Y-185653810D03*
D11*
X131250000Y-189750000D03*
D12*
X127250000Y-183750000D03*
%TD*%
D13*
%TO.C,J28*%
X147000000Y-94000000D03*
D14*
X147000000Y-96540000D03*
X147000000Y-99080000D03*
X147000000Y-101620000D03*
X147000000Y-104160000D03*
X147000000Y-106700000D03*
X147000000Y-109240000D03*
X147000000Y-111780000D03*
%TD*%
D10*
%TO.C,J4*%
X103653810Y-167153810D03*
D11*
X114750000Y-171250000D03*
D12*
X110750000Y-165250000D03*
%TD*%
D10*
%TO.C,J3*%
X87153810Y-167153810D03*
D11*
X98250000Y-171250000D03*
D12*
X94250000Y-165250000D03*
%TD*%
D15*
%TO.C,J18*%
X136653810Y-213346190D03*
D12*
X140750000Y-202250000D03*
D11*
X134750000Y-206250000D03*
%TD*%
D10*
%TO.C,J13*%
X54153810Y-204153810D03*
D11*
X65250000Y-208250000D03*
D12*
X61250000Y-202250000D03*
%TD*%
D10*
%TO.C,J2*%
X70653810Y-167153810D03*
D11*
X81750000Y-171250000D03*
D12*
X77750000Y-165250000D03*
%TD*%
D10*
%TO.C,J8*%
X70653810Y-185653810D03*
D11*
X81750000Y-189750000D03*
D12*
X77750000Y-183750000D03*
%TD*%
D13*
%TO.C,J23*%
X147000000Y-52000000D03*
D14*
X147000000Y-54540000D03*
X147000000Y-57080000D03*
X147000000Y-59620000D03*
X147000000Y-62160000D03*
X147000000Y-64700000D03*
X147000000Y-67240000D03*
X147000000Y-69780000D03*
%TD*%
D10*
%TO.C,J5*%
X120153810Y-167153810D03*
D11*
X131250000Y-171250000D03*
D12*
X127250000Y-165250000D03*
%TD*%
D15*
%TO.C,J12*%
X136653810Y-194846190D03*
D12*
X140750000Y-183750000D03*
D11*
X134750000Y-187750000D03*
%TD*%
D15*
%TO.C,J6*%
X136653810Y-176346190D03*
D12*
X140750000Y-165250000D03*
D11*
X134750000Y-169250000D03*
%TD*%
D10*
%TO.C,J17*%
X120153810Y-204153810D03*
D11*
X131250000Y-208250000D03*
D12*
X127250000Y-202250000D03*
%TD*%
D13*
%TO.C,J27*%
X53000000Y-94000000D03*
D14*
X53000000Y-96540000D03*
X53000000Y-99080000D03*
X53000000Y-101620000D03*
X53000000Y-104160000D03*
X53000000Y-106700000D03*
X53000000Y-109240000D03*
X53000000Y-111780000D03*
%TD*%
D13*
%TO.C,J33*%
X147000000Y-135000000D03*
D14*
X147000000Y-137540000D03*
X147000000Y-140080000D03*
X147000000Y-142620000D03*
X147000000Y-145160000D03*
X147000000Y-147700000D03*
X147000000Y-150240000D03*
X147000000Y-152780000D03*
%TD*%
D13*
%TO.C,J52*%
X93675000Y-53925000D03*
D14*
X96215000Y-53925000D03*
X98755000Y-53925000D03*
X101295000Y-53925000D03*
X103835000Y-53925000D03*
X106375000Y-53925000D03*
%TD*%
D10*
%TO.C,J10*%
X103653810Y-185653810D03*
D11*
X114750000Y-189750000D03*
D12*
X110750000Y-183750000D03*
%TD*%
D16*
%TO.C,C60*%
X117900000Y-71800000D03*
X117900000Y-76800000D03*
%TD*%
%TO.C,R27*%
X117836406Y-102610000D03*
X117836406Y-94990000D03*
%TD*%
%TO.C,R42*%
X123118203Y-135890000D03*
X123118203Y-143510000D03*
%TD*%
%TO.C,R37*%
X112554609Y-143510000D03*
X112554609Y-135890000D03*
%TD*%
%TO.C,C56*%
X93600000Y-71800000D03*
X93600000Y-76800000D03*
%TD*%
%TO.C,R8*%
X123118203Y-57890000D03*
X123118203Y-65510000D03*
%TD*%
%TO.C,R34*%
X128400000Y-94990000D03*
X128400000Y-102610000D03*
%TD*%
%TO.C,R3*%
X112500000Y-65510000D03*
X112500000Y-57890000D03*
%TD*%
D17*
%TO.C,J100*%
X108890000Y-48752500D03*
D14*
X108890000Y-46212500D03*
X106350000Y-48752500D03*
X106350000Y-46212500D03*
X103810000Y-48752500D03*
X103810000Y-46212500D03*
X101270000Y-48752500D03*
X101270000Y-46212500D03*
X98730000Y-48752500D03*
X98730000Y-46212500D03*
X96190000Y-48752500D03*
X96190000Y-46212500D03*
X93650000Y-48752500D03*
X93650000Y-46212500D03*
X91110000Y-48752500D03*
X91110000Y-46212500D03*
%TD*%
D16*
%TO.C,C62*%
X117900000Y-149800000D03*
X117900000Y-154800000D03*
%TD*%
%TO.C,R17*%
X128400000Y-57890000D03*
X128400000Y-65510000D03*
%TD*%
%TO.C,R19*%
X91427421Y-94990000D03*
X91427421Y-102610000D03*
%TD*%
%TO.C,C58*%
X93600000Y-149800000D03*
X93600000Y-154800000D03*
%TD*%
D13*
%TO.C,J53*%
X52800000Y-159700000D03*
%TD*%
D16*
%TO.C,R51*%
X128400000Y-135890000D03*
X128400000Y-143510000D03*
%TD*%
%TO.C,R36*%
X91427421Y-135890000D03*
X91427421Y-143510000D03*
%TD*%
D18*
%TO.C,U2*%
X98085000Y-107590000D03*
D16*
X100625000Y-107590000D03*
X103165000Y-107590000D03*
X105705000Y-107590000D03*
X108245000Y-107590000D03*
X110785000Y-107590000D03*
X113325000Y-107590000D03*
X113325000Y-115210000D03*
X110785000Y-115210000D03*
X108245000Y-115210000D03*
X105705000Y-115210000D03*
X103165000Y-115210000D03*
X100625000Y-115210000D03*
X98085000Y-115210000D03*
%TD*%
D19*
%TO.C,D25*%
X117800000Y-44220000D03*
D20*
X117800000Y-54380000D03*
%TD*%
D16*
%TO.C,R2*%
X91427421Y-57890000D03*
X91427421Y-65510000D03*
%TD*%
D21*
%TO.C,J21*%
X63520000Y-157147500D03*
D14*
X66060000Y-157147500D03*
X68600000Y-157147500D03*
X71140000Y-157147500D03*
X73680000Y-157147500D03*
X63520000Y-159687500D03*
X66060000Y-159687500D03*
X68600000Y-159687500D03*
X71140000Y-159687500D03*
X73680000Y-159687500D03*
%TD*%
D16*
%TO.C,C57*%
X93600000Y-109000000D03*
X93600000Y-114000000D03*
%TD*%
%TO.C,R44*%
X117836406Y-143510000D03*
X117836406Y-135890000D03*
%TD*%
%TO.C,R5*%
X96709218Y-57890000D03*
X96709218Y-65510000D03*
%TD*%
D13*
%TO.C,J49*%
X70000000Y-150000000D03*
D14*
X70000000Y-147460000D03*
X72540000Y-150000000D03*
X72540000Y-147460000D03*
X75080000Y-150000000D03*
X75080000Y-147460000D03*
%TD*%
D16*
%TO.C,R22*%
X96709218Y-94990000D03*
X96709218Y-102610000D03*
%TD*%
D22*
%TO.C,C55*%
X74100000Y-47400000D03*
D16*
X74100000Y-45400000D03*
%TD*%
D13*
%TO.C,J41*%
X59000000Y-109000000D03*
D14*
X59000000Y-106460000D03*
X61540000Y-109000000D03*
X61540000Y-106460000D03*
X64080000Y-109000000D03*
X64080000Y-106460000D03*
%TD*%
D16*
%TO.C,R4*%
X86145624Y-57890000D03*
X86145624Y-65510000D03*
%TD*%
%TO.C,R35*%
X101991015Y-135890000D03*
X101991015Y-143510000D03*
%TD*%
D13*
%TO.C,J37*%
X70000000Y-67000000D03*
D14*
X70000000Y-64460000D03*
X72540000Y-67000000D03*
X72540000Y-64460000D03*
X75080000Y-67000000D03*
X75080000Y-64460000D03*
%TD*%
D18*
%TO.C,U3*%
X98085000Y-148490000D03*
D16*
X100625000Y-148490000D03*
X103165000Y-148490000D03*
X105705000Y-148490000D03*
X108245000Y-148490000D03*
X110785000Y-148490000D03*
X113325000Y-148490000D03*
X113325000Y-156110000D03*
X110785000Y-156110000D03*
X108245000Y-156110000D03*
X105705000Y-156110000D03*
X103165000Y-156110000D03*
X100625000Y-156110000D03*
X98085000Y-156110000D03*
%TD*%
%TO.C,R23*%
X107272812Y-94990000D03*
X107272812Y-102610000D03*
%TD*%
%TO.C,R40*%
X107272812Y-135890000D03*
X107272812Y-143510000D03*
%TD*%
%TO.C,R20*%
X112554609Y-102610000D03*
X112554609Y-94990000D03*
%TD*%
%TO.C,R1*%
X101991015Y-57890000D03*
X101991015Y-65510000D03*
%TD*%
D13*
%TO.C,J39*%
X135000000Y-67000000D03*
D14*
X135000000Y-64460000D03*
X137540000Y-67000000D03*
X137540000Y-64460000D03*
X140080000Y-67000000D03*
X140080000Y-64460000D03*
%TD*%
D23*
%TO.C,D26*%
X82300000Y-54380000D03*
D20*
X82300000Y-44220000D03*
%TD*%
D16*
%TO.C,R10*%
X117836406Y-65510000D03*
X117836406Y-57890000D03*
%TD*%
%TO.C,R18*%
X101991015Y-94990000D03*
X101991015Y-102610000D03*
%TD*%
%TO.C,R21*%
X86145624Y-94990000D03*
X86145624Y-102610000D03*
%TD*%
D18*
%TO.C,U1*%
X98085000Y-70490000D03*
D16*
X100625000Y-70490000D03*
X103165000Y-70490000D03*
X105705000Y-70490000D03*
X108245000Y-70490000D03*
X110785000Y-70490000D03*
X113325000Y-70490000D03*
X113325000Y-78110000D03*
X110785000Y-78110000D03*
X108245000Y-78110000D03*
X105705000Y-78110000D03*
X103165000Y-78110000D03*
X100625000Y-78110000D03*
X98085000Y-78110000D03*
%TD*%
%TO.C,C61*%
X117900000Y-109000000D03*
X117900000Y-114000000D03*
%TD*%
%TO.C,R6*%
X107272812Y-57890000D03*
X107272812Y-65510000D03*
%TD*%
D18*
%TO.C,C59*%
X125900000Y-45444888D03*
D16*
X125900000Y-47444888D03*
%TD*%
D13*
%TO.C,J43*%
X70000000Y-109000000D03*
D14*
X70000000Y-106460000D03*
X72540000Y-109000000D03*
X72540000Y-106460000D03*
X75080000Y-109000000D03*
X75080000Y-106460000D03*
%TD*%
D13*
%TO.C,J35*%
X59000000Y-67000000D03*
D14*
X59000000Y-64460000D03*
X61540000Y-67000000D03*
X61540000Y-64460000D03*
X64080000Y-67000000D03*
X64080000Y-64460000D03*
%TD*%
D13*
%TO.C,J45*%
X135000000Y-109000000D03*
D14*
X135000000Y-106460000D03*
X137540000Y-109000000D03*
X137540000Y-106460000D03*
X140080000Y-109000000D03*
X140080000Y-106460000D03*
%TD*%
D16*
%TO.C,R38*%
X86145624Y-135890000D03*
X86145624Y-143510000D03*
%TD*%
%TO.C,R39*%
X96709218Y-135890000D03*
X96709218Y-143510000D03*
%TD*%
D13*
%TO.C,J47*%
X59000000Y-150000000D03*
D14*
X59000000Y-147460000D03*
X61540000Y-150000000D03*
X61540000Y-147460000D03*
X64080000Y-150000000D03*
X64080000Y-147460000D03*
%TD*%
D16*
%TO.C,R25*%
X123118203Y-94990000D03*
X123118203Y-102610000D03*
%TD*%
D13*
%TO.C,J51*%
X135000000Y-150000000D03*
D14*
X135000000Y-147460000D03*
X137540000Y-150000000D03*
X137540000Y-147460000D03*
X140080000Y-150000000D03*
X140080000Y-147460000D03*
%TD*%
M02*
