%TF.GenerationSoftware,KiCad,Pcbnew,9.0.7*%
%TF.CreationDate,2026-02-21T19:12:59+01:00*%
%TF.ProjectId,DMH_VCLFO_v2_PCB_Main,444d485f-5643-44c4-964f-5f76325f5043,1*%
%TF.SameCoordinates,Original*%
%TF.FileFunction,Drillmap*%
%TF.FilePolarity,Positive*%
%FSLAX45Y45*%
G04 Gerber Fmt 4.5, Leading zero omitted, Abs format (unit mm)*
G04 Created by KiCad (PCBNEW 9.0.7) date 2026-02-21 19:12:59*
%MOMM*%
%LPD*%
G01*
G04 APERTURE LIST*
%ADD10C,0.050000*%
%ADD11C,0.200000*%
%ADD12C,0.100000*%
%ADD13C,0.110000*%
G04 APERTURE END LIST*
D10*
X5100000Y-4250000D02*
X14900000Y-4250000D01*
X14900000Y-21750000D01*
X5100000Y-21750000D01*
X5100000Y-4250000D01*
D11*
D12*
X7370000Y-4500000D02*
X7450000Y-4580000D01*
X7450000Y-4500000D02*
X7370000Y-4580000D01*
X7370000Y-4700000D02*
X7450000Y-4780000D01*
X7450000Y-4700000D02*
X7370000Y-4780000D01*
X8574562Y-5749000D02*
X8654562Y-5829000D01*
X8654562Y-5749000D02*
X8574562Y-5829000D01*
X8574562Y-6511000D02*
X8654562Y-6591000D01*
X8654562Y-6511000D02*
X8574562Y-6591000D01*
X8574562Y-9459000D02*
X8654562Y-9539000D01*
X8654562Y-9459000D02*
X8574562Y-9539000D01*
X8574562Y-10221000D02*
X8654562Y-10301000D01*
X8654562Y-10221000D02*
X8574562Y-10301000D01*
X8574562Y-13549000D02*
X8654562Y-13629000D01*
X8654562Y-13549000D02*
X8574562Y-13629000D01*
X8574562Y-14311000D02*
X8654562Y-14391000D01*
X8654562Y-14311000D02*
X8574562Y-14391000D01*
X9102742Y-5749000D02*
X9182742Y-5829000D01*
X9182742Y-5749000D02*
X9102742Y-5829000D01*
X9102742Y-6511000D02*
X9182742Y-6591000D01*
X9182742Y-6511000D02*
X9102742Y-6591000D01*
X9102742Y-9459000D02*
X9182742Y-9539000D01*
X9182742Y-9459000D02*
X9102742Y-9539000D01*
X9102742Y-10221000D02*
X9182742Y-10301000D01*
X9182742Y-10221000D02*
X9102742Y-10301000D01*
X9102742Y-13549000D02*
X9182742Y-13629000D01*
X9182742Y-13549000D02*
X9102742Y-13629000D01*
X9102742Y-14311000D02*
X9182742Y-14391000D01*
X9182742Y-14311000D02*
X9102742Y-14391000D01*
X9320000Y-7140000D02*
X9400000Y-7220000D01*
X9400000Y-7140000D02*
X9320000Y-7220000D01*
X9320000Y-7640000D02*
X9400000Y-7720000D01*
X9400000Y-7640000D02*
X9320000Y-7720000D01*
X9320000Y-10860000D02*
X9400000Y-10940000D01*
X9400000Y-10860000D02*
X9320000Y-10940000D01*
X9320000Y-11360000D02*
X9400000Y-11440000D01*
X9400000Y-11360000D02*
X9320000Y-11440000D01*
X9320000Y-14940000D02*
X9400000Y-15020000D01*
X9400000Y-14940000D02*
X9320000Y-15020000D01*
X9320000Y-15440000D02*
X9400000Y-15520000D01*
X9400000Y-15440000D02*
X9320000Y-15520000D01*
X9630922Y-5749000D02*
X9710922Y-5829000D01*
X9710922Y-5749000D02*
X9630922Y-5829000D01*
X9630922Y-6511000D02*
X9710922Y-6591000D01*
X9710922Y-6511000D02*
X9630922Y-6591000D01*
X9630922Y-9459000D02*
X9710922Y-9539000D01*
X9710922Y-9459000D02*
X9630922Y-9539000D01*
X9630922Y-10221000D02*
X9710922Y-10301000D01*
X9710922Y-10221000D02*
X9630922Y-10301000D01*
X9630922Y-13549000D02*
X9710922Y-13629000D01*
X9710922Y-13549000D02*
X9630922Y-13629000D01*
X9630922Y-14311000D02*
X9710922Y-14391000D01*
X9710922Y-14311000D02*
X9630922Y-14391000D01*
X9768500Y-7009000D02*
X9848500Y-7089000D01*
X9848500Y-7009000D02*
X9768500Y-7089000D01*
X9768500Y-7771000D02*
X9848500Y-7851000D01*
X9848500Y-7771000D02*
X9768500Y-7851000D01*
X9768500Y-10719000D02*
X9848500Y-10799000D01*
X9848500Y-10719000D02*
X9768500Y-10799000D01*
X9768500Y-11481000D02*
X9848500Y-11561000D01*
X9848500Y-11481000D02*
X9768500Y-11561000D01*
X9768500Y-14809000D02*
X9848500Y-14889000D01*
X9848500Y-14809000D02*
X9768500Y-14889000D01*
X9768500Y-15571000D02*
X9848500Y-15651000D01*
X9848500Y-15571000D02*
X9768500Y-15651000D01*
X10022500Y-7009000D02*
X10102500Y-7089000D01*
X10102500Y-7009000D02*
X10022500Y-7089000D01*
X10022500Y-7771000D02*
X10102500Y-7851000D01*
X10102500Y-7771000D02*
X10022500Y-7851000D01*
X10022500Y-10719000D02*
X10102500Y-10799000D01*
X10102500Y-10719000D02*
X10022500Y-10799000D01*
X10022500Y-11481000D02*
X10102500Y-11561000D01*
X10102500Y-11481000D02*
X10022500Y-11561000D01*
X10022500Y-14809000D02*
X10102500Y-14889000D01*
X10102500Y-14809000D02*
X10022500Y-14889000D01*
X10022500Y-15571000D02*
X10102500Y-15651000D01*
X10102500Y-15571000D02*
X10022500Y-15651000D01*
X10159102Y-5749000D02*
X10239102Y-5829000D01*
X10239102Y-5749000D02*
X10159102Y-5829000D01*
X10159102Y-6511000D02*
X10239102Y-6591000D01*
X10239102Y-6511000D02*
X10159102Y-6591000D01*
X10159102Y-9459000D02*
X10239102Y-9539000D01*
X10239102Y-9459000D02*
X10159102Y-9539000D01*
X10159102Y-10221000D02*
X10239102Y-10301000D01*
X10239102Y-10221000D02*
X10159102Y-10301000D01*
X10159102Y-13549000D02*
X10239102Y-13629000D01*
X10239102Y-13549000D02*
X10159102Y-13629000D01*
X10159102Y-14311000D02*
X10239102Y-14391000D01*
X10239102Y-14311000D02*
X10159102Y-14391000D01*
X10276500Y-7009000D02*
X10356500Y-7089000D01*
X10356500Y-7009000D02*
X10276500Y-7089000D01*
X10276500Y-7771000D02*
X10356500Y-7851000D01*
X10356500Y-7771000D02*
X10276500Y-7851000D01*
X10276500Y-10719000D02*
X10356500Y-10799000D01*
X10356500Y-10719000D02*
X10276500Y-10799000D01*
X10276500Y-11481000D02*
X10356500Y-11561000D01*
X10356500Y-11481000D02*
X10276500Y-11561000D01*
X10276500Y-14809000D02*
X10356500Y-14889000D01*
X10356500Y-14809000D02*
X10276500Y-14889000D01*
X10276500Y-15571000D02*
X10356500Y-15651000D01*
X10356500Y-15571000D02*
X10276500Y-15651000D01*
X10530500Y-7009000D02*
X10610500Y-7089000D01*
X10610500Y-7009000D02*
X10530500Y-7089000D01*
X10530500Y-7771000D02*
X10610500Y-7851000D01*
X10610500Y-7771000D02*
X10530500Y-7851000D01*
X10530500Y-10719000D02*
X10610500Y-10799000D01*
X10610500Y-10719000D02*
X10530500Y-10799000D01*
X10530500Y-11481000D02*
X10610500Y-11561000D01*
X10610500Y-11481000D02*
X10530500Y-11561000D01*
X10530500Y-14809000D02*
X10610500Y-14889000D01*
X10610500Y-14809000D02*
X10530500Y-14889000D01*
X10530500Y-15571000D02*
X10610500Y-15651000D01*
X10610500Y-15571000D02*
X10530500Y-15651000D01*
X10687281Y-5749000D02*
X10767281Y-5829000D01*
X10767281Y-5749000D02*
X10687281Y-5829000D01*
X10687281Y-6511000D02*
X10767281Y-6591000D01*
X10767281Y-6511000D02*
X10687281Y-6591000D01*
X10687281Y-9459000D02*
X10767281Y-9539000D01*
X10767281Y-9459000D02*
X10687281Y-9539000D01*
X10687281Y-10221000D02*
X10767281Y-10301000D01*
X10767281Y-10221000D02*
X10687281Y-10301000D01*
X10687281Y-13549000D02*
X10767281Y-13629000D01*
X10767281Y-13549000D02*
X10687281Y-13629000D01*
X10687281Y-14311000D02*
X10767281Y-14391000D01*
X10767281Y-14311000D02*
X10687281Y-14391000D01*
X10784500Y-7009000D02*
X10864500Y-7089000D01*
X10864500Y-7009000D02*
X10784500Y-7089000D01*
X10784500Y-7771000D02*
X10864500Y-7851000D01*
X10864500Y-7771000D02*
X10784500Y-7851000D01*
X10784500Y-10719000D02*
X10864500Y-10799000D01*
X10864500Y-10719000D02*
X10784500Y-10799000D01*
X10784500Y-11481000D02*
X10864500Y-11561000D01*
X10864500Y-11481000D02*
X10784500Y-11561000D01*
X10784500Y-14809000D02*
X10864500Y-14889000D01*
X10864500Y-14809000D02*
X10784500Y-14889000D01*
X10784500Y-15571000D02*
X10864500Y-15651000D01*
X10864500Y-15571000D02*
X10784500Y-15651000D01*
X11038500Y-7009000D02*
X11118500Y-7089000D01*
X11118500Y-7009000D02*
X11038500Y-7089000D01*
X11038500Y-7771000D02*
X11118500Y-7851000D01*
X11118500Y-7771000D02*
X11038500Y-7851000D01*
X11038500Y-10719000D02*
X11118500Y-10799000D01*
X11118500Y-10719000D02*
X11038500Y-10799000D01*
X11038500Y-11481000D02*
X11118500Y-11561000D01*
X11118500Y-11481000D02*
X11038500Y-11561000D01*
X11038500Y-14809000D02*
X11118500Y-14889000D01*
X11118500Y-14809000D02*
X11038500Y-14889000D01*
X11038500Y-15571000D02*
X11118500Y-15651000D01*
X11118500Y-15571000D02*
X11038500Y-15651000D01*
X11210000Y-5749000D02*
X11290000Y-5829000D01*
X11290000Y-5749000D02*
X11210000Y-5829000D01*
X11210000Y-6511000D02*
X11290000Y-6591000D01*
X11290000Y-6511000D02*
X11210000Y-6591000D01*
X11215461Y-9459000D02*
X11295461Y-9539000D01*
X11295461Y-9459000D02*
X11215461Y-9539000D01*
X11215461Y-10221000D02*
X11295461Y-10301000D01*
X11295461Y-10221000D02*
X11215461Y-10301000D01*
X11215461Y-13549000D02*
X11295461Y-13629000D01*
X11295461Y-13549000D02*
X11215461Y-13629000D01*
X11215461Y-14311000D02*
X11295461Y-14391000D01*
X11295461Y-14311000D02*
X11215461Y-14391000D01*
X11292500Y-7009000D02*
X11372500Y-7089000D01*
X11372500Y-7009000D02*
X11292500Y-7089000D01*
X11292500Y-7771000D02*
X11372500Y-7851000D01*
X11372500Y-7771000D02*
X11292500Y-7851000D01*
X11292500Y-10719000D02*
X11372500Y-10799000D01*
X11372500Y-10719000D02*
X11292500Y-10799000D01*
X11292500Y-11481000D02*
X11372500Y-11561000D01*
X11372500Y-11481000D02*
X11292500Y-11561000D01*
X11292500Y-14809000D02*
X11372500Y-14889000D01*
X11372500Y-14809000D02*
X11292500Y-14889000D01*
X11292500Y-15571000D02*
X11372500Y-15651000D01*
X11372500Y-15571000D02*
X11292500Y-15651000D01*
X11743641Y-5749000D02*
X11823641Y-5829000D01*
X11823641Y-5749000D02*
X11743641Y-5829000D01*
X11743641Y-6511000D02*
X11823641Y-6591000D01*
X11823641Y-6511000D02*
X11743641Y-6591000D01*
X11743641Y-9459000D02*
X11823641Y-9539000D01*
X11823641Y-9459000D02*
X11743641Y-9539000D01*
X11743641Y-10221000D02*
X11823641Y-10301000D01*
X11823641Y-10221000D02*
X11743641Y-10301000D01*
X11743641Y-13549000D02*
X11823641Y-13629000D01*
X11823641Y-13549000D02*
X11743641Y-13629000D01*
X11743641Y-14311000D02*
X11823641Y-14391000D01*
X11823641Y-14311000D02*
X11743641Y-14391000D01*
X11750000Y-7140000D02*
X11830000Y-7220000D01*
X11830000Y-7140000D02*
X11750000Y-7220000D01*
X11750000Y-7640000D02*
X11830000Y-7720000D01*
X11830000Y-7640000D02*
X11750000Y-7720000D01*
X11750000Y-10860000D02*
X11830000Y-10940000D01*
X11830000Y-10860000D02*
X11750000Y-10940000D01*
X11750000Y-11360000D02*
X11830000Y-11440000D01*
X11830000Y-11360000D02*
X11750000Y-11440000D01*
X11750000Y-14940000D02*
X11830000Y-15020000D01*
X11830000Y-14940000D02*
X11750000Y-15020000D01*
X11750000Y-15440000D02*
X11830000Y-15520000D01*
X11830000Y-15440000D02*
X11750000Y-15520000D01*
X12271820Y-5749000D02*
X12351820Y-5829000D01*
X12351820Y-5749000D02*
X12271820Y-5829000D01*
X12271820Y-6511000D02*
X12351820Y-6591000D01*
X12351820Y-6511000D02*
X12271820Y-6591000D01*
X12271820Y-9459000D02*
X12351820Y-9539000D01*
X12351820Y-9459000D02*
X12271820Y-9539000D01*
X12271820Y-10221000D02*
X12351820Y-10301000D01*
X12351820Y-10221000D02*
X12271820Y-10301000D01*
X12271820Y-13549000D02*
X12351820Y-13629000D01*
X12351820Y-13549000D02*
X12271820Y-13629000D01*
X12271820Y-14311000D02*
X12351820Y-14391000D01*
X12351820Y-14311000D02*
X12271820Y-14391000D01*
X12550000Y-4504489D02*
X12630000Y-4584489D01*
X12630000Y-4504489D02*
X12550000Y-4584489D01*
X12550000Y-4704489D02*
X12630000Y-4784489D01*
X12630000Y-4704489D02*
X12550000Y-4784489D01*
X12800000Y-5749000D02*
X12880000Y-5829000D01*
X12880000Y-5749000D02*
X12800000Y-5829000D01*
X12800000Y-6511000D02*
X12880000Y-6591000D01*
X12880000Y-6511000D02*
X12800000Y-6591000D01*
X12800000Y-9459000D02*
X12880000Y-9539000D01*
X12880000Y-9459000D02*
X12800000Y-9539000D01*
X12800000Y-10221000D02*
X12880000Y-10301000D01*
X12880000Y-10221000D02*
X12800000Y-10301000D01*
X12800000Y-13549000D02*
X12880000Y-13629000D01*
X12880000Y-13549000D02*
X12800000Y-13629000D01*
X12800000Y-14311000D02*
X12880000Y-14391000D01*
X12880000Y-14311000D02*
X12800000Y-14391000D01*
X5330000Y-15970000D02*
G75*
G02*
X5230000Y-15970000I-50000J0D01*
G01*
X5230000Y-15970000D02*
G75*
G02*
X5330000Y-15970000I50000J0D01*
G01*
X5350000Y-5200000D02*
G75*
G02*
X5250000Y-5200000I-50000J0D01*
G01*
X5250000Y-5200000D02*
G75*
G02*
X5350000Y-5200000I50000J0D01*
G01*
X5350000Y-5454000D02*
G75*
G02*
X5250000Y-5454000I-50000J0D01*
G01*
X5250000Y-5454000D02*
G75*
G02*
X5350000Y-5454000I50000J0D01*
G01*
X5350000Y-5708000D02*
G75*
G02*
X5250000Y-5708000I-50000J0D01*
G01*
X5250000Y-5708000D02*
G75*
G02*
X5350000Y-5708000I50000J0D01*
G01*
X5350000Y-5962000D02*
G75*
G02*
X5250000Y-5962000I-50000J0D01*
G01*
X5250000Y-5962000D02*
G75*
G02*
X5350000Y-5962000I50000J0D01*
G01*
X5350000Y-6216000D02*
G75*
G02*
X5250000Y-6216000I-50000J0D01*
G01*
X5250000Y-6216000D02*
G75*
G02*
X5350000Y-6216000I50000J0D01*
G01*
X5350000Y-6470000D02*
G75*
G02*
X5250000Y-6470000I-50000J0D01*
G01*
X5250000Y-6470000D02*
G75*
G02*
X5350000Y-6470000I50000J0D01*
G01*
X5350000Y-6724000D02*
G75*
G02*
X5250000Y-6724000I-50000J0D01*
G01*
X5250000Y-6724000D02*
G75*
G02*
X5350000Y-6724000I50000J0D01*
G01*
X5350000Y-6978000D02*
G75*
G02*
X5250000Y-6978000I-50000J0D01*
G01*
X5250000Y-6978000D02*
G75*
G02*
X5350000Y-6978000I50000J0D01*
G01*
X5350000Y-9400000D02*
G75*
G02*
X5250000Y-9400000I-50000J0D01*
G01*
X5250000Y-9400000D02*
G75*
G02*
X5350000Y-9400000I50000J0D01*
G01*
X5350000Y-9654000D02*
G75*
G02*
X5250000Y-9654000I-50000J0D01*
G01*
X5250000Y-9654000D02*
G75*
G02*
X5350000Y-9654000I50000J0D01*
G01*
X5350000Y-9908000D02*
G75*
G02*
X5250000Y-9908000I-50000J0D01*
G01*
X5250000Y-9908000D02*
G75*
G02*
X5350000Y-9908000I50000J0D01*
G01*
X5350000Y-10162000D02*
G75*
G02*
X5250000Y-10162000I-50000J0D01*
G01*
X5250000Y-10162000D02*
G75*
G02*
X5350000Y-10162000I50000J0D01*
G01*
X5350000Y-10416000D02*
G75*
G02*
X5250000Y-10416000I-50000J0D01*
G01*
X5250000Y-10416000D02*
G75*
G02*
X5350000Y-10416000I50000J0D01*
G01*
X5350000Y-10670000D02*
G75*
G02*
X5250000Y-10670000I-50000J0D01*
G01*
X5250000Y-10670000D02*
G75*
G02*
X5350000Y-10670000I50000J0D01*
G01*
X5350000Y-10924000D02*
G75*
G02*
X5250000Y-10924000I-50000J0D01*
G01*
X5250000Y-10924000D02*
G75*
G02*
X5350000Y-10924000I50000J0D01*
G01*
X5350000Y-11178000D02*
G75*
G02*
X5250000Y-11178000I-50000J0D01*
G01*
X5250000Y-11178000D02*
G75*
G02*
X5350000Y-11178000I50000J0D01*
G01*
X5350000Y-13500000D02*
G75*
G02*
X5250000Y-13500000I-50000J0D01*
G01*
X5250000Y-13500000D02*
G75*
G02*
X5350000Y-13500000I50000J0D01*
G01*
X5350000Y-13754000D02*
G75*
G02*
X5250000Y-13754000I-50000J0D01*
G01*
X5250000Y-13754000D02*
G75*
G02*
X5350000Y-13754000I50000J0D01*
G01*
X5350000Y-14008000D02*
G75*
G02*
X5250000Y-14008000I-50000J0D01*
G01*
X5250000Y-14008000D02*
G75*
G02*
X5350000Y-14008000I50000J0D01*
G01*
X5350000Y-14262000D02*
G75*
G02*
X5250000Y-14262000I-50000J0D01*
G01*
X5250000Y-14262000D02*
G75*
G02*
X5350000Y-14262000I50000J0D01*
G01*
X5350000Y-14516000D02*
G75*
G02*
X5250000Y-14516000I-50000J0D01*
G01*
X5250000Y-14516000D02*
G75*
G02*
X5350000Y-14516000I50000J0D01*
G01*
X5350000Y-14770000D02*
G75*
G02*
X5250000Y-14770000I-50000J0D01*
G01*
X5250000Y-14770000D02*
G75*
G02*
X5350000Y-14770000I50000J0D01*
G01*
X5350000Y-15024000D02*
G75*
G02*
X5250000Y-15024000I-50000J0D01*
G01*
X5250000Y-15024000D02*
G75*
G02*
X5350000Y-15024000I50000J0D01*
G01*
X5350000Y-15278000D02*
G75*
G02*
X5250000Y-15278000I-50000J0D01*
G01*
X5250000Y-15278000D02*
G75*
G02*
X5350000Y-15278000I50000J0D01*
G01*
X5465381Y-16715381D02*
G75*
G02*
X5365381Y-16715381I-50000J0D01*
G01*
X5365381Y-16715381D02*
G75*
G02*
X5465381Y-16715381I50000J0D01*
G01*
X5433059Y-16626993D02*
X5326993Y-16733059D01*
X5397703Y-16803769D02*
G75*
G02*
X5326993Y-16733059I-35355J35355D01*
G01*
X5397703Y-16803769D02*
X5503769Y-16697703D01*
X5503769Y-16697703D02*
G75*
G03*
X5433059Y-16626993I-35355J35355D01*
G01*
X5465381Y-18565381D02*
G75*
G02*
X5365381Y-18565381I-50000J0D01*
G01*
X5365381Y-18565381D02*
G75*
G02*
X5465381Y-18565381I50000J0D01*
G01*
X5433059Y-18476993D02*
X5326993Y-18583059D01*
X5397703Y-18653769D02*
G75*
G02*
X5326993Y-18583059I-35355J35355D01*
G01*
X5397703Y-18653769D02*
X5503769Y-18547703D01*
X5503769Y-18547703D02*
G75*
G03*
X5433059Y-18476993I-35355J35355D01*
G01*
X5465381Y-20415381D02*
G75*
G02*
X5365381Y-20415381I-50000J0D01*
G01*
X5365381Y-20415381D02*
G75*
G02*
X5465381Y-20415381I50000J0D01*
G01*
X5433059Y-20326993D02*
X5326993Y-20433059D01*
X5397703Y-20503769D02*
G75*
G02*
X5326993Y-20433059I-35355J35355D01*
G01*
X5397703Y-20503769D02*
X5503769Y-20397703D01*
X5503769Y-20397703D02*
G75*
G03*
X5433059Y-20326993I-35355J35355D01*
G01*
X5950000Y-6446000D02*
G75*
G02*
X5850000Y-6446000I-50000J0D01*
G01*
X5850000Y-6446000D02*
G75*
G02*
X5950000Y-6446000I50000J0D01*
G01*
X5950000Y-6700000D02*
G75*
G02*
X5850000Y-6700000I-50000J0D01*
G01*
X5850000Y-6700000D02*
G75*
G02*
X5950000Y-6700000I50000J0D01*
G01*
X5950000Y-10646000D02*
G75*
G02*
X5850000Y-10646000I-50000J0D01*
G01*
X5850000Y-10646000D02*
G75*
G02*
X5950000Y-10646000I50000J0D01*
G01*
X5950000Y-10900000D02*
G75*
G02*
X5850000Y-10900000I-50000J0D01*
G01*
X5850000Y-10900000D02*
G75*
G02*
X5950000Y-10900000I50000J0D01*
G01*
X5950000Y-14746000D02*
G75*
G02*
X5850000Y-14746000I-50000J0D01*
G01*
X5850000Y-14746000D02*
G75*
G02*
X5950000Y-14746000I50000J0D01*
G01*
X5950000Y-15000000D02*
G75*
G02*
X5850000Y-15000000I-50000J0D01*
G01*
X5850000Y-15000000D02*
G75*
G02*
X5950000Y-15000000I50000J0D01*
G01*
X6175000Y-16525000D02*
G75*
G02*
X6075000Y-16525000I-50000J0D01*
G01*
X6075000Y-16525000D02*
G75*
G02*
X6175000Y-16525000I50000J0D01*
G01*
X6050000Y-16575000D02*
X6200000Y-16575000D01*
X6200000Y-16475000D02*
G75*
G02*
X6200000Y-16575000I0J-50000D01*
G01*
X6200000Y-16475000D02*
X6050000Y-16475000D01*
X6050000Y-16475000D02*
G75*
G03*
X6050000Y-16575000I0J-50000D01*
G01*
X6175000Y-18375000D02*
G75*
G02*
X6075000Y-18375000I-50000J0D01*
G01*
X6075000Y-18375000D02*
G75*
G02*
X6175000Y-18375000I50000J0D01*
G01*
X6050000Y-18425000D02*
X6200000Y-18425000D01*
X6200000Y-18325000D02*
G75*
G02*
X6200000Y-18425000I0J-50000D01*
G01*
X6200000Y-18325000D02*
X6050000Y-18325000D01*
X6050000Y-18325000D02*
G75*
G03*
X6050000Y-18425000I0J-50000D01*
G01*
X6175000Y-20225000D02*
G75*
G02*
X6075000Y-20225000I-50000J0D01*
G01*
X6075000Y-20225000D02*
G75*
G02*
X6175000Y-20225000I50000J0D01*
G01*
X6050000Y-20275000D02*
X6200000Y-20275000D01*
X6200000Y-20175000D02*
G75*
G02*
X6200000Y-20275000I0J-50000D01*
G01*
X6200000Y-20175000D02*
X6050000Y-20175000D01*
X6050000Y-20175000D02*
G75*
G03*
X6050000Y-20275000I0J-50000D01*
G01*
X6204000Y-6446000D02*
G75*
G02*
X6104000Y-6446000I-50000J0D01*
G01*
X6104000Y-6446000D02*
G75*
G02*
X6204000Y-6446000I50000J0D01*
G01*
X6204000Y-6700000D02*
G75*
G02*
X6104000Y-6700000I-50000J0D01*
G01*
X6104000Y-6700000D02*
G75*
G02*
X6204000Y-6700000I50000J0D01*
G01*
X6204000Y-10646000D02*
G75*
G02*
X6104000Y-10646000I-50000J0D01*
G01*
X6104000Y-10646000D02*
G75*
G02*
X6204000Y-10646000I50000J0D01*
G01*
X6204000Y-10900000D02*
G75*
G02*
X6104000Y-10900000I-50000J0D01*
G01*
X6104000Y-10900000D02*
G75*
G02*
X6204000Y-10900000I50000J0D01*
G01*
X6204000Y-14746000D02*
G75*
G02*
X6104000Y-14746000I-50000J0D01*
G01*
X6104000Y-14746000D02*
G75*
G02*
X6204000Y-14746000I50000J0D01*
G01*
X6204000Y-15000000D02*
G75*
G02*
X6104000Y-15000000I-50000J0D01*
G01*
X6104000Y-15000000D02*
G75*
G02*
X6204000Y-15000000I50000J0D01*
G01*
X6402000Y-15714750D02*
G75*
G02*
X6302000Y-15714750I-50000J0D01*
G01*
X6302000Y-15714750D02*
G75*
G02*
X6402000Y-15714750I50000J0D01*
G01*
X6402000Y-15968750D02*
G75*
G02*
X6302000Y-15968750I-50000J0D01*
G01*
X6302000Y-15968750D02*
G75*
G02*
X6402000Y-15968750I50000J0D01*
G01*
X6458000Y-6446000D02*
G75*
G02*
X6358000Y-6446000I-50000J0D01*
G01*
X6358000Y-6446000D02*
G75*
G02*
X6458000Y-6446000I50000J0D01*
G01*
X6458000Y-6700000D02*
G75*
G02*
X6358000Y-6700000I-50000J0D01*
G01*
X6358000Y-6700000D02*
G75*
G02*
X6458000Y-6700000I50000J0D01*
G01*
X6458000Y-10646000D02*
G75*
G02*
X6358000Y-10646000I-50000J0D01*
G01*
X6358000Y-10646000D02*
G75*
G02*
X6458000Y-10646000I50000J0D01*
G01*
X6458000Y-10900000D02*
G75*
G02*
X6358000Y-10900000I-50000J0D01*
G01*
X6358000Y-10900000D02*
G75*
G02*
X6458000Y-10900000I50000J0D01*
G01*
X6458000Y-14746000D02*
G75*
G02*
X6358000Y-14746000I-50000J0D01*
G01*
X6358000Y-14746000D02*
G75*
G02*
X6458000Y-14746000I50000J0D01*
G01*
X6458000Y-15000000D02*
G75*
G02*
X6358000Y-15000000I-50000J0D01*
G01*
X6358000Y-15000000D02*
G75*
G02*
X6458000Y-15000000I50000J0D01*
G01*
X6575000Y-17125000D02*
G75*
G02*
X6475000Y-17125000I-50000J0D01*
G01*
X6475000Y-17125000D02*
G75*
G02*
X6575000Y-17125000I50000J0D01*
G01*
X6475000Y-17050000D02*
X6475000Y-17200000D01*
X6575000Y-17200000D02*
G75*
G02*
X6475000Y-17200000I-50000J0D01*
G01*
X6575000Y-17200000D02*
X6575000Y-17050000D01*
X6575000Y-17050000D02*
G75*
G03*
X6475000Y-17050000I-50000J0D01*
G01*
X6575000Y-18975000D02*
G75*
G02*
X6475000Y-18975000I-50000J0D01*
G01*
X6475000Y-18975000D02*
G75*
G02*
X6575000Y-18975000I50000J0D01*
G01*
X6475000Y-18900000D02*
X6475000Y-19050000D01*
X6575000Y-19050000D02*
G75*
G02*
X6475000Y-19050000I-50000J0D01*
G01*
X6575000Y-19050000D02*
X6575000Y-18900000D01*
X6575000Y-18900000D02*
G75*
G03*
X6475000Y-18900000I-50000J0D01*
G01*
X6575000Y-20825000D02*
G75*
G02*
X6475000Y-20825000I-50000J0D01*
G01*
X6475000Y-20825000D02*
G75*
G02*
X6575000Y-20825000I50000J0D01*
G01*
X6475000Y-20750000D02*
X6475000Y-20900000D01*
X6575000Y-20900000D02*
G75*
G02*
X6475000Y-20900000I-50000J0D01*
G01*
X6575000Y-20900000D02*
X6575000Y-20750000D01*
X6575000Y-20750000D02*
G75*
G03*
X6475000Y-20750000I-50000J0D01*
G01*
X6656000Y-15714750D02*
G75*
G02*
X6556000Y-15714750I-50000J0D01*
G01*
X6556000Y-15714750D02*
G75*
G02*
X6656000Y-15714750I50000J0D01*
G01*
X6656000Y-15968750D02*
G75*
G02*
X6556000Y-15968750I-50000J0D01*
G01*
X6556000Y-15968750D02*
G75*
G02*
X6656000Y-15968750I50000J0D01*
G01*
X6910000Y-15714750D02*
G75*
G02*
X6810000Y-15714750I-50000J0D01*
G01*
X6810000Y-15714750D02*
G75*
G02*
X6910000Y-15714750I50000J0D01*
G01*
X6910000Y-15968750D02*
G75*
G02*
X6810000Y-15968750I-50000J0D01*
G01*
X6810000Y-15968750D02*
G75*
G02*
X6910000Y-15968750I50000J0D01*
G01*
X7050000Y-6446000D02*
G75*
G02*
X6950000Y-6446000I-50000J0D01*
G01*
X6950000Y-6446000D02*
G75*
G02*
X7050000Y-6446000I50000J0D01*
G01*
X7050000Y-6700000D02*
G75*
G02*
X6950000Y-6700000I-50000J0D01*
G01*
X6950000Y-6700000D02*
G75*
G02*
X7050000Y-6700000I50000J0D01*
G01*
X7050000Y-10646000D02*
G75*
G02*
X6950000Y-10646000I-50000J0D01*
G01*
X6950000Y-10646000D02*
G75*
G02*
X7050000Y-10646000I50000J0D01*
G01*
X7050000Y-10900000D02*
G75*
G02*
X6950000Y-10900000I-50000J0D01*
G01*
X6950000Y-10900000D02*
G75*
G02*
X7050000Y-10900000I50000J0D01*
G01*
X7050000Y-14746000D02*
G75*
G02*
X6950000Y-14746000I-50000J0D01*
G01*
X6950000Y-14746000D02*
G75*
G02*
X7050000Y-14746000I50000J0D01*
G01*
X7050000Y-15000000D02*
G75*
G02*
X6950000Y-15000000I-50000J0D01*
G01*
X6950000Y-15000000D02*
G75*
G02*
X7050000Y-15000000I50000J0D01*
G01*
X7115381Y-16715381D02*
G75*
G02*
X7015381Y-16715381I-50000J0D01*
G01*
X7015381Y-16715381D02*
G75*
G02*
X7115381Y-16715381I50000J0D01*
G01*
X7083059Y-16626993D02*
X6976993Y-16733059D01*
X7047703Y-16803769D02*
G75*
G02*
X6976993Y-16733059I-35355J35355D01*
G01*
X7047703Y-16803769D02*
X7153769Y-16697703D01*
X7153769Y-16697703D02*
G75*
G03*
X7083059Y-16626993I-35355J35355D01*
G01*
X7115381Y-18565381D02*
G75*
G02*
X7015381Y-18565381I-50000J0D01*
G01*
X7015381Y-18565381D02*
G75*
G02*
X7115381Y-18565381I50000J0D01*
G01*
X7083059Y-18476993D02*
X6976993Y-18583059D01*
X7047703Y-18653769D02*
G75*
G02*
X6976993Y-18583059I-35355J35355D01*
G01*
X7047703Y-18653769D02*
X7153769Y-18547703D01*
X7153769Y-18547703D02*
G75*
G03*
X7083059Y-18476993I-35355J35355D01*
G01*
X7115381Y-20415381D02*
G75*
G02*
X7015381Y-20415381I-50000J0D01*
G01*
X7015381Y-20415381D02*
G75*
G02*
X7115381Y-20415381I50000J0D01*
G01*
X7083059Y-20326993D02*
X6976993Y-20433059D01*
X7047703Y-20503769D02*
G75*
G02*
X6976993Y-20433059I-35355J35355D01*
G01*
X7047703Y-20503769D02*
X7153769Y-20397703D01*
X7153769Y-20397703D02*
G75*
G03*
X7083059Y-20326993I-35355J35355D01*
G01*
X7164000Y-15714750D02*
G75*
G02*
X7064000Y-15714750I-50000J0D01*
G01*
X7064000Y-15714750D02*
G75*
G02*
X7164000Y-15714750I50000J0D01*
G01*
X7164000Y-15968750D02*
G75*
G02*
X7064000Y-15968750I-50000J0D01*
G01*
X7064000Y-15968750D02*
G75*
G02*
X7164000Y-15968750I50000J0D01*
G01*
X7304000Y-6446000D02*
G75*
G02*
X7204000Y-6446000I-50000J0D01*
G01*
X7204000Y-6446000D02*
G75*
G02*
X7304000Y-6446000I50000J0D01*
G01*
X7304000Y-6700000D02*
G75*
G02*
X7204000Y-6700000I-50000J0D01*
G01*
X7204000Y-6700000D02*
G75*
G02*
X7304000Y-6700000I50000J0D01*
G01*
X7304000Y-10646000D02*
G75*
G02*
X7204000Y-10646000I-50000J0D01*
G01*
X7204000Y-10646000D02*
G75*
G02*
X7304000Y-10646000I50000J0D01*
G01*
X7304000Y-10900000D02*
G75*
G02*
X7204000Y-10900000I-50000J0D01*
G01*
X7204000Y-10900000D02*
G75*
G02*
X7304000Y-10900000I50000J0D01*
G01*
X7304000Y-14746000D02*
G75*
G02*
X7204000Y-14746000I-50000J0D01*
G01*
X7204000Y-14746000D02*
G75*
G02*
X7304000Y-14746000I50000J0D01*
G01*
X7304000Y-15000000D02*
G75*
G02*
X7204000Y-15000000I-50000J0D01*
G01*
X7204000Y-15000000D02*
G75*
G02*
X7304000Y-15000000I50000J0D01*
G01*
X7418000Y-15714750D02*
G75*
G02*
X7318000Y-15714750I-50000J0D01*
G01*
X7318000Y-15714750D02*
G75*
G02*
X7418000Y-15714750I50000J0D01*
G01*
X7418000Y-15968750D02*
G75*
G02*
X7318000Y-15968750I-50000J0D01*
G01*
X7318000Y-15968750D02*
G75*
G02*
X7418000Y-15968750I50000J0D01*
G01*
X7558000Y-6446000D02*
G75*
G02*
X7458000Y-6446000I-50000J0D01*
G01*
X7458000Y-6446000D02*
G75*
G02*
X7558000Y-6446000I50000J0D01*
G01*
X7558000Y-6700000D02*
G75*
G02*
X7458000Y-6700000I-50000J0D01*
G01*
X7458000Y-6700000D02*
G75*
G02*
X7558000Y-6700000I50000J0D01*
G01*
X7558000Y-10646000D02*
G75*
G02*
X7458000Y-10646000I-50000J0D01*
G01*
X7458000Y-10646000D02*
G75*
G02*
X7558000Y-10646000I50000J0D01*
G01*
X7558000Y-10900000D02*
G75*
G02*
X7458000Y-10900000I-50000J0D01*
G01*
X7458000Y-10900000D02*
G75*
G02*
X7558000Y-10900000I50000J0D01*
G01*
X7558000Y-14746000D02*
G75*
G02*
X7458000Y-14746000I-50000J0D01*
G01*
X7458000Y-14746000D02*
G75*
G02*
X7558000Y-14746000I50000J0D01*
G01*
X7558000Y-15000000D02*
G75*
G02*
X7458000Y-15000000I-50000J0D01*
G01*
X7458000Y-15000000D02*
G75*
G02*
X7558000Y-15000000I50000J0D01*
G01*
X7825000Y-16525000D02*
G75*
G02*
X7725000Y-16525000I-50000J0D01*
G01*
X7725000Y-16525000D02*
G75*
G02*
X7825000Y-16525000I50000J0D01*
G01*
X7700000Y-16575000D02*
X7850000Y-16575000D01*
X7850000Y-16475000D02*
G75*
G02*
X7850000Y-16575000I0J-50000D01*
G01*
X7850000Y-16475000D02*
X7700000Y-16475000D01*
X7700000Y-16475000D02*
G75*
G03*
X7700000Y-16575000I0J-50000D01*
G01*
X7825000Y-18375000D02*
G75*
G02*
X7725000Y-18375000I-50000J0D01*
G01*
X7725000Y-18375000D02*
G75*
G02*
X7825000Y-18375000I50000J0D01*
G01*
X7700000Y-18425000D02*
X7850000Y-18425000D01*
X7850000Y-18325000D02*
G75*
G02*
X7850000Y-18425000I0J-50000D01*
G01*
X7850000Y-18325000D02*
X7700000Y-18325000D01*
X7700000Y-18325000D02*
G75*
G03*
X7700000Y-18425000I0J-50000D01*
G01*
X7825000Y-20225000D02*
G75*
G02*
X7725000Y-20225000I-50000J0D01*
G01*
X7725000Y-20225000D02*
G75*
G02*
X7825000Y-20225000I50000J0D01*
G01*
X7700000Y-20275000D02*
X7850000Y-20275000D01*
X7850000Y-20175000D02*
G75*
G02*
X7850000Y-20275000I0J-50000D01*
G01*
X7850000Y-20175000D02*
X7700000Y-20175000D01*
X7700000Y-20175000D02*
G75*
G03*
X7700000Y-20275000I0J-50000D01*
G01*
X8225000Y-17125000D02*
G75*
G02*
X8125000Y-17125000I-50000J0D01*
G01*
X8125000Y-17125000D02*
G75*
G02*
X8225000Y-17125000I50000J0D01*
G01*
X8125000Y-17050000D02*
X8125000Y-17200000D01*
X8225000Y-17200000D02*
G75*
G02*
X8125000Y-17200000I-50000J0D01*
G01*
X8225000Y-17200000D02*
X8225000Y-17050000D01*
X8225000Y-17050000D02*
G75*
G03*
X8125000Y-17050000I-50000J0D01*
G01*
X8225000Y-18975000D02*
G75*
G02*
X8125000Y-18975000I-50000J0D01*
G01*
X8125000Y-18975000D02*
G75*
G02*
X8225000Y-18975000I50000J0D01*
G01*
X8125000Y-18900000D02*
X8125000Y-19050000D01*
X8225000Y-19050000D02*
G75*
G02*
X8125000Y-19050000I-50000J0D01*
G01*
X8225000Y-19050000D02*
X8225000Y-18900000D01*
X8225000Y-18900000D02*
G75*
G03*
X8125000Y-18900000I-50000J0D01*
G01*
X8225000Y-20825000D02*
G75*
G02*
X8125000Y-20825000I-50000J0D01*
G01*
X8125000Y-20825000D02*
G75*
G02*
X8225000Y-20825000I50000J0D01*
G01*
X8125000Y-20750000D02*
X8125000Y-20900000D01*
X8225000Y-20900000D02*
G75*
G02*
X8125000Y-20900000I-50000J0D01*
G01*
X8225000Y-20900000D02*
X8225000Y-20750000D01*
X8225000Y-20750000D02*
G75*
G03*
X8125000Y-20750000I-50000J0D01*
G01*
X8765381Y-16715381D02*
G75*
G02*
X8665381Y-16715381I-50000J0D01*
G01*
X8665381Y-16715381D02*
G75*
G02*
X8765381Y-16715381I50000J0D01*
G01*
X8733059Y-16626993D02*
X8626993Y-16733059D01*
X8697703Y-16803769D02*
G75*
G02*
X8626993Y-16733059I-35355J35355D01*
G01*
X8697703Y-16803769D02*
X8803769Y-16697703D01*
X8803769Y-16697703D02*
G75*
G03*
X8733059Y-16626993I-35355J35355D01*
G01*
X8765381Y-18565381D02*
G75*
G02*
X8665381Y-18565381I-50000J0D01*
G01*
X8665381Y-18565381D02*
G75*
G02*
X8765381Y-18565381I50000J0D01*
G01*
X8733059Y-18476993D02*
X8626993Y-18583059D01*
X8697703Y-18653769D02*
G75*
G02*
X8626993Y-18583059I-35355J35355D01*
G01*
X8697703Y-18653769D02*
X8803769Y-18547703D01*
X8803769Y-18547703D02*
G75*
G03*
X8733059Y-18476993I-35355J35355D01*
G01*
X8765381Y-20415381D02*
G75*
G02*
X8665381Y-20415381I-50000J0D01*
G01*
X8665381Y-20415381D02*
G75*
G02*
X8765381Y-20415381I50000J0D01*
G01*
X8733059Y-20326993D02*
X8626993Y-20433059D01*
X8697703Y-20503769D02*
G75*
G02*
X8626993Y-20433059I-35355J35355D01*
G01*
X8697703Y-20503769D02*
X8803769Y-20397703D01*
X8803769Y-20397703D02*
G75*
G03*
X8733059Y-20326993I-35355J35355D01*
G01*
X9161000Y-4621250D02*
G75*
G02*
X9061000Y-4621250I-50000J0D01*
G01*
X9061000Y-4621250D02*
G75*
G02*
X9161000Y-4621250I50000J0D01*
G01*
X9161000Y-4875250D02*
G75*
G02*
X9061000Y-4875250I-50000J0D01*
G01*
X9061000Y-4875250D02*
G75*
G02*
X9161000Y-4875250I50000J0D01*
G01*
X9415000Y-4621250D02*
G75*
G02*
X9315000Y-4621250I-50000J0D01*
G01*
X9315000Y-4621250D02*
G75*
G02*
X9415000Y-4621250I50000J0D01*
G01*
X9415000Y-4875250D02*
G75*
G02*
X9315000Y-4875250I-50000J0D01*
G01*
X9315000Y-4875250D02*
G75*
G02*
X9415000Y-4875250I50000J0D01*
G01*
X9417500Y-5392500D02*
G75*
G02*
X9317500Y-5392500I-50000J0D01*
G01*
X9317500Y-5392500D02*
G75*
G02*
X9417500Y-5392500I50000J0D01*
G01*
X9475000Y-16525000D02*
G75*
G02*
X9375000Y-16525000I-50000J0D01*
G01*
X9375000Y-16525000D02*
G75*
G02*
X9475000Y-16525000I50000J0D01*
G01*
X9350000Y-16575000D02*
X9500000Y-16575000D01*
X9500000Y-16475000D02*
G75*
G02*
X9500000Y-16575000I0J-50000D01*
G01*
X9500000Y-16475000D02*
X9350000Y-16475000D01*
X9350000Y-16475000D02*
G75*
G03*
X9350000Y-16575000I0J-50000D01*
G01*
X9475000Y-18375000D02*
G75*
G02*
X9375000Y-18375000I-50000J0D01*
G01*
X9375000Y-18375000D02*
G75*
G02*
X9475000Y-18375000I50000J0D01*
G01*
X9350000Y-18425000D02*
X9500000Y-18425000D01*
X9500000Y-18325000D02*
G75*
G02*
X9500000Y-18425000I0J-50000D01*
G01*
X9500000Y-18325000D02*
X9350000Y-18325000D01*
X9350000Y-18325000D02*
G75*
G03*
X9350000Y-18425000I0J-50000D01*
G01*
X9475000Y-20225000D02*
G75*
G02*
X9375000Y-20225000I-50000J0D01*
G01*
X9375000Y-20225000D02*
G75*
G02*
X9475000Y-20225000I50000J0D01*
G01*
X9350000Y-20275000D02*
X9500000Y-20275000D01*
X9500000Y-20175000D02*
G75*
G02*
X9500000Y-20275000I0J-50000D01*
G01*
X9500000Y-20175000D02*
X9350000Y-20175000D01*
X9350000Y-20175000D02*
G75*
G03*
X9350000Y-20275000I0J-50000D01*
G01*
X9669000Y-4621250D02*
G75*
G02*
X9569000Y-4621250I-50000J0D01*
G01*
X9569000Y-4621250D02*
G75*
G02*
X9669000Y-4621250I50000J0D01*
G01*
X9669000Y-4875250D02*
G75*
G02*
X9569000Y-4875250I-50000J0D01*
G01*
X9569000Y-4875250D02*
G75*
G02*
X9669000Y-4875250I50000J0D01*
G01*
X9671500Y-5392500D02*
G75*
G02*
X9571500Y-5392500I-50000J0D01*
G01*
X9571500Y-5392500D02*
G75*
G02*
X9671500Y-5392500I50000J0D01*
G01*
X9875000Y-17125000D02*
G75*
G02*
X9775000Y-17125000I-50000J0D01*
G01*
X9775000Y-17125000D02*
G75*
G02*
X9875000Y-17125000I50000J0D01*
G01*
X9775000Y-17050000D02*
X9775000Y-17200000D01*
X9875000Y-17200000D02*
G75*
G02*
X9775000Y-17200000I-50000J0D01*
G01*
X9875000Y-17200000D02*
X9875000Y-17050000D01*
X9875000Y-17050000D02*
G75*
G03*
X9775000Y-17050000I-50000J0D01*
G01*
X9875000Y-18975000D02*
G75*
G02*
X9775000Y-18975000I-50000J0D01*
G01*
X9775000Y-18975000D02*
G75*
G02*
X9875000Y-18975000I50000J0D01*
G01*
X9775000Y-18900000D02*
X9775000Y-19050000D01*
X9875000Y-19050000D02*
G75*
G02*
X9775000Y-19050000I-50000J0D01*
G01*
X9875000Y-19050000D02*
X9875000Y-18900000D01*
X9875000Y-18900000D02*
G75*
G03*
X9775000Y-18900000I-50000J0D01*
G01*
X9875000Y-20825000D02*
G75*
G02*
X9775000Y-20825000I-50000J0D01*
G01*
X9775000Y-20825000D02*
G75*
G02*
X9875000Y-20825000I50000J0D01*
G01*
X9775000Y-20750000D02*
X9775000Y-20900000D01*
X9875000Y-20900000D02*
G75*
G02*
X9775000Y-20900000I-50000J0D01*
G01*
X9875000Y-20900000D02*
X9875000Y-20750000D01*
X9875000Y-20750000D02*
G75*
G03*
X9775000Y-20750000I-50000J0D01*
G01*
X9923000Y-4621250D02*
G75*
G02*
X9823000Y-4621250I-50000J0D01*
G01*
X9823000Y-4621250D02*
G75*
G02*
X9923000Y-4621250I50000J0D01*
G01*
X9923000Y-4875250D02*
G75*
G02*
X9823000Y-4875250I-50000J0D01*
G01*
X9823000Y-4875250D02*
G75*
G02*
X9923000Y-4875250I50000J0D01*
G01*
X9925500Y-5392500D02*
G75*
G02*
X9825500Y-5392500I-50000J0D01*
G01*
X9825500Y-5392500D02*
G75*
G02*
X9925500Y-5392500I50000J0D01*
G01*
X10177000Y-4621250D02*
G75*
G02*
X10077000Y-4621250I-50000J0D01*
G01*
X10077000Y-4621250D02*
G75*
G02*
X10177000Y-4621250I50000J0D01*
G01*
X10177000Y-4875250D02*
G75*
G02*
X10077000Y-4875250I-50000J0D01*
G01*
X10077000Y-4875250D02*
G75*
G02*
X10177000Y-4875250I50000J0D01*
G01*
X10179500Y-5392500D02*
G75*
G02*
X10079500Y-5392500I-50000J0D01*
G01*
X10079500Y-5392500D02*
G75*
G02*
X10179500Y-5392500I50000J0D01*
G01*
X10415381Y-16715381D02*
G75*
G02*
X10315381Y-16715381I-50000J0D01*
G01*
X10315381Y-16715381D02*
G75*
G02*
X10415381Y-16715381I50000J0D01*
G01*
X10383059Y-16626993D02*
X10276993Y-16733059D01*
X10347703Y-16803769D02*
G75*
G02*
X10276993Y-16733059I-35355J35355D01*
G01*
X10347703Y-16803769D02*
X10453769Y-16697703D01*
X10453769Y-16697703D02*
G75*
G03*
X10383059Y-16626993I-35355J35355D01*
G01*
X10415381Y-18565381D02*
G75*
G02*
X10315381Y-18565381I-50000J0D01*
G01*
X10315381Y-18565381D02*
G75*
G02*
X10415381Y-18565381I50000J0D01*
G01*
X10383059Y-18476993D02*
X10276993Y-18583059D01*
X10347703Y-18653769D02*
G75*
G02*
X10276993Y-18583059I-35355J35355D01*
G01*
X10347703Y-18653769D02*
X10453769Y-18547703D01*
X10453769Y-18547703D02*
G75*
G03*
X10383059Y-18476993I-35355J35355D01*
G01*
X10415381Y-20415381D02*
G75*
G02*
X10315381Y-20415381I-50000J0D01*
G01*
X10315381Y-20415381D02*
G75*
G02*
X10415381Y-20415381I50000J0D01*
G01*
X10383059Y-20326993D02*
X10276993Y-20433059D01*
X10347703Y-20503769D02*
G75*
G02*
X10276993Y-20433059I-35355J35355D01*
G01*
X10347703Y-20503769D02*
X10453769Y-20397703D01*
X10453769Y-20397703D02*
G75*
G03*
X10383059Y-20326993I-35355J35355D01*
G01*
X10431000Y-4621250D02*
G75*
G02*
X10331000Y-4621250I-50000J0D01*
G01*
X10331000Y-4621250D02*
G75*
G02*
X10431000Y-4621250I50000J0D01*
G01*
X10431000Y-4875250D02*
G75*
G02*
X10331000Y-4875250I-50000J0D01*
G01*
X10331000Y-4875250D02*
G75*
G02*
X10431000Y-4875250I50000J0D01*
G01*
X10433500Y-5392500D02*
G75*
G02*
X10333500Y-5392500I-50000J0D01*
G01*
X10333500Y-5392500D02*
G75*
G02*
X10433500Y-5392500I50000J0D01*
G01*
X10685000Y-4621250D02*
G75*
G02*
X10585000Y-4621250I-50000J0D01*
G01*
X10585000Y-4621250D02*
G75*
G02*
X10685000Y-4621250I50000J0D01*
G01*
X10685000Y-4875250D02*
G75*
G02*
X10585000Y-4875250I-50000J0D01*
G01*
X10585000Y-4875250D02*
G75*
G02*
X10685000Y-4875250I50000J0D01*
G01*
X10687500Y-5392500D02*
G75*
G02*
X10587500Y-5392500I-50000J0D01*
G01*
X10587500Y-5392500D02*
G75*
G02*
X10687500Y-5392500I50000J0D01*
G01*
X10939000Y-4621250D02*
G75*
G02*
X10839000Y-4621250I-50000J0D01*
G01*
X10839000Y-4621250D02*
G75*
G02*
X10939000Y-4621250I50000J0D01*
G01*
X10939000Y-4875250D02*
G75*
G02*
X10839000Y-4875250I-50000J0D01*
G01*
X10839000Y-4875250D02*
G75*
G02*
X10939000Y-4875250I50000J0D01*
G01*
X11125000Y-16525000D02*
G75*
G02*
X11025000Y-16525000I-50000J0D01*
G01*
X11025000Y-16525000D02*
G75*
G02*
X11125000Y-16525000I50000J0D01*
G01*
X11000000Y-16575000D02*
X11150000Y-16575000D01*
X11150000Y-16475000D02*
G75*
G02*
X11150000Y-16575000I0J-50000D01*
G01*
X11150000Y-16475000D02*
X11000000Y-16475000D01*
X11000000Y-16475000D02*
G75*
G03*
X11000000Y-16575000I0J-50000D01*
G01*
X11125000Y-18375000D02*
G75*
G02*
X11025000Y-18375000I-50000J0D01*
G01*
X11025000Y-18375000D02*
G75*
G02*
X11125000Y-18375000I50000J0D01*
G01*
X11000000Y-18425000D02*
X11150000Y-18425000D01*
X11150000Y-18325000D02*
G75*
G02*
X11150000Y-18425000I0J-50000D01*
G01*
X11150000Y-18325000D02*
X11000000Y-18325000D01*
X11000000Y-18325000D02*
G75*
G03*
X11000000Y-18425000I0J-50000D01*
G01*
X11125000Y-20225000D02*
G75*
G02*
X11025000Y-20225000I-50000J0D01*
G01*
X11025000Y-20225000D02*
G75*
G02*
X11125000Y-20225000I50000J0D01*
G01*
X11000000Y-20275000D02*
X11150000Y-20275000D01*
X11150000Y-20175000D02*
G75*
G02*
X11150000Y-20275000I0J-50000D01*
G01*
X11150000Y-20175000D02*
X11000000Y-20175000D01*
X11000000Y-20175000D02*
G75*
G03*
X11000000Y-20275000I0J-50000D01*
G01*
X11525000Y-17125000D02*
G75*
G02*
X11425000Y-17125000I-50000J0D01*
G01*
X11425000Y-17125000D02*
G75*
G02*
X11525000Y-17125000I50000J0D01*
G01*
X11425000Y-17050000D02*
X11425000Y-17200000D01*
X11525000Y-17200000D02*
G75*
G02*
X11425000Y-17200000I-50000J0D01*
G01*
X11525000Y-17200000D02*
X11525000Y-17050000D01*
X11525000Y-17050000D02*
G75*
G03*
X11425000Y-17050000I-50000J0D01*
G01*
X11525000Y-18975000D02*
G75*
G02*
X11425000Y-18975000I-50000J0D01*
G01*
X11425000Y-18975000D02*
G75*
G02*
X11525000Y-18975000I50000J0D01*
G01*
X11425000Y-18900000D02*
X11425000Y-19050000D01*
X11525000Y-19050000D02*
G75*
G02*
X11425000Y-19050000I-50000J0D01*
G01*
X11525000Y-19050000D02*
X11525000Y-18900000D01*
X11525000Y-18900000D02*
G75*
G03*
X11425000Y-18900000I-50000J0D01*
G01*
X11525000Y-20825000D02*
G75*
G02*
X11425000Y-20825000I-50000J0D01*
G01*
X11425000Y-20825000D02*
G75*
G02*
X11525000Y-20825000I50000J0D01*
G01*
X11425000Y-20750000D02*
X11425000Y-20900000D01*
X11525000Y-20900000D02*
G75*
G02*
X11425000Y-20900000I-50000J0D01*
G01*
X11525000Y-20900000D02*
X11525000Y-20750000D01*
X11525000Y-20750000D02*
G75*
G03*
X11425000Y-20750000I-50000J0D01*
G01*
X12065381Y-16715381D02*
G75*
G02*
X11965381Y-16715381I-50000J0D01*
G01*
X11965381Y-16715381D02*
G75*
G02*
X12065381Y-16715381I50000J0D01*
G01*
X12033059Y-16626993D02*
X11926993Y-16733059D01*
X11997703Y-16803769D02*
G75*
G02*
X11926993Y-16733059I-35355J35355D01*
G01*
X11997703Y-16803769D02*
X12103769Y-16697703D01*
X12103769Y-16697703D02*
G75*
G03*
X12033059Y-16626993I-35355J35355D01*
G01*
X12065381Y-18565381D02*
G75*
G02*
X11965381Y-18565381I-50000J0D01*
G01*
X11965381Y-18565381D02*
G75*
G02*
X12065381Y-18565381I50000J0D01*
G01*
X12033059Y-18476993D02*
X11926993Y-18583059D01*
X11997703Y-18653769D02*
G75*
G02*
X11926993Y-18583059I-35355J35355D01*
G01*
X11997703Y-18653769D02*
X12103769Y-18547703D01*
X12103769Y-18547703D02*
G75*
G03*
X12033059Y-18476993I-35355J35355D01*
G01*
X12065381Y-20415381D02*
G75*
G02*
X11965381Y-20415381I-50000J0D01*
G01*
X11965381Y-20415381D02*
G75*
G02*
X12065381Y-20415381I50000J0D01*
G01*
X12033059Y-20326993D02*
X11926993Y-20433059D01*
X11997703Y-20503769D02*
G75*
G02*
X11926993Y-20433059I-35355J35355D01*
G01*
X11997703Y-20503769D02*
X12103769Y-20397703D01*
X12103769Y-20397703D02*
G75*
G03*
X12033059Y-20326993I-35355J35355D01*
G01*
X12775000Y-16525000D02*
G75*
G02*
X12675000Y-16525000I-50000J0D01*
G01*
X12675000Y-16525000D02*
G75*
G02*
X12775000Y-16525000I50000J0D01*
G01*
X12650000Y-16575000D02*
X12800000Y-16575000D01*
X12800000Y-16475000D02*
G75*
G02*
X12800000Y-16575000I0J-50000D01*
G01*
X12800000Y-16475000D02*
X12650000Y-16475000D01*
X12650000Y-16475000D02*
G75*
G03*
X12650000Y-16575000I0J-50000D01*
G01*
X12775000Y-18375000D02*
G75*
G02*
X12675000Y-18375000I-50000J0D01*
G01*
X12675000Y-18375000D02*
G75*
G02*
X12775000Y-18375000I50000J0D01*
G01*
X12650000Y-18425000D02*
X12800000Y-18425000D01*
X12800000Y-18325000D02*
G75*
G02*
X12800000Y-18425000I0J-50000D01*
G01*
X12800000Y-18325000D02*
X12650000Y-18325000D01*
X12650000Y-18325000D02*
G75*
G03*
X12650000Y-18425000I0J-50000D01*
G01*
X12775000Y-20225000D02*
G75*
G02*
X12675000Y-20225000I-50000J0D01*
G01*
X12675000Y-20225000D02*
G75*
G02*
X12775000Y-20225000I50000J0D01*
G01*
X12650000Y-20275000D02*
X12800000Y-20275000D01*
X12800000Y-20175000D02*
G75*
G02*
X12800000Y-20275000I0J-50000D01*
G01*
X12800000Y-20175000D02*
X12650000Y-20175000D01*
X12650000Y-20175000D02*
G75*
G03*
X12650000Y-20275000I0J-50000D01*
G01*
X13175000Y-17125000D02*
G75*
G02*
X13075000Y-17125000I-50000J0D01*
G01*
X13075000Y-17125000D02*
G75*
G02*
X13175000Y-17125000I50000J0D01*
G01*
X13075000Y-17050000D02*
X13075000Y-17200000D01*
X13175000Y-17200000D02*
G75*
G02*
X13075000Y-17200000I-50000J0D01*
G01*
X13175000Y-17200000D02*
X13175000Y-17050000D01*
X13175000Y-17050000D02*
G75*
G03*
X13075000Y-17050000I-50000J0D01*
G01*
X13175000Y-18975000D02*
G75*
G02*
X13075000Y-18975000I-50000J0D01*
G01*
X13075000Y-18975000D02*
G75*
G02*
X13175000Y-18975000I50000J0D01*
G01*
X13075000Y-18900000D02*
X13075000Y-19050000D01*
X13175000Y-19050000D02*
G75*
G02*
X13075000Y-19050000I-50000J0D01*
G01*
X13175000Y-19050000D02*
X13175000Y-18900000D01*
X13175000Y-18900000D02*
G75*
G03*
X13075000Y-18900000I-50000J0D01*
G01*
X13175000Y-20825000D02*
G75*
G02*
X13075000Y-20825000I-50000J0D01*
G01*
X13075000Y-20825000D02*
G75*
G02*
X13175000Y-20825000I50000J0D01*
G01*
X13075000Y-20750000D02*
X13075000Y-20900000D01*
X13175000Y-20900000D02*
G75*
G02*
X13075000Y-20900000I-50000J0D01*
G01*
X13175000Y-20900000D02*
X13175000Y-20750000D01*
X13175000Y-20750000D02*
G75*
G03*
X13075000Y-20750000I-50000J0D01*
G01*
X13525000Y-16925000D02*
G75*
G02*
X13425000Y-16925000I-50000J0D01*
G01*
X13425000Y-16925000D02*
G75*
G02*
X13525000Y-16925000I50000J0D01*
G01*
X13525000Y-17000000D02*
X13525000Y-16850000D01*
X13425000Y-16850000D02*
G75*
G02*
X13525000Y-16850000I50000J0D01*
G01*
X13425000Y-16850000D02*
X13425000Y-17000000D01*
X13425000Y-17000000D02*
G75*
G03*
X13525000Y-17000000I50000J0D01*
G01*
X13525000Y-18775000D02*
G75*
G02*
X13425000Y-18775000I-50000J0D01*
G01*
X13425000Y-18775000D02*
G75*
G02*
X13525000Y-18775000I50000J0D01*
G01*
X13525000Y-18850000D02*
X13525000Y-18700000D01*
X13425000Y-18700000D02*
G75*
G02*
X13525000Y-18700000I50000J0D01*
G01*
X13425000Y-18700000D02*
X13425000Y-18850000D01*
X13425000Y-18850000D02*
G75*
G03*
X13525000Y-18850000I50000J0D01*
G01*
X13525000Y-20625000D02*
G75*
G02*
X13425000Y-20625000I-50000J0D01*
G01*
X13425000Y-20625000D02*
G75*
G02*
X13525000Y-20625000I50000J0D01*
G01*
X13525000Y-20700000D02*
X13525000Y-20550000D01*
X13425000Y-20550000D02*
G75*
G02*
X13525000Y-20550000I50000J0D01*
G01*
X13425000Y-20550000D02*
X13425000Y-20700000D01*
X13425000Y-20700000D02*
G75*
G03*
X13525000Y-20700000I50000J0D01*
G01*
X13550000Y-6446000D02*
G75*
G02*
X13450000Y-6446000I-50000J0D01*
G01*
X13450000Y-6446000D02*
G75*
G02*
X13550000Y-6446000I50000J0D01*
G01*
X13550000Y-6700000D02*
G75*
G02*
X13450000Y-6700000I-50000J0D01*
G01*
X13450000Y-6700000D02*
G75*
G02*
X13550000Y-6700000I50000J0D01*
G01*
X13550000Y-10646000D02*
G75*
G02*
X13450000Y-10646000I-50000J0D01*
G01*
X13450000Y-10646000D02*
G75*
G02*
X13550000Y-10646000I50000J0D01*
G01*
X13550000Y-10900000D02*
G75*
G02*
X13450000Y-10900000I-50000J0D01*
G01*
X13450000Y-10900000D02*
G75*
G02*
X13550000Y-10900000I50000J0D01*
G01*
X13550000Y-14746000D02*
G75*
G02*
X13450000Y-14746000I-50000J0D01*
G01*
X13450000Y-14746000D02*
G75*
G02*
X13550000Y-14746000I50000J0D01*
G01*
X13550000Y-15000000D02*
G75*
G02*
X13450000Y-15000000I-50000J0D01*
G01*
X13450000Y-15000000D02*
G75*
G02*
X13550000Y-15000000I50000J0D01*
G01*
X13715381Y-17634619D02*
G75*
G02*
X13615381Y-17634619I-50000J0D01*
G01*
X13615381Y-17634619D02*
G75*
G02*
X13715381Y-17634619I50000J0D01*
G01*
X13576993Y-17616941D02*
X13683059Y-17723007D01*
X13753769Y-17652297D02*
G75*
G02*
X13683059Y-17723007I-35355J-35355D01*
G01*
X13753769Y-17652297D02*
X13647703Y-17546231D01*
X13647703Y-17546231D02*
G75*
G03*
X13576993Y-17616941I-35355J-35355D01*
G01*
X13715381Y-19484619D02*
G75*
G02*
X13615381Y-19484619I-50000J0D01*
G01*
X13615381Y-19484619D02*
G75*
G02*
X13715381Y-19484619I50000J0D01*
G01*
X13576993Y-19466941D02*
X13683059Y-19573007D01*
X13753769Y-19502297D02*
G75*
G02*
X13683059Y-19573007I-35355J-35355D01*
G01*
X13753769Y-19502297D02*
X13647703Y-19396231D01*
X13647703Y-19396231D02*
G75*
G03*
X13576993Y-19466941I-35355J-35355D01*
G01*
X13715381Y-21334619D02*
G75*
G02*
X13615381Y-21334619I-50000J0D01*
G01*
X13615381Y-21334619D02*
G75*
G02*
X13715381Y-21334619I50000J0D01*
G01*
X13576993Y-21316941D02*
X13683059Y-21423007D01*
X13753769Y-21352297D02*
G75*
G02*
X13683059Y-21423007I-35355J-35355D01*
G01*
X13753769Y-21352297D02*
X13647703Y-21246231D01*
X13647703Y-21246231D02*
G75*
G03*
X13576993Y-21316941I-35355J-35355D01*
G01*
X13804000Y-6446000D02*
G75*
G02*
X13704000Y-6446000I-50000J0D01*
G01*
X13704000Y-6446000D02*
G75*
G02*
X13804000Y-6446000I50000J0D01*
G01*
X13804000Y-6700000D02*
G75*
G02*
X13704000Y-6700000I-50000J0D01*
G01*
X13704000Y-6700000D02*
G75*
G02*
X13804000Y-6700000I50000J0D01*
G01*
X13804000Y-10646000D02*
G75*
G02*
X13704000Y-10646000I-50000J0D01*
G01*
X13704000Y-10646000D02*
G75*
G02*
X13804000Y-10646000I50000J0D01*
G01*
X13804000Y-10900000D02*
G75*
G02*
X13704000Y-10900000I-50000J0D01*
G01*
X13704000Y-10900000D02*
G75*
G02*
X13804000Y-10900000I50000J0D01*
G01*
X13804000Y-14746000D02*
G75*
G02*
X13704000Y-14746000I-50000J0D01*
G01*
X13704000Y-14746000D02*
G75*
G02*
X13804000Y-14746000I50000J0D01*
G01*
X13804000Y-15000000D02*
G75*
G02*
X13704000Y-15000000I-50000J0D01*
G01*
X13704000Y-15000000D02*
G75*
G02*
X13804000Y-15000000I50000J0D01*
G01*
X14058000Y-6446000D02*
G75*
G02*
X13958000Y-6446000I-50000J0D01*
G01*
X13958000Y-6446000D02*
G75*
G02*
X14058000Y-6446000I50000J0D01*
G01*
X14058000Y-6700000D02*
G75*
G02*
X13958000Y-6700000I-50000J0D01*
G01*
X13958000Y-6700000D02*
G75*
G02*
X14058000Y-6700000I50000J0D01*
G01*
X14058000Y-10646000D02*
G75*
G02*
X13958000Y-10646000I-50000J0D01*
G01*
X13958000Y-10646000D02*
G75*
G02*
X14058000Y-10646000I50000J0D01*
G01*
X14058000Y-10900000D02*
G75*
G02*
X13958000Y-10900000I-50000J0D01*
G01*
X13958000Y-10900000D02*
G75*
G02*
X14058000Y-10900000I50000J0D01*
G01*
X14058000Y-14746000D02*
G75*
G02*
X13958000Y-14746000I-50000J0D01*
G01*
X13958000Y-14746000D02*
G75*
G02*
X14058000Y-14746000I50000J0D01*
G01*
X14058000Y-15000000D02*
G75*
G02*
X13958000Y-15000000I-50000J0D01*
G01*
X13958000Y-15000000D02*
G75*
G02*
X14058000Y-15000000I50000J0D01*
G01*
X14125000Y-16525000D02*
G75*
G02*
X14025000Y-16525000I-50000J0D01*
G01*
X14025000Y-16525000D02*
G75*
G02*
X14125000Y-16525000I50000J0D01*
G01*
X14000000Y-16575000D02*
X14150000Y-16575000D01*
X14150000Y-16475000D02*
G75*
G02*
X14150000Y-16575000I0J-50000D01*
G01*
X14150000Y-16475000D02*
X14000000Y-16475000D01*
X14000000Y-16475000D02*
G75*
G03*
X14000000Y-16575000I0J-50000D01*
G01*
X14125000Y-18375000D02*
G75*
G02*
X14025000Y-18375000I-50000J0D01*
G01*
X14025000Y-18375000D02*
G75*
G02*
X14125000Y-18375000I50000J0D01*
G01*
X14000000Y-18425000D02*
X14150000Y-18425000D01*
X14150000Y-18325000D02*
G75*
G02*
X14150000Y-18425000I0J-50000D01*
G01*
X14150000Y-18325000D02*
X14000000Y-18325000D01*
X14000000Y-18325000D02*
G75*
G03*
X14000000Y-18425000I0J-50000D01*
G01*
X14125000Y-20225000D02*
G75*
G02*
X14025000Y-20225000I-50000J0D01*
G01*
X14025000Y-20225000D02*
G75*
G02*
X14125000Y-20225000I50000J0D01*
G01*
X14000000Y-20275000D02*
X14150000Y-20275000D01*
X14150000Y-20175000D02*
G75*
G02*
X14150000Y-20275000I0J-50000D01*
G01*
X14150000Y-20175000D02*
X14000000Y-20175000D01*
X14000000Y-20175000D02*
G75*
G03*
X14000000Y-20275000I0J-50000D01*
G01*
X14750000Y-5200000D02*
G75*
G02*
X14650000Y-5200000I-50000J0D01*
G01*
X14650000Y-5200000D02*
G75*
G02*
X14750000Y-5200000I50000J0D01*
G01*
X14750000Y-5454000D02*
G75*
G02*
X14650000Y-5454000I-50000J0D01*
G01*
X14650000Y-5454000D02*
G75*
G02*
X14750000Y-5454000I50000J0D01*
G01*
X14750000Y-5708000D02*
G75*
G02*
X14650000Y-5708000I-50000J0D01*
G01*
X14650000Y-5708000D02*
G75*
G02*
X14750000Y-5708000I50000J0D01*
G01*
X14750000Y-5962000D02*
G75*
G02*
X14650000Y-5962000I-50000J0D01*
G01*
X14650000Y-5962000D02*
G75*
G02*
X14750000Y-5962000I50000J0D01*
G01*
X14750000Y-6216000D02*
G75*
G02*
X14650000Y-6216000I-50000J0D01*
G01*
X14650000Y-6216000D02*
G75*
G02*
X14750000Y-6216000I50000J0D01*
G01*
X14750000Y-6470000D02*
G75*
G02*
X14650000Y-6470000I-50000J0D01*
G01*
X14650000Y-6470000D02*
G75*
G02*
X14750000Y-6470000I50000J0D01*
G01*
X14750000Y-6724000D02*
G75*
G02*
X14650000Y-6724000I-50000J0D01*
G01*
X14650000Y-6724000D02*
G75*
G02*
X14750000Y-6724000I50000J0D01*
G01*
X14750000Y-6978000D02*
G75*
G02*
X14650000Y-6978000I-50000J0D01*
G01*
X14650000Y-6978000D02*
G75*
G02*
X14750000Y-6978000I50000J0D01*
G01*
X14750000Y-9400000D02*
G75*
G02*
X14650000Y-9400000I-50000J0D01*
G01*
X14650000Y-9400000D02*
G75*
G02*
X14750000Y-9400000I50000J0D01*
G01*
X14750000Y-9654000D02*
G75*
G02*
X14650000Y-9654000I-50000J0D01*
G01*
X14650000Y-9654000D02*
G75*
G02*
X14750000Y-9654000I50000J0D01*
G01*
X14750000Y-9908000D02*
G75*
G02*
X14650000Y-9908000I-50000J0D01*
G01*
X14650000Y-9908000D02*
G75*
G02*
X14750000Y-9908000I50000J0D01*
G01*
X14750000Y-10162000D02*
G75*
G02*
X14650000Y-10162000I-50000J0D01*
G01*
X14650000Y-10162000D02*
G75*
G02*
X14750000Y-10162000I50000J0D01*
G01*
X14750000Y-10416000D02*
G75*
G02*
X14650000Y-10416000I-50000J0D01*
G01*
X14650000Y-10416000D02*
G75*
G02*
X14750000Y-10416000I50000J0D01*
G01*
X14750000Y-10670000D02*
G75*
G02*
X14650000Y-10670000I-50000J0D01*
G01*
X14650000Y-10670000D02*
G75*
G02*
X14750000Y-10670000I50000J0D01*
G01*
X14750000Y-10924000D02*
G75*
G02*
X14650000Y-10924000I-50000J0D01*
G01*
X14650000Y-10924000D02*
G75*
G02*
X14750000Y-10924000I50000J0D01*
G01*
X14750000Y-11178000D02*
G75*
G02*
X14650000Y-11178000I-50000J0D01*
G01*
X14650000Y-11178000D02*
G75*
G02*
X14750000Y-11178000I50000J0D01*
G01*
X14750000Y-13500000D02*
G75*
G02*
X14650000Y-13500000I-50000J0D01*
G01*
X14650000Y-13500000D02*
G75*
G02*
X14750000Y-13500000I50000J0D01*
G01*
X14750000Y-13754000D02*
G75*
G02*
X14650000Y-13754000I-50000J0D01*
G01*
X14650000Y-13754000D02*
G75*
G02*
X14750000Y-13754000I50000J0D01*
G01*
X14750000Y-14008000D02*
G75*
G02*
X14650000Y-14008000I-50000J0D01*
G01*
X14650000Y-14008000D02*
G75*
G02*
X14750000Y-14008000I50000J0D01*
G01*
X14750000Y-14262000D02*
G75*
G02*
X14650000Y-14262000I-50000J0D01*
G01*
X14650000Y-14262000D02*
G75*
G02*
X14750000Y-14262000I50000J0D01*
G01*
X14750000Y-14516000D02*
G75*
G02*
X14650000Y-14516000I-50000J0D01*
G01*
X14650000Y-14516000D02*
G75*
G02*
X14750000Y-14516000I50000J0D01*
G01*
X14750000Y-14770000D02*
G75*
G02*
X14650000Y-14770000I-50000J0D01*
G01*
X14650000Y-14770000D02*
G75*
G02*
X14750000Y-14770000I50000J0D01*
G01*
X14750000Y-15024000D02*
G75*
G02*
X14650000Y-15024000I-50000J0D01*
G01*
X14650000Y-15024000D02*
G75*
G02*
X14750000Y-15024000I50000J0D01*
G01*
X14750000Y-15278000D02*
G75*
G02*
X14650000Y-15278000I-50000J0D01*
G01*
X14650000Y-15278000D02*
G75*
G02*
X14750000Y-15278000I50000J0D01*
G01*
D13*
X8230000Y-4367000D02*
X8230000Y-4477000D01*
X8175000Y-4422000D02*
X8285000Y-4422000D01*
X8230000Y-5383000D02*
X8230000Y-5493000D01*
X8175000Y-5438000D02*
X8285000Y-5438000D01*
X11780000Y-4367000D02*
X11780000Y-4477000D01*
X11725000Y-4422000D02*
X11835000Y-4422000D01*
X11780000Y-5383000D02*
X11780000Y-5493000D01*
X11725000Y-5438000D02*
X11835000Y-5438000D01*
D11*
X5358277Y-22063984D02*
X5358277Y-21863984D01*
X5358277Y-21863984D02*
X5405896Y-21863984D01*
X5405896Y-21863984D02*
X5434467Y-21873508D01*
X5434467Y-21873508D02*
X5453515Y-21892555D01*
X5453515Y-21892555D02*
X5463039Y-21911603D01*
X5463039Y-21911603D02*
X5472563Y-21949698D01*
X5472563Y-21949698D02*
X5472563Y-21978270D01*
X5472563Y-21978270D02*
X5463039Y-22016365D01*
X5463039Y-22016365D02*
X5453515Y-22035412D01*
X5453515Y-22035412D02*
X5434467Y-22054460D01*
X5434467Y-22054460D02*
X5405896Y-22063984D01*
X5405896Y-22063984D02*
X5358277Y-22063984D01*
X5558277Y-22063984D02*
X5558277Y-21930650D01*
X5558277Y-21968746D02*
X5567801Y-21949698D01*
X5567801Y-21949698D02*
X5577324Y-21940174D01*
X5577324Y-21940174D02*
X5596372Y-21930650D01*
X5596372Y-21930650D02*
X5615420Y-21930650D01*
X5682086Y-22063984D02*
X5682086Y-21930650D01*
X5682086Y-21863984D02*
X5672562Y-21873508D01*
X5672562Y-21873508D02*
X5682086Y-21883031D01*
X5682086Y-21883031D02*
X5691610Y-21873508D01*
X5691610Y-21873508D02*
X5682086Y-21863984D01*
X5682086Y-21863984D02*
X5682086Y-21883031D01*
X5805896Y-22063984D02*
X5786848Y-22054460D01*
X5786848Y-22054460D02*
X5777324Y-22035412D01*
X5777324Y-22035412D02*
X5777324Y-21863984D01*
X5910658Y-22063984D02*
X5891610Y-22054460D01*
X5891610Y-22054460D02*
X5882086Y-22035412D01*
X5882086Y-22035412D02*
X5882086Y-21863984D01*
X6139229Y-22063984D02*
X6139229Y-21863984D01*
X6139229Y-21863984D02*
X6205896Y-22006841D01*
X6205896Y-22006841D02*
X6272562Y-21863984D01*
X6272562Y-21863984D02*
X6272562Y-22063984D01*
X6453515Y-22063984D02*
X6453515Y-21959222D01*
X6453515Y-21959222D02*
X6443991Y-21940174D01*
X6443991Y-21940174D02*
X6424943Y-21930650D01*
X6424943Y-21930650D02*
X6386848Y-21930650D01*
X6386848Y-21930650D02*
X6367801Y-21940174D01*
X6453515Y-22054460D02*
X6434467Y-22063984D01*
X6434467Y-22063984D02*
X6386848Y-22063984D01*
X6386848Y-22063984D02*
X6367801Y-22054460D01*
X6367801Y-22054460D02*
X6358277Y-22035412D01*
X6358277Y-22035412D02*
X6358277Y-22016365D01*
X6358277Y-22016365D02*
X6367801Y-21997317D01*
X6367801Y-21997317D02*
X6386848Y-21987793D01*
X6386848Y-21987793D02*
X6434467Y-21987793D01*
X6434467Y-21987793D02*
X6453515Y-21978270D01*
X6548753Y-21930650D02*
X6548753Y-22130650D01*
X6548753Y-21940174D02*
X6567801Y-21930650D01*
X6567801Y-21930650D02*
X6605896Y-21930650D01*
X6605896Y-21930650D02*
X6624943Y-21940174D01*
X6624943Y-21940174D02*
X6634467Y-21949698D01*
X6634467Y-21949698D02*
X6643991Y-21968746D01*
X6643991Y-21968746D02*
X6643991Y-22025889D01*
X6643991Y-22025889D02*
X6634467Y-22044936D01*
X6634467Y-22044936D02*
X6624943Y-22054460D01*
X6624943Y-22054460D02*
X6605896Y-22063984D01*
X6605896Y-22063984D02*
X6567801Y-22063984D01*
X6567801Y-22063984D02*
X6548753Y-22054460D01*
X6729705Y-22044936D02*
X6739229Y-22054460D01*
X6739229Y-22054460D02*
X6729705Y-22063984D01*
X6729705Y-22063984D02*
X6720182Y-22054460D01*
X6720182Y-22054460D02*
X6729705Y-22044936D01*
X6729705Y-22044936D02*
X6729705Y-22063984D01*
X6729705Y-21940174D02*
X6739229Y-21949698D01*
X6739229Y-21949698D02*
X6729705Y-21959222D01*
X6729705Y-21959222D02*
X6720182Y-21949698D01*
X6720182Y-21949698D02*
X6729705Y-21940174D01*
X6729705Y-21940174D02*
X6729705Y-21959222D01*
D12*
X5017500Y-22352500D02*
X5097500Y-22432500D01*
X5097500Y-22352500D02*
X5017500Y-22432500D01*
D11*
X5396372Y-22283984D02*
X5415420Y-22283984D01*
X5415420Y-22283984D02*
X5434467Y-22293508D01*
X5434467Y-22293508D02*
X5443991Y-22303031D01*
X5443991Y-22303031D02*
X5453515Y-22322079D01*
X5453515Y-22322079D02*
X5463039Y-22360174D01*
X5463039Y-22360174D02*
X5463039Y-22407793D01*
X5463039Y-22407793D02*
X5453515Y-22445888D01*
X5453515Y-22445888D02*
X5443991Y-22464936D01*
X5443991Y-22464936D02*
X5434467Y-22474460D01*
X5434467Y-22474460D02*
X5415420Y-22483984D01*
X5415420Y-22483984D02*
X5396372Y-22483984D01*
X5396372Y-22483984D02*
X5377324Y-22474460D01*
X5377324Y-22474460D02*
X5367801Y-22464936D01*
X5367801Y-22464936D02*
X5358277Y-22445888D01*
X5358277Y-22445888D02*
X5348753Y-22407793D01*
X5348753Y-22407793D02*
X5348753Y-22360174D01*
X5348753Y-22360174D02*
X5358277Y-22322079D01*
X5358277Y-22322079D02*
X5367801Y-22303031D01*
X5367801Y-22303031D02*
X5377324Y-22293508D01*
X5377324Y-22293508D02*
X5396372Y-22283984D01*
X5548753Y-22464936D02*
X5558277Y-22474460D01*
X5558277Y-22474460D02*
X5548753Y-22483984D01*
X5548753Y-22483984D02*
X5539229Y-22474460D01*
X5539229Y-22474460D02*
X5548753Y-22464936D01*
X5548753Y-22464936D02*
X5548753Y-22483984D01*
X5672562Y-22369698D02*
X5653515Y-22360174D01*
X5653515Y-22360174D02*
X5643991Y-22350650D01*
X5643991Y-22350650D02*
X5634467Y-22331603D01*
X5634467Y-22331603D02*
X5634467Y-22322079D01*
X5634467Y-22322079D02*
X5643991Y-22303031D01*
X5643991Y-22303031D02*
X5653515Y-22293508D01*
X5653515Y-22293508D02*
X5672562Y-22283984D01*
X5672562Y-22283984D02*
X5710658Y-22283984D01*
X5710658Y-22283984D02*
X5729705Y-22293508D01*
X5729705Y-22293508D02*
X5739229Y-22303031D01*
X5739229Y-22303031D02*
X5748753Y-22322079D01*
X5748753Y-22322079D02*
X5748753Y-22331603D01*
X5748753Y-22331603D02*
X5739229Y-22350650D01*
X5739229Y-22350650D02*
X5729705Y-22360174D01*
X5729705Y-22360174D02*
X5710658Y-22369698D01*
X5710658Y-22369698D02*
X5672562Y-22369698D01*
X5672562Y-22369698D02*
X5653515Y-22379222D01*
X5653515Y-22379222D02*
X5643991Y-22388746D01*
X5643991Y-22388746D02*
X5634467Y-22407793D01*
X5634467Y-22407793D02*
X5634467Y-22445888D01*
X5634467Y-22445888D02*
X5643991Y-22464936D01*
X5643991Y-22464936D02*
X5653515Y-22474460D01*
X5653515Y-22474460D02*
X5672562Y-22483984D01*
X5672562Y-22483984D02*
X5710658Y-22483984D01*
X5710658Y-22483984D02*
X5729705Y-22474460D01*
X5729705Y-22474460D02*
X5739229Y-22464936D01*
X5739229Y-22464936D02*
X5748753Y-22445888D01*
X5748753Y-22445888D02*
X5748753Y-22407793D01*
X5748753Y-22407793D02*
X5739229Y-22388746D01*
X5739229Y-22388746D02*
X5729705Y-22379222D01*
X5729705Y-22379222D02*
X5710658Y-22369698D01*
X5872562Y-22283984D02*
X5891610Y-22283984D01*
X5891610Y-22283984D02*
X5910658Y-22293508D01*
X5910658Y-22293508D02*
X5920182Y-22303031D01*
X5920182Y-22303031D02*
X5929705Y-22322079D01*
X5929705Y-22322079D02*
X5939229Y-22360174D01*
X5939229Y-22360174D02*
X5939229Y-22407793D01*
X5939229Y-22407793D02*
X5929705Y-22445888D01*
X5929705Y-22445888D02*
X5920182Y-22464936D01*
X5920182Y-22464936D02*
X5910658Y-22474460D01*
X5910658Y-22474460D02*
X5891610Y-22483984D01*
X5891610Y-22483984D02*
X5872562Y-22483984D01*
X5872562Y-22483984D02*
X5853515Y-22474460D01*
X5853515Y-22474460D02*
X5843991Y-22464936D01*
X5843991Y-22464936D02*
X5834467Y-22445888D01*
X5834467Y-22445888D02*
X5824943Y-22407793D01*
X5824943Y-22407793D02*
X5824943Y-22360174D01*
X5824943Y-22360174D02*
X5834467Y-22322079D01*
X5834467Y-22322079D02*
X5843991Y-22303031D01*
X5843991Y-22303031D02*
X5853515Y-22293508D01*
X5853515Y-22293508D02*
X5872562Y-22283984D01*
X6063039Y-22283984D02*
X6082086Y-22283984D01*
X6082086Y-22283984D02*
X6101134Y-22293508D01*
X6101134Y-22293508D02*
X6110658Y-22303031D01*
X6110658Y-22303031D02*
X6120182Y-22322079D01*
X6120182Y-22322079D02*
X6129705Y-22360174D01*
X6129705Y-22360174D02*
X6129705Y-22407793D01*
X6129705Y-22407793D02*
X6120182Y-22445888D01*
X6120182Y-22445888D02*
X6110658Y-22464936D01*
X6110658Y-22464936D02*
X6101134Y-22474460D01*
X6101134Y-22474460D02*
X6082086Y-22483984D01*
X6082086Y-22483984D02*
X6063039Y-22483984D01*
X6063039Y-22483984D02*
X6043991Y-22474460D01*
X6043991Y-22474460D02*
X6034467Y-22464936D01*
X6034467Y-22464936D02*
X6024943Y-22445888D01*
X6024943Y-22445888D02*
X6015420Y-22407793D01*
X6015420Y-22407793D02*
X6015420Y-22360174D01*
X6015420Y-22360174D02*
X6024943Y-22322079D01*
X6024943Y-22322079D02*
X6034467Y-22303031D01*
X6034467Y-22303031D02*
X6043991Y-22293508D01*
X6043991Y-22293508D02*
X6063039Y-22283984D01*
X6215420Y-22483984D02*
X6215420Y-22350650D01*
X6215420Y-22369698D02*
X6224943Y-22360174D01*
X6224943Y-22360174D02*
X6243991Y-22350650D01*
X6243991Y-22350650D02*
X6272563Y-22350650D01*
X6272563Y-22350650D02*
X6291610Y-22360174D01*
X6291610Y-22360174D02*
X6301134Y-22379222D01*
X6301134Y-22379222D02*
X6301134Y-22483984D01*
X6301134Y-22379222D02*
X6310658Y-22360174D01*
X6310658Y-22360174D02*
X6329705Y-22350650D01*
X6329705Y-22350650D02*
X6358277Y-22350650D01*
X6358277Y-22350650D02*
X6377324Y-22360174D01*
X6377324Y-22360174D02*
X6386848Y-22379222D01*
X6386848Y-22379222D02*
X6386848Y-22483984D01*
X6482086Y-22483984D02*
X6482086Y-22350650D01*
X6482086Y-22369698D02*
X6491610Y-22360174D01*
X6491610Y-22360174D02*
X6510658Y-22350650D01*
X6510658Y-22350650D02*
X6539229Y-22350650D01*
X6539229Y-22350650D02*
X6558277Y-22360174D01*
X6558277Y-22360174D02*
X6567801Y-22379222D01*
X6567801Y-22379222D02*
X6567801Y-22483984D01*
X6567801Y-22379222D02*
X6577324Y-22360174D01*
X6577324Y-22360174D02*
X6596372Y-22350650D01*
X6596372Y-22350650D02*
X6624943Y-22350650D01*
X6624943Y-22350650D02*
X6643991Y-22360174D01*
X6643991Y-22360174D02*
X6653515Y-22379222D01*
X6653515Y-22379222D02*
X6653515Y-22483984D01*
X7043991Y-22274460D02*
X6872563Y-22531603D01*
X7301134Y-22283984D02*
X7320182Y-22283984D01*
X7320182Y-22283984D02*
X7339229Y-22293508D01*
X7339229Y-22293508D02*
X7348753Y-22303031D01*
X7348753Y-22303031D02*
X7358277Y-22322079D01*
X7358277Y-22322079D02*
X7367801Y-22360174D01*
X7367801Y-22360174D02*
X7367801Y-22407793D01*
X7367801Y-22407793D02*
X7358277Y-22445888D01*
X7358277Y-22445888D02*
X7348753Y-22464936D01*
X7348753Y-22464936D02*
X7339229Y-22474460D01*
X7339229Y-22474460D02*
X7320182Y-22483984D01*
X7320182Y-22483984D02*
X7301134Y-22483984D01*
X7301134Y-22483984D02*
X7282086Y-22474460D01*
X7282086Y-22474460D02*
X7272563Y-22464936D01*
X7272563Y-22464936D02*
X7263039Y-22445888D01*
X7263039Y-22445888D02*
X7253515Y-22407793D01*
X7253515Y-22407793D02*
X7253515Y-22360174D01*
X7253515Y-22360174D02*
X7263039Y-22322079D01*
X7263039Y-22322079D02*
X7272563Y-22303031D01*
X7272563Y-22303031D02*
X7282086Y-22293508D01*
X7282086Y-22293508D02*
X7301134Y-22283984D01*
X7453515Y-22464936D02*
X7463039Y-22474460D01*
X7463039Y-22474460D02*
X7453515Y-22483984D01*
X7453515Y-22483984D02*
X7443991Y-22474460D01*
X7443991Y-22474460D02*
X7453515Y-22464936D01*
X7453515Y-22464936D02*
X7453515Y-22483984D01*
X7586848Y-22283984D02*
X7605896Y-22283984D01*
X7605896Y-22283984D02*
X7624944Y-22293508D01*
X7624944Y-22293508D02*
X7634467Y-22303031D01*
X7634467Y-22303031D02*
X7643991Y-22322079D01*
X7643991Y-22322079D02*
X7653515Y-22360174D01*
X7653515Y-22360174D02*
X7653515Y-22407793D01*
X7653515Y-22407793D02*
X7643991Y-22445888D01*
X7643991Y-22445888D02*
X7634467Y-22464936D01*
X7634467Y-22464936D02*
X7624944Y-22474460D01*
X7624944Y-22474460D02*
X7605896Y-22483984D01*
X7605896Y-22483984D02*
X7586848Y-22483984D01*
X7586848Y-22483984D02*
X7567801Y-22474460D01*
X7567801Y-22474460D02*
X7558277Y-22464936D01*
X7558277Y-22464936D02*
X7548753Y-22445888D01*
X7548753Y-22445888D02*
X7539229Y-22407793D01*
X7539229Y-22407793D02*
X7539229Y-22360174D01*
X7539229Y-22360174D02*
X7548753Y-22322079D01*
X7548753Y-22322079D02*
X7558277Y-22303031D01*
X7558277Y-22303031D02*
X7567801Y-22293508D01*
X7567801Y-22293508D02*
X7586848Y-22283984D01*
X7720182Y-22283984D02*
X7843991Y-22283984D01*
X7843991Y-22283984D02*
X7777325Y-22360174D01*
X7777325Y-22360174D02*
X7805896Y-22360174D01*
X7805896Y-22360174D02*
X7824944Y-22369698D01*
X7824944Y-22369698D02*
X7834467Y-22379222D01*
X7834467Y-22379222D02*
X7843991Y-22398269D01*
X7843991Y-22398269D02*
X7843991Y-22445888D01*
X7843991Y-22445888D02*
X7834467Y-22464936D01*
X7834467Y-22464936D02*
X7824944Y-22474460D01*
X7824944Y-22474460D02*
X7805896Y-22483984D01*
X7805896Y-22483984D02*
X7748753Y-22483984D01*
X7748753Y-22483984D02*
X7729706Y-22474460D01*
X7729706Y-22474460D02*
X7720182Y-22464936D01*
X8034467Y-22483984D02*
X7920182Y-22483984D01*
X7977325Y-22483984D02*
X7977325Y-22283984D01*
X7977325Y-22283984D02*
X7958277Y-22312555D01*
X7958277Y-22312555D02*
X7939229Y-22331603D01*
X7939229Y-22331603D02*
X7920182Y-22341127D01*
X8215420Y-22283984D02*
X8120182Y-22283984D01*
X8120182Y-22283984D02*
X8110658Y-22379222D01*
X8110658Y-22379222D02*
X8120182Y-22369698D01*
X8120182Y-22369698D02*
X8139229Y-22360174D01*
X8139229Y-22360174D02*
X8186848Y-22360174D01*
X8186848Y-22360174D02*
X8205896Y-22369698D01*
X8205896Y-22369698D02*
X8215420Y-22379222D01*
X8215420Y-22379222D02*
X8224944Y-22398269D01*
X8224944Y-22398269D02*
X8224944Y-22445888D01*
X8224944Y-22445888D02*
X8215420Y-22464936D01*
X8215420Y-22464936D02*
X8205896Y-22474460D01*
X8205896Y-22474460D02*
X8186848Y-22483984D01*
X8186848Y-22483984D02*
X8139229Y-22483984D01*
X8139229Y-22483984D02*
X8120182Y-22474460D01*
X8120182Y-22474460D02*
X8110658Y-22464936D01*
X8301134Y-22283984D02*
X8301134Y-22322079D01*
X8377325Y-22283984D02*
X8377325Y-22322079D01*
X8672563Y-22560174D02*
X8663039Y-22550650D01*
X8663039Y-22550650D02*
X8643991Y-22522079D01*
X8643991Y-22522079D02*
X8634468Y-22503031D01*
X8634468Y-22503031D02*
X8624944Y-22474460D01*
X8624944Y-22474460D02*
X8615420Y-22426841D01*
X8615420Y-22426841D02*
X8615420Y-22388746D01*
X8615420Y-22388746D02*
X8624944Y-22341127D01*
X8624944Y-22341127D02*
X8634468Y-22312555D01*
X8634468Y-22312555D02*
X8643991Y-22293508D01*
X8643991Y-22293508D02*
X8663039Y-22264936D01*
X8663039Y-22264936D02*
X8672563Y-22255412D01*
X8853515Y-22483984D02*
X8739230Y-22483984D01*
X8796372Y-22483984D02*
X8796372Y-22283984D01*
X8796372Y-22283984D02*
X8777325Y-22312555D01*
X8777325Y-22312555D02*
X8758277Y-22331603D01*
X8758277Y-22331603D02*
X8739230Y-22341127D01*
X9043991Y-22483984D02*
X8929706Y-22483984D01*
X8986849Y-22483984D02*
X8986849Y-22283984D01*
X8986849Y-22283984D02*
X8967801Y-22312555D01*
X8967801Y-22312555D02*
X8948753Y-22331603D01*
X8948753Y-22331603D02*
X8929706Y-22341127D01*
X9120182Y-22303031D02*
X9129706Y-22293508D01*
X9129706Y-22293508D02*
X9148753Y-22283984D01*
X9148753Y-22283984D02*
X9196372Y-22283984D01*
X9196372Y-22283984D02*
X9215420Y-22293508D01*
X9215420Y-22293508D02*
X9224944Y-22303031D01*
X9224944Y-22303031D02*
X9234468Y-22322079D01*
X9234468Y-22322079D02*
X9234468Y-22341127D01*
X9234468Y-22341127D02*
X9224944Y-22369698D01*
X9224944Y-22369698D02*
X9110658Y-22483984D01*
X9110658Y-22483984D02*
X9234468Y-22483984D01*
X9472563Y-22483984D02*
X9472563Y-22283984D01*
X9558277Y-22483984D02*
X9558277Y-22379222D01*
X9558277Y-22379222D02*
X9548753Y-22360174D01*
X9548753Y-22360174D02*
X9529706Y-22350650D01*
X9529706Y-22350650D02*
X9501134Y-22350650D01*
X9501134Y-22350650D02*
X9482087Y-22360174D01*
X9482087Y-22360174D02*
X9472563Y-22369698D01*
X9682087Y-22483984D02*
X9663039Y-22474460D01*
X9663039Y-22474460D02*
X9653515Y-22464936D01*
X9653515Y-22464936D02*
X9643992Y-22445888D01*
X9643992Y-22445888D02*
X9643992Y-22388746D01*
X9643992Y-22388746D02*
X9653515Y-22369698D01*
X9653515Y-22369698D02*
X9663039Y-22360174D01*
X9663039Y-22360174D02*
X9682087Y-22350650D01*
X9682087Y-22350650D02*
X9710658Y-22350650D01*
X9710658Y-22350650D02*
X9729706Y-22360174D01*
X9729706Y-22360174D02*
X9739230Y-22369698D01*
X9739230Y-22369698D02*
X9748753Y-22388746D01*
X9748753Y-22388746D02*
X9748753Y-22445888D01*
X9748753Y-22445888D02*
X9739230Y-22464936D01*
X9739230Y-22464936D02*
X9729706Y-22474460D01*
X9729706Y-22474460D02*
X9710658Y-22483984D01*
X9710658Y-22483984D02*
X9682087Y-22483984D01*
X9863039Y-22483984D02*
X9843992Y-22474460D01*
X9843992Y-22474460D02*
X9834468Y-22455412D01*
X9834468Y-22455412D02*
X9834468Y-22283984D01*
X10015420Y-22474460D02*
X9996373Y-22483984D01*
X9996373Y-22483984D02*
X9958277Y-22483984D01*
X9958277Y-22483984D02*
X9939230Y-22474460D01*
X9939230Y-22474460D02*
X9929706Y-22455412D01*
X9929706Y-22455412D02*
X9929706Y-22379222D01*
X9929706Y-22379222D02*
X9939230Y-22360174D01*
X9939230Y-22360174D02*
X9958277Y-22350650D01*
X9958277Y-22350650D02*
X9996373Y-22350650D01*
X9996373Y-22350650D02*
X10015420Y-22360174D01*
X10015420Y-22360174D02*
X10024944Y-22379222D01*
X10024944Y-22379222D02*
X10024944Y-22398269D01*
X10024944Y-22398269D02*
X9929706Y-22417317D01*
X10101134Y-22474460D02*
X10120182Y-22483984D01*
X10120182Y-22483984D02*
X10158277Y-22483984D01*
X10158277Y-22483984D02*
X10177325Y-22474460D01*
X10177325Y-22474460D02*
X10186849Y-22455412D01*
X10186849Y-22455412D02*
X10186849Y-22445888D01*
X10186849Y-22445888D02*
X10177325Y-22426841D01*
X10177325Y-22426841D02*
X10158277Y-22417317D01*
X10158277Y-22417317D02*
X10129706Y-22417317D01*
X10129706Y-22417317D02*
X10110658Y-22407793D01*
X10110658Y-22407793D02*
X10101134Y-22388746D01*
X10101134Y-22388746D02*
X10101134Y-22379222D01*
X10101134Y-22379222D02*
X10110658Y-22360174D01*
X10110658Y-22360174D02*
X10129706Y-22350650D01*
X10129706Y-22350650D02*
X10158277Y-22350650D01*
X10158277Y-22350650D02*
X10177325Y-22360174D01*
X10253515Y-22560174D02*
X10263039Y-22550650D01*
X10263039Y-22550650D02*
X10282087Y-22522079D01*
X10282087Y-22522079D02*
X10291611Y-22503031D01*
X10291611Y-22503031D02*
X10301134Y-22474460D01*
X10301134Y-22474460D02*
X10310658Y-22426841D01*
X10310658Y-22426841D02*
X10310658Y-22388746D01*
X10310658Y-22388746D02*
X10301134Y-22341127D01*
X10301134Y-22341127D02*
X10291611Y-22312555D01*
X10291611Y-22312555D02*
X10282087Y-22293508D01*
X10282087Y-22293508D02*
X10263039Y-22264936D01*
X10263039Y-22264936D02*
X10253515Y-22255412D01*
D12*
X5097500Y-22656500D02*
G75*
G02*
X4997500Y-22656500I-50000J0D01*
G01*
X4997500Y-22656500D02*
G75*
G02*
X5097500Y-22656500I50000J0D01*
G01*
D11*
X5463039Y-22747984D02*
X5348753Y-22747984D01*
X5405896Y-22747984D02*
X5405896Y-22547984D01*
X5405896Y-22547984D02*
X5386848Y-22576555D01*
X5386848Y-22576555D02*
X5367801Y-22595603D01*
X5367801Y-22595603D02*
X5348753Y-22605127D01*
X5548753Y-22728936D02*
X5558277Y-22738460D01*
X5558277Y-22738460D02*
X5548753Y-22747984D01*
X5548753Y-22747984D02*
X5539229Y-22738460D01*
X5539229Y-22738460D02*
X5548753Y-22728936D01*
X5548753Y-22728936D02*
X5548753Y-22747984D01*
X5682086Y-22547984D02*
X5701134Y-22547984D01*
X5701134Y-22547984D02*
X5720182Y-22557508D01*
X5720182Y-22557508D02*
X5729705Y-22567031D01*
X5729705Y-22567031D02*
X5739229Y-22586079D01*
X5739229Y-22586079D02*
X5748753Y-22624174D01*
X5748753Y-22624174D02*
X5748753Y-22671793D01*
X5748753Y-22671793D02*
X5739229Y-22709888D01*
X5739229Y-22709888D02*
X5729705Y-22728936D01*
X5729705Y-22728936D02*
X5720182Y-22738460D01*
X5720182Y-22738460D02*
X5701134Y-22747984D01*
X5701134Y-22747984D02*
X5682086Y-22747984D01*
X5682086Y-22747984D02*
X5663039Y-22738460D01*
X5663039Y-22738460D02*
X5653515Y-22728936D01*
X5653515Y-22728936D02*
X5643991Y-22709888D01*
X5643991Y-22709888D02*
X5634467Y-22671793D01*
X5634467Y-22671793D02*
X5634467Y-22624174D01*
X5634467Y-22624174D02*
X5643991Y-22586079D01*
X5643991Y-22586079D02*
X5653515Y-22567031D01*
X5653515Y-22567031D02*
X5663039Y-22557508D01*
X5663039Y-22557508D02*
X5682086Y-22547984D01*
X5872562Y-22547984D02*
X5891610Y-22547984D01*
X5891610Y-22547984D02*
X5910658Y-22557508D01*
X5910658Y-22557508D02*
X5920182Y-22567031D01*
X5920182Y-22567031D02*
X5929705Y-22586079D01*
X5929705Y-22586079D02*
X5939229Y-22624174D01*
X5939229Y-22624174D02*
X5939229Y-22671793D01*
X5939229Y-22671793D02*
X5929705Y-22709888D01*
X5929705Y-22709888D02*
X5920182Y-22728936D01*
X5920182Y-22728936D02*
X5910658Y-22738460D01*
X5910658Y-22738460D02*
X5891610Y-22747984D01*
X5891610Y-22747984D02*
X5872562Y-22747984D01*
X5872562Y-22747984D02*
X5853515Y-22738460D01*
X5853515Y-22738460D02*
X5843991Y-22728936D01*
X5843991Y-22728936D02*
X5834467Y-22709888D01*
X5834467Y-22709888D02*
X5824943Y-22671793D01*
X5824943Y-22671793D02*
X5824943Y-22624174D01*
X5824943Y-22624174D02*
X5834467Y-22586079D01*
X5834467Y-22586079D02*
X5843991Y-22567031D01*
X5843991Y-22567031D02*
X5853515Y-22557508D01*
X5853515Y-22557508D02*
X5872562Y-22547984D01*
X6063039Y-22547984D02*
X6082086Y-22547984D01*
X6082086Y-22547984D02*
X6101134Y-22557508D01*
X6101134Y-22557508D02*
X6110658Y-22567031D01*
X6110658Y-22567031D02*
X6120182Y-22586079D01*
X6120182Y-22586079D02*
X6129705Y-22624174D01*
X6129705Y-22624174D02*
X6129705Y-22671793D01*
X6129705Y-22671793D02*
X6120182Y-22709888D01*
X6120182Y-22709888D02*
X6110658Y-22728936D01*
X6110658Y-22728936D02*
X6101134Y-22738460D01*
X6101134Y-22738460D02*
X6082086Y-22747984D01*
X6082086Y-22747984D02*
X6063039Y-22747984D01*
X6063039Y-22747984D02*
X6043991Y-22738460D01*
X6043991Y-22738460D02*
X6034467Y-22728936D01*
X6034467Y-22728936D02*
X6024943Y-22709888D01*
X6024943Y-22709888D02*
X6015420Y-22671793D01*
X6015420Y-22671793D02*
X6015420Y-22624174D01*
X6015420Y-22624174D02*
X6024943Y-22586079D01*
X6024943Y-22586079D02*
X6034467Y-22567031D01*
X6034467Y-22567031D02*
X6043991Y-22557508D01*
X6043991Y-22557508D02*
X6063039Y-22547984D01*
X6215420Y-22747984D02*
X6215420Y-22614650D01*
X6215420Y-22633698D02*
X6224943Y-22624174D01*
X6224943Y-22624174D02*
X6243991Y-22614650D01*
X6243991Y-22614650D02*
X6272563Y-22614650D01*
X6272563Y-22614650D02*
X6291610Y-22624174D01*
X6291610Y-22624174D02*
X6301134Y-22643222D01*
X6301134Y-22643222D02*
X6301134Y-22747984D01*
X6301134Y-22643222D02*
X6310658Y-22624174D01*
X6310658Y-22624174D02*
X6329705Y-22614650D01*
X6329705Y-22614650D02*
X6358277Y-22614650D01*
X6358277Y-22614650D02*
X6377324Y-22624174D01*
X6377324Y-22624174D02*
X6386848Y-22643222D01*
X6386848Y-22643222D02*
X6386848Y-22747984D01*
X6482086Y-22747984D02*
X6482086Y-22614650D01*
X6482086Y-22633698D02*
X6491610Y-22624174D01*
X6491610Y-22624174D02*
X6510658Y-22614650D01*
X6510658Y-22614650D02*
X6539229Y-22614650D01*
X6539229Y-22614650D02*
X6558277Y-22624174D01*
X6558277Y-22624174D02*
X6567801Y-22643222D01*
X6567801Y-22643222D02*
X6567801Y-22747984D01*
X6567801Y-22643222D02*
X6577324Y-22624174D01*
X6577324Y-22624174D02*
X6596372Y-22614650D01*
X6596372Y-22614650D02*
X6624943Y-22614650D01*
X6624943Y-22614650D02*
X6643991Y-22624174D01*
X6643991Y-22624174D02*
X6653515Y-22643222D01*
X6653515Y-22643222D02*
X6653515Y-22747984D01*
X7043991Y-22538460D02*
X6872563Y-22795603D01*
X7301134Y-22547984D02*
X7320182Y-22547984D01*
X7320182Y-22547984D02*
X7339229Y-22557508D01*
X7339229Y-22557508D02*
X7348753Y-22567031D01*
X7348753Y-22567031D02*
X7358277Y-22586079D01*
X7358277Y-22586079D02*
X7367801Y-22624174D01*
X7367801Y-22624174D02*
X7367801Y-22671793D01*
X7367801Y-22671793D02*
X7358277Y-22709888D01*
X7358277Y-22709888D02*
X7348753Y-22728936D01*
X7348753Y-22728936D02*
X7339229Y-22738460D01*
X7339229Y-22738460D02*
X7320182Y-22747984D01*
X7320182Y-22747984D02*
X7301134Y-22747984D01*
X7301134Y-22747984D02*
X7282086Y-22738460D01*
X7282086Y-22738460D02*
X7272563Y-22728936D01*
X7272563Y-22728936D02*
X7263039Y-22709888D01*
X7263039Y-22709888D02*
X7253515Y-22671793D01*
X7253515Y-22671793D02*
X7253515Y-22624174D01*
X7253515Y-22624174D02*
X7263039Y-22586079D01*
X7263039Y-22586079D02*
X7272563Y-22567031D01*
X7272563Y-22567031D02*
X7282086Y-22557508D01*
X7282086Y-22557508D02*
X7301134Y-22547984D01*
X7453515Y-22728936D02*
X7463039Y-22738460D01*
X7463039Y-22738460D02*
X7453515Y-22747984D01*
X7453515Y-22747984D02*
X7443991Y-22738460D01*
X7443991Y-22738460D02*
X7453515Y-22728936D01*
X7453515Y-22728936D02*
X7453515Y-22747984D01*
X7586848Y-22547984D02*
X7605896Y-22547984D01*
X7605896Y-22547984D02*
X7624944Y-22557508D01*
X7624944Y-22557508D02*
X7634467Y-22567031D01*
X7634467Y-22567031D02*
X7643991Y-22586079D01*
X7643991Y-22586079D02*
X7653515Y-22624174D01*
X7653515Y-22624174D02*
X7653515Y-22671793D01*
X7653515Y-22671793D02*
X7643991Y-22709888D01*
X7643991Y-22709888D02*
X7634467Y-22728936D01*
X7634467Y-22728936D02*
X7624944Y-22738460D01*
X7624944Y-22738460D02*
X7605896Y-22747984D01*
X7605896Y-22747984D02*
X7586848Y-22747984D01*
X7586848Y-22747984D02*
X7567801Y-22738460D01*
X7567801Y-22738460D02*
X7558277Y-22728936D01*
X7558277Y-22728936D02*
X7548753Y-22709888D01*
X7548753Y-22709888D02*
X7539229Y-22671793D01*
X7539229Y-22671793D02*
X7539229Y-22624174D01*
X7539229Y-22624174D02*
X7548753Y-22586079D01*
X7548753Y-22586079D02*
X7558277Y-22567031D01*
X7558277Y-22567031D02*
X7567801Y-22557508D01*
X7567801Y-22557508D02*
X7586848Y-22547984D01*
X7720182Y-22547984D02*
X7843991Y-22547984D01*
X7843991Y-22547984D02*
X7777325Y-22624174D01*
X7777325Y-22624174D02*
X7805896Y-22624174D01*
X7805896Y-22624174D02*
X7824944Y-22633698D01*
X7824944Y-22633698D02*
X7834467Y-22643222D01*
X7834467Y-22643222D02*
X7843991Y-22662269D01*
X7843991Y-22662269D02*
X7843991Y-22709888D01*
X7843991Y-22709888D02*
X7834467Y-22728936D01*
X7834467Y-22728936D02*
X7824944Y-22738460D01*
X7824944Y-22738460D02*
X7805896Y-22747984D01*
X7805896Y-22747984D02*
X7748753Y-22747984D01*
X7748753Y-22747984D02*
X7729706Y-22738460D01*
X7729706Y-22738460D02*
X7720182Y-22728936D01*
X7939229Y-22747984D02*
X7977325Y-22747984D01*
X7977325Y-22747984D02*
X7996372Y-22738460D01*
X7996372Y-22738460D02*
X8005896Y-22728936D01*
X8005896Y-22728936D02*
X8024944Y-22700365D01*
X8024944Y-22700365D02*
X8034467Y-22662269D01*
X8034467Y-22662269D02*
X8034467Y-22586079D01*
X8034467Y-22586079D02*
X8024944Y-22567031D01*
X8024944Y-22567031D02*
X8015420Y-22557508D01*
X8015420Y-22557508D02*
X7996372Y-22547984D01*
X7996372Y-22547984D02*
X7958277Y-22547984D01*
X7958277Y-22547984D02*
X7939229Y-22557508D01*
X7939229Y-22557508D02*
X7929706Y-22567031D01*
X7929706Y-22567031D02*
X7920182Y-22586079D01*
X7920182Y-22586079D02*
X7920182Y-22633698D01*
X7920182Y-22633698D02*
X7929706Y-22652746D01*
X7929706Y-22652746D02*
X7939229Y-22662269D01*
X7939229Y-22662269D02*
X7958277Y-22671793D01*
X7958277Y-22671793D02*
X7996372Y-22671793D01*
X7996372Y-22671793D02*
X8015420Y-22662269D01*
X8015420Y-22662269D02*
X8024944Y-22652746D01*
X8024944Y-22652746D02*
X8034467Y-22633698D01*
X8205896Y-22614650D02*
X8205896Y-22747984D01*
X8158277Y-22538460D02*
X8110658Y-22681317D01*
X8110658Y-22681317D02*
X8234467Y-22681317D01*
X8301134Y-22547984D02*
X8301134Y-22586079D01*
X8377325Y-22547984D02*
X8377325Y-22586079D01*
X8672563Y-22824174D02*
X8663039Y-22814650D01*
X8663039Y-22814650D02*
X8643991Y-22786079D01*
X8643991Y-22786079D02*
X8634468Y-22767031D01*
X8634468Y-22767031D02*
X8624944Y-22738460D01*
X8624944Y-22738460D02*
X8615420Y-22690841D01*
X8615420Y-22690841D02*
X8615420Y-22652746D01*
X8615420Y-22652746D02*
X8624944Y-22605127D01*
X8624944Y-22605127D02*
X8634468Y-22576555D01*
X8634468Y-22576555D02*
X8643991Y-22557508D01*
X8643991Y-22557508D02*
X8663039Y-22528936D01*
X8663039Y-22528936D02*
X8672563Y-22519412D01*
X8853515Y-22747984D02*
X8739230Y-22747984D01*
X8796372Y-22747984D02*
X8796372Y-22547984D01*
X8796372Y-22547984D02*
X8777325Y-22576555D01*
X8777325Y-22576555D02*
X8758277Y-22595603D01*
X8758277Y-22595603D02*
X8739230Y-22605127D01*
X8920182Y-22547984D02*
X9043991Y-22547984D01*
X9043991Y-22547984D02*
X8977325Y-22624174D01*
X8977325Y-22624174D02*
X9005896Y-22624174D01*
X9005896Y-22624174D02*
X9024944Y-22633698D01*
X9024944Y-22633698D02*
X9034468Y-22643222D01*
X9034468Y-22643222D02*
X9043991Y-22662269D01*
X9043991Y-22662269D02*
X9043991Y-22709888D01*
X9043991Y-22709888D02*
X9034468Y-22728936D01*
X9034468Y-22728936D02*
X9024944Y-22738460D01*
X9024944Y-22738460D02*
X9005896Y-22747984D01*
X9005896Y-22747984D02*
X8948753Y-22747984D01*
X8948753Y-22747984D02*
X8929706Y-22738460D01*
X8929706Y-22738460D02*
X8920182Y-22728936D01*
X9224944Y-22547984D02*
X9129706Y-22547984D01*
X9129706Y-22547984D02*
X9120182Y-22643222D01*
X9120182Y-22643222D02*
X9129706Y-22633698D01*
X9129706Y-22633698D02*
X9148753Y-22624174D01*
X9148753Y-22624174D02*
X9196372Y-22624174D01*
X9196372Y-22624174D02*
X9215420Y-22633698D01*
X9215420Y-22633698D02*
X9224944Y-22643222D01*
X9224944Y-22643222D02*
X9234468Y-22662269D01*
X9234468Y-22662269D02*
X9234468Y-22709888D01*
X9234468Y-22709888D02*
X9224944Y-22728936D01*
X9224944Y-22728936D02*
X9215420Y-22738460D01*
X9215420Y-22738460D02*
X9196372Y-22747984D01*
X9196372Y-22747984D02*
X9148753Y-22747984D01*
X9148753Y-22747984D02*
X9129706Y-22738460D01*
X9129706Y-22738460D02*
X9120182Y-22728936D01*
X9472563Y-22747984D02*
X9472563Y-22547984D01*
X9558277Y-22747984D02*
X9558277Y-22643222D01*
X9558277Y-22643222D02*
X9548753Y-22624174D01*
X9548753Y-22624174D02*
X9529706Y-22614650D01*
X9529706Y-22614650D02*
X9501134Y-22614650D01*
X9501134Y-22614650D02*
X9482087Y-22624174D01*
X9482087Y-22624174D02*
X9472563Y-22633698D01*
X9682087Y-22747984D02*
X9663039Y-22738460D01*
X9663039Y-22738460D02*
X9653515Y-22728936D01*
X9653515Y-22728936D02*
X9643992Y-22709888D01*
X9643992Y-22709888D02*
X9643992Y-22652746D01*
X9643992Y-22652746D02*
X9653515Y-22633698D01*
X9653515Y-22633698D02*
X9663039Y-22624174D01*
X9663039Y-22624174D02*
X9682087Y-22614650D01*
X9682087Y-22614650D02*
X9710658Y-22614650D01*
X9710658Y-22614650D02*
X9729706Y-22624174D01*
X9729706Y-22624174D02*
X9739230Y-22633698D01*
X9739230Y-22633698D02*
X9748753Y-22652746D01*
X9748753Y-22652746D02*
X9748753Y-22709888D01*
X9748753Y-22709888D02*
X9739230Y-22728936D01*
X9739230Y-22728936D02*
X9729706Y-22738460D01*
X9729706Y-22738460D02*
X9710658Y-22747984D01*
X9710658Y-22747984D02*
X9682087Y-22747984D01*
X9863039Y-22747984D02*
X9843992Y-22738460D01*
X9843992Y-22738460D02*
X9834468Y-22719412D01*
X9834468Y-22719412D02*
X9834468Y-22547984D01*
X10015420Y-22738460D02*
X9996373Y-22747984D01*
X9996373Y-22747984D02*
X9958277Y-22747984D01*
X9958277Y-22747984D02*
X9939230Y-22738460D01*
X9939230Y-22738460D02*
X9929706Y-22719412D01*
X9929706Y-22719412D02*
X9929706Y-22643222D01*
X9929706Y-22643222D02*
X9939230Y-22624174D01*
X9939230Y-22624174D02*
X9958277Y-22614650D01*
X9958277Y-22614650D02*
X9996373Y-22614650D01*
X9996373Y-22614650D02*
X10015420Y-22624174D01*
X10015420Y-22624174D02*
X10024944Y-22643222D01*
X10024944Y-22643222D02*
X10024944Y-22662269D01*
X10024944Y-22662269D02*
X9929706Y-22681317D01*
X10101134Y-22738460D02*
X10120182Y-22747984D01*
X10120182Y-22747984D02*
X10158277Y-22747984D01*
X10158277Y-22747984D02*
X10177325Y-22738460D01*
X10177325Y-22738460D02*
X10186849Y-22719412D01*
X10186849Y-22719412D02*
X10186849Y-22709888D01*
X10186849Y-22709888D02*
X10177325Y-22690841D01*
X10177325Y-22690841D02*
X10158277Y-22681317D01*
X10158277Y-22681317D02*
X10129706Y-22681317D01*
X10129706Y-22681317D02*
X10110658Y-22671793D01*
X10110658Y-22671793D02*
X10101134Y-22652746D01*
X10101134Y-22652746D02*
X10101134Y-22643222D01*
X10101134Y-22643222D02*
X10110658Y-22624174D01*
X10110658Y-22624174D02*
X10129706Y-22614650D01*
X10129706Y-22614650D02*
X10158277Y-22614650D01*
X10158277Y-22614650D02*
X10177325Y-22624174D01*
X10424944Y-22671793D02*
X10577325Y-22671793D01*
X10501135Y-22747984D02*
X10501135Y-22595603D01*
X10920182Y-22547984D02*
X10824944Y-22547984D01*
X10824944Y-22547984D02*
X10815420Y-22643222D01*
X10815420Y-22643222D02*
X10824944Y-22633698D01*
X10824944Y-22633698D02*
X10843992Y-22624174D01*
X10843992Y-22624174D02*
X10891611Y-22624174D01*
X10891611Y-22624174D02*
X10910658Y-22633698D01*
X10910658Y-22633698D02*
X10920182Y-22643222D01*
X10920182Y-22643222D02*
X10929706Y-22662269D01*
X10929706Y-22662269D02*
X10929706Y-22709888D01*
X10929706Y-22709888D02*
X10920182Y-22728936D01*
X10920182Y-22728936D02*
X10910658Y-22738460D01*
X10910658Y-22738460D02*
X10891611Y-22747984D01*
X10891611Y-22747984D02*
X10843992Y-22747984D01*
X10843992Y-22747984D02*
X10824944Y-22738460D01*
X10824944Y-22738460D02*
X10815420Y-22728936D01*
X11101135Y-22614650D02*
X11101135Y-22747984D01*
X11053515Y-22538460D02*
X11005896Y-22681317D01*
X11005896Y-22681317D02*
X11129706Y-22681317D01*
X11348754Y-22738460D02*
X11367801Y-22747984D01*
X11367801Y-22747984D02*
X11405896Y-22747984D01*
X11405896Y-22747984D02*
X11424944Y-22738460D01*
X11424944Y-22738460D02*
X11434468Y-22719412D01*
X11434468Y-22719412D02*
X11434468Y-22709888D01*
X11434468Y-22709888D02*
X11424944Y-22690841D01*
X11424944Y-22690841D02*
X11405896Y-22681317D01*
X11405896Y-22681317D02*
X11377325Y-22681317D01*
X11377325Y-22681317D02*
X11358277Y-22671793D01*
X11358277Y-22671793D02*
X11348754Y-22652746D01*
X11348754Y-22652746D02*
X11348754Y-22643222D01*
X11348754Y-22643222D02*
X11358277Y-22624174D01*
X11358277Y-22624174D02*
X11377325Y-22614650D01*
X11377325Y-22614650D02*
X11405896Y-22614650D01*
X11405896Y-22614650D02*
X11424944Y-22624174D01*
X11548754Y-22747984D02*
X11529706Y-22738460D01*
X11529706Y-22738460D02*
X11520182Y-22719412D01*
X11520182Y-22719412D02*
X11520182Y-22547984D01*
X11653515Y-22747984D02*
X11634468Y-22738460D01*
X11634468Y-22738460D02*
X11624944Y-22728936D01*
X11624944Y-22728936D02*
X11615420Y-22709888D01*
X11615420Y-22709888D02*
X11615420Y-22652746D01*
X11615420Y-22652746D02*
X11624944Y-22633698D01*
X11624944Y-22633698D02*
X11634468Y-22624174D01*
X11634468Y-22624174D02*
X11653515Y-22614650D01*
X11653515Y-22614650D02*
X11682087Y-22614650D01*
X11682087Y-22614650D02*
X11701135Y-22624174D01*
X11701135Y-22624174D02*
X11710658Y-22633698D01*
X11710658Y-22633698D02*
X11720182Y-22652746D01*
X11720182Y-22652746D02*
X11720182Y-22709888D01*
X11720182Y-22709888D02*
X11710658Y-22728936D01*
X11710658Y-22728936D02*
X11701135Y-22738460D01*
X11701135Y-22738460D02*
X11682087Y-22747984D01*
X11682087Y-22747984D02*
X11653515Y-22747984D01*
X11777325Y-22614650D02*
X11853515Y-22614650D01*
X11805896Y-22547984D02*
X11805896Y-22719412D01*
X11805896Y-22719412D02*
X11815420Y-22738460D01*
X11815420Y-22738460D02*
X11834468Y-22747984D01*
X11834468Y-22747984D02*
X11853515Y-22747984D01*
X11910658Y-22738460D02*
X11929706Y-22747984D01*
X11929706Y-22747984D02*
X11967801Y-22747984D01*
X11967801Y-22747984D02*
X11986849Y-22738460D01*
X11986849Y-22738460D02*
X11996373Y-22719412D01*
X11996373Y-22719412D02*
X11996373Y-22709888D01*
X11996373Y-22709888D02*
X11986849Y-22690841D01*
X11986849Y-22690841D02*
X11967801Y-22681317D01*
X11967801Y-22681317D02*
X11939230Y-22681317D01*
X11939230Y-22681317D02*
X11920182Y-22671793D01*
X11920182Y-22671793D02*
X11910658Y-22652746D01*
X11910658Y-22652746D02*
X11910658Y-22643222D01*
X11910658Y-22643222D02*
X11920182Y-22624174D01*
X11920182Y-22624174D02*
X11939230Y-22614650D01*
X11939230Y-22614650D02*
X11967801Y-22614650D01*
X11967801Y-22614650D02*
X11986849Y-22624174D01*
X12063039Y-22824174D02*
X12072563Y-22814650D01*
X12072563Y-22814650D02*
X12091611Y-22786079D01*
X12091611Y-22786079D02*
X12101135Y-22767031D01*
X12101135Y-22767031D02*
X12110658Y-22738460D01*
X12110658Y-22738460D02*
X12120182Y-22690841D01*
X12120182Y-22690841D02*
X12120182Y-22652746D01*
X12120182Y-22652746D02*
X12110658Y-22605127D01*
X12110658Y-22605127D02*
X12101135Y-22576555D01*
X12101135Y-22576555D02*
X12091611Y-22557508D01*
X12091611Y-22557508D02*
X12072563Y-22528936D01*
X12072563Y-22528936D02*
X12063039Y-22519412D01*
D13*
X5042500Y-22865500D02*
X5042500Y-22975500D01*
X4987500Y-22920500D02*
X5097500Y-22920500D01*
D11*
X5463039Y-23011984D02*
X5348753Y-23011984D01*
X5405896Y-23011984D02*
X5405896Y-22811984D01*
X5405896Y-22811984D02*
X5386848Y-22840555D01*
X5386848Y-22840555D02*
X5367801Y-22859603D01*
X5367801Y-22859603D02*
X5348753Y-22869127D01*
X5548753Y-22992936D02*
X5558277Y-23002460D01*
X5558277Y-23002460D02*
X5548753Y-23011984D01*
X5548753Y-23011984D02*
X5539229Y-23002460D01*
X5539229Y-23002460D02*
X5548753Y-22992936D01*
X5548753Y-22992936D02*
X5548753Y-23011984D01*
X5748753Y-23011984D02*
X5634467Y-23011984D01*
X5691610Y-23011984D02*
X5691610Y-22811984D01*
X5691610Y-22811984D02*
X5672562Y-22840555D01*
X5672562Y-22840555D02*
X5653515Y-22859603D01*
X5653515Y-22859603D02*
X5634467Y-22869127D01*
X5872562Y-22811984D02*
X5891610Y-22811984D01*
X5891610Y-22811984D02*
X5910658Y-22821508D01*
X5910658Y-22821508D02*
X5920182Y-22831031D01*
X5920182Y-22831031D02*
X5929705Y-22850079D01*
X5929705Y-22850079D02*
X5939229Y-22888174D01*
X5939229Y-22888174D02*
X5939229Y-22935793D01*
X5939229Y-22935793D02*
X5929705Y-22973888D01*
X5929705Y-22973888D02*
X5920182Y-22992936D01*
X5920182Y-22992936D02*
X5910658Y-23002460D01*
X5910658Y-23002460D02*
X5891610Y-23011984D01*
X5891610Y-23011984D02*
X5872562Y-23011984D01*
X5872562Y-23011984D02*
X5853515Y-23002460D01*
X5853515Y-23002460D02*
X5843991Y-22992936D01*
X5843991Y-22992936D02*
X5834467Y-22973888D01*
X5834467Y-22973888D02*
X5824943Y-22935793D01*
X5824943Y-22935793D02*
X5824943Y-22888174D01*
X5824943Y-22888174D02*
X5834467Y-22850079D01*
X5834467Y-22850079D02*
X5843991Y-22831031D01*
X5843991Y-22831031D02*
X5853515Y-22821508D01*
X5853515Y-22821508D02*
X5872562Y-22811984D01*
X6063039Y-22811984D02*
X6082086Y-22811984D01*
X6082086Y-22811984D02*
X6101134Y-22821508D01*
X6101134Y-22821508D02*
X6110658Y-22831031D01*
X6110658Y-22831031D02*
X6120182Y-22850079D01*
X6120182Y-22850079D02*
X6129705Y-22888174D01*
X6129705Y-22888174D02*
X6129705Y-22935793D01*
X6129705Y-22935793D02*
X6120182Y-22973888D01*
X6120182Y-22973888D02*
X6110658Y-22992936D01*
X6110658Y-22992936D02*
X6101134Y-23002460D01*
X6101134Y-23002460D02*
X6082086Y-23011984D01*
X6082086Y-23011984D02*
X6063039Y-23011984D01*
X6063039Y-23011984D02*
X6043991Y-23002460D01*
X6043991Y-23002460D02*
X6034467Y-22992936D01*
X6034467Y-22992936D02*
X6024943Y-22973888D01*
X6024943Y-22973888D02*
X6015420Y-22935793D01*
X6015420Y-22935793D02*
X6015420Y-22888174D01*
X6015420Y-22888174D02*
X6024943Y-22850079D01*
X6024943Y-22850079D02*
X6034467Y-22831031D01*
X6034467Y-22831031D02*
X6043991Y-22821508D01*
X6043991Y-22821508D02*
X6063039Y-22811984D01*
X6215420Y-23011984D02*
X6215420Y-22878650D01*
X6215420Y-22897698D02*
X6224943Y-22888174D01*
X6224943Y-22888174D02*
X6243991Y-22878650D01*
X6243991Y-22878650D02*
X6272563Y-22878650D01*
X6272563Y-22878650D02*
X6291610Y-22888174D01*
X6291610Y-22888174D02*
X6301134Y-22907222D01*
X6301134Y-22907222D02*
X6301134Y-23011984D01*
X6301134Y-22907222D02*
X6310658Y-22888174D01*
X6310658Y-22888174D02*
X6329705Y-22878650D01*
X6329705Y-22878650D02*
X6358277Y-22878650D01*
X6358277Y-22878650D02*
X6377324Y-22888174D01*
X6377324Y-22888174D02*
X6386848Y-22907222D01*
X6386848Y-22907222D02*
X6386848Y-23011984D01*
X6482086Y-23011984D02*
X6482086Y-22878650D01*
X6482086Y-22897698D02*
X6491610Y-22888174D01*
X6491610Y-22888174D02*
X6510658Y-22878650D01*
X6510658Y-22878650D02*
X6539229Y-22878650D01*
X6539229Y-22878650D02*
X6558277Y-22888174D01*
X6558277Y-22888174D02*
X6567801Y-22907222D01*
X6567801Y-22907222D02*
X6567801Y-23011984D01*
X6567801Y-22907222D02*
X6577324Y-22888174D01*
X6577324Y-22888174D02*
X6596372Y-22878650D01*
X6596372Y-22878650D02*
X6624943Y-22878650D01*
X6624943Y-22878650D02*
X6643991Y-22888174D01*
X6643991Y-22888174D02*
X6653515Y-22907222D01*
X6653515Y-22907222D02*
X6653515Y-23011984D01*
X7043991Y-22802460D02*
X6872563Y-23059603D01*
X7301134Y-22811984D02*
X7320182Y-22811984D01*
X7320182Y-22811984D02*
X7339229Y-22821508D01*
X7339229Y-22821508D02*
X7348753Y-22831031D01*
X7348753Y-22831031D02*
X7358277Y-22850079D01*
X7358277Y-22850079D02*
X7367801Y-22888174D01*
X7367801Y-22888174D02*
X7367801Y-22935793D01*
X7367801Y-22935793D02*
X7358277Y-22973888D01*
X7358277Y-22973888D02*
X7348753Y-22992936D01*
X7348753Y-22992936D02*
X7339229Y-23002460D01*
X7339229Y-23002460D02*
X7320182Y-23011984D01*
X7320182Y-23011984D02*
X7301134Y-23011984D01*
X7301134Y-23011984D02*
X7282086Y-23002460D01*
X7282086Y-23002460D02*
X7272563Y-22992936D01*
X7272563Y-22992936D02*
X7263039Y-22973888D01*
X7263039Y-22973888D02*
X7253515Y-22935793D01*
X7253515Y-22935793D02*
X7253515Y-22888174D01*
X7253515Y-22888174D02*
X7263039Y-22850079D01*
X7263039Y-22850079D02*
X7272563Y-22831031D01*
X7272563Y-22831031D02*
X7282086Y-22821508D01*
X7282086Y-22821508D02*
X7301134Y-22811984D01*
X7453515Y-22992936D02*
X7463039Y-23002460D01*
X7463039Y-23002460D02*
X7453515Y-23011984D01*
X7453515Y-23011984D02*
X7443991Y-23002460D01*
X7443991Y-23002460D02*
X7453515Y-22992936D01*
X7453515Y-22992936D02*
X7453515Y-23011984D01*
X7586848Y-22811984D02*
X7605896Y-22811984D01*
X7605896Y-22811984D02*
X7624944Y-22821508D01*
X7624944Y-22821508D02*
X7634467Y-22831031D01*
X7634467Y-22831031D02*
X7643991Y-22850079D01*
X7643991Y-22850079D02*
X7653515Y-22888174D01*
X7653515Y-22888174D02*
X7653515Y-22935793D01*
X7653515Y-22935793D02*
X7643991Y-22973888D01*
X7643991Y-22973888D02*
X7634467Y-22992936D01*
X7634467Y-22992936D02*
X7624944Y-23002460D01*
X7624944Y-23002460D02*
X7605896Y-23011984D01*
X7605896Y-23011984D02*
X7586848Y-23011984D01*
X7586848Y-23011984D02*
X7567801Y-23002460D01*
X7567801Y-23002460D02*
X7558277Y-22992936D01*
X7558277Y-22992936D02*
X7548753Y-22973888D01*
X7548753Y-22973888D02*
X7539229Y-22935793D01*
X7539229Y-22935793D02*
X7539229Y-22888174D01*
X7539229Y-22888174D02*
X7548753Y-22850079D01*
X7548753Y-22850079D02*
X7558277Y-22831031D01*
X7558277Y-22831031D02*
X7567801Y-22821508D01*
X7567801Y-22821508D02*
X7586848Y-22811984D01*
X7824944Y-22878650D02*
X7824944Y-23011984D01*
X7777325Y-22802460D02*
X7729706Y-22945317D01*
X7729706Y-22945317D02*
X7853515Y-22945317D01*
X7910658Y-22811984D02*
X8034467Y-22811984D01*
X8034467Y-22811984D02*
X7967801Y-22888174D01*
X7967801Y-22888174D02*
X7996372Y-22888174D01*
X7996372Y-22888174D02*
X8015420Y-22897698D01*
X8015420Y-22897698D02*
X8024944Y-22907222D01*
X8024944Y-22907222D02*
X8034467Y-22926269D01*
X8034467Y-22926269D02*
X8034467Y-22973888D01*
X8034467Y-22973888D02*
X8024944Y-22992936D01*
X8024944Y-22992936D02*
X8015420Y-23002460D01*
X8015420Y-23002460D02*
X7996372Y-23011984D01*
X7996372Y-23011984D02*
X7939229Y-23011984D01*
X7939229Y-23011984D02*
X7920182Y-23002460D01*
X7920182Y-23002460D02*
X7910658Y-22992936D01*
X8101134Y-22811984D02*
X8224944Y-22811984D01*
X8224944Y-22811984D02*
X8158277Y-22888174D01*
X8158277Y-22888174D02*
X8186848Y-22888174D01*
X8186848Y-22888174D02*
X8205896Y-22897698D01*
X8205896Y-22897698D02*
X8215420Y-22907222D01*
X8215420Y-22907222D02*
X8224944Y-22926269D01*
X8224944Y-22926269D02*
X8224944Y-22973888D01*
X8224944Y-22973888D02*
X8215420Y-22992936D01*
X8215420Y-22992936D02*
X8205896Y-23002460D01*
X8205896Y-23002460D02*
X8186848Y-23011984D01*
X8186848Y-23011984D02*
X8129706Y-23011984D01*
X8129706Y-23011984D02*
X8110658Y-23002460D01*
X8110658Y-23002460D02*
X8101134Y-22992936D01*
X8301134Y-22811984D02*
X8301134Y-22850079D01*
X8377325Y-22811984D02*
X8377325Y-22850079D01*
X8672563Y-23088174D02*
X8663039Y-23078650D01*
X8663039Y-23078650D02*
X8643991Y-23050079D01*
X8643991Y-23050079D02*
X8634468Y-23031031D01*
X8634468Y-23031031D02*
X8624944Y-23002460D01*
X8624944Y-23002460D02*
X8615420Y-22954841D01*
X8615420Y-22954841D02*
X8615420Y-22916746D01*
X8615420Y-22916746D02*
X8624944Y-22869127D01*
X8624944Y-22869127D02*
X8634468Y-22840555D01*
X8634468Y-22840555D02*
X8643991Y-22821508D01*
X8643991Y-22821508D02*
X8663039Y-22792936D01*
X8663039Y-22792936D02*
X8672563Y-22783412D01*
X8834468Y-22878650D02*
X8834468Y-23011984D01*
X8786849Y-22802460D02*
X8739230Y-22945317D01*
X8739230Y-22945317D02*
X8863039Y-22945317D01*
X9091611Y-23011984D02*
X9091611Y-22811984D01*
X9177325Y-23011984D02*
X9177325Y-22907222D01*
X9177325Y-22907222D02*
X9167801Y-22888174D01*
X9167801Y-22888174D02*
X9148753Y-22878650D01*
X9148753Y-22878650D02*
X9120182Y-22878650D01*
X9120182Y-22878650D02*
X9101134Y-22888174D01*
X9101134Y-22888174D02*
X9091611Y-22897698D01*
X9301134Y-23011984D02*
X9282087Y-23002460D01*
X9282087Y-23002460D02*
X9272563Y-22992936D01*
X9272563Y-22992936D02*
X9263039Y-22973888D01*
X9263039Y-22973888D02*
X9263039Y-22916746D01*
X9263039Y-22916746D02*
X9272563Y-22897698D01*
X9272563Y-22897698D02*
X9282087Y-22888174D01*
X9282087Y-22888174D02*
X9301134Y-22878650D01*
X9301134Y-22878650D02*
X9329706Y-22878650D01*
X9329706Y-22878650D02*
X9348753Y-22888174D01*
X9348753Y-22888174D02*
X9358277Y-22897698D01*
X9358277Y-22897698D02*
X9367801Y-22916746D01*
X9367801Y-22916746D02*
X9367801Y-22973888D01*
X9367801Y-22973888D02*
X9358277Y-22992936D01*
X9358277Y-22992936D02*
X9348753Y-23002460D01*
X9348753Y-23002460D02*
X9329706Y-23011984D01*
X9329706Y-23011984D02*
X9301134Y-23011984D01*
X9482087Y-23011984D02*
X9463039Y-23002460D01*
X9463039Y-23002460D02*
X9453515Y-22983412D01*
X9453515Y-22983412D02*
X9453515Y-22811984D01*
X9634468Y-23002460D02*
X9615420Y-23011984D01*
X9615420Y-23011984D02*
X9577325Y-23011984D01*
X9577325Y-23011984D02*
X9558277Y-23002460D01*
X9558277Y-23002460D02*
X9548753Y-22983412D01*
X9548753Y-22983412D02*
X9548753Y-22907222D01*
X9548753Y-22907222D02*
X9558277Y-22888174D01*
X9558277Y-22888174D02*
X9577325Y-22878650D01*
X9577325Y-22878650D02*
X9615420Y-22878650D01*
X9615420Y-22878650D02*
X9634468Y-22888174D01*
X9634468Y-22888174D02*
X9643992Y-22907222D01*
X9643992Y-22907222D02*
X9643992Y-22926269D01*
X9643992Y-22926269D02*
X9548753Y-22945317D01*
X9720182Y-23002460D02*
X9739230Y-23011984D01*
X9739230Y-23011984D02*
X9777325Y-23011984D01*
X9777325Y-23011984D02*
X9796373Y-23002460D01*
X9796373Y-23002460D02*
X9805896Y-22983412D01*
X9805896Y-22983412D02*
X9805896Y-22973888D01*
X9805896Y-22973888D02*
X9796373Y-22954841D01*
X9796373Y-22954841D02*
X9777325Y-22945317D01*
X9777325Y-22945317D02*
X9748753Y-22945317D01*
X9748753Y-22945317D02*
X9729706Y-22935793D01*
X9729706Y-22935793D02*
X9720182Y-22916746D01*
X9720182Y-22916746D02*
X9720182Y-22907222D01*
X9720182Y-22907222D02*
X9729706Y-22888174D01*
X9729706Y-22888174D02*
X9748753Y-22878650D01*
X9748753Y-22878650D02*
X9777325Y-22878650D01*
X9777325Y-22878650D02*
X9796373Y-22888174D01*
X9872563Y-23088174D02*
X9882087Y-23078650D01*
X9882087Y-23078650D02*
X9901134Y-23050079D01*
X9901134Y-23050079D02*
X9910658Y-23031031D01*
X9910658Y-23031031D02*
X9920182Y-23002460D01*
X9920182Y-23002460D02*
X9929706Y-22954841D01*
X9929706Y-22954841D02*
X9929706Y-22916746D01*
X9929706Y-22916746D02*
X9920182Y-22869127D01*
X9920182Y-22869127D02*
X9910658Y-22840555D01*
X9910658Y-22840555D02*
X9901134Y-22821508D01*
X9901134Y-22821508D02*
X9882087Y-22792936D01*
X9882087Y-22792936D02*
X9872563Y-22783412D01*
M02*
