%TF.GenerationSoftware,KiCad,Pcbnew,9.0.7*%
%TF.CreationDate,2026-02-21T19:12:40+01:00*%
%TF.ProjectId,DMH_VCLFO_v2_PCB_Main,444d485f-5643-44c4-964f-5f76325f5043,1*%
%TF.SameCoordinates,Original*%
%TF.FileFunction,Legend,Top*%
%TF.FilePolarity,Positive*%
%FSLAX46Y46*%
G04 Gerber Fmt 4.6, Leading zero omitted, Abs format (unit mm)*
G04 Created by KiCad (PCBNEW 9.0.7) date 2026-02-21 19:12:40*
%MOMM*%
%LPD*%
G01*
G04 APERTURE LIST*
G04 Aperture macros list*
%AMRoundRect*
0 Rectangle with rounded corners*
0 $1 Rounding radius*
0 $2 $3 $4 $5 $6 $7 $8 $9 X,Y pos of 4 corners*
0 Add a 4 corners polygon primitive as box body*
4,1,4,$2,$3,$4,$5,$6,$7,$8,$9,$2,$3,0*
0 Add four circle primitives for the rounded corners*
1,1,$1+$1,$2,$3*
1,1,$1+$1,$4,$5*
1,1,$1+$1,$6,$7*
1,1,$1+$1,$8,$9*
0 Add four rect primitives between the rounded corners*
20,1,$1+$1,$2,$3,$4,$5,0*
20,1,$1+$1,$4,$5,$6,$7,0*
20,1,$1+$1,$6,$7,$8,$9,0*
20,1,$1+$1,$8,$9,$2,$3,0*%
%AMHorizOval*
0 Thick line with rounded ends*
0 $1 width*
0 $2 $3 position (X,Y) of the first rounded end (center of the circle)*
0 $4 $5 position (X,Y) of the second rounded end (center of the circle)*
0 Add line between two ends*
20,1,$1,$2,$3,$4,$5,0*
0 Add two circle primitives to create the rounded ends*
1,1,$1,$2,$3*
1,1,$1,$4,$5*%
G04 Aperture macros list end*
%ADD10C,0.150000*%
%ADD11C,0.120000*%
%ADD12HorizOval,1.712000X-0.533159X-0.533159X0.533159X0.533159X0*%
%ADD13O,1.712000X3.220000*%
%ADD14O,3.220000X1.712000*%
%ADD15R,1.700000X1.700000*%
%ADD16C,1.700000*%
%ADD17HorizOval,1.712000X-0.533159X0.533159X0.533159X-0.533159X0*%
%ADD18C,1.600000*%
%ADD19RoundRect,0.250000X0.600000X-0.600000X0.600000X0.600000X-0.600000X0.600000X-0.600000X-0.600000X0*%
%ADD20RoundRect,0.250000X-0.550000X0.550000X-0.550000X-0.550000X0.550000X-0.550000X0.550000X0.550000X0*%
%ADD21RoundRect,0.249999X-0.850001X0.850001X-0.850001X-0.850001X0.850001X-0.850001X0.850001X0.850001X0*%
%ADD22C,2.200000*%
%ADD23RoundRect,0.250000X-0.600000X0.600000X-0.600000X-0.600000X0.600000X-0.600000X0.600000X0.600000X0*%
%ADD24RoundRect,0.250000X0.550000X-0.550000X0.550000X0.550000X-0.550000X0.550000X-0.550000X-0.550000X0*%
%ADD25RoundRect,0.249999X0.850001X-0.850001X0.850001X0.850001X-0.850001X0.850001X-0.850001X-0.850001X0*%
G04 APERTURE END LIST*
D10*
X103365476Y-201204819D02*
X103365476Y-201919104D01*
X103365476Y-201919104D02*
X103317857Y-202061961D01*
X103317857Y-202061961D02*
X103222619Y-202157200D01*
X103222619Y-202157200D02*
X103079762Y-202204819D01*
X103079762Y-202204819D02*
X102984524Y-202204819D01*
X104365476Y-202204819D02*
X103794048Y-202204819D01*
X104079762Y-202204819D02*
X104079762Y-201204819D01*
X104079762Y-201204819D02*
X103984524Y-201347676D01*
X103984524Y-201347676D02*
X103889286Y-201442914D01*
X103889286Y-201442914D02*
X103794048Y-201490533D01*
X105222619Y-201204819D02*
X105032143Y-201204819D01*
X105032143Y-201204819D02*
X104936905Y-201252438D01*
X104936905Y-201252438D02*
X104889286Y-201300057D01*
X104889286Y-201300057D02*
X104794048Y-201442914D01*
X104794048Y-201442914D02*
X104746429Y-201633390D01*
X104746429Y-201633390D02*
X104746429Y-202014342D01*
X104746429Y-202014342D02*
X104794048Y-202109580D01*
X104794048Y-202109580D02*
X104841667Y-202157200D01*
X104841667Y-202157200D02*
X104936905Y-202204819D01*
X104936905Y-202204819D02*
X105127381Y-202204819D01*
X105127381Y-202204819D02*
X105222619Y-202157200D01*
X105222619Y-202157200D02*
X105270238Y-202109580D01*
X105270238Y-202109580D02*
X105317857Y-202014342D01*
X105317857Y-202014342D02*
X105317857Y-201776247D01*
X105317857Y-201776247D02*
X105270238Y-201681009D01*
X105270238Y-201681009D02*
X105222619Y-201633390D01*
X105222619Y-201633390D02*
X105127381Y-201585771D01*
X105127381Y-201585771D02*
X104936905Y-201585771D01*
X104936905Y-201585771D02*
X104841667Y-201633390D01*
X104841667Y-201633390D02*
X104794048Y-201681009D01*
X104794048Y-201681009D02*
X104746429Y-201776247D01*
X54341666Y-182704819D02*
X54341666Y-183419104D01*
X54341666Y-183419104D02*
X54294047Y-183561961D01*
X54294047Y-183561961D02*
X54198809Y-183657200D01*
X54198809Y-183657200D02*
X54055952Y-183704819D01*
X54055952Y-183704819D02*
X53960714Y-183704819D01*
X54722619Y-182704819D02*
X55389285Y-182704819D01*
X55389285Y-182704819D02*
X54960714Y-183704819D01*
X87341666Y-182704819D02*
X87341666Y-183419104D01*
X87341666Y-183419104D02*
X87294047Y-183561961D01*
X87294047Y-183561961D02*
X87198809Y-183657200D01*
X87198809Y-183657200D02*
X87055952Y-183704819D01*
X87055952Y-183704819D02*
X86960714Y-183704819D01*
X87865476Y-183704819D02*
X88055952Y-183704819D01*
X88055952Y-183704819D02*
X88151190Y-183657200D01*
X88151190Y-183657200D02*
X88198809Y-183609580D01*
X88198809Y-183609580D02*
X88294047Y-183466723D01*
X88294047Y-183466723D02*
X88341666Y-183276247D01*
X88341666Y-183276247D02*
X88341666Y-182895295D01*
X88341666Y-182895295D02*
X88294047Y-182800057D01*
X88294047Y-182800057D02*
X88246428Y-182752438D01*
X88246428Y-182752438D02*
X88151190Y-182704819D01*
X88151190Y-182704819D02*
X87960714Y-182704819D01*
X87960714Y-182704819D02*
X87865476Y-182752438D01*
X87865476Y-182752438D02*
X87817857Y-182800057D01*
X87817857Y-182800057D02*
X87770238Y-182895295D01*
X87770238Y-182895295D02*
X87770238Y-183133390D01*
X87770238Y-183133390D02*
X87817857Y-183228628D01*
X87817857Y-183228628D02*
X87865476Y-183276247D01*
X87865476Y-183276247D02*
X87960714Y-183323866D01*
X87960714Y-183323866D02*
X88151190Y-183323866D01*
X88151190Y-183323866D02*
X88246428Y-183276247D01*
X88246428Y-183276247D02*
X88294047Y-183228628D01*
X88294047Y-183228628D02*
X88341666Y-183133390D01*
X52190476Y-49074819D02*
X52190476Y-49789104D01*
X52190476Y-49789104D02*
X52142857Y-49931961D01*
X52142857Y-49931961D02*
X52047619Y-50027200D01*
X52047619Y-50027200D02*
X51904762Y-50074819D01*
X51904762Y-50074819D02*
X51809524Y-50074819D01*
X52619048Y-49170057D02*
X52666667Y-49122438D01*
X52666667Y-49122438D02*
X52761905Y-49074819D01*
X52761905Y-49074819D02*
X53000000Y-49074819D01*
X53000000Y-49074819D02*
X53095238Y-49122438D01*
X53095238Y-49122438D02*
X53142857Y-49170057D01*
X53142857Y-49170057D02*
X53190476Y-49265295D01*
X53190476Y-49265295D02*
X53190476Y-49360533D01*
X53190476Y-49360533D02*
X53142857Y-49503390D01*
X53142857Y-49503390D02*
X52571429Y-50074819D01*
X52571429Y-50074819D02*
X53190476Y-50074819D01*
X53571429Y-49170057D02*
X53619048Y-49122438D01*
X53619048Y-49122438D02*
X53714286Y-49074819D01*
X53714286Y-49074819D02*
X53952381Y-49074819D01*
X53952381Y-49074819D02*
X54047619Y-49122438D01*
X54047619Y-49122438D02*
X54095238Y-49170057D01*
X54095238Y-49170057D02*
X54142857Y-49265295D01*
X54142857Y-49265295D02*
X54142857Y-49360533D01*
X54142857Y-49360533D02*
X54095238Y-49503390D01*
X54095238Y-49503390D02*
X53523810Y-50074819D01*
X53523810Y-50074819D02*
X54142857Y-50074819D01*
X54341666Y-164204819D02*
X54341666Y-164919104D01*
X54341666Y-164919104D02*
X54294047Y-165061961D01*
X54294047Y-165061961D02*
X54198809Y-165157200D01*
X54198809Y-165157200D02*
X54055952Y-165204819D01*
X54055952Y-165204819D02*
X53960714Y-165204819D01*
X55341666Y-165204819D02*
X54770238Y-165204819D01*
X55055952Y-165204819D02*
X55055952Y-164204819D01*
X55055952Y-164204819D02*
X54960714Y-164347676D01*
X54960714Y-164347676D02*
X54865476Y-164442914D01*
X54865476Y-164442914D02*
X54770238Y-164490533D01*
X52190476Y-132074819D02*
X52190476Y-132789104D01*
X52190476Y-132789104D02*
X52142857Y-132931961D01*
X52142857Y-132931961D02*
X52047619Y-133027200D01*
X52047619Y-133027200D02*
X51904762Y-133074819D01*
X51904762Y-133074819D02*
X51809524Y-133074819D01*
X52571429Y-132074819D02*
X53190476Y-132074819D01*
X53190476Y-132074819D02*
X52857143Y-132455771D01*
X52857143Y-132455771D02*
X53000000Y-132455771D01*
X53000000Y-132455771D02*
X53095238Y-132503390D01*
X53095238Y-132503390D02*
X53142857Y-132551009D01*
X53142857Y-132551009D02*
X53190476Y-132646247D01*
X53190476Y-132646247D02*
X53190476Y-132884342D01*
X53190476Y-132884342D02*
X53142857Y-132979580D01*
X53142857Y-132979580D02*
X53095238Y-133027200D01*
X53095238Y-133027200D02*
X53000000Y-133074819D01*
X53000000Y-133074819D02*
X52714286Y-133074819D01*
X52714286Y-133074819D02*
X52619048Y-133027200D01*
X52619048Y-133027200D02*
X52571429Y-132979580D01*
X53571429Y-132170057D02*
X53619048Y-132122438D01*
X53619048Y-132122438D02*
X53714286Y-132074819D01*
X53714286Y-132074819D02*
X53952381Y-132074819D01*
X53952381Y-132074819D02*
X54047619Y-132122438D01*
X54047619Y-132122438D02*
X54095238Y-132170057D01*
X54095238Y-132170057D02*
X54142857Y-132265295D01*
X54142857Y-132265295D02*
X54142857Y-132360533D01*
X54142857Y-132360533D02*
X54095238Y-132503390D01*
X54095238Y-132503390D02*
X53523810Y-133074819D01*
X53523810Y-133074819D02*
X54142857Y-133074819D01*
X86865476Y-201204819D02*
X86865476Y-201919104D01*
X86865476Y-201919104D02*
X86817857Y-202061961D01*
X86817857Y-202061961D02*
X86722619Y-202157200D01*
X86722619Y-202157200D02*
X86579762Y-202204819D01*
X86579762Y-202204819D02*
X86484524Y-202204819D01*
X87865476Y-202204819D02*
X87294048Y-202204819D01*
X87579762Y-202204819D02*
X87579762Y-201204819D01*
X87579762Y-201204819D02*
X87484524Y-201347676D01*
X87484524Y-201347676D02*
X87389286Y-201442914D01*
X87389286Y-201442914D02*
X87294048Y-201490533D01*
X88770238Y-201204819D02*
X88294048Y-201204819D01*
X88294048Y-201204819D02*
X88246429Y-201681009D01*
X88246429Y-201681009D02*
X88294048Y-201633390D01*
X88294048Y-201633390D02*
X88389286Y-201585771D01*
X88389286Y-201585771D02*
X88627381Y-201585771D01*
X88627381Y-201585771D02*
X88722619Y-201633390D01*
X88722619Y-201633390D02*
X88770238Y-201681009D01*
X88770238Y-201681009D02*
X88817857Y-201776247D01*
X88817857Y-201776247D02*
X88817857Y-202014342D01*
X88817857Y-202014342D02*
X88770238Y-202109580D01*
X88770238Y-202109580D02*
X88722619Y-202157200D01*
X88722619Y-202157200D02*
X88627381Y-202204819D01*
X88627381Y-202204819D02*
X88389286Y-202204819D01*
X88389286Y-202204819D02*
X88294048Y-202157200D01*
X88294048Y-202157200D02*
X88246429Y-202109580D01*
X70365476Y-201204819D02*
X70365476Y-201919104D01*
X70365476Y-201919104D02*
X70317857Y-202061961D01*
X70317857Y-202061961D02*
X70222619Y-202157200D01*
X70222619Y-202157200D02*
X70079762Y-202204819D01*
X70079762Y-202204819D02*
X69984524Y-202204819D01*
X71365476Y-202204819D02*
X70794048Y-202204819D01*
X71079762Y-202204819D02*
X71079762Y-201204819D01*
X71079762Y-201204819D02*
X70984524Y-201347676D01*
X70984524Y-201347676D02*
X70889286Y-201442914D01*
X70889286Y-201442914D02*
X70794048Y-201490533D01*
X72222619Y-201538152D02*
X72222619Y-202204819D01*
X71984524Y-201157200D02*
X71746429Y-201871485D01*
X71746429Y-201871485D02*
X72365476Y-201871485D01*
X119865476Y-182704819D02*
X119865476Y-183419104D01*
X119865476Y-183419104D02*
X119817857Y-183561961D01*
X119817857Y-183561961D02*
X119722619Y-183657200D01*
X119722619Y-183657200D02*
X119579762Y-183704819D01*
X119579762Y-183704819D02*
X119484524Y-183704819D01*
X120865476Y-183704819D02*
X120294048Y-183704819D01*
X120579762Y-183704819D02*
X120579762Y-182704819D01*
X120579762Y-182704819D02*
X120484524Y-182847676D01*
X120484524Y-182847676D02*
X120389286Y-182942914D01*
X120389286Y-182942914D02*
X120294048Y-182990533D01*
X121817857Y-183704819D02*
X121246429Y-183704819D01*
X121532143Y-183704819D02*
X121532143Y-182704819D01*
X121532143Y-182704819D02*
X121436905Y-182847676D01*
X121436905Y-182847676D02*
X121341667Y-182942914D01*
X121341667Y-182942914D02*
X121246429Y-182990533D01*
X146190476Y-91074819D02*
X146190476Y-91789104D01*
X146190476Y-91789104D02*
X146142857Y-91931961D01*
X146142857Y-91931961D02*
X146047619Y-92027200D01*
X146047619Y-92027200D02*
X145904762Y-92074819D01*
X145904762Y-92074819D02*
X145809524Y-92074819D01*
X146619048Y-91170057D02*
X146666667Y-91122438D01*
X146666667Y-91122438D02*
X146761905Y-91074819D01*
X146761905Y-91074819D02*
X147000000Y-91074819D01*
X147000000Y-91074819D02*
X147095238Y-91122438D01*
X147095238Y-91122438D02*
X147142857Y-91170057D01*
X147142857Y-91170057D02*
X147190476Y-91265295D01*
X147190476Y-91265295D02*
X147190476Y-91360533D01*
X147190476Y-91360533D02*
X147142857Y-91503390D01*
X147142857Y-91503390D02*
X146571429Y-92074819D01*
X146571429Y-92074819D02*
X147190476Y-92074819D01*
X147761905Y-91503390D02*
X147666667Y-91455771D01*
X147666667Y-91455771D02*
X147619048Y-91408152D01*
X147619048Y-91408152D02*
X147571429Y-91312914D01*
X147571429Y-91312914D02*
X147571429Y-91265295D01*
X147571429Y-91265295D02*
X147619048Y-91170057D01*
X147619048Y-91170057D02*
X147666667Y-91122438D01*
X147666667Y-91122438D02*
X147761905Y-91074819D01*
X147761905Y-91074819D02*
X147952381Y-91074819D01*
X147952381Y-91074819D02*
X148047619Y-91122438D01*
X148047619Y-91122438D02*
X148095238Y-91170057D01*
X148095238Y-91170057D02*
X148142857Y-91265295D01*
X148142857Y-91265295D02*
X148142857Y-91312914D01*
X148142857Y-91312914D02*
X148095238Y-91408152D01*
X148095238Y-91408152D02*
X148047619Y-91455771D01*
X148047619Y-91455771D02*
X147952381Y-91503390D01*
X147952381Y-91503390D02*
X147761905Y-91503390D01*
X147761905Y-91503390D02*
X147666667Y-91551009D01*
X147666667Y-91551009D02*
X147619048Y-91598628D01*
X147619048Y-91598628D02*
X147571429Y-91693866D01*
X147571429Y-91693866D02*
X147571429Y-91884342D01*
X147571429Y-91884342D02*
X147619048Y-91979580D01*
X147619048Y-91979580D02*
X147666667Y-92027200D01*
X147666667Y-92027200D02*
X147761905Y-92074819D01*
X147761905Y-92074819D02*
X147952381Y-92074819D01*
X147952381Y-92074819D02*
X148047619Y-92027200D01*
X148047619Y-92027200D02*
X148095238Y-91979580D01*
X148095238Y-91979580D02*
X148142857Y-91884342D01*
X148142857Y-91884342D02*
X148142857Y-91693866D01*
X148142857Y-91693866D02*
X148095238Y-91598628D01*
X148095238Y-91598628D02*
X148047619Y-91551009D01*
X148047619Y-91551009D02*
X147952381Y-91503390D01*
X103841666Y-164204819D02*
X103841666Y-164919104D01*
X103841666Y-164919104D02*
X103794047Y-165061961D01*
X103794047Y-165061961D02*
X103698809Y-165157200D01*
X103698809Y-165157200D02*
X103555952Y-165204819D01*
X103555952Y-165204819D02*
X103460714Y-165204819D01*
X104746428Y-164538152D02*
X104746428Y-165204819D01*
X104508333Y-164157200D02*
X104270238Y-164871485D01*
X104270238Y-164871485D02*
X104889285Y-164871485D01*
X87341666Y-164204819D02*
X87341666Y-164919104D01*
X87341666Y-164919104D02*
X87294047Y-165061961D01*
X87294047Y-165061961D02*
X87198809Y-165157200D01*
X87198809Y-165157200D02*
X87055952Y-165204819D01*
X87055952Y-165204819D02*
X86960714Y-165204819D01*
X87722619Y-164204819D02*
X88341666Y-164204819D01*
X88341666Y-164204819D02*
X88008333Y-164585771D01*
X88008333Y-164585771D02*
X88151190Y-164585771D01*
X88151190Y-164585771D02*
X88246428Y-164633390D01*
X88246428Y-164633390D02*
X88294047Y-164681009D01*
X88294047Y-164681009D02*
X88341666Y-164776247D01*
X88341666Y-164776247D02*
X88341666Y-165014342D01*
X88341666Y-165014342D02*
X88294047Y-165109580D01*
X88294047Y-165109580D02*
X88246428Y-165157200D01*
X88246428Y-165157200D02*
X88151190Y-165204819D01*
X88151190Y-165204819D02*
X87865476Y-165204819D01*
X87865476Y-165204819D02*
X87770238Y-165157200D01*
X87770238Y-165157200D02*
X87722619Y-165109580D01*
X133704819Y-213634523D02*
X134419104Y-213634523D01*
X134419104Y-213634523D02*
X134561961Y-213682142D01*
X134561961Y-213682142D02*
X134657200Y-213777380D01*
X134657200Y-213777380D02*
X134704819Y-213920237D01*
X134704819Y-213920237D02*
X134704819Y-214015475D01*
X134704819Y-212634523D02*
X134704819Y-213205951D01*
X134704819Y-212920237D02*
X133704819Y-212920237D01*
X133704819Y-212920237D02*
X133847676Y-213015475D01*
X133847676Y-213015475D02*
X133942914Y-213110713D01*
X133942914Y-213110713D02*
X133990533Y-213205951D01*
X134133390Y-212063094D02*
X134085771Y-212158332D01*
X134085771Y-212158332D02*
X134038152Y-212205951D01*
X134038152Y-212205951D02*
X133942914Y-212253570D01*
X133942914Y-212253570D02*
X133895295Y-212253570D01*
X133895295Y-212253570D02*
X133800057Y-212205951D01*
X133800057Y-212205951D02*
X133752438Y-212158332D01*
X133752438Y-212158332D02*
X133704819Y-212063094D01*
X133704819Y-212063094D02*
X133704819Y-211872618D01*
X133704819Y-211872618D02*
X133752438Y-211777380D01*
X133752438Y-211777380D02*
X133800057Y-211729761D01*
X133800057Y-211729761D02*
X133895295Y-211682142D01*
X133895295Y-211682142D02*
X133942914Y-211682142D01*
X133942914Y-211682142D02*
X134038152Y-211729761D01*
X134038152Y-211729761D02*
X134085771Y-211777380D01*
X134085771Y-211777380D02*
X134133390Y-211872618D01*
X134133390Y-211872618D02*
X134133390Y-212063094D01*
X134133390Y-212063094D02*
X134181009Y-212158332D01*
X134181009Y-212158332D02*
X134228628Y-212205951D01*
X134228628Y-212205951D02*
X134323866Y-212253570D01*
X134323866Y-212253570D02*
X134514342Y-212253570D01*
X134514342Y-212253570D02*
X134609580Y-212205951D01*
X134609580Y-212205951D02*
X134657200Y-212158332D01*
X134657200Y-212158332D02*
X134704819Y-212063094D01*
X134704819Y-212063094D02*
X134704819Y-211872618D01*
X134704819Y-211872618D02*
X134657200Y-211777380D01*
X134657200Y-211777380D02*
X134609580Y-211729761D01*
X134609580Y-211729761D02*
X134514342Y-211682142D01*
X134514342Y-211682142D02*
X134323866Y-211682142D01*
X134323866Y-211682142D02*
X134228628Y-211729761D01*
X134228628Y-211729761D02*
X134181009Y-211777380D01*
X134181009Y-211777380D02*
X134133390Y-211872618D01*
X53865476Y-201204819D02*
X53865476Y-201919104D01*
X53865476Y-201919104D02*
X53817857Y-202061961D01*
X53817857Y-202061961D02*
X53722619Y-202157200D01*
X53722619Y-202157200D02*
X53579762Y-202204819D01*
X53579762Y-202204819D02*
X53484524Y-202204819D01*
X54865476Y-202204819D02*
X54294048Y-202204819D01*
X54579762Y-202204819D02*
X54579762Y-201204819D01*
X54579762Y-201204819D02*
X54484524Y-201347676D01*
X54484524Y-201347676D02*
X54389286Y-201442914D01*
X54389286Y-201442914D02*
X54294048Y-201490533D01*
X55198810Y-201204819D02*
X55817857Y-201204819D01*
X55817857Y-201204819D02*
X55484524Y-201585771D01*
X55484524Y-201585771D02*
X55627381Y-201585771D01*
X55627381Y-201585771D02*
X55722619Y-201633390D01*
X55722619Y-201633390D02*
X55770238Y-201681009D01*
X55770238Y-201681009D02*
X55817857Y-201776247D01*
X55817857Y-201776247D02*
X55817857Y-202014342D01*
X55817857Y-202014342D02*
X55770238Y-202109580D01*
X55770238Y-202109580D02*
X55722619Y-202157200D01*
X55722619Y-202157200D02*
X55627381Y-202204819D01*
X55627381Y-202204819D02*
X55341667Y-202204819D01*
X55341667Y-202204819D02*
X55246429Y-202157200D01*
X55246429Y-202157200D02*
X55198810Y-202109580D01*
X70841666Y-164204819D02*
X70841666Y-164919104D01*
X70841666Y-164919104D02*
X70794047Y-165061961D01*
X70794047Y-165061961D02*
X70698809Y-165157200D01*
X70698809Y-165157200D02*
X70555952Y-165204819D01*
X70555952Y-165204819D02*
X70460714Y-165204819D01*
X71270238Y-164300057D02*
X71317857Y-164252438D01*
X71317857Y-164252438D02*
X71413095Y-164204819D01*
X71413095Y-164204819D02*
X71651190Y-164204819D01*
X71651190Y-164204819D02*
X71746428Y-164252438D01*
X71746428Y-164252438D02*
X71794047Y-164300057D01*
X71794047Y-164300057D02*
X71841666Y-164395295D01*
X71841666Y-164395295D02*
X71841666Y-164490533D01*
X71841666Y-164490533D02*
X71794047Y-164633390D01*
X71794047Y-164633390D02*
X71222619Y-165204819D01*
X71222619Y-165204819D02*
X71841666Y-165204819D01*
X70841666Y-182704819D02*
X70841666Y-183419104D01*
X70841666Y-183419104D02*
X70794047Y-183561961D01*
X70794047Y-183561961D02*
X70698809Y-183657200D01*
X70698809Y-183657200D02*
X70555952Y-183704819D01*
X70555952Y-183704819D02*
X70460714Y-183704819D01*
X71460714Y-183133390D02*
X71365476Y-183085771D01*
X71365476Y-183085771D02*
X71317857Y-183038152D01*
X71317857Y-183038152D02*
X71270238Y-182942914D01*
X71270238Y-182942914D02*
X71270238Y-182895295D01*
X71270238Y-182895295D02*
X71317857Y-182800057D01*
X71317857Y-182800057D02*
X71365476Y-182752438D01*
X71365476Y-182752438D02*
X71460714Y-182704819D01*
X71460714Y-182704819D02*
X71651190Y-182704819D01*
X71651190Y-182704819D02*
X71746428Y-182752438D01*
X71746428Y-182752438D02*
X71794047Y-182800057D01*
X71794047Y-182800057D02*
X71841666Y-182895295D01*
X71841666Y-182895295D02*
X71841666Y-182942914D01*
X71841666Y-182942914D02*
X71794047Y-183038152D01*
X71794047Y-183038152D02*
X71746428Y-183085771D01*
X71746428Y-183085771D02*
X71651190Y-183133390D01*
X71651190Y-183133390D02*
X71460714Y-183133390D01*
X71460714Y-183133390D02*
X71365476Y-183181009D01*
X71365476Y-183181009D02*
X71317857Y-183228628D01*
X71317857Y-183228628D02*
X71270238Y-183323866D01*
X71270238Y-183323866D02*
X71270238Y-183514342D01*
X71270238Y-183514342D02*
X71317857Y-183609580D01*
X71317857Y-183609580D02*
X71365476Y-183657200D01*
X71365476Y-183657200D02*
X71460714Y-183704819D01*
X71460714Y-183704819D02*
X71651190Y-183704819D01*
X71651190Y-183704819D02*
X71746428Y-183657200D01*
X71746428Y-183657200D02*
X71794047Y-183609580D01*
X71794047Y-183609580D02*
X71841666Y-183514342D01*
X71841666Y-183514342D02*
X71841666Y-183323866D01*
X71841666Y-183323866D02*
X71794047Y-183228628D01*
X71794047Y-183228628D02*
X71746428Y-183181009D01*
X71746428Y-183181009D02*
X71651190Y-183133390D01*
X146190476Y-49074819D02*
X146190476Y-49789104D01*
X146190476Y-49789104D02*
X146142857Y-49931961D01*
X146142857Y-49931961D02*
X146047619Y-50027200D01*
X146047619Y-50027200D02*
X145904762Y-50074819D01*
X145904762Y-50074819D02*
X145809524Y-50074819D01*
X146619048Y-49170057D02*
X146666667Y-49122438D01*
X146666667Y-49122438D02*
X146761905Y-49074819D01*
X146761905Y-49074819D02*
X147000000Y-49074819D01*
X147000000Y-49074819D02*
X147095238Y-49122438D01*
X147095238Y-49122438D02*
X147142857Y-49170057D01*
X147142857Y-49170057D02*
X147190476Y-49265295D01*
X147190476Y-49265295D02*
X147190476Y-49360533D01*
X147190476Y-49360533D02*
X147142857Y-49503390D01*
X147142857Y-49503390D02*
X146571429Y-50074819D01*
X146571429Y-50074819D02*
X147190476Y-50074819D01*
X147523810Y-49074819D02*
X148142857Y-49074819D01*
X148142857Y-49074819D02*
X147809524Y-49455771D01*
X147809524Y-49455771D02*
X147952381Y-49455771D01*
X147952381Y-49455771D02*
X148047619Y-49503390D01*
X148047619Y-49503390D02*
X148095238Y-49551009D01*
X148095238Y-49551009D02*
X148142857Y-49646247D01*
X148142857Y-49646247D02*
X148142857Y-49884342D01*
X148142857Y-49884342D02*
X148095238Y-49979580D01*
X148095238Y-49979580D02*
X148047619Y-50027200D01*
X148047619Y-50027200D02*
X147952381Y-50074819D01*
X147952381Y-50074819D02*
X147666667Y-50074819D01*
X147666667Y-50074819D02*
X147571429Y-50027200D01*
X147571429Y-50027200D02*
X147523810Y-49979580D01*
X120341666Y-164204819D02*
X120341666Y-164919104D01*
X120341666Y-164919104D02*
X120294047Y-165061961D01*
X120294047Y-165061961D02*
X120198809Y-165157200D01*
X120198809Y-165157200D02*
X120055952Y-165204819D01*
X120055952Y-165204819D02*
X119960714Y-165204819D01*
X121294047Y-164204819D02*
X120817857Y-164204819D01*
X120817857Y-164204819D02*
X120770238Y-164681009D01*
X120770238Y-164681009D02*
X120817857Y-164633390D01*
X120817857Y-164633390D02*
X120913095Y-164585771D01*
X120913095Y-164585771D02*
X121151190Y-164585771D01*
X121151190Y-164585771D02*
X121246428Y-164633390D01*
X121246428Y-164633390D02*
X121294047Y-164681009D01*
X121294047Y-164681009D02*
X121341666Y-164776247D01*
X121341666Y-164776247D02*
X121341666Y-165014342D01*
X121341666Y-165014342D02*
X121294047Y-165109580D01*
X121294047Y-165109580D02*
X121246428Y-165157200D01*
X121246428Y-165157200D02*
X121151190Y-165204819D01*
X121151190Y-165204819D02*
X120913095Y-165204819D01*
X120913095Y-165204819D02*
X120817857Y-165157200D01*
X120817857Y-165157200D02*
X120770238Y-165109580D01*
X133704819Y-195134523D02*
X134419104Y-195134523D01*
X134419104Y-195134523D02*
X134561961Y-195182142D01*
X134561961Y-195182142D02*
X134657200Y-195277380D01*
X134657200Y-195277380D02*
X134704819Y-195420237D01*
X134704819Y-195420237D02*
X134704819Y-195515475D01*
X134704819Y-194134523D02*
X134704819Y-194705951D01*
X134704819Y-194420237D02*
X133704819Y-194420237D01*
X133704819Y-194420237D02*
X133847676Y-194515475D01*
X133847676Y-194515475D02*
X133942914Y-194610713D01*
X133942914Y-194610713D02*
X133990533Y-194705951D01*
X133800057Y-193753570D02*
X133752438Y-193705951D01*
X133752438Y-193705951D02*
X133704819Y-193610713D01*
X133704819Y-193610713D02*
X133704819Y-193372618D01*
X133704819Y-193372618D02*
X133752438Y-193277380D01*
X133752438Y-193277380D02*
X133800057Y-193229761D01*
X133800057Y-193229761D02*
X133895295Y-193182142D01*
X133895295Y-193182142D02*
X133990533Y-193182142D01*
X133990533Y-193182142D02*
X134133390Y-193229761D01*
X134133390Y-193229761D02*
X134704819Y-193801189D01*
X134704819Y-193801189D02*
X134704819Y-193182142D01*
X133704819Y-176158333D02*
X134419104Y-176158333D01*
X134419104Y-176158333D02*
X134561961Y-176205952D01*
X134561961Y-176205952D02*
X134657200Y-176301190D01*
X134657200Y-176301190D02*
X134704819Y-176444047D01*
X134704819Y-176444047D02*
X134704819Y-176539285D01*
X133704819Y-175253571D02*
X133704819Y-175444047D01*
X133704819Y-175444047D02*
X133752438Y-175539285D01*
X133752438Y-175539285D02*
X133800057Y-175586904D01*
X133800057Y-175586904D02*
X133942914Y-175682142D01*
X133942914Y-175682142D02*
X134133390Y-175729761D01*
X134133390Y-175729761D02*
X134514342Y-175729761D01*
X134514342Y-175729761D02*
X134609580Y-175682142D01*
X134609580Y-175682142D02*
X134657200Y-175634523D01*
X134657200Y-175634523D02*
X134704819Y-175539285D01*
X134704819Y-175539285D02*
X134704819Y-175348809D01*
X134704819Y-175348809D02*
X134657200Y-175253571D01*
X134657200Y-175253571D02*
X134609580Y-175205952D01*
X134609580Y-175205952D02*
X134514342Y-175158333D01*
X134514342Y-175158333D02*
X134276247Y-175158333D01*
X134276247Y-175158333D02*
X134181009Y-175205952D01*
X134181009Y-175205952D02*
X134133390Y-175253571D01*
X134133390Y-175253571D02*
X134085771Y-175348809D01*
X134085771Y-175348809D02*
X134085771Y-175539285D01*
X134085771Y-175539285D02*
X134133390Y-175634523D01*
X134133390Y-175634523D02*
X134181009Y-175682142D01*
X134181009Y-175682142D02*
X134276247Y-175729761D01*
X119865476Y-201204819D02*
X119865476Y-201919104D01*
X119865476Y-201919104D02*
X119817857Y-202061961D01*
X119817857Y-202061961D02*
X119722619Y-202157200D01*
X119722619Y-202157200D02*
X119579762Y-202204819D01*
X119579762Y-202204819D02*
X119484524Y-202204819D01*
X120865476Y-202204819D02*
X120294048Y-202204819D01*
X120579762Y-202204819D02*
X120579762Y-201204819D01*
X120579762Y-201204819D02*
X120484524Y-201347676D01*
X120484524Y-201347676D02*
X120389286Y-201442914D01*
X120389286Y-201442914D02*
X120294048Y-201490533D01*
X121198810Y-201204819D02*
X121865476Y-201204819D01*
X121865476Y-201204819D02*
X121436905Y-202204819D01*
X52190476Y-91074819D02*
X52190476Y-91789104D01*
X52190476Y-91789104D02*
X52142857Y-91931961D01*
X52142857Y-91931961D02*
X52047619Y-92027200D01*
X52047619Y-92027200D02*
X51904762Y-92074819D01*
X51904762Y-92074819D02*
X51809524Y-92074819D01*
X52619048Y-91170057D02*
X52666667Y-91122438D01*
X52666667Y-91122438D02*
X52761905Y-91074819D01*
X52761905Y-91074819D02*
X53000000Y-91074819D01*
X53000000Y-91074819D02*
X53095238Y-91122438D01*
X53095238Y-91122438D02*
X53142857Y-91170057D01*
X53142857Y-91170057D02*
X53190476Y-91265295D01*
X53190476Y-91265295D02*
X53190476Y-91360533D01*
X53190476Y-91360533D02*
X53142857Y-91503390D01*
X53142857Y-91503390D02*
X52571429Y-92074819D01*
X52571429Y-92074819D02*
X53190476Y-92074819D01*
X53523810Y-91074819D02*
X54190476Y-91074819D01*
X54190476Y-91074819D02*
X53761905Y-92074819D01*
X146190476Y-132074819D02*
X146190476Y-132789104D01*
X146190476Y-132789104D02*
X146142857Y-132931961D01*
X146142857Y-132931961D02*
X146047619Y-133027200D01*
X146047619Y-133027200D02*
X145904762Y-133074819D01*
X145904762Y-133074819D02*
X145809524Y-133074819D01*
X146571429Y-132074819D02*
X147190476Y-132074819D01*
X147190476Y-132074819D02*
X146857143Y-132455771D01*
X146857143Y-132455771D02*
X147000000Y-132455771D01*
X147000000Y-132455771D02*
X147095238Y-132503390D01*
X147095238Y-132503390D02*
X147142857Y-132551009D01*
X147142857Y-132551009D02*
X147190476Y-132646247D01*
X147190476Y-132646247D02*
X147190476Y-132884342D01*
X147190476Y-132884342D02*
X147142857Y-132979580D01*
X147142857Y-132979580D02*
X147095238Y-133027200D01*
X147095238Y-133027200D02*
X147000000Y-133074819D01*
X147000000Y-133074819D02*
X146714286Y-133074819D01*
X146714286Y-133074819D02*
X146619048Y-133027200D01*
X146619048Y-133027200D02*
X146571429Y-132979580D01*
X147523810Y-132074819D02*
X148142857Y-132074819D01*
X148142857Y-132074819D02*
X147809524Y-132455771D01*
X147809524Y-132455771D02*
X147952381Y-132455771D01*
X147952381Y-132455771D02*
X148047619Y-132503390D01*
X148047619Y-132503390D02*
X148095238Y-132551009D01*
X148095238Y-132551009D02*
X148142857Y-132646247D01*
X148142857Y-132646247D02*
X148142857Y-132884342D01*
X148142857Y-132884342D02*
X148095238Y-132979580D01*
X148095238Y-132979580D02*
X148047619Y-133027200D01*
X148047619Y-133027200D02*
X147952381Y-133074819D01*
X147952381Y-133074819D02*
X147666667Y-133074819D01*
X147666667Y-133074819D02*
X147571429Y-133027200D01*
X147571429Y-133027200D02*
X147523810Y-132979580D01*
X90749819Y-54734523D02*
X91464104Y-54734523D01*
X91464104Y-54734523D02*
X91606961Y-54782142D01*
X91606961Y-54782142D02*
X91702200Y-54877380D01*
X91702200Y-54877380D02*
X91749819Y-55020237D01*
X91749819Y-55020237D02*
X91749819Y-55115475D01*
X90749819Y-53782142D02*
X90749819Y-54258332D01*
X90749819Y-54258332D02*
X91226009Y-54305951D01*
X91226009Y-54305951D02*
X91178390Y-54258332D01*
X91178390Y-54258332D02*
X91130771Y-54163094D01*
X91130771Y-54163094D02*
X91130771Y-53924999D01*
X91130771Y-53924999D02*
X91178390Y-53829761D01*
X91178390Y-53829761D02*
X91226009Y-53782142D01*
X91226009Y-53782142D02*
X91321247Y-53734523D01*
X91321247Y-53734523D02*
X91559342Y-53734523D01*
X91559342Y-53734523D02*
X91654580Y-53782142D01*
X91654580Y-53782142D02*
X91702200Y-53829761D01*
X91702200Y-53829761D02*
X91749819Y-53924999D01*
X91749819Y-53924999D02*
X91749819Y-54163094D01*
X91749819Y-54163094D02*
X91702200Y-54258332D01*
X91702200Y-54258332D02*
X91654580Y-54305951D01*
X90845057Y-53353570D02*
X90797438Y-53305951D01*
X90797438Y-53305951D02*
X90749819Y-53210713D01*
X90749819Y-53210713D02*
X90749819Y-52972618D01*
X90749819Y-52972618D02*
X90797438Y-52877380D01*
X90797438Y-52877380D02*
X90845057Y-52829761D01*
X90845057Y-52829761D02*
X90940295Y-52782142D01*
X90940295Y-52782142D02*
X91035533Y-52782142D01*
X91035533Y-52782142D02*
X91178390Y-52829761D01*
X91178390Y-52829761D02*
X91749819Y-53401189D01*
X91749819Y-53401189D02*
X91749819Y-52782142D01*
X103365476Y-182704819D02*
X103365476Y-183419104D01*
X103365476Y-183419104D02*
X103317857Y-183561961D01*
X103317857Y-183561961D02*
X103222619Y-183657200D01*
X103222619Y-183657200D02*
X103079762Y-183704819D01*
X103079762Y-183704819D02*
X102984524Y-183704819D01*
X104365476Y-183704819D02*
X103794048Y-183704819D01*
X104079762Y-183704819D02*
X104079762Y-182704819D01*
X104079762Y-182704819D02*
X103984524Y-182847676D01*
X103984524Y-182847676D02*
X103889286Y-182942914D01*
X103889286Y-182942914D02*
X103794048Y-182990533D01*
X104984524Y-182704819D02*
X105079762Y-182704819D01*
X105079762Y-182704819D02*
X105175000Y-182752438D01*
X105175000Y-182752438D02*
X105222619Y-182800057D01*
X105222619Y-182800057D02*
X105270238Y-182895295D01*
X105270238Y-182895295D02*
X105317857Y-183085771D01*
X105317857Y-183085771D02*
X105317857Y-183323866D01*
X105317857Y-183323866D02*
X105270238Y-183514342D01*
X105270238Y-183514342D02*
X105222619Y-183609580D01*
X105222619Y-183609580D02*
X105175000Y-183657200D01*
X105175000Y-183657200D02*
X105079762Y-183704819D01*
X105079762Y-183704819D02*
X104984524Y-183704819D01*
X104984524Y-183704819D02*
X104889286Y-183657200D01*
X104889286Y-183657200D02*
X104841667Y-183609580D01*
X104841667Y-183609580D02*
X104794048Y-183514342D01*
X104794048Y-183514342D02*
X104746429Y-183323866D01*
X104746429Y-183323866D02*
X104746429Y-183085771D01*
X104746429Y-183085771D02*
X104794048Y-182895295D01*
X104794048Y-182895295D02*
X104841667Y-182800057D01*
X104841667Y-182800057D02*
X104889286Y-182752438D01*
X104889286Y-182752438D02*
X104984524Y-182704819D01*
%TO.C,J16*%
X108250000Y-204550000D02*
X105900000Y-204550000D01*
X108250000Y-204550000D02*
X110600000Y-204550000D01*
X108250000Y-212950000D02*
X105900000Y-212950000D01*
X108250000Y-212950000D02*
X110600000Y-212950000D01*
X103450000Y-208750000D02*
G75*
G02*
X105906222Y-204561121I4800000J0D01*
G01*
X105906222Y-212938879D02*
G75*
G02*
X103450000Y-208750000I2343778J4188879D01*
G01*
X110593778Y-204561121D02*
G75*
G02*
X113050000Y-208750000I-2343781J-4188881D01*
G01*
X113050000Y-208750000D02*
G75*
G02*
X110593778Y-212938879I-4800003J2D01*
G01*
%TO.C,J7*%
X58750000Y-186050000D02*
X56400000Y-186050000D01*
X58750000Y-186050000D02*
X61100000Y-186050000D01*
X58750000Y-194450000D02*
X56400000Y-194450000D01*
X58750000Y-194450000D02*
X61100000Y-194450000D01*
X53950000Y-190250000D02*
G75*
G02*
X56406222Y-186061121I4800000J0D01*
G01*
X56406222Y-194438879D02*
G75*
G02*
X53950000Y-190250000I2343778J4188879D01*
G01*
X61093778Y-186061121D02*
G75*
G02*
X63550000Y-190250000I-2343781J-4188881D01*
G01*
X63550000Y-190250000D02*
G75*
G02*
X61093778Y-194438879I-4800003J2D01*
G01*
%TO.C,J9*%
X91750000Y-186050000D02*
X89400000Y-186050000D01*
X91750000Y-186050000D02*
X94100000Y-186050000D01*
X91750000Y-194450000D02*
X89400000Y-194450000D01*
X91750000Y-194450000D02*
X94100000Y-194450000D01*
X86950000Y-190250000D02*
G75*
G02*
X89406222Y-186061121I4800000J0D01*
G01*
X89406222Y-194438879D02*
G75*
G02*
X86950000Y-190250000I2343778J4188879D01*
G01*
X94093778Y-186061121D02*
G75*
G02*
X96550000Y-190250000I-2343781J-4188881D01*
G01*
X96550000Y-190250000D02*
G75*
G02*
X94093778Y-194438879I-4800003J2D01*
G01*
D11*
%TO.C,J22*%
X51620000Y-50620000D02*
X53000000Y-50620000D01*
X51620000Y-52000000D02*
X51620000Y-50620000D01*
X51620000Y-53270000D02*
X51620000Y-71160000D01*
X51620000Y-53270000D02*
X54380000Y-53270000D01*
X51620000Y-71160000D02*
X54380000Y-71160000D01*
X54380000Y-53270000D02*
X54380000Y-71160000D01*
D10*
%TO.C,J1*%
X58750000Y-167550000D02*
X56400000Y-167550000D01*
X58750000Y-167550000D02*
X61100000Y-167550000D01*
X58750000Y-175950000D02*
X56400000Y-175950000D01*
X58750000Y-175950000D02*
X61100000Y-175950000D01*
X53950000Y-171750000D02*
G75*
G02*
X56406222Y-167561121I4800000J0D01*
G01*
X56406222Y-175938879D02*
G75*
G02*
X53950000Y-171750000I2343778J4188879D01*
G01*
X61093778Y-167561121D02*
G75*
G02*
X63550000Y-171750000I-2343781J-4188881D01*
G01*
X63550000Y-171750000D02*
G75*
G02*
X61093778Y-175938879I-4800003J2D01*
G01*
D11*
%TO.C,J32*%
X51620000Y-133620000D02*
X53000000Y-133620000D01*
X51620000Y-135000000D02*
X51620000Y-133620000D01*
X51620000Y-136270000D02*
X51620000Y-154160000D01*
X51620000Y-136270000D02*
X54380000Y-136270000D01*
X51620000Y-154160000D02*
X54380000Y-154160000D01*
X54380000Y-136270000D02*
X54380000Y-154160000D01*
D10*
%TO.C,J15*%
X91750000Y-204550000D02*
X89400000Y-204550000D01*
X91750000Y-204550000D02*
X94100000Y-204550000D01*
X91750000Y-212950000D02*
X89400000Y-212950000D01*
X91750000Y-212950000D02*
X94100000Y-212950000D01*
X86950000Y-208750000D02*
G75*
G02*
X89406222Y-204561121I4800000J0D01*
G01*
X89406222Y-212938879D02*
G75*
G02*
X86950000Y-208750000I2343778J4188879D01*
G01*
X94093778Y-204561121D02*
G75*
G02*
X96550000Y-208750000I-2343781J-4188881D01*
G01*
X96550000Y-208750000D02*
G75*
G02*
X94093778Y-212938879I-4800003J2D01*
G01*
%TO.C,J14*%
X75250000Y-204550000D02*
X72900000Y-204550000D01*
X75250000Y-204550000D02*
X77600000Y-204550000D01*
X75250000Y-212950000D02*
X72900000Y-212950000D01*
X75250000Y-212950000D02*
X77600000Y-212950000D01*
X70450000Y-208750000D02*
G75*
G02*
X72906222Y-204561121I4800000J0D01*
G01*
X72906222Y-212938879D02*
G75*
G02*
X70450000Y-208750000I2343778J4188879D01*
G01*
X77593778Y-204561121D02*
G75*
G02*
X80050000Y-208750000I-2343781J-4188881D01*
G01*
X80050000Y-208750000D02*
G75*
G02*
X77593778Y-212938879I-4800003J2D01*
G01*
%TO.C,J11*%
X124750000Y-186050000D02*
X122400000Y-186050000D01*
X124750000Y-186050000D02*
X127100000Y-186050000D01*
X124750000Y-194450000D02*
X122400000Y-194450000D01*
X124750000Y-194450000D02*
X127100000Y-194450000D01*
X119950000Y-190250000D02*
G75*
G02*
X122406222Y-186061121I4800000J0D01*
G01*
X122406222Y-194438879D02*
G75*
G02*
X119950000Y-190250000I2343778J4188879D01*
G01*
X127093778Y-186061121D02*
G75*
G02*
X129550000Y-190250000I-2343781J-4188881D01*
G01*
X129550000Y-190250000D02*
G75*
G02*
X127093778Y-194438879I-4800003J2D01*
G01*
D11*
%TO.C,J28*%
X145620000Y-92620000D02*
X147000000Y-92620000D01*
X145620000Y-94000000D02*
X145620000Y-92620000D01*
X145620000Y-95270000D02*
X145620000Y-113160000D01*
X145620000Y-95270000D02*
X148380000Y-95270000D01*
X145620000Y-113160000D02*
X148380000Y-113160000D01*
X148380000Y-95270000D02*
X148380000Y-113160000D01*
D10*
%TO.C,J4*%
X108250000Y-167550000D02*
X105900000Y-167550000D01*
X108250000Y-167550000D02*
X110600000Y-167550000D01*
X108250000Y-175950000D02*
X105900000Y-175950000D01*
X108250000Y-175950000D02*
X110600000Y-175950000D01*
X103450000Y-171750000D02*
G75*
G02*
X105906222Y-167561121I4800000J0D01*
G01*
X105906222Y-175938879D02*
G75*
G02*
X103450000Y-171750000I2343778J4188879D01*
G01*
X110593778Y-167561121D02*
G75*
G02*
X113050000Y-171750000I-2343781J-4188881D01*
G01*
X113050000Y-171750000D02*
G75*
G02*
X110593778Y-175938879I-4800003J2D01*
G01*
%TO.C,J3*%
X91750000Y-167550000D02*
X89400000Y-167550000D01*
X91750000Y-167550000D02*
X94100000Y-167550000D01*
X91750000Y-175950000D02*
X89400000Y-175950000D01*
X91750000Y-175950000D02*
X94100000Y-175950000D01*
X86950000Y-171750000D02*
G75*
G02*
X89406222Y-167561121I4800000J0D01*
G01*
X89406222Y-175938879D02*
G75*
G02*
X86950000Y-171750000I2343778J4188879D01*
G01*
X94093778Y-167561121D02*
G75*
G02*
X96550000Y-171750000I-2343781J-4188881D01*
G01*
X96550000Y-171750000D02*
G75*
G02*
X94093778Y-175938879I-4800003J2D01*
G01*
%TO.C,J18*%
X137050000Y-208750000D02*
X137050000Y-206400000D01*
X137050000Y-208750000D02*
X137050000Y-211100000D01*
X145450000Y-208750000D02*
X145450000Y-206400000D01*
X145450000Y-208750000D02*
X145450000Y-211100000D01*
X137061121Y-206406222D02*
G75*
G02*
X141250000Y-203950000I4188881J-2343781D01*
G01*
X141250000Y-203950000D02*
G75*
G02*
X145438879Y-206406222I-2J-4800003D01*
G01*
X141250000Y-213550000D02*
G75*
G02*
X137061121Y-211093778I0J4800000D01*
G01*
X145438879Y-211093778D02*
G75*
G02*
X141250000Y-213550000I-4188879J2343778D01*
G01*
%TO.C,J13*%
X58750000Y-204550000D02*
X56400000Y-204550000D01*
X58750000Y-204550000D02*
X61100000Y-204550000D01*
X58750000Y-212950000D02*
X56400000Y-212950000D01*
X58750000Y-212950000D02*
X61100000Y-212950000D01*
X53950000Y-208750000D02*
G75*
G02*
X56406222Y-204561121I4800000J0D01*
G01*
X56406222Y-212938879D02*
G75*
G02*
X53950000Y-208750000I2343778J4188879D01*
G01*
X61093778Y-204561121D02*
G75*
G02*
X63550000Y-208750000I-2343781J-4188881D01*
G01*
X63550000Y-208750000D02*
G75*
G02*
X61093778Y-212938879I-4800003J2D01*
G01*
%TO.C,J2*%
X75250000Y-167550000D02*
X72900000Y-167550000D01*
X75250000Y-167550000D02*
X77600000Y-167550000D01*
X75250000Y-175950000D02*
X72900000Y-175950000D01*
X75250000Y-175950000D02*
X77600000Y-175950000D01*
X70450000Y-171750000D02*
G75*
G02*
X72906222Y-167561121I4800000J0D01*
G01*
X72906222Y-175938879D02*
G75*
G02*
X70450000Y-171750000I2343778J4188879D01*
G01*
X77593778Y-167561121D02*
G75*
G02*
X80050000Y-171750000I-2343781J-4188881D01*
G01*
X80050000Y-171750000D02*
G75*
G02*
X77593778Y-175938879I-4800003J2D01*
G01*
%TO.C,J8*%
X75250000Y-186050000D02*
X72900000Y-186050000D01*
X75250000Y-186050000D02*
X77600000Y-186050000D01*
X75250000Y-194450000D02*
X72900000Y-194450000D01*
X75250000Y-194450000D02*
X77600000Y-194450000D01*
X70450000Y-190250000D02*
G75*
G02*
X72906222Y-186061121I4800000J0D01*
G01*
X72906222Y-194438879D02*
G75*
G02*
X70450000Y-190250000I2343778J4188879D01*
G01*
X77593778Y-186061121D02*
G75*
G02*
X80050000Y-190250000I-2343781J-4188881D01*
G01*
X80050000Y-190250000D02*
G75*
G02*
X77593778Y-194438879I-4800003J2D01*
G01*
D11*
%TO.C,J23*%
X145620000Y-50620000D02*
X147000000Y-50620000D01*
X145620000Y-52000000D02*
X145620000Y-50620000D01*
X145620000Y-53270000D02*
X145620000Y-71160000D01*
X145620000Y-53270000D02*
X148380000Y-53270000D01*
X145620000Y-71160000D02*
X148380000Y-71160000D01*
X148380000Y-53270000D02*
X148380000Y-71160000D01*
D10*
%TO.C,J5*%
X124750000Y-167550000D02*
X122400000Y-167550000D01*
X124750000Y-167550000D02*
X127100000Y-167550000D01*
X124750000Y-175950000D02*
X122400000Y-175950000D01*
X124750000Y-175950000D02*
X127100000Y-175950000D01*
X119950000Y-171750000D02*
G75*
G02*
X122406222Y-167561121I4800000J0D01*
G01*
X122406222Y-175938879D02*
G75*
G02*
X119950000Y-171750000I2343778J4188879D01*
G01*
X127093778Y-167561121D02*
G75*
G02*
X129550000Y-171750000I-2343781J-4188881D01*
G01*
X129550000Y-171750000D02*
G75*
G02*
X127093778Y-175938879I-4800003J2D01*
G01*
%TO.C,J12*%
X137050000Y-190250000D02*
X137050000Y-187900000D01*
X137050000Y-190250000D02*
X137050000Y-192600000D01*
X145450000Y-190250000D02*
X145450000Y-187900000D01*
X145450000Y-190250000D02*
X145450000Y-192600000D01*
X137061121Y-187906222D02*
G75*
G02*
X141250000Y-185450000I4188881J-2343781D01*
G01*
X141250000Y-185450000D02*
G75*
G02*
X145438879Y-187906222I-2J-4800003D01*
G01*
X141250000Y-195050000D02*
G75*
G02*
X137061121Y-192593778I0J4800000D01*
G01*
X145438879Y-192593778D02*
G75*
G02*
X141250000Y-195050000I-4188879J2343778D01*
G01*
%TO.C,J6*%
X137050000Y-171750000D02*
X137050000Y-169400000D01*
X137050000Y-171750000D02*
X137050000Y-174100000D01*
X145450000Y-171750000D02*
X145450000Y-169400000D01*
X145450000Y-171750000D02*
X145450000Y-174100000D01*
X137061121Y-169406222D02*
G75*
G02*
X141250000Y-166950000I4188881J-2343781D01*
G01*
X141250000Y-166950000D02*
G75*
G02*
X145438879Y-169406222I-2J-4800003D01*
G01*
X141250000Y-176550000D02*
G75*
G02*
X137061121Y-174093778I0J4800000D01*
G01*
X145438879Y-174093778D02*
G75*
G02*
X141250000Y-176550000I-4188879J2343778D01*
G01*
%TO.C,J17*%
X124750000Y-204550000D02*
X122400000Y-204550000D01*
X124750000Y-204550000D02*
X127100000Y-204550000D01*
X124750000Y-212950000D02*
X122400000Y-212950000D01*
X124750000Y-212950000D02*
X127100000Y-212950000D01*
X119950000Y-208750000D02*
G75*
G02*
X122406222Y-204561121I4800000J0D01*
G01*
X122406222Y-212938879D02*
G75*
G02*
X119950000Y-208750000I2343778J4188879D01*
G01*
X127093778Y-204561121D02*
G75*
G02*
X129550000Y-208750000I-2343781J-4188881D01*
G01*
X129550000Y-208750000D02*
G75*
G02*
X127093778Y-212938879I-4800003J2D01*
G01*
D11*
%TO.C,J27*%
X51620000Y-92620000D02*
X53000000Y-92620000D01*
X51620000Y-94000000D02*
X51620000Y-92620000D01*
X51620000Y-95270000D02*
X51620000Y-113160000D01*
X51620000Y-95270000D02*
X54380000Y-95270000D01*
X51620000Y-113160000D02*
X54380000Y-113160000D01*
X54380000Y-95270000D02*
X54380000Y-113160000D01*
%TO.C,J33*%
X145620000Y-133620000D02*
X147000000Y-133620000D01*
X145620000Y-135000000D02*
X145620000Y-133620000D01*
X145620000Y-136270000D02*
X145620000Y-154160000D01*
X145620000Y-136270000D02*
X148380000Y-136270000D01*
X145620000Y-154160000D02*
X148380000Y-154160000D01*
X148380000Y-136270000D02*
X148380000Y-154160000D01*
%TO.C,J52*%
X92295000Y-55305000D02*
X92295000Y-53925000D01*
X93675000Y-55305000D02*
X92295000Y-55305000D01*
X94945000Y-52545000D02*
X107755000Y-52545000D01*
X94945000Y-55305000D02*
X94945000Y-52545000D01*
X94945000Y-55305000D02*
X107755000Y-55305000D01*
X107755000Y-55305000D02*
X107755000Y-52545000D01*
D10*
%TO.C,J10*%
X108250000Y-186050000D02*
X105900000Y-186050000D01*
X108250000Y-186050000D02*
X110600000Y-186050000D01*
X108250000Y-194450000D02*
X105900000Y-194450000D01*
X108250000Y-194450000D02*
X110600000Y-194450000D01*
X103450000Y-190250000D02*
G75*
G02*
X105906222Y-186061121I4800000J0D01*
G01*
X105906222Y-194438879D02*
G75*
G02*
X103450000Y-190250000I2343778J4188879D01*
G01*
X110593778Y-186061121D02*
G75*
G02*
X113050000Y-190250000I-2343781J-4188881D01*
G01*
X113050000Y-190250000D02*
G75*
G02*
X110593778Y-194438879I-4800003J2D01*
G01*
%TD*%
%LPC*%
D12*
%TO.C,J16*%
X103653810Y-204153810D03*
D13*
X114750000Y-208250000D03*
D14*
X110750000Y-202250000D03*
%TD*%
D12*
%TO.C,J7*%
X54153810Y-185653810D03*
D13*
X65250000Y-189750000D03*
D14*
X61250000Y-183750000D03*
%TD*%
D12*
%TO.C,J9*%
X87153810Y-185653810D03*
D13*
X98250000Y-189750000D03*
D14*
X94250000Y-183750000D03*
%TD*%
D15*
%TO.C,J22*%
X53000000Y-52000000D03*
D16*
X53000000Y-54540000D03*
X53000000Y-57080000D03*
X53000000Y-59620000D03*
X53000000Y-62160000D03*
X53000000Y-64700000D03*
X53000000Y-67240000D03*
X53000000Y-69780000D03*
%TD*%
D12*
%TO.C,J1*%
X54153810Y-167153810D03*
D13*
X65250000Y-171250000D03*
D14*
X61250000Y-165250000D03*
%TD*%
D15*
%TO.C,J32*%
X53000000Y-135000000D03*
D16*
X53000000Y-137540000D03*
X53000000Y-140080000D03*
X53000000Y-142620000D03*
X53000000Y-145160000D03*
X53000000Y-147700000D03*
X53000000Y-150240000D03*
X53000000Y-152780000D03*
%TD*%
D12*
%TO.C,J15*%
X87153810Y-204153810D03*
D13*
X98250000Y-208250000D03*
D14*
X94250000Y-202250000D03*
%TD*%
D12*
%TO.C,J14*%
X70653810Y-204153810D03*
D13*
X81750000Y-208250000D03*
D14*
X77750000Y-202250000D03*
%TD*%
D12*
%TO.C,J11*%
X120153810Y-185653810D03*
D13*
X131250000Y-189750000D03*
D14*
X127250000Y-183750000D03*
%TD*%
D15*
%TO.C,J28*%
X147000000Y-94000000D03*
D16*
X147000000Y-96540000D03*
X147000000Y-99080000D03*
X147000000Y-101620000D03*
X147000000Y-104160000D03*
X147000000Y-106700000D03*
X147000000Y-109240000D03*
X147000000Y-111780000D03*
%TD*%
D12*
%TO.C,J4*%
X103653810Y-167153810D03*
D13*
X114750000Y-171250000D03*
D14*
X110750000Y-165250000D03*
%TD*%
D12*
%TO.C,J3*%
X87153810Y-167153810D03*
D13*
X98250000Y-171250000D03*
D14*
X94250000Y-165250000D03*
%TD*%
D17*
%TO.C,J18*%
X136653810Y-213346190D03*
D14*
X140750000Y-202250000D03*
D13*
X134750000Y-206250000D03*
%TD*%
D12*
%TO.C,J13*%
X54153810Y-204153810D03*
D13*
X65250000Y-208250000D03*
D14*
X61250000Y-202250000D03*
%TD*%
D12*
%TO.C,J2*%
X70653810Y-167153810D03*
D13*
X81750000Y-171250000D03*
D14*
X77750000Y-165250000D03*
%TD*%
D12*
%TO.C,J8*%
X70653810Y-185653810D03*
D13*
X81750000Y-189750000D03*
D14*
X77750000Y-183750000D03*
%TD*%
D15*
%TO.C,J23*%
X147000000Y-52000000D03*
D16*
X147000000Y-54540000D03*
X147000000Y-57080000D03*
X147000000Y-59620000D03*
X147000000Y-62160000D03*
X147000000Y-64700000D03*
X147000000Y-67240000D03*
X147000000Y-69780000D03*
%TD*%
D12*
%TO.C,J5*%
X120153810Y-167153810D03*
D13*
X131250000Y-171250000D03*
D14*
X127250000Y-165250000D03*
%TD*%
D17*
%TO.C,J12*%
X136653810Y-194846190D03*
D14*
X140750000Y-183750000D03*
D13*
X134750000Y-187750000D03*
%TD*%
D17*
%TO.C,J6*%
X136653810Y-176346190D03*
D14*
X140750000Y-165250000D03*
D13*
X134750000Y-169250000D03*
%TD*%
D12*
%TO.C,J17*%
X120153810Y-204153810D03*
D13*
X131250000Y-208250000D03*
D14*
X127250000Y-202250000D03*
%TD*%
D15*
%TO.C,J27*%
X53000000Y-94000000D03*
D16*
X53000000Y-96540000D03*
X53000000Y-99080000D03*
X53000000Y-101620000D03*
X53000000Y-104160000D03*
X53000000Y-106700000D03*
X53000000Y-109240000D03*
X53000000Y-111780000D03*
%TD*%
D15*
%TO.C,J33*%
X147000000Y-135000000D03*
D16*
X147000000Y-137540000D03*
X147000000Y-140080000D03*
X147000000Y-142620000D03*
X147000000Y-145160000D03*
X147000000Y-147700000D03*
X147000000Y-150240000D03*
X147000000Y-152780000D03*
%TD*%
D15*
%TO.C,J52*%
X93675000Y-53925000D03*
D16*
X96215000Y-53925000D03*
X98755000Y-53925000D03*
X101295000Y-53925000D03*
X103835000Y-53925000D03*
X106375000Y-53925000D03*
%TD*%
D12*
%TO.C,J10*%
X103653810Y-185653810D03*
D13*
X114750000Y-189750000D03*
D14*
X110750000Y-183750000D03*
%TD*%
D18*
%TO.C,C60*%
X117900000Y-71800000D03*
X117900000Y-76800000D03*
%TD*%
%TO.C,R27*%
X117836406Y-102610000D03*
X117836406Y-94990000D03*
%TD*%
%TO.C,R42*%
X123118203Y-135890000D03*
X123118203Y-143510000D03*
%TD*%
%TO.C,R37*%
X112554609Y-143510000D03*
X112554609Y-135890000D03*
%TD*%
%TO.C,C56*%
X93600000Y-71800000D03*
X93600000Y-76800000D03*
%TD*%
%TO.C,R8*%
X123118203Y-57890000D03*
X123118203Y-65510000D03*
%TD*%
%TO.C,R34*%
X128400000Y-94990000D03*
X128400000Y-102610000D03*
%TD*%
%TO.C,R3*%
X112500000Y-65510000D03*
X112500000Y-57890000D03*
%TD*%
D19*
%TO.C,J100*%
X108890000Y-48752500D03*
D16*
X108890000Y-46212500D03*
X106350000Y-48752500D03*
X106350000Y-46212500D03*
X103810000Y-48752500D03*
X103810000Y-46212500D03*
X101270000Y-48752500D03*
X101270000Y-46212500D03*
X98730000Y-48752500D03*
X98730000Y-46212500D03*
X96190000Y-48752500D03*
X96190000Y-46212500D03*
X93650000Y-48752500D03*
X93650000Y-46212500D03*
X91110000Y-48752500D03*
X91110000Y-46212500D03*
%TD*%
D18*
%TO.C,C62*%
X117900000Y-149800000D03*
X117900000Y-154800000D03*
%TD*%
%TO.C,R17*%
X128400000Y-57890000D03*
X128400000Y-65510000D03*
%TD*%
%TO.C,R19*%
X91427421Y-94990000D03*
X91427421Y-102610000D03*
%TD*%
%TO.C,C58*%
X93600000Y-149800000D03*
X93600000Y-154800000D03*
%TD*%
D15*
%TO.C,J53*%
X52800000Y-159700000D03*
%TD*%
D18*
%TO.C,R51*%
X128400000Y-135890000D03*
X128400000Y-143510000D03*
%TD*%
%TO.C,R36*%
X91427421Y-135890000D03*
X91427421Y-143510000D03*
%TD*%
D20*
%TO.C,U2*%
X98085000Y-107590000D03*
D18*
X100625000Y-107590000D03*
X103165000Y-107590000D03*
X105705000Y-107590000D03*
X108245000Y-107590000D03*
X110785000Y-107590000D03*
X113325000Y-107590000D03*
X113325000Y-115210000D03*
X110785000Y-115210000D03*
X108245000Y-115210000D03*
X105705000Y-115210000D03*
X103165000Y-115210000D03*
X100625000Y-115210000D03*
X98085000Y-115210000D03*
%TD*%
D21*
%TO.C,D25*%
X117800000Y-44220000D03*
D22*
X117800000Y-54380000D03*
%TD*%
D18*
%TO.C,R2*%
X91427421Y-57890000D03*
X91427421Y-65510000D03*
%TD*%
D23*
%TO.C,J21*%
X63520000Y-157147500D03*
D16*
X66060000Y-157147500D03*
X68600000Y-157147500D03*
X71140000Y-157147500D03*
X73680000Y-157147500D03*
X63520000Y-159687500D03*
X66060000Y-159687500D03*
X68600000Y-159687500D03*
X71140000Y-159687500D03*
X73680000Y-159687500D03*
%TD*%
D18*
%TO.C,C57*%
X93600000Y-109000000D03*
X93600000Y-114000000D03*
%TD*%
%TO.C,R44*%
X117836406Y-143510000D03*
X117836406Y-135890000D03*
%TD*%
%TO.C,R5*%
X96709218Y-57890000D03*
X96709218Y-65510000D03*
%TD*%
D15*
%TO.C,J49*%
X70000000Y-150000000D03*
D16*
X70000000Y-147460000D03*
X72540000Y-150000000D03*
X72540000Y-147460000D03*
X75080000Y-150000000D03*
X75080000Y-147460000D03*
%TD*%
D18*
%TO.C,R22*%
X96709218Y-94990000D03*
X96709218Y-102610000D03*
%TD*%
D24*
%TO.C,C55*%
X74100000Y-47400000D03*
D18*
X74100000Y-45400000D03*
%TD*%
D15*
%TO.C,J41*%
X59000000Y-109000000D03*
D16*
X59000000Y-106460000D03*
X61540000Y-109000000D03*
X61540000Y-106460000D03*
X64080000Y-109000000D03*
X64080000Y-106460000D03*
%TD*%
D18*
%TO.C,R4*%
X86145624Y-57890000D03*
X86145624Y-65510000D03*
%TD*%
%TO.C,R35*%
X101991015Y-135890000D03*
X101991015Y-143510000D03*
%TD*%
D15*
%TO.C,J37*%
X70000000Y-67000000D03*
D16*
X70000000Y-64460000D03*
X72540000Y-67000000D03*
X72540000Y-64460000D03*
X75080000Y-67000000D03*
X75080000Y-64460000D03*
%TD*%
D20*
%TO.C,U3*%
X98085000Y-148490000D03*
D18*
X100625000Y-148490000D03*
X103165000Y-148490000D03*
X105705000Y-148490000D03*
X108245000Y-148490000D03*
X110785000Y-148490000D03*
X113325000Y-148490000D03*
X113325000Y-156110000D03*
X110785000Y-156110000D03*
X108245000Y-156110000D03*
X105705000Y-156110000D03*
X103165000Y-156110000D03*
X100625000Y-156110000D03*
X98085000Y-156110000D03*
%TD*%
%TO.C,R23*%
X107272812Y-94990000D03*
X107272812Y-102610000D03*
%TD*%
%TO.C,R40*%
X107272812Y-135890000D03*
X107272812Y-143510000D03*
%TD*%
%TO.C,R20*%
X112554609Y-102610000D03*
X112554609Y-94990000D03*
%TD*%
%TO.C,R1*%
X101991015Y-57890000D03*
X101991015Y-65510000D03*
%TD*%
D15*
%TO.C,J39*%
X135000000Y-67000000D03*
D16*
X135000000Y-64460000D03*
X137540000Y-67000000D03*
X137540000Y-64460000D03*
X140080000Y-67000000D03*
X140080000Y-64460000D03*
%TD*%
D25*
%TO.C,D26*%
X82300000Y-54380000D03*
D22*
X82300000Y-44220000D03*
%TD*%
D18*
%TO.C,R10*%
X117836406Y-65510000D03*
X117836406Y-57890000D03*
%TD*%
%TO.C,R18*%
X101991015Y-94990000D03*
X101991015Y-102610000D03*
%TD*%
%TO.C,R21*%
X86145624Y-94990000D03*
X86145624Y-102610000D03*
%TD*%
D20*
%TO.C,U1*%
X98085000Y-70490000D03*
D18*
X100625000Y-70490000D03*
X103165000Y-70490000D03*
X105705000Y-70490000D03*
X108245000Y-70490000D03*
X110785000Y-70490000D03*
X113325000Y-70490000D03*
X113325000Y-78110000D03*
X110785000Y-78110000D03*
X108245000Y-78110000D03*
X105705000Y-78110000D03*
X103165000Y-78110000D03*
X100625000Y-78110000D03*
X98085000Y-78110000D03*
%TD*%
%TO.C,C61*%
X117900000Y-109000000D03*
X117900000Y-114000000D03*
%TD*%
%TO.C,R6*%
X107272812Y-57890000D03*
X107272812Y-65510000D03*
%TD*%
D20*
%TO.C,C59*%
X125900000Y-45444888D03*
D18*
X125900000Y-47444888D03*
%TD*%
D15*
%TO.C,J43*%
X70000000Y-109000000D03*
D16*
X70000000Y-106460000D03*
X72540000Y-109000000D03*
X72540000Y-106460000D03*
X75080000Y-109000000D03*
X75080000Y-106460000D03*
%TD*%
D15*
%TO.C,J35*%
X59000000Y-67000000D03*
D16*
X59000000Y-64460000D03*
X61540000Y-67000000D03*
X61540000Y-64460000D03*
X64080000Y-67000000D03*
X64080000Y-64460000D03*
%TD*%
D15*
%TO.C,J45*%
X135000000Y-109000000D03*
D16*
X135000000Y-106460000D03*
X137540000Y-109000000D03*
X137540000Y-106460000D03*
X140080000Y-109000000D03*
X140080000Y-106460000D03*
%TD*%
D18*
%TO.C,R38*%
X86145624Y-135890000D03*
X86145624Y-143510000D03*
%TD*%
%TO.C,R39*%
X96709218Y-135890000D03*
X96709218Y-143510000D03*
%TD*%
D15*
%TO.C,J47*%
X59000000Y-150000000D03*
D16*
X59000000Y-147460000D03*
X61540000Y-150000000D03*
X61540000Y-147460000D03*
X64080000Y-150000000D03*
X64080000Y-147460000D03*
%TD*%
D18*
%TO.C,R25*%
X123118203Y-94990000D03*
X123118203Y-102610000D03*
%TD*%
D15*
%TO.C,J51*%
X135000000Y-150000000D03*
D16*
X135000000Y-147460000D03*
X137540000Y-150000000D03*
X137540000Y-147460000D03*
X140080000Y-150000000D03*
X140080000Y-147460000D03*
%TD*%
%LPD*%
M02*
