%TF.GenerationSoftware,KiCad,Pcbnew,9.0.7*%
%TF.CreationDate,2026-02-21T19:23:07+01:00*%
%TF.ProjectId,DMH_VCLFO_v2_PCB_Controls,444d485f-5643-44c4-964f-5f76325f5043,1*%
%TF.SameCoordinates,Original*%
%TF.FileFunction,Drillmap*%
%TF.FilePolarity,Positive*%
%FSLAX45Y45*%
G04 Gerber Fmt 4.5, Leading zero omitted, Abs format (unit mm)*
G04 Created by KiCad (PCBNEW 9.0.7) date 2026-02-21 19:23:07*
%MOMM*%
%LPD*%
G01*
G04 APERTURE LIST*
%ADD10C,0.050000*%
%ADD11C,0.200000*%
%ADD12C,0.100000*%
%ADD13C,0.110000*%
%ADD14C,0.180000*%
G04 APERTURE END LIST*
D10*
X5100000Y-4250000D02*
X14900000Y-4250000D01*
X14900000Y-16300000D01*
X5100000Y-16300000D01*
X5100000Y-4250000D01*
D11*
D12*
X5680000Y-4550000D02*
X5760000Y-4630000D01*
X5760000Y-4550000D02*
X5680000Y-4630000D01*
X5680000Y-7650000D02*
X5760000Y-7730000D01*
X5760000Y-7650000D02*
X5680000Y-7730000D01*
X5680000Y-8700000D02*
X5760000Y-8780000D01*
X5760000Y-8700000D02*
X5680000Y-8780000D01*
X5680000Y-11800000D02*
X5760000Y-11880000D01*
X5760000Y-11800000D02*
X5680000Y-11880000D01*
X5680000Y-12850000D02*
X5760000Y-12930000D01*
X5760000Y-12850000D02*
X5680000Y-12930000D01*
X5680000Y-15950000D02*
X5760000Y-16030000D01*
X5760000Y-15950000D02*
X5680000Y-16030000D01*
X5934000Y-4550000D02*
X6014000Y-4630000D01*
X6014000Y-4550000D02*
X5934000Y-4630000D01*
X5934000Y-7650000D02*
X6014000Y-7730000D01*
X6014000Y-7650000D02*
X5934000Y-7730000D01*
X5934000Y-8700000D02*
X6014000Y-8780000D01*
X6014000Y-8700000D02*
X5934000Y-8780000D01*
X5934000Y-11800000D02*
X6014000Y-11880000D01*
X6014000Y-11800000D02*
X5934000Y-11880000D01*
X5934000Y-12850000D02*
X6014000Y-12930000D01*
X6014000Y-12850000D02*
X5934000Y-12930000D01*
X5934000Y-15950000D02*
X6014000Y-16030000D01*
X6014000Y-15950000D02*
X5934000Y-16030000D01*
X6188000Y-4550000D02*
X6268000Y-4630000D01*
X6268000Y-4550000D02*
X6188000Y-4630000D01*
X6188000Y-7650000D02*
X6268000Y-7730000D01*
X6268000Y-7650000D02*
X6188000Y-7730000D01*
X6188000Y-8700000D02*
X6268000Y-8780000D01*
X6268000Y-8700000D02*
X6188000Y-8780000D01*
X6188000Y-11800000D02*
X6268000Y-11880000D01*
X6268000Y-11800000D02*
X6188000Y-11880000D01*
X6188000Y-12850000D02*
X6268000Y-12930000D01*
X6268000Y-12850000D02*
X6188000Y-12930000D01*
X6188000Y-15950000D02*
X6268000Y-16030000D01*
X6268000Y-15950000D02*
X6188000Y-16030000D01*
X6619000Y-4550000D02*
X6699000Y-4630000D01*
X6699000Y-4550000D02*
X6619000Y-4630000D01*
X6619000Y-8710000D02*
X6699000Y-8790000D01*
X6699000Y-8710000D02*
X6619000Y-8790000D01*
X6619000Y-9190000D02*
X6699000Y-9270000D01*
X6699000Y-9190000D02*
X6619000Y-9270000D01*
X6619000Y-12850000D02*
X6699000Y-12930000D01*
X6699000Y-12850000D02*
X6619000Y-12930000D01*
X6619000Y-13330000D02*
X6699000Y-13410000D01*
X6699000Y-13330000D02*
X6619000Y-13410000D01*
X6629000Y-5040000D02*
X6709000Y-5120000D01*
X6709000Y-5040000D02*
X6629000Y-5120000D01*
X7381000Y-4550000D02*
X7461000Y-4630000D01*
X7461000Y-4550000D02*
X7381000Y-4630000D01*
X7381000Y-8710000D02*
X7461000Y-8790000D01*
X7461000Y-8710000D02*
X7381000Y-8790000D01*
X7381000Y-9190000D02*
X7461000Y-9270000D01*
X7461000Y-9190000D02*
X7381000Y-9270000D01*
X7381000Y-12850000D02*
X7461000Y-12930000D01*
X7461000Y-12850000D02*
X7381000Y-12930000D01*
X7381000Y-13330000D02*
X7461000Y-13410000D01*
X7461000Y-13330000D02*
X7381000Y-13410000D01*
X7391000Y-5040000D02*
X7471000Y-5120000D01*
X7471000Y-5040000D02*
X7391000Y-5120000D01*
X7789000Y-8720000D02*
X7869000Y-8800000D01*
X7869000Y-8720000D02*
X7789000Y-8800000D01*
X7799000Y-4550000D02*
X7879000Y-4630000D01*
X7879000Y-4550000D02*
X7799000Y-4630000D01*
X7799000Y-5040000D02*
X7879000Y-5120000D01*
X7879000Y-5040000D02*
X7799000Y-5120000D01*
X7799000Y-5540000D02*
X7879000Y-5620000D01*
X7879000Y-5540000D02*
X7799000Y-5620000D01*
X7799000Y-6040000D02*
X7879000Y-6120000D01*
X7879000Y-6040000D02*
X7799000Y-6120000D01*
X7799000Y-9200000D02*
X7879000Y-9280000D01*
X7879000Y-9200000D02*
X7799000Y-9280000D01*
X7799000Y-9680000D02*
X7879000Y-9760000D01*
X7879000Y-9680000D02*
X7799000Y-9760000D01*
X7799000Y-10170000D02*
X7879000Y-10250000D01*
X7879000Y-10170000D02*
X7799000Y-10250000D01*
X7799000Y-12850000D02*
X7879000Y-12930000D01*
X7879000Y-12850000D02*
X7799000Y-12930000D01*
X7799000Y-13330000D02*
X7879000Y-13410000D01*
X7879000Y-13330000D02*
X7799000Y-13410000D01*
X7799000Y-13810000D02*
X7879000Y-13890000D01*
X7879000Y-13810000D02*
X7799000Y-13890000D01*
X7799000Y-14290000D02*
X7879000Y-14370000D01*
X7879000Y-14290000D02*
X7799000Y-14370000D01*
X8551000Y-8720000D02*
X8631000Y-8800000D01*
X8631000Y-8720000D02*
X8551000Y-8800000D01*
X8561000Y-4550000D02*
X8641000Y-4630000D01*
X8641000Y-4550000D02*
X8561000Y-4630000D01*
X8561000Y-5040000D02*
X8641000Y-5120000D01*
X8641000Y-5040000D02*
X8561000Y-5120000D01*
X8561000Y-5540000D02*
X8641000Y-5620000D01*
X8641000Y-5540000D02*
X8561000Y-5620000D01*
X8561000Y-6040000D02*
X8641000Y-6120000D01*
X8641000Y-6040000D02*
X8561000Y-6120000D01*
X8561000Y-9200000D02*
X8641000Y-9280000D01*
X8641000Y-9200000D02*
X8561000Y-9280000D01*
X8561000Y-9680000D02*
X8641000Y-9760000D01*
X8641000Y-9680000D02*
X8561000Y-9760000D01*
X8561000Y-10170000D02*
X8641000Y-10250000D01*
X8641000Y-10170000D02*
X8561000Y-10250000D01*
X8561000Y-12850000D02*
X8641000Y-12930000D01*
X8641000Y-12850000D02*
X8561000Y-12930000D01*
X8561000Y-13330000D02*
X8641000Y-13410000D01*
X8641000Y-13330000D02*
X8561000Y-13410000D01*
X8561000Y-13810000D02*
X8641000Y-13890000D01*
X8641000Y-13810000D02*
X8561000Y-13890000D01*
X8561000Y-14290000D02*
X8641000Y-14370000D01*
X8641000Y-14290000D02*
X8561000Y-14370000D01*
X8680000Y-6357000D02*
X8760000Y-6437000D01*
X8760000Y-6357000D02*
X8680000Y-6437000D01*
X8680000Y-6611000D02*
X8760000Y-6691000D01*
X8760000Y-6611000D02*
X8680000Y-6691000D01*
X8680000Y-6865000D02*
X8760000Y-6945000D01*
X8760000Y-6865000D02*
X8680000Y-6945000D01*
X8680000Y-7127000D02*
X8760000Y-7207000D01*
X8760000Y-7127000D02*
X8680000Y-7207000D01*
X8680000Y-7381000D02*
X8760000Y-7461000D01*
X8760000Y-7381000D02*
X8680000Y-7461000D01*
X8680000Y-7635000D02*
X8760000Y-7715000D01*
X8760000Y-7635000D02*
X8680000Y-7715000D01*
X8680000Y-10507000D02*
X8760000Y-10587000D01*
X8760000Y-10507000D02*
X8680000Y-10587000D01*
X8680000Y-10761000D02*
X8760000Y-10841000D01*
X8760000Y-10761000D02*
X8680000Y-10841000D01*
X8680000Y-11015000D02*
X8760000Y-11095000D01*
X8760000Y-11015000D02*
X8680000Y-11095000D01*
X8680000Y-11271000D02*
X8760000Y-11351000D01*
X8760000Y-11271000D02*
X8680000Y-11351000D01*
X8680000Y-11525000D02*
X8760000Y-11605000D01*
X8760000Y-11525000D02*
X8680000Y-11605000D01*
X8680000Y-11779000D02*
X8760000Y-11859000D01*
X8760000Y-11779000D02*
X8680000Y-11859000D01*
X8680000Y-14651000D02*
X8760000Y-14731000D01*
X8760000Y-14651000D02*
X8680000Y-14731000D01*
X8680000Y-14905000D02*
X8760000Y-14985000D01*
X8760000Y-14905000D02*
X8680000Y-14985000D01*
X8680000Y-15159000D02*
X8760000Y-15239000D01*
X8760000Y-15159000D02*
X8680000Y-15239000D01*
X8680000Y-15421000D02*
X8760000Y-15501000D01*
X8760000Y-15421000D02*
X8680000Y-15501000D01*
X8680000Y-15675000D02*
X8760000Y-15755000D01*
X8760000Y-15675000D02*
X8680000Y-15755000D01*
X8680000Y-15929000D02*
X8760000Y-16009000D01*
X8760000Y-15929000D02*
X8680000Y-16009000D01*
X9579000Y-7230000D02*
X9659000Y-7310000D01*
X9659000Y-7230000D02*
X9579000Y-7310000D01*
X9579000Y-7710000D02*
X9659000Y-7790000D01*
X9659000Y-7710000D02*
X9579000Y-7790000D01*
X9579000Y-15530000D02*
X9659000Y-15610000D01*
X9659000Y-15530000D02*
X9579000Y-15610000D01*
X9579000Y-16000000D02*
X9659000Y-16080000D01*
X9659000Y-16000000D02*
X9579000Y-16080000D01*
X9589000Y-11380000D02*
X9669000Y-11460000D01*
X9669000Y-11380000D02*
X9589000Y-11460000D01*
X9589000Y-11860000D02*
X9669000Y-11940000D01*
X9669000Y-11860000D02*
X9589000Y-11940000D01*
X10341000Y-7230000D02*
X10421000Y-7310000D01*
X10421000Y-7230000D02*
X10341000Y-7310000D01*
X10341000Y-7710000D02*
X10421000Y-7790000D01*
X10421000Y-7710000D02*
X10341000Y-7790000D01*
X10341000Y-15530000D02*
X10421000Y-15610000D01*
X10421000Y-15530000D02*
X10341000Y-15610000D01*
X10341000Y-16000000D02*
X10421000Y-16080000D01*
X10421000Y-16000000D02*
X10341000Y-16080000D01*
X10351000Y-11380000D02*
X10431000Y-11460000D01*
X10431000Y-11380000D02*
X10351000Y-11460000D01*
X10351000Y-11860000D02*
X10431000Y-11940000D01*
X10431000Y-11860000D02*
X10351000Y-11940000D01*
X8093000Y-7250000D02*
G75*
G02*
X8003000Y-7250000I-45000J0D01*
G01*
X8003000Y-7250000D02*
G75*
G02*
X8093000Y-7250000I45000J0D01*
G01*
X8093000Y-7750000D02*
G75*
G02*
X8003000Y-7750000I-45000J0D01*
G01*
X8003000Y-7750000D02*
G75*
G02*
X8093000Y-7750000I45000J0D01*
G01*
X8093000Y-11400000D02*
G75*
G02*
X8003000Y-11400000I-45000J0D01*
G01*
X8003000Y-11400000D02*
G75*
G02*
X8093000Y-11400000I45000J0D01*
G01*
X8093000Y-11900000D02*
G75*
G02*
X8003000Y-11900000I-45000J0D01*
G01*
X8003000Y-11900000D02*
G75*
G02*
X8093000Y-11900000I45000J0D01*
G01*
X8093000Y-15550000D02*
G75*
G02*
X8003000Y-15550000I-45000J0D01*
G01*
X8003000Y-15550000D02*
G75*
G02*
X8093000Y-15550000I45000J0D01*
G01*
X8093000Y-16050000D02*
G75*
G02*
X8003000Y-16050000I-45000J0D01*
G01*
X8003000Y-16050000D02*
G75*
G02*
X8093000Y-16050000I45000J0D01*
G01*
X8347000Y-7250000D02*
G75*
G02*
X8257000Y-7250000I-45000J0D01*
G01*
X8257000Y-7250000D02*
G75*
G02*
X8347000Y-7250000I45000J0D01*
G01*
X8347000Y-7750000D02*
G75*
G02*
X8257000Y-7750000I-45000J0D01*
G01*
X8257000Y-7750000D02*
G75*
G02*
X8347000Y-7750000I45000J0D01*
G01*
X8347000Y-11400000D02*
G75*
G02*
X8257000Y-11400000I-45000J0D01*
G01*
X8257000Y-11400000D02*
G75*
G02*
X8347000Y-11400000I45000J0D01*
G01*
X8347000Y-11900000D02*
G75*
G02*
X8257000Y-11900000I-45000J0D01*
G01*
X8257000Y-11900000D02*
G75*
G02*
X8347000Y-11900000I45000J0D01*
G01*
X8347000Y-15550000D02*
G75*
G02*
X8257000Y-15550000I-45000J0D01*
G01*
X8257000Y-15550000D02*
G75*
G02*
X8347000Y-15550000I45000J0D01*
G01*
X8347000Y-16050000D02*
G75*
G02*
X8257000Y-16050000I-45000J0D01*
G01*
X8257000Y-16050000D02*
G75*
G02*
X8347000Y-16050000I45000J0D01*
G01*
X5300000Y-5150000D02*
X5300000Y-5250000D01*
X5250000Y-5200000D02*
X5350000Y-5200000D01*
X5300000Y-5404000D02*
X5300000Y-5504000D01*
X5250000Y-5454000D02*
X5350000Y-5454000D01*
X5300000Y-5658000D02*
X5300000Y-5758000D01*
X5250000Y-5708000D02*
X5350000Y-5708000D01*
X5300000Y-5912000D02*
X5300000Y-6012000D01*
X5250000Y-5962000D02*
X5350000Y-5962000D01*
X5300000Y-6166000D02*
X5300000Y-6266000D01*
X5250000Y-6216000D02*
X5350000Y-6216000D01*
X5300000Y-6420000D02*
X5300000Y-6520000D01*
X5250000Y-6470000D02*
X5350000Y-6470000D01*
X5300000Y-6674000D02*
X5300000Y-6774000D01*
X5250000Y-6724000D02*
X5350000Y-6724000D01*
X5300000Y-6928000D02*
X5300000Y-7028000D01*
X5250000Y-6978000D02*
X5350000Y-6978000D01*
X5300000Y-9350000D02*
X5300000Y-9450000D01*
X5250000Y-9400000D02*
X5350000Y-9400000D01*
X5300000Y-9604000D02*
X5300000Y-9704000D01*
X5250000Y-9654000D02*
X5350000Y-9654000D01*
X5300000Y-9858000D02*
X5300000Y-9958000D01*
X5250000Y-9908000D02*
X5350000Y-9908000D01*
X5300000Y-10112000D02*
X5300000Y-10212000D01*
X5250000Y-10162000D02*
X5350000Y-10162000D01*
X5300000Y-10366000D02*
X5300000Y-10466000D01*
X5250000Y-10416000D02*
X5350000Y-10416000D01*
X5300000Y-10620000D02*
X5300000Y-10720000D01*
X5250000Y-10670000D02*
X5350000Y-10670000D01*
X5300000Y-10874000D02*
X5300000Y-10974000D01*
X5250000Y-10924000D02*
X5350000Y-10924000D01*
X5300000Y-11128000D02*
X5300000Y-11228000D01*
X5250000Y-11178000D02*
X5350000Y-11178000D01*
X5300000Y-13450000D02*
X5300000Y-13550000D01*
X5250000Y-13500000D02*
X5350000Y-13500000D01*
X5300000Y-13704000D02*
X5300000Y-13804000D01*
X5250000Y-13754000D02*
X5350000Y-13754000D01*
X5300000Y-13958000D02*
X5300000Y-14058000D01*
X5250000Y-14008000D02*
X5350000Y-14008000D01*
X5300000Y-14212000D02*
X5300000Y-14312000D01*
X5250000Y-14262000D02*
X5350000Y-14262000D01*
X5300000Y-14466000D02*
X5300000Y-14566000D01*
X5250000Y-14516000D02*
X5350000Y-14516000D01*
X5300000Y-14720000D02*
X5300000Y-14820000D01*
X5250000Y-14770000D02*
X5350000Y-14770000D01*
X5300000Y-14974000D02*
X5300000Y-15074000D01*
X5250000Y-15024000D02*
X5350000Y-15024000D01*
X5300000Y-15228000D02*
X5300000Y-15328000D01*
X5250000Y-15278000D02*
X5350000Y-15278000D01*
X6450000Y-6775000D02*
X6450000Y-6875000D01*
X6400000Y-6825000D02*
X6500000Y-6825000D01*
X6450000Y-10925000D02*
X6450000Y-11025000D01*
X6400000Y-10975000D02*
X6500000Y-10975000D01*
X6450000Y-15075000D02*
X6450000Y-15175000D01*
X6400000Y-15125000D02*
X6500000Y-15125000D01*
X6700000Y-6775000D02*
X6700000Y-6875000D01*
X6650000Y-6825000D02*
X6750000Y-6825000D01*
X6700000Y-10925000D02*
X6700000Y-11025000D01*
X6650000Y-10975000D02*
X6750000Y-10975000D01*
X6700000Y-15075000D02*
X6700000Y-15175000D01*
X6650000Y-15125000D02*
X6750000Y-15125000D01*
X6950000Y-6775000D02*
X6950000Y-6875000D01*
X6900000Y-6825000D02*
X7000000Y-6825000D01*
X6950000Y-10925000D02*
X6950000Y-11025000D01*
X6900000Y-10975000D02*
X7000000Y-10975000D01*
X6950000Y-15075000D02*
X6950000Y-15175000D01*
X6900000Y-15125000D02*
X7000000Y-15125000D01*
X9367500Y-5342500D02*
X9367500Y-5442500D01*
X9317500Y-5392500D02*
X9417500Y-5392500D01*
X9621500Y-5342500D02*
X9621500Y-5442500D01*
X9571500Y-5392500D02*
X9671500Y-5392500D01*
X9750000Y-6775000D02*
X9750000Y-6875000D01*
X9700000Y-6825000D02*
X9800000Y-6825000D01*
X9750000Y-10925000D02*
X9750000Y-11025000D01*
X9700000Y-10975000D02*
X9800000Y-10975000D01*
X9750000Y-15075000D02*
X9750000Y-15175000D01*
X9700000Y-15125000D02*
X9800000Y-15125000D01*
X9875500Y-5342500D02*
X9875500Y-5442500D01*
X9825500Y-5392500D02*
X9925500Y-5392500D01*
X10000000Y-6775000D02*
X10000000Y-6875000D01*
X9950000Y-6825000D02*
X10050000Y-6825000D01*
X10000000Y-10925000D02*
X10000000Y-11025000D01*
X9950000Y-10975000D02*
X10050000Y-10975000D01*
X10000000Y-15075000D02*
X10000000Y-15175000D01*
X9950000Y-15125000D02*
X10050000Y-15125000D01*
X10129500Y-5342500D02*
X10129500Y-5442500D01*
X10079500Y-5392500D02*
X10179500Y-5392500D01*
X10250000Y-6775000D02*
X10250000Y-6875000D01*
X10200000Y-6825000D02*
X10300000Y-6825000D01*
X10250000Y-10925000D02*
X10250000Y-11025000D01*
X10200000Y-10975000D02*
X10300000Y-10975000D01*
X10250000Y-15075000D02*
X10250000Y-15175000D01*
X10200000Y-15125000D02*
X10300000Y-15125000D01*
X10383500Y-5342500D02*
X10383500Y-5442500D01*
X10333500Y-5392500D02*
X10433500Y-5392500D01*
X10637500Y-5342500D02*
X10637500Y-5442500D01*
X10587500Y-5392500D02*
X10687500Y-5392500D01*
X14700000Y-5150000D02*
X14700000Y-5250000D01*
X14650000Y-5200000D02*
X14750000Y-5200000D01*
X14700000Y-5404000D02*
X14700000Y-5504000D01*
X14650000Y-5454000D02*
X14750000Y-5454000D01*
X14700000Y-5658000D02*
X14700000Y-5758000D01*
X14650000Y-5708000D02*
X14750000Y-5708000D01*
X14700000Y-5912000D02*
X14700000Y-6012000D01*
X14650000Y-5962000D02*
X14750000Y-5962000D01*
X14700000Y-6166000D02*
X14700000Y-6266000D01*
X14650000Y-6216000D02*
X14750000Y-6216000D01*
X14700000Y-6420000D02*
X14700000Y-6520000D01*
X14650000Y-6470000D02*
X14750000Y-6470000D01*
X14700000Y-6674000D02*
X14700000Y-6774000D01*
X14650000Y-6724000D02*
X14750000Y-6724000D01*
X14700000Y-6928000D02*
X14700000Y-7028000D01*
X14650000Y-6978000D02*
X14750000Y-6978000D01*
X14700000Y-9350000D02*
X14700000Y-9450000D01*
X14650000Y-9400000D02*
X14750000Y-9400000D01*
X14700000Y-9604000D02*
X14700000Y-9704000D01*
X14650000Y-9654000D02*
X14750000Y-9654000D01*
X14700000Y-9858000D02*
X14700000Y-9958000D01*
X14650000Y-9908000D02*
X14750000Y-9908000D01*
X14700000Y-10112000D02*
X14700000Y-10212000D01*
X14650000Y-10162000D02*
X14750000Y-10162000D01*
X14700000Y-10366000D02*
X14700000Y-10466000D01*
X14650000Y-10416000D02*
X14750000Y-10416000D01*
X14700000Y-10620000D02*
X14700000Y-10720000D01*
X14650000Y-10670000D02*
X14750000Y-10670000D01*
X14700000Y-10874000D02*
X14700000Y-10974000D01*
X14650000Y-10924000D02*
X14750000Y-10924000D01*
X14700000Y-11128000D02*
X14700000Y-11228000D01*
X14650000Y-11178000D02*
X14750000Y-11178000D01*
X14700000Y-13450000D02*
X14700000Y-13550000D01*
X14650000Y-13500000D02*
X14750000Y-13500000D01*
X14700000Y-13704000D02*
X14700000Y-13804000D01*
X14650000Y-13754000D02*
X14750000Y-13754000D01*
X14700000Y-13958000D02*
X14700000Y-14058000D01*
X14650000Y-14008000D02*
X14750000Y-14008000D01*
X14700000Y-14212000D02*
X14700000Y-14312000D01*
X14650000Y-14262000D02*
X14750000Y-14262000D01*
X14700000Y-14466000D02*
X14700000Y-14566000D01*
X14650000Y-14516000D02*
X14750000Y-14516000D01*
X14700000Y-14720000D02*
X14700000Y-14820000D01*
X14650000Y-14770000D02*
X14750000Y-14770000D01*
X14700000Y-14974000D02*
X14700000Y-15074000D01*
X14650000Y-15024000D02*
X14750000Y-15024000D01*
X14700000Y-15228000D02*
X14700000Y-15328000D01*
X14650000Y-15278000D02*
X14750000Y-15278000D01*
D13*
X6258891Y-6113891D02*
X6258891Y-6036109D01*
X6181109Y-6036109D01*
X6181109Y-6113891D01*
X6258891Y-6113891D01*
D12*
X6275000Y-6110000D02*
X6275000Y-6040000D01*
X6165000Y-6040000D02*
G75*
G02*
X6275000Y-6040000I55000J0D01*
G01*
X6165000Y-6040000D02*
X6165000Y-6110000D01*
X6165000Y-6110000D02*
G75*
G03*
X6275000Y-6110000I55000J0D01*
G01*
D13*
X6258891Y-10263891D02*
X6258891Y-10186109D01*
X6181109Y-10186109D01*
X6181109Y-10263891D01*
X6258891Y-10263891D01*
D12*
X6275000Y-10260000D02*
X6275000Y-10190000D01*
X6165000Y-10190000D02*
G75*
G02*
X6275000Y-10190000I55000J0D01*
G01*
X6165000Y-10190000D02*
X6165000Y-10260000D01*
X6165000Y-10260000D02*
G75*
G03*
X6275000Y-10260000I55000J0D01*
G01*
D13*
X6258891Y-14413891D02*
X6258891Y-14336109D01*
X6181109Y-14336109D01*
X6181109Y-14413891D01*
X6258891Y-14413891D01*
D12*
X6275000Y-14410000D02*
X6275000Y-14340000D01*
X6165000Y-14340000D02*
G75*
G02*
X6275000Y-14340000I55000J0D01*
G01*
X6165000Y-14340000D02*
X6165000Y-14410000D01*
X6165000Y-14410000D02*
G75*
G03*
X6275000Y-14410000I55000J0D01*
G01*
D13*
X7218891Y-6113891D02*
X7218891Y-6036109D01*
X7141109Y-6036109D01*
X7141109Y-6113891D01*
X7218891Y-6113891D01*
D12*
X7235000Y-6110000D02*
X7235000Y-6040000D01*
X7125000Y-6040000D02*
G75*
G02*
X7235000Y-6040000I55000J0D01*
G01*
X7125000Y-6040000D02*
X7125000Y-6110000D01*
X7125000Y-6110000D02*
G75*
G03*
X7235000Y-6110000I55000J0D01*
G01*
D13*
X7218891Y-10263891D02*
X7218891Y-10186109D01*
X7141109Y-10186109D01*
X7141109Y-10263891D01*
X7218891Y-10263891D01*
D12*
X7235000Y-10260000D02*
X7235000Y-10190000D01*
X7125000Y-10190000D02*
G75*
G02*
X7235000Y-10190000I55000J0D01*
G01*
X7125000Y-10190000D02*
X7125000Y-10260000D01*
X7125000Y-10260000D02*
G75*
G03*
X7235000Y-10260000I55000J0D01*
G01*
D13*
X7218891Y-14413891D02*
X7218891Y-14336109D01*
X7141109Y-14336109D01*
X7141109Y-14413891D01*
X7218891Y-14413891D01*
D12*
X7235000Y-14410000D02*
X7235000Y-14340000D01*
X7125000Y-14340000D02*
G75*
G02*
X7235000Y-14340000I55000J0D01*
G01*
X7125000Y-14340000D02*
X7125000Y-14410000D01*
X7125000Y-14410000D02*
G75*
G03*
X7235000Y-14410000I55000J0D01*
G01*
D13*
X9558891Y-6113891D02*
X9558891Y-6036109D01*
X9481109Y-6036109D01*
X9481109Y-6113891D01*
X9558891Y-6113891D01*
D12*
X9575000Y-6110000D02*
X9575000Y-6040000D01*
X9465000Y-6040000D02*
G75*
G02*
X9575000Y-6040000I55000J0D01*
G01*
X9465000Y-6040000D02*
X9465000Y-6110000D01*
X9465000Y-6110000D02*
G75*
G03*
X9575000Y-6110000I55000J0D01*
G01*
D13*
X9558891Y-10263891D02*
X9558891Y-10186109D01*
X9481109Y-10186109D01*
X9481109Y-10263891D01*
X9558891Y-10263891D01*
D12*
X9575000Y-10260000D02*
X9575000Y-10190000D01*
X9465000Y-10190000D02*
G75*
G02*
X9575000Y-10190000I55000J0D01*
G01*
X9465000Y-10190000D02*
X9465000Y-10260000D01*
X9465000Y-10260000D02*
G75*
G03*
X9575000Y-10260000I55000J0D01*
G01*
D13*
X9558891Y-14413891D02*
X9558891Y-14336109D01*
X9481109Y-14336109D01*
X9481109Y-14413891D01*
X9558891Y-14413891D01*
D12*
X9575000Y-14410000D02*
X9575000Y-14340000D01*
X9465000Y-14340000D02*
G75*
G02*
X9575000Y-14340000I55000J0D01*
G01*
X9465000Y-14340000D02*
X9465000Y-14410000D01*
X9465000Y-14410000D02*
G75*
G03*
X9575000Y-14410000I55000J0D01*
G01*
D13*
X10518891Y-6113891D02*
X10518891Y-6036109D01*
X10441109Y-6036109D01*
X10441109Y-6113891D01*
X10518891Y-6113891D01*
D12*
X10535000Y-6110000D02*
X10535000Y-6040000D01*
X10425000Y-6040000D02*
G75*
G02*
X10535000Y-6040000I55000J0D01*
G01*
X10425000Y-6040000D02*
X10425000Y-6110000D01*
X10425000Y-6110000D02*
G75*
G03*
X10535000Y-6110000I55000J0D01*
G01*
D13*
X10518891Y-10263891D02*
X10518891Y-10186109D01*
X10441109Y-10186109D01*
X10441109Y-10263891D01*
X10518891Y-10263891D01*
D12*
X10535000Y-10260000D02*
X10535000Y-10190000D01*
X10425000Y-10190000D02*
G75*
G02*
X10535000Y-10190000I55000J0D01*
G01*
X10425000Y-10190000D02*
X10425000Y-10260000D01*
X10425000Y-10260000D02*
G75*
G03*
X10535000Y-10260000I55000J0D01*
G01*
D13*
X10518891Y-14413891D02*
X10518891Y-14336109D01*
X10441109Y-14336109D01*
X10441109Y-14413891D01*
X10518891Y-14413891D01*
D12*
X10535000Y-14410000D02*
X10535000Y-14340000D01*
X10425000Y-14340000D02*
G75*
G02*
X10535000Y-14340000I55000J0D01*
G01*
X10425000Y-14340000D02*
X10425000Y-14410000D01*
X10425000Y-14410000D02*
G75*
G03*
X10535000Y-14410000I55000J0D01*
G01*
D14*
X12475000Y-4795000D02*
X12565000Y-4705000D01*
X12475000Y-4615000D01*
X12385000Y-4705000D01*
X12475000Y-4795000D01*
X12475000Y-5265000D02*
X12565000Y-5175000D01*
X12475000Y-5085000D01*
X12385000Y-5175000D01*
X12475000Y-5265000D01*
X12475000Y-5735000D02*
X12565000Y-5645000D01*
X12475000Y-5555000D01*
X12385000Y-5645000D01*
X12475000Y-5735000D01*
X12475000Y-6645000D02*
X12565000Y-6555000D01*
X12475000Y-6465000D01*
X12385000Y-6555000D01*
X12475000Y-6645000D01*
X12475000Y-7115000D02*
X12565000Y-7025000D01*
X12475000Y-6935000D01*
X12385000Y-7025000D01*
X12475000Y-7115000D01*
X12475000Y-7585000D02*
X12565000Y-7495000D01*
X12475000Y-7405000D01*
X12385000Y-7495000D01*
X12475000Y-7585000D01*
X12475000Y-8945000D02*
X12565000Y-8855000D01*
X12475000Y-8765000D01*
X12385000Y-8855000D01*
X12475000Y-8945000D01*
X12475000Y-9415000D02*
X12565000Y-9325000D01*
X12475000Y-9235000D01*
X12385000Y-9325000D01*
X12475000Y-9415000D01*
X12475000Y-9885000D02*
X12565000Y-9795000D01*
X12475000Y-9705000D01*
X12385000Y-9795000D01*
X12475000Y-9885000D01*
X12475000Y-10795000D02*
X12565000Y-10705000D01*
X12475000Y-10615000D01*
X12385000Y-10705000D01*
X12475000Y-10795000D01*
X12475000Y-11265000D02*
X12565000Y-11175000D01*
X12475000Y-11085000D01*
X12385000Y-11175000D01*
X12475000Y-11265000D01*
X12475000Y-11735000D02*
X12565000Y-11645000D01*
X12475000Y-11555000D01*
X12385000Y-11645000D01*
X12475000Y-11735000D01*
X12475000Y-13095000D02*
X12565000Y-13005000D01*
X12475000Y-12915000D01*
X12385000Y-13005000D01*
X12475000Y-13095000D01*
X12475000Y-13565000D02*
X12565000Y-13475000D01*
X12475000Y-13385000D01*
X12385000Y-13475000D01*
X12475000Y-13565000D01*
X12475000Y-14035000D02*
X12565000Y-13945000D01*
X12475000Y-13855000D01*
X12385000Y-13945000D01*
X12475000Y-14035000D01*
X12475000Y-14945000D02*
X12565000Y-14855000D01*
X12475000Y-14765000D01*
X12385000Y-14855000D01*
X12475000Y-14945000D01*
X12475000Y-15415000D02*
X12565000Y-15325000D01*
X12475000Y-15235000D01*
X12385000Y-15325000D01*
X12475000Y-15415000D01*
X12475000Y-15885000D02*
X12565000Y-15795000D01*
X12475000Y-15705000D01*
X12385000Y-15795000D01*
X12475000Y-15885000D01*
X14125000Y-4795000D02*
X14215000Y-4705000D01*
X14125000Y-4615000D01*
X14035000Y-4705000D01*
X14125000Y-4795000D01*
X14125000Y-5265000D02*
X14215000Y-5175000D01*
X14125000Y-5085000D01*
X14035000Y-5175000D01*
X14125000Y-5265000D01*
X14125000Y-5735000D02*
X14215000Y-5645000D01*
X14125000Y-5555000D01*
X14035000Y-5645000D01*
X14125000Y-5735000D01*
X14125000Y-6645000D02*
X14215000Y-6555000D01*
X14125000Y-6465000D01*
X14035000Y-6555000D01*
X14125000Y-6645000D01*
X14125000Y-7115000D02*
X14215000Y-7025000D01*
X14125000Y-6935000D01*
X14035000Y-7025000D01*
X14125000Y-7115000D01*
X14125000Y-7585000D02*
X14215000Y-7495000D01*
X14125000Y-7405000D01*
X14035000Y-7495000D01*
X14125000Y-7585000D01*
X14125000Y-8945000D02*
X14215000Y-8855000D01*
X14125000Y-8765000D01*
X14035000Y-8855000D01*
X14125000Y-8945000D01*
X14125000Y-9415000D02*
X14215000Y-9325000D01*
X14125000Y-9235000D01*
X14035000Y-9325000D01*
X14125000Y-9415000D01*
X14125000Y-9885000D02*
X14215000Y-9795000D01*
X14125000Y-9705000D01*
X14035000Y-9795000D01*
X14125000Y-9885000D01*
X14125000Y-10795000D02*
X14215000Y-10705000D01*
X14125000Y-10615000D01*
X14035000Y-10705000D01*
X14125000Y-10795000D01*
X14125000Y-11265000D02*
X14215000Y-11175000D01*
X14125000Y-11085000D01*
X14035000Y-11175000D01*
X14125000Y-11265000D01*
X14125000Y-11735000D02*
X14215000Y-11645000D01*
X14125000Y-11555000D01*
X14035000Y-11645000D01*
X14125000Y-11735000D01*
X14125000Y-13095000D02*
X14215000Y-13005000D01*
X14125000Y-12915000D01*
X14035000Y-13005000D01*
X14125000Y-13095000D01*
X14125000Y-13565000D02*
X14215000Y-13475000D01*
X14125000Y-13385000D01*
X14035000Y-13475000D01*
X14125000Y-13565000D01*
X14125000Y-14035000D02*
X14215000Y-13945000D01*
X14125000Y-13855000D01*
X14035000Y-13945000D01*
X14125000Y-14035000D01*
X14125000Y-14945000D02*
X14215000Y-14855000D01*
X14125000Y-14765000D01*
X14035000Y-14855000D01*
X14125000Y-14945000D01*
X14125000Y-15415000D02*
X14215000Y-15325000D01*
X14125000Y-15235000D01*
X14035000Y-15325000D01*
X14125000Y-15415000D01*
X14125000Y-15885000D02*
X14215000Y-15795000D01*
X14125000Y-15705000D01*
X14035000Y-15795000D01*
X14125000Y-15885000D01*
D11*
X5358277Y-16613984D02*
X5358277Y-16413984D01*
X5358277Y-16413984D02*
X5405896Y-16413984D01*
X5405896Y-16413984D02*
X5434467Y-16423508D01*
X5434467Y-16423508D02*
X5453515Y-16442555D01*
X5453515Y-16442555D02*
X5463039Y-16461603D01*
X5463039Y-16461603D02*
X5472563Y-16499698D01*
X5472563Y-16499698D02*
X5472563Y-16528269D01*
X5472563Y-16528269D02*
X5463039Y-16566365D01*
X5463039Y-16566365D02*
X5453515Y-16585412D01*
X5453515Y-16585412D02*
X5434467Y-16604460D01*
X5434467Y-16604460D02*
X5405896Y-16613984D01*
X5405896Y-16613984D02*
X5358277Y-16613984D01*
X5558277Y-16613984D02*
X5558277Y-16480650D01*
X5558277Y-16518746D02*
X5567801Y-16499698D01*
X5567801Y-16499698D02*
X5577324Y-16490174D01*
X5577324Y-16490174D02*
X5596372Y-16480650D01*
X5596372Y-16480650D02*
X5615420Y-16480650D01*
X5682086Y-16613984D02*
X5682086Y-16480650D01*
X5682086Y-16413984D02*
X5672562Y-16423508D01*
X5672562Y-16423508D02*
X5682086Y-16433031D01*
X5682086Y-16433031D02*
X5691610Y-16423508D01*
X5691610Y-16423508D02*
X5682086Y-16413984D01*
X5682086Y-16413984D02*
X5682086Y-16433031D01*
X5805896Y-16613984D02*
X5786848Y-16604460D01*
X5786848Y-16604460D02*
X5777324Y-16585412D01*
X5777324Y-16585412D02*
X5777324Y-16413984D01*
X5910658Y-16613984D02*
X5891610Y-16604460D01*
X5891610Y-16604460D02*
X5882086Y-16585412D01*
X5882086Y-16585412D02*
X5882086Y-16413984D01*
X6139229Y-16613984D02*
X6139229Y-16413984D01*
X6139229Y-16413984D02*
X6205896Y-16556841D01*
X6205896Y-16556841D02*
X6272562Y-16413984D01*
X6272562Y-16413984D02*
X6272562Y-16613984D01*
X6453515Y-16613984D02*
X6453515Y-16509222D01*
X6453515Y-16509222D02*
X6443991Y-16490174D01*
X6443991Y-16490174D02*
X6424943Y-16480650D01*
X6424943Y-16480650D02*
X6386848Y-16480650D01*
X6386848Y-16480650D02*
X6367801Y-16490174D01*
X6453515Y-16604460D02*
X6434467Y-16613984D01*
X6434467Y-16613984D02*
X6386848Y-16613984D01*
X6386848Y-16613984D02*
X6367801Y-16604460D01*
X6367801Y-16604460D02*
X6358277Y-16585412D01*
X6358277Y-16585412D02*
X6358277Y-16566365D01*
X6358277Y-16566365D02*
X6367801Y-16547317D01*
X6367801Y-16547317D02*
X6386848Y-16537793D01*
X6386848Y-16537793D02*
X6434467Y-16537793D01*
X6434467Y-16537793D02*
X6453515Y-16528269D01*
X6548753Y-16480650D02*
X6548753Y-16680650D01*
X6548753Y-16490174D02*
X6567801Y-16480650D01*
X6567801Y-16480650D02*
X6605896Y-16480650D01*
X6605896Y-16480650D02*
X6624943Y-16490174D01*
X6624943Y-16490174D02*
X6634467Y-16499698D01*
X6634467Y-16499698D02*
X6643991Y-16518746D01*
X6643991Y-16518746D02*
X6643991Y-16575888D01*
X6643991Y-16575888D02*
X6634467Y-16594936D01*
X6634467Y-16594936D02*
X6624943Y-16604460D01*
X6624943Y-16604460D02*
X6605896Y-16613984D01*
X6605896Y-16613984D02*
X6567801Y-16613984D01*
X6567801Y-16613984D02*
X6548753Y-16604460D01*
X6729705Y-16594936D02*
X6739229Y-16604460D01*
X6739229Y-16604460D02*
X6729705Y-16613984D01*
X6729705Y-16613984D02*
X6720182Y-16604460D01*
X6720182Y-16604460D02*
X6729705Y-16594936D01*
X6729705Y-16594936D02*
X6729705Y-16613984D01*
X6729705Y-16490174D02*
X6739229Y-16499698D01*
X6739229Y-16499698D02*
X6729705Y-16509222D01*
X6729705Y-16509222D02*
X6720182Y-16499698D01*
X6720182Y-16499698D02*
X6729705Y-16490174D01*
X6729705Y-16490174D02*
X6729705Y-16509222D01*
D12*
X5017500Y-16902500D02*
X5097500Y-16982500D01*
X5097500Y-16902500D02*
X5017500Y-16982500D01*
D11*
X5396372Y-16833984D02*
X5415420Y-16833984D01*
X5415420Y-16833984D02*
X5434467Y-16843508D01*
X5434467Y-16843508D02*
X5443991Y-16853031D01*
X5443991Y-16853031D02*
X5453515Y-16872079D01*
X5453515Y-16872079D02*
X5463039Y-16910174D01*
X5463039Y-16910174D02*
X5463039Y-16957793D01*
X5463039Y-16957793D02*
X5453515Y-16995889D01*
X5453515Y-16995889D02*
X5443991Y-17014936D01*
X5443991Y-17014936D02*
X5434467Y-17024460D01*
X5434467Y-17024460D02*
X5415420Y-17033984D01*
X5415420Y-17033984D02*
X5396372Y-17033984D01*
X5396372Y-17033984D02*
X5377324Y-17024460D01*
X5377324Y-17024460D02*
X5367801Y-17014936D01*
X5367801Y-17014936D02*
X5358277Y-16995889D01*
X5358277Y-16995889D02*
X5348753Y-16957793D01*
X5348753Y-16957793D02*
X5348753Y-16910174D01*
X5348753Y-16910174D02*
X5358277Y-16872079D01*
X5358277Y-16872079D02*
X5367801Y-16853031D01*
X5367801Y-16853031D02*
X5377324Y-16843508D01*
X5377324Y-16843508D02*
X5396372Y-16833984D01*
X5548753Y-17014936D02*
X5558277Y-17024460D01*
X5558277Y-17024460D02*
X5548753Y-17033984D01*
X5548753Y-17033984D02*
X5539229Y-17024460D01*
X5539229Y-17024460D02*
X5548753Y-17014936D01*
X5548753Y-17014936D02*
X5548753Y-17033984D01*
X5672562Y-16919698D02*
X5653515Y-16910174D01*
X5653515Y-16910174D02*
X5643991Y-16900650D01*
X5643991Y-16900650D02*
X5634467Y-16881603D01*
X5634467Y-16881603D02*
X5634467Y-16872079D01*
X5634467Y-16872079D02*
X5643991Y-16853031D01*
X5643991Y-16853031D02*
X5653515Y-16843508D01*
X5653515Y-16843508D02*
X5672562Y-16833984D01*
X5672562Y-16833984D02*
X5710658Y-16833984D01*
X5710658Y-16833984D02*
X5729705Y-16843508D01*
X5729705Y-16843508D02*
X5739229Y-16853031D01*
X5739229Y-16853031D02*
X5748753Y-16872079D01*
X5748753Y-16872079D02*
X5748753Y-16881603D01*
X5748753Y-16881603D02*
X5739229Y-16900650D01*
X5739229Y-16900650D02*
X5729705Y-16910174D01*
X5729705Y-16910174D02*
X5710658Y-16919698D01*
X5710658Y-16919698D02*
X5672562Y-16919698D01*
X5672562Y-16919698D02*
X5653515Y-16929222D01*
X5653515Y-16929222D02*
X5643991Y-16938746D01*
X5643991Y-16938746D02*
X5634467Y-16957793D01*
X5634467Y-16957793D02*
X5634467Y-16995889D01*
X5634467Y-16995889D02*
X5643991Y-17014936D01*
X5643991Y-17014936D02*
X5653515Y-17024460D01*
X5653515Y-17024460D02*
X5672562Y-17033984D01*
X5672562Y-17033984D02*
X5710658Y-17033984D01*
X5710658Y-17033984D02*
X5729705Y-17024460D01*
X5729705Y-17024460D02*
X5739229Y-17014936D01*
X5739229Y-17014936D02*
X5748753Y-16995889D01*
X5748753Y-16995889D02*
X5748753Y-16957793D01*
X5748753Y-16957793D02*
X5739229Y-16938746D01*
X5739229Y-16938746D02*
X5729705Y-16929222D01*
X5729705Y-16929222D02*
X5710658Y-16919698D01*
X5872562Y-16833984D02*
X5891610Y-16833984D01*
X5891610Y-16833984D02*
X5910658Y-16843508D01*
X5910658Y-16843508D02*
X5920182Y-16853031D01*
X5920182Y-16853031D02*
X5929705Y-16872079D01*
X5929705Y-16872079D02*
X5939229Y-16910174D01*
X5939229Y-16910174D02*
X5939229Y-16957793D01*
X5939229Y-16957793D02*
X5929705Y-16995889D01*
X5929705Y-16995889D02*
X5920182Y-17014936D01*
X5920182Y-17014936D02*
X5910658Y-17024460D01*
X5910658Y-17024460D02*
X5891610Y-17033984D01*
X5891610Y-17033984D02*
X5872562Y-17033984D01*
X5872562Y-17033984D02*
X5853515Y-17024460D01*
X5853515Y-17024460D02*
X5843991Y-17014936D01*
X5843991Y-17014936D02*
X5834467Y-16995889D01*
X5834467Y-16995889D02*
X5824943Y-16957793D01*
X5824943Y-16957793D02*
X5824943Y-16910174D01*
X5824943Y-16910174D02*
X5834467Y-16872079D01*
X5834467Y-16872079D02*
X5843991Y-16853031D01*
X5843991Y-16853031D02*
X5853515Y-16843508D01*
X5853515Y-16843508D02*
X5872562Y-16833984D01*
X6063039Y-16833984D02*
X6082086Y-16833984D01*
X6082086Y-16833984D02*
X6101134Y-16843508D01*
X6101134Y-16843508D02*
X6110658Y-16853031D01*
X6110658Y-16853031D02*
X6120182Y-16872079D01*
X6120182Y-16872079D02*
X6129705Y-16910174D01*
X6129705Y-16910174D02*
X6129705Y-16957793D01*
X6129705Y-16957793D02*
X6120182Y-16995889D01*
X6120182Y-16995889D02*
X6110658Y-17014936D01*
X6110658Y-17014936D02*
X6101134Y-17024460D01*
X6101134Y-17024460D02*
X6082086Y-17033984D01*
X6082086Y-17033984D02*
X6063039Y-17033984D01*
X6063039Y-17033984D02*
X6043991Y-17024460D01*
X6043991Y-17024460D02*
X6034467Y-17014936D01*
X6034467Y-17014936D02*
X6024943Y-16995889D01*
X6024943Y-16995889D02*
X6015420Y-16957793D01*
X6015420Y-16957793D02*
X6015420Y-16910174D01*
X6015420Y-16910174D02*
X6024943Y-16872079D01*
X6024943Y-16872079D02*
X6034467Y-16853031D01*
X6034467Y-16853031D02*
X6043991Y-16843508D01*
X6043991Y-16843508D02*
X6063039Y-16833984D01*
X6215420Y-17033984D02*
X6215420Y-16900650D01*
X6215420Y-16919698D02*
X6224943Y-16910174D01*
X6224943Y-16910174D02*
X6243991Y-16900650D01*
X6243991Y-16900650D02*
X6272563Y-16900650D01*
X6272563Y-16900650D02*
X6291610Y-16910174D01*
X6291610Y-16910174D02*
X6301134Y-16929222D01*
X6301134Y-16929222D02*
X6301134Y-17033984D01*
X6301134Y-16929222D02*
X6310658Y-16910174D01*
X6310658Y-16910174D02*
X6329705Y-16900650D01*
X6329705Y-16900650D02*
X6358277Y-16900650D01*
X6358277Y-16900650D02*
X6377324Y-16910174D01*
X6377324Y-16910174D02*
X6386848Y-16929222D01*
X6386848Y-16929222D02*
X6386848Y-17033984D01*
X6482086Y-17033984D02*
X6482086Y-16900650D01*
X6482086Y-16919698D02*
X6491610Y-16910174D01*
X6491610Y-16910174D02*
X6510658Y-16900650D01*
X6510658Y-16900650D02*
X6539229Y-16900650D01*
X6539229Y-16900650D02*
X6558277Y-16910174D01*
X6558277Y-16910174D02*
X6567801Y-16929222D01*
X6567801Y-16929222D02*
X6567801Y-17033984D01*
X6567801Y-16929222D02*
X6577324Y-16910174D01*
X6577324Y-16910174D02*
X6596372Y-16900650D01*
X6596372Y-16900650D02*
X6624943Y-16900650D01*
X6624943Y-16900650D02*
X6643991Y-16910174D01*
X6643991Y-16910174D02*
X6653515Y-16929222D01*
X6653515Y-16929222D02*
X6653515Y-17033984D01*
X7043991Y-16824460D02*
X6872563Y-17081603D01*
X7301134Y-16833984D02*
X7320182Y-16833984D01*
X7320182Y-16833984D02*
X7339229Y-16843508D01*
X7339229Y-16843508D02*
X7348753Y-16853031D01*
X7348753Y-16853031D02*
X7358277Y-16872079D01*
X7358277Y-16872079D02*
X7367801Y-16910174D01*
X7367801Y-16910174D02*
X7367801Y-16957793D01*
X7367801Y-16957793D02*
X7358277Y-16995889D01*
X7358277Y-16995889D02*
X7348753Y-17014936D01*
X7348753Y-17014936D02*
X7339229Y-17024460D01*
X7339229Y-17024460D02*
X7320182Y-17033984D01*
X7320182Y-17033984D02*
X7301134Y-17033984D01*
X7301134Y-17033984D02*
X7282086Y-17024460D01*
X7282086Y-17024460D02*
X7272563Y-17014936D01*
X7272563Y-17014936D02*
X7263039Y-16995889D01*
X7263039Y-16995889D02*
X7253515Y-16957793D01*
X7253515Y-16957793D02*
X7253515Y-16910174D01*
X7253515Y-16910174D02*
X7263039Y-16872079D01*
X7263039Y-16872079D02*
X7272563Y-16853031D01*
X7272563Y-16853031D02*
X7282086Y-16843508D01*
X7282086Y-16843508D02*
X7301134Y-16833984D01*
X7453515Y-17014936D02*
X7463039Y-17024460D01*
X7463039Y-17024460D02*
X7453515Y-17033984D01*
X7453515Y-17033984D02*
X7443991Y-17024460D01*
X7443991Y-17024460D02*
X7453515Y-17014936D01*
X7453515Y-17014936D02*
X7453515Y-17033984D01*
X7586848Y-16833984D02*
X7605896Y-16833984D01*
X7605896Y-16833984D02*
X7624944Y-16843508D01*
X7624944Y-16843508D02*
X7634467Y-16853031D01*
X7634467Y-16853031D02*
X7643991Y-16872079D01*
X7643991Y-16872079D02*
X7653515Y-16910174D01*
X7653515Y-16910174D02*
X7653515Y-16957793D01*
X7653515Y-16957793D02*
X7643991Y-16995889D01*
X7643991Y-16995889D02*
X7634467Y-17014936D01*
X7634467Y-17014936D02*
X7624944Y-17024460D01*
X7624944Y-17024460D02*
X7605896Y-17033984D01*
X7605896Y-17033984D02*
X7586848Y-17033984D01*
X7586848Y-17033984D02*
X7567801Y-17024460D01*
X7567801Y-17024460D02*
X7558277Y-17014936D01*
X7558277Y-17014936D02*
X7548753Y-16995889D01*
X7548753Y-16995889D02*
X7539229Y-16957793D01*
X7539229Y-16957793D02*
X7539229Y-16910174D01*
X7539229Y-16910174D02*
X7548753Y-16872079D01*
X7548753Y-16872079D02*
X7558277Y-16853031D01*
X7558277Y-16853031D02*
X7567801Y-16843508D01*
X7567801Y-16843508D02*
X7586848Y-16833984D01*
X7720182Y-16833984D02*
X7843991Y-16833984D01*
X7843991Y-16833984D02*
X7777325Y-16910174D01*
X7777325Y-16910174D02*
X7805896Y-16910174D01*
X7805896Y-16910174D02*
X7824944Y-16919698D01*
X7824944Y-16919698D02*
X7834467Y-16929222D01*
X7834467Y-16929222D02*
X7843991Y-16948270D01*
X7843991Y-16948270D02*
X7843991Y-16995889D01*
X7843991Y-16995889D02*
X7834467Y-17014936D01*
X7834467Y-17014936D02*
X7824944Y-17024460D01*
X7824944Y-17024460D02*
X7805896Y-17033984D01*
X7805896Y-17033984D02*
X7748753Y-17033984D01*
X7748753Y-17033984D02*
X7729706Y-17024460D01*
X7729706Y-17024460D02*
X7720182Y-17014936D01*
X8034467Y-17033984D02*
X7920182Y-17033984D01*
X7977325Y-17033984D02*
X7977325Y-16833984D01*
X7977325Y-16833984D02*
X7958277Y-16862555D01*
X7958277Y-16862555D02*
X7939229Y-16881603D01*
X7939229Y-16881603D02*
X7920182Y-16891127D01*
X8215420Y-16833984D02*
X8120182Y-16833984D01*
X8120182Y-16833984D02*
X8110658Y-16929222D01*
X8110658Y-16929222D02*
X8120182Y-16919698D01*
X8120182Y-16919698D02*
X8139229Y-16910174D01*
X8139229Y-16910174D02*
X8186848Y-16910174D01*
X8186848Y-16910174D02*
X8205896Y-16919698D01*
X8205896Y-16919698D02*
X8215420Y-16929222D01*
X8215420Y-16929222D02*
X8224944Y-16948270D01*
X8224944Y-16948270D02*
X8224944Y-16995889D01*
X8224944Y-16995889D02*
X8215420Y-17014936D01*
X8215420Y-17014936D02*
X8205896Y-17024460D01*
X8205896Y-17024460D02*
X8186848Y-17033984D01*
X8186848Y-17033984D02*
X8139229Y-17033984D01*
X8139229Y-17033984D02*
X8120182Y-17024460D01*
X8120182Y-17024460D02*
X8110658Y-17014936D01*
X8301134Y-16833984D02*
X8301134Y-16872079D01*
X8377325Y-16833984D02*
X8377325Y-16872079D01*
X8672563Y-17110174D02*
X8663039Y-17100650D01*
X8663039Y-17100650D02*
X8643991Y-17072079D01*
X8643991Y-17072079D02*
X8634468Y-17053031D01*
X8634468Y-17053031D02*
X8624944Y-17024460D01*
X8624944Y-17024460D02*
X8615420Y-16976841D01*
X8615420Y-16976841D02*
X8615420Y-16938746D01*
X8615420Y-16938746D02*
X8624944Y-16891127D01*
X8624944Y-16891127D02*
X8634468Y-16862555D01*
X8634468Y-16862555D02*
X8643991Y-16843508D01*
X8643991Y-16843508D02*
X8663039Y-16814936D01*
X8663039Y-16814936D02*
X8672563Y-16805412D01*
X8777325Y-16919698D02*
X8758277Y-16910174D01*
X8758277Y-16910174D02*
X8748753Y-16900650D01*
X8748753Y-16900650D02*
X8739230Y-16881603D01*
X8739230Y-16881603D02*
X8739230Y-16872079D01*
X8739230Y-16872079D02*
X8748753Y-16853031D01*
X8748753Y-16853031D02*
X8758277Y-16843508D01*
X8758277Y-16843508D02*
X8777325Y-16833984D01*
X8777325Y-16833984D02*
X8815420Y-16833984D01*
X8815420Y-16833984D02*
X8834468Y-16843508D01*
X8834468Y-16843508D02*
X8843991Y-16853031D01*
X8843991Y-16853031D02*
X8853515Y-16872079D01*
X8853515Y-16872079D02*
X8853515Y-16881603D01*
X8853515Y-16881603D02*
X8843991Y-16900650D01*
X8843991Y-16900650D02*
X8834468Y-16910174D01*
X8834468Y-16910174D02*
X8815420Y-16919698D01*
X8815420Y-16919698D02*
X8777325Y-16919698D01*
X8777325Y-16919698D02*
X8758277Y-16929222D01*
X8758277Y-16929222D02*
X8748753Y-16938746D01*
X8748753Y-16938746D02*
X8739230Y-16957793D01*
X8739230Y-16957793D02*
X8739230Y-16995889D01*
X8739230Y-16995889D02*
X8748753Y-17014936D01*
X8748753Y-17014936D02*
X8758277Y-17024460D01*
X8758277Y-17024460D02*
X8777325Y-17033984D01*
X8777325Y-17033984D02*
X8815420Y-17033984D01*
X8815420Y-17033984D02*
X8834468Y-17024460D01*
X8834468Y-17024460D02*
X8843991Y-17014936D01*
X8843991Y-17014936D02*
X8853515Y-16995889D01*
X8853515Y-16995889D02*
X8853515Y-16957793D01*
X8853515Y-16957793D02*
X8843991Y-16938746D01*
X8843991Y-16938746D02*
X8834468Y-16929222D01*
X8834468Y-16929222D02*
X8815420Y-16919698D01*
X9024944Y-16900650D02*
X9024944Y-17033984D01*
X8977325Y-16824460D02*
X8929706Y-16967317D01*
X8929706Y-16967317D02*
X9053515Y-16967317D01*
X9282087Y-17033984D02*
X9282087Y-16833984D01*
X9367801Y-17033984D02*
X9367801Y-16929222D01*
X9367801Y-16929222D02*
X9358277Y-16910174D01*
X9358277Y-16910174D02*
X9339230Y-16900650D01*
X9339230Y-16900650D02*
X9310658Y-16900650D01*
X9310658Y-16900650D02*
X9291611Y-16910174D01*
X9291611Y-16910174D02*
X9282087Y-16919698D01*
X9491611Y-17033984D02*
X9472563Y-17024460D01*
X9472563Y-17024460D02*
X9463039Y-17014936D01*
X9463039Y-17014936D02*
X9453515Y-16995889D01*
X9453515Y-16995889D02*
X9453515Y-16938746D01*
X9453515Y-16938746D02*
X9463039Y-16919698D01*
X9463039Y-16919698D02*
X9472563Y-16910174D01*
X9472563Y-16910174D02*
X9491611Y-16900650D01*
X9491611Y-16900650D02*
X9520182Y-16900650D01*
X9520182Y-16900650D02*
X9539230Y-16910174D01*
X9539230Y-16910174D02*
X9548753Y-16919698D01*
X9548753Y-16919698D02*
X9558277Y-16938746D01*
X9558277Y-16938746D02*
X9558277Y-16995889D01*
X9558277Y-16995889D02*
X9548753Y-17014936D01*
X9548753Y-17014936D02*
X9539230Y-17024460D01*
X9539230Y-17024460D02*
X9520182Y-17033984D01*
X9520182Y-17033984D02*
X9491611Y-17033984D01*
X9672563Y-17033984D02*
X9653515Y-17024460D01*
X9653515Y-17024460D02*
X9643992Y-17005412D01*
X9643992Y-17005412D02*
X9643992Y-16833984D01*
X9824944Y-17024460D02*
X9805896Y-17033984D01*
X9805896Y-17033984D02*
X9767801Y-17033984D01*
X9767801Y-17033984D02*
X9748753Y-17024460D01*
X9748753Y-17024460D02*
X9739230Y-17005412D01*
X9739230Y-17005412D02*
X9739230Y-16929222D01*
X9739230Y-16929222D02*
X9748753Y-16910174D01*
X9748753Y-16910174D02*
X9767801Y-16900650D01*
X9767801Y-16900650D02*
X9805896Y-16900650D01*
X9805896Y-16900650D02*
X9824944Y-16910174D01*
X9824944Y-16910174D02*
X9834468Y-16929222D01*
X9834468Y-16929222D02*
X9834468Y-16948270D01*
X9834468Y-16948270D02*
X9739230Y-16967317D01*
X9910658Y-17024460D02*
X9929706Y-17033984D01*
X9929706Y-17033984D02*
X9967801Y-17033984D01*
X9967801Y-17033984D02*
X9986849Y-17024460D01*
X9986849Y-17024460D02*
X9996373Y-17005412D01*
X9996373Y-17005412D02*
X9996373Y-16995889D01*
X9996373Y-16995889D02*
X9986849Y-16976841D01*
X9986849Y-16976841D02*
X9967801Y-16967317D01*
X9967801Y-16967317D02*
X9939230Y-16967317D01*
X9939230Y-16967317D02*
X9920182Y-16957793D01*
X9920182Y-16957793D02*
X9910658Y-16938746D01*
X9910658Y-16938746D02*
X9910658Y-16929222D01*
X9910658Y-16929222D02*
X9920182Y-16910174D01*
X9920182Y-16910174D02*
X9939230Y-16900650D01*
X9939230Y-16900650D02*
X9967801Y-16900650D01*
X9967801Y-16900650D02*
X9986849Y-16910174D01*
X10063039Y-17110174D02*
X10072563Y-17100650D01*
X10072563Y-17100650D02*
X10091611Y-17072079D01*
X10091611Y-17072079D02*
X10101134Y-17053031D01*
X10101134Y-17053031D02*
X10110658Y-17024460D01*
X10110658Y-17024460D02*
X10120182Y-16976841D01*
X10120182Y-16976841D02*
X10120182Y-16938746D01*
X10120182Y-16938746D02*
X10110658Y-16891127D01*
X10110658Y-16891127D02*
X10101134Y-16862555D01*
X10101134Y-16862555D02*
X10091611Y-16843508D01*
X10091611Y-16843508D02*
X10072563Y-16814936D01*
X10072563Y-16814936D02*
X10063039Y-16805412D01*
D12*
X5097500Y-17206500D02*
G75*
G02*
X5007500Y-17206500I-45000J0D01*
G01*
X5007500Y-17206500D02*
G75*
G02*
X5097500Y-17206500I45000J0D01*
G01*
D11*
X5396372Y-17097984D02*
X5415420Y-17097984D01*
X5415420Y-17097984D02*
X5434467Y-17107508D01*
X5434467Y-17107508D02*
X5443991Y-17117031D01*
X5443991Y-17117031D02*
X5453515Y-17136079D01*
X5453515Y-17136079D02*
X5463039Y-17174174D01*
X5463039Y-17174174D02*
X5463039Y-17221793D01*
X5463039Y-17221793D02*
X5453515Y-17259889D01*
X5453515Y-17259889D02*
X5443991Y-17278936D01*
X5443991Y-17278936D02*
X5434467Y-17288460D01*
X5434467Y-17288460D02*
X5415420Y-17297984D01*
X5415420Y-17297984D02*
X5396372Y-17297984D01*
X5396372Y-17297984D02*
X5377324Y-17288460D01*
X5377324Y-17288460D02*
X5367801Y-17278936D01*
X5367801Y-17278936D02*
X5358277Y-17259889D01*
X5358277Y-17259889D02*
X5348753Y-17221793D01*
X5348753Y-17221793D02*
X5348753Y-17174174D01*
X5348753Y-17174174D02*
X5358277Y-17136079D01*
X5358277Y-17136079D02*
X5367801Y-17117031D01*
X5367801Y-17117031D02*
X5377324Y-17107508D01*
X5377324Y-17107508D02*
X5396372Y-17097984D01*
X5548753Y-17278936D02*
X5558277Y-17288460D01*
X5558277Y-17288460D02*
X5548753Y-17297984D01*
X5548753Y-17297984D02*
X5539229Y-17288460D01*
X5539229Y-17288460D02*
X5548753Y-17278936D01*
X5548753Y-17278936D02*
X5548753Y-17297984D01*
X5653515Y-17297984D02*
X5691610Y-17297984D01*
X5691610Y-17297984D02*
X5710658Y-17288460D01*
X5710658Y-17288460D02*
X5720182Y-17278936D01*
X5720182Y-17278936D02*
X5739229Y-17250365D01*
X5739229Y-17250365D02*
X5748753Y-17212270D01*
X5748753Y-17212270D02*
X5748753Y-17136079D01*
X5748753Y-17136079D02*
X5739229Y-17117031D01*
X5739229Y-17117031D02*
X5729705Y-17107508D01*
X5729705Y-17107508D02*
X5710658Y-17097984D01*
X5710658Y-17097984D02*
X5672562Y-17097984D01*
X5672562Y-17097984D02*
X5653515Y-17107508D01*
X5653515Y-17107508D02*
X5643991Y-17117031D01*
X5643991Y-17117031D02*
X5634467Y-17136079D01*
X5634467Y-17136079D02*
X5634467Y-17183698D01*
X5634467Y-17183698D02*
X5643991Y-17202746D01*
X5643991Y-17202746D02*
X5653515Y-17212270D01*
X5653515Y-17212270D02*
X5672562Y-17221793D01*
X5672562Y-17221793D02*
X5710658Y-17221793D01*
X5710658Y-17221793D02*
X5729705Y-17212270D01*
X5729705Y-17212270D02*
X5739229Y-17202746D01*
X5739229Y-17202746D02*
X5748753Y-17183698D01*
X5872562Y-17097984D02*
X5891610Y-17097984D01*
X5891610Y-17097984D02*
X5910658Y-17107508D01*
X5910658Y-17107508D02*
X5920182Y-17117031D01*
X5920182Y-17117031D02*
X5929705Y-17136079D01*
X5929705Y-17136079D02*
X5939229Y-17174174D01*
X5939229Y-17174174D02*
X5939229Y-17221793D01*
X5939229Y-17221793D02*
X5929705Y-17259889D01*
X5929705Y-17259889D02*
X5920182Y-17278936D01*
X5920182Y-17278936D02*
X5910658Y-17288460D01*
X5910658Y-17288460D02*
X5891610Y-17297984D01*
X5891610Y-17297984D02*
X5872562Y-17297984D01*
X5872562Y-17297984D02*
X5853515Y-17288460D01*
X5853515Y-17288460D02*
X5843991Y-17278936D01*
X5843991Y-17278936D02*
X5834467Y-17259889D01*
X5834467Y-17259889D02*
X5824943Y-17221793D01*
X5824943Y-17221793D02*
X5824943Y-17174174D01*
X5824943Y-17174174D02*
X5834467Y-17136079D01*
X5834467Y-17136079D02*
X5843991Y-17117031D01*
X5843991Y-17117031D02*
X5853515Y-17107508D01*
X5853515Y-17107508D02*
X5872562Y-17097984D01*
X6063039Y-17097984D02*
X6082086Y-17097984D01*
X6082086Y-17097984D02*
X6101134Y-17107508D01*
X6101134Y-17107508D02*
X6110658Y-17117031D01*
X6110658Y-17117031D02*
X6120182Y-17136079D01*
X6120182Y-17136079D02*
X6129705Y-17174174D01*
X6129705Y-17174174D02*
X6129705Y-17221793D01*
X6129705Y-17221793D02*
X6120182Y-17259889D01*
X6120182Y-17259889D02*
X6110658Y-17278936D01*
X6110658Y-17278936D02*
X6101134Y-17288460D01*
X6101134Y-17288460D02*
X6082086Y-17297984D01*
X6082086Y-17297984D02*
X6063039Y-17297984D01*
X6063039Y-17297984D02*
X6043991Y-17288460D01*
X6043991Y-17288460D02*
X6034467Y-17278936D01*
X6034467Y-17278936D02*
X6024943Y-17259889D01*
X6024943Y-17259889D02*
X6015420Y-17221793D01*
X6015420Y-17221793D02*
X6015420Y-17174174D01*
X6015420Y-17174174D02*
X6024943Y-17136079D01*
X6024943Y-17136079D02*
X6034467Y-17117031D01*
X6034467Y-17117031D02*
X6043991Y-17107508D01*
X6043991Y-17107508D02*
X6063039Y-17097984D01*
X6215420Y-17297984D02*
X6215420Y-17164650D01*
X6215420Y-17183698D02*
X6224943Y-17174174D01*
X6224943Y-17174174D02*
X6243991Y-17164650D01*
X6243991Y-17164650D02*
X6272563Y-17164650D01*
X6272563Y-17164650D02*
X6291610Y-17174174D01*
X6291610Y-17174174D02*
X6301134Y-17193222D01*
X6301134Y-17193222D02*
X6301134Y-17297984D01*
X6301134Y-17193222D02*
X6310658Y-17174174D01*
X6310658Y-17174174D02*
X6329705Y-17164650D01*
X6329705Y-17164650D02*
X6358277Y-17164650D01*
X6358277Y-17164650D02*
X6377324Y-17174174D01*
X6377324Y-17174174D02*
X6386848Y-17193222D01*
X6386848Y-17193222D02*
X6386848Y-17297984D01*
X6482086Y-17297984D02*
X6482086Y-17164650D01*
X6482086Y-17183698D02*
X6491610Y-17174174D01*
X6491610Y-17174174D02*
X6510658Y-17164650D01*
X6510658Y-17164650D02*
X6539229Y-17164650D01*
X6539229Y-17164650D02*
X6558277Y-17174174D01*
X6558277Y-17174174D02*
X6567801Y-17193222D01*
X6567801Y-17193222D02*
X6567801Y-17297984D01*
X6567801Y-17193222D02*
X6577324Y-17174174D01*
X6577324Y-17174174D02*
X6596372Y-17164650D01*
X6596372Y-17164650D02*
X6624943Y-17164650D01*
X6624943Y-17164650D02*
X6643991Y-17174174D01*
X6643991Y-17174174D02*
X6653515Y-17193222D01*
X6653515Y-17193222D02*
X6653515Y-17297984D01*
X7043991Y-17088460D02*
X6872563Y-17345603D01*
X7301134Y-17097984D02*
X7320182Y-17097984D01*
X7320182Y-17097984D02*
X7339229Y-17107508D01*
X7339229Y-17107508D02*
X7348753Y-17117031D01*
X7348753Y-17117031D02*
X7358277Y-17136079D01*
X7358277Y-17136079D02*
X7367801Y-17174174D01*
X7367801Y-17174174D02*
X7367801Y-17221793D01*
X7367801Y-17221793D02*
X7358277Y-17259889D01*
X7358277Y-17259889D02*
X7348753Y-17278936D01*
X7348753Y-17278936D02*
X7339229Y-17288460D01*
X7339229Y-17288460D02*
X7320182Y-17297984D01*
X7320182Y-17297984D02*
X7301134Y-17297984D01*
X7301134Y-17297984D02*
X7282086Y-17288460D01*
X7282086Y-17288460D02*
X7272563Y-17278936D01*
X7272563Y-17278936D02*
X7263039Y-17259889D01*
X7263039Y-17259889D02*
X7253515Y-17221793D01*
X7253515Y-17221793D02*
X7253515Y-17174174D01*
X7253515Y-17174174D02*
X7263039Y-17136079D01*
X7263039Y-17136079D02*
X7272563Y-17117031D01*
X7272563Y-17117031D02*
X7282086Y-17107508D01*
X7282086Y-17107508D02*
X7301134Y-17097984D01*
X7453515Y-17278936D02*
X7463039Y-17288460D01*
X7463039Y-17288460D02*
X7453515Y-17297984D01*
X7453515Y-17297984D02*
X7443991Y-17288460D01*
X7443991Y-17288460D02*
X7453515Y-17278936D01*
X7453515Y-17278936D02*
X7453515Y-17297984D01*
X7586848Y-17097984D02*
X7605896Y-17097984D01*
X7605896Y-17097984D02*
X7624944Y-17107508D01*
X7624944Y-17107508D02*
X7634467Y-17117031D01*
X7634467Y-17117031D02*
X7643991Y-17136079D01*
X7643991Y-17136079D02*
X7653515Y-17174174D01*
X7653515Y-17174174D02*
X7653515Y-17221793D01*
X7653515Y-17221793D02*
X7643991Y-17259889D01*
X7643991Y-17259889D02*
X7634467Y-17278936D01*
X7634467Y-17278936D02*
X7624944Y-17288460D01*
X7624944Y-17288460D02*
X7605896Y-17297984D01*
X7605896Y-17297984D02*
X7586848Y-17297984D01*
X7586848Y-17297984D02*
X7567801Y-17288460D01*
X7567801Y-17288460D02*
X7558277Y-17278936D01*
X7558277Y-17278936D02*
X7548753Y-17259889D01*
X7548753Y-17259889D02*
X7539229Y-17221793D01*
X7539229Y-17221793D02*
X7539229Y-17174174D01*
X7539229Y-17174174D02*
X7548753Y-17136079D01*
X7548753Y-17136079D02*
X7558277Y-17117031D01*
X7558277Y-17117031D02*
X7567801Y-17107508D01*
X7567801Y-17107508D02*
X7586848Y-17097984D01*
X7720182Y-17097984D02*
X7843991Y-17097984D01*
X7843991Y-17097984D02*
X7777325Y-17174174D01*
X7777325Y-17174174D02*
X7805896Y-17174174D01*
X7805896Y-17174174D02*
X7824944Y-17183698D01*
X7824944Y-17183698D02*
X7834467Y-17193222D01*
X7834467Y-17193222D02*
X7843991Y-17212270D01*
X7843991Y-17212270D02*
X7843991Y-17259889D01*
X7843991Y-17259889D02*
X7834467Y-17278936D01*
X7834467Y-17278936D02*
X7824944Y-17288460D01*
X7824944Y-17288460D02*
X7805896Y-17297984D01*
X7805896Y-17297984D02*
X7748753Y-17297984D01*
X7748753Y-17297984D02*
X7729706Y-17288460D01*
X7729706Y-17288460D02*
X7720182Y-17278936D01*
X8024944Y-17097984D02*
X7929706Y-17097984D01*
X7929706Y-17097984D02*
X7920182Y-17193222D01*
X7920182Y-17193222D02*
X7929706Y-17183698D01*
X7929706Y-17183698D02*
X7948753Y-17174174D01*
X7948753Y-17174174D02*
X7996372Y-17174174D01*
X7996372Y-17174174D02*
X8015420Y-17183698D01*
X8015420Y-17183698D02*
X8024944Y-17193222D01*
X8024944Y-17193222D02*
X8034467Y-17212270D01*
X8034467Y-17212270D02*
X8034467Y-17259889D01*
X8034467Y-17259889D02*
X8024944Y-17278936D01*
X8024944Y-17278936D02*
X8015420Y-17288460D01*
X8015420Y-17288460D02*
X7996372Y-17297984D01*
X7996372Y-17297984D02*
X7948753Y-17297984D01*
X7948753Y-17297984D02*
X7929706Y-17288460D01*
X7929706Y-17288460D02*
X7920182Y-17278936D01*
X8205896Y-17164650D02*
X8205896Y-17297984D01*
X8158277Y-17088460D02*
X8110658Y-17231317D01*
X8110658Y-17231317D02*
X8234467Y-17231317D01*
X8301134Y-17097984D02*
X8301134Y-17136079D01*
X8377325Y-17097984D02*
X8377325Y-17136079D01*
X8672563Y-17374174D02*
X8663039Y-17364650D01*
X8663039Y-17364650D02*
X8643991Y-17336079D01*
X8643991Y-17336079D02*
X8634468Y-17317031D01*
X8634468Y-17317031D02*
X8624944Y-17288460D01*
X8624944Y-17288460D02*
X8615420Y-17240841D01*
X8615420Y-17240841D02*
X8615420Y-17202746D01*
X8615420Y-17202746D02*
X8624944Y-17155127D01*
X8624944Y-17155127D02*
X8634468Y-17126555D01*
X8634468Y-17126555D02*
X8643991Y-17107508D01*
X8643991Y-17107508D02*
X8663039Y-17078936D01*
X8663039Y-17078936D02*
X8672563Y-17069412D01*
X8853515Y-17297984D02*
X8739230Y-17297984D01*
X8796372Y-17297984D02*
X8796372Y-17097984D01*
X8796372Y-17097984D02*
X8777325Y-17126555D01*
X8777325Y-17126555D02*
X8758277Y-17145603D01*
X8758277Y-17145603D02*
X8739230Y-17155127D01*
X8929706Y-17117031D02*
X8939230Y-17107508D01*
X8939230Y-17107508D02*
X8958277Y-17097984D01*
X8958277Y-17097984D02*
X9005896Y-17097984D01*
X9005896Y-17097984D02*
X9024944Y-17107508D01*
X9024944Y-17107508D02*
X9034468Y-17117031D01*
X9034468Y-17117031D02*
X9043991Y-17136079D01*
X9043991Y-17136079D02*
X9043991Y-17155127D01*
X9043991Y-17155127D02*
X9034468Y-17183698D01*
X9034468Y-17183698D02*
X8920182Y-17297984D01*
X8920182Y-17297984D02*
X9043991Y-17297984D01*
X9282087Y-17297984D02*
X9282087Y-17097984D01*
X9367801Y-17297984D02*
X9367801Y-17193222D01*
X9367801Y-17193222D02*
X9358277Y-17174174D01*
X9358277Y-17174174D02*
X9339230Y-17164650D01*
X9339230Y-17164650D02*
X9310658Y-17164650D01*
X9310658Y-17164650D02*
X9291611Y-17174174D01*
X9291611Y-17174174D02*
X9282087Y-17183698D01*
X9491611Y-17297984D02*
X9472563Y-17288460D01*
X9472563Y-17288460D02*
X9463039Y-17278936D01*
X9463039Y-17278936D02*
X9453515Y-17259889D01*
X9453515Y-17259889D02*
X9453515Y-17202746D01*
X9453515Y-17202746D02*
X9463039Y-17183698D01*
X9463039Y-17183698D02*
X9472563Y-17174174D01*
X9472563Y-17174174D02*
X9491611Y-17164650D01*
X9491611Y-17164650D02*
X9520182Y-17164650D01*
X9520182Y-17164650D02*
X9539230Y-17174174D01*
X9539230Y-17174174D02*
X9548753Y-17183698D01*
X9548753Y-17183698D02*
X9558277Y-17202746D01*
X9558277Y-17202746D02*
X9558277Y-17259889D01*
X9558277Y-17259889D02*
X9548753Y-17278936D01*
X9548753Y-17278936D02*
X9539230Y-17288460D01*
X9539230Y-17288460D02*
X9520182Y-17297984D01*
X9520182Y-17297984D02*
X9491611Y-17297984D01*
X9672563Y-17297984D02*
X9653515Y-17288460D01*
X9653515Y-17288460D02*
X9643992Y-17269412D01*
X9643992Y-17269412D02*
X9643992Y-17097984D01*
X9824944Y-17288460D02*
X9805896Y-17297984D01*
X9805896Y-17297984D02*
X9767801Y-17297984D01*
X9767801Y-17297984D02*
X9748753Y-17288460D01*
X9748753Y-17288460D02*
X9739230Y-17269412D01*
X9739230Y-17269412D02*
X9739230Y-17193222D01*
X9739230Y-17193222D02*
X9748753Y-17174174D01*
X9748753Y-17174174D02*
X9767801Y-17164650D01*
X9767801Y-17164650D02*
X9805896Y-17164650D01*
X9805896Y-17164650D02*
X9824944Y-17174174D01*
X9824944Y-17174174D02*
X9834468Y-17193222D01*
X9834468Y-17193222D02*
X9834468Y-17212270D01*
X9834468Y-17212270D02*
X9739230Y-17231317D01*
X9910658Y-17288460D02*
X9929706Y-17297984D01*
X9929706Y-17297984D02*
X9967801Y-17297984D01*
X9967801Y-17297984D02*
X9986849Y-17288460D01*
X9986849Y-17288460D02*
X9996373Y-17269412D01*
X9996373Y-17269412D02*
X9996373Y-17259889D01*
X9996373Y-17259889D02*
X9986849Y-17240841D01*
X9986849Y-17240841D02*
X9967801Y-17231317D01*
X9967801Y-17231317D02*
X9939230Y-17231317D01*
X9939230Y-17231317D02*
X9920182Y-17221793D01*
X9920182Y-17221793D02*
X9910658Y-17202746D01*
X9910658Y-17202746D02*
X9910658Y-17193222D01*
X9910658Y-17193222D02*
X9920182Y-17174174D01*
X9920182Y-17174174D02*
X9939230Y-17164650D01*
X9939230Y-17164650D02*
X9967801Y-17164650D01*
X9967801Y-17164650D02*
X9986849Y-17174174D01*
X10063039Y-17374174D02*
X10072563Y-17364650D01*
X10072563Y-17364650D02*
X10091611Y-17336079D01*
X10091611Y-17336079D02*
X10101134Y-17317031D01*
X10101134Y-17317031D02*
X10110658Y-17288460D01*
X10110658Y-17288460D02*
X10120182Y-17240841D01*
X10120182Y-17240841D02*
X10120182Y-17202746D01*
X10120182Y-17202746D02*
X10110658Y-17155127D01*
X10110658Y-17155127D02*
X10101134Y-17126555D01*
X10101134Y-17126555D02*
X10091611Y-17107508D01*
X10091611Y-17107508D02*
X10072563Y-17078936D01*
X10072563Y-17078936D02*
X10063039Y-17069412D01*
D12*
X5047500Y-17420500D02*
X5047500Y-17520500D01*
X4997500Y-17470500D02*
X5097500Y-17470500D01*
D11*
X5463039Y-17561984D02*
X5348753Y-17561984D01*
X5405896Y-17561984D02*
X5405896Y-17361984D01*
X5405896Y-17361984D02*
X5386848Y-17390555D01*
X5386848Y-17390555D02*
X5367801Y-17409603D01*
X5367801Y-17409603D02*
X5348753Y-17419127D01*
X5548753Y-17542936D02*
X5558277Y-17552460D01*
X5558277Y-17552460D02*
X5548753Y-17561984D01*
X5548753Y-17561984D02*
X5539229Y-17552460D01*
X5539229Y-17552460D02*
X5548753Y-17542936D01*
X5548753Y-17542936D02*
X5548753Y-17561984D01*
X5682086Y-17361984D02*
X5701134Y-17361984D01*
X5701134Y-17361984D02*
X5720182Y-17371508D01*
X5720182Y-17371508D02*
X5729705Y-17381031D01*
X5729705Y-17381031D02*
X5739229Y-17400079D01*
X5739229Y-17400079D02*
X5748753Y-17438174D01*
X5748753Y-17438174D02*
X5748753Y-17485793D01*
X5748753Y-17485793D02*
X5739229Y-17523889D01*
X5739229Y-17523889D02*
X5729705Y-17542936D01*
X5729705Y-17542936D02*
X5720182Y-17552460D01*
X5720182Y-17552460D02*
X5701134Y-17561984D01*
X5701134Y-17561984D02*
X5682086Y-17561984D01*
X5682086Y-17561984D02*
X5663039Y-17552460D01*
X5663039Y-17552460D02*
X5653515Y-17542936D01*
X5653515Y-17542936D02*
X5643991Y-17523889D01*
X5643991Y-17523889D02*
X5634467Y-17485793D01*
X5634467Y-17485793D02*
X5634467Y-17438174D01*
X5634467Y-17438174D02*
X5643991Y-17400079D01*
X5643991Y-17400079D02*
X5653515Y-17381031D01*
X5653515Y-17381031D02*
X5663039Y-17371508D01*
X5663039Y-17371508D02*
X5682086Y-17361984D01*
X5872562Y-17361984D02*
X5891610Y-17361984D01*
X5891610Y-17361984D02*
X5910658Y-17371508D01*
X5910658Y-17371508D02*
X5920182Y-17381031D01*
X5920182Y-17381031D02*
X5929705Y-17400079D01*
X5929705Y-17400079D02*
X5939229Y-17438174D01*
X5939229Y-17438174D02*
X5939229Y-17485793D01*
X5939229Y-17485793D02*
X5929705Y-17523889D01*
X5929705Y-17523889D02*
X5920182Y-17542936D01*
X5920182Y-17542936D02*
X5910658Y-17552460D01*
X5910658Y-17552460D02*
X5891610Y-17561984D01*
X5891610Y-17561984D02*
X5872562Y-17561984D01*
X5872562Y-17561984D02*
X5853515Y-17552460D01*
X5853515Y-17552460D02*
X5843991Y-17542936D01*
X5843991Y-17542936D02*
X5834467Y-17523889D01*
X5834467Y-17523889D02*
X5824943Y-17485793D01*
X5824943Y-17485793D02*
X5824943Y-17438174D01*
X5824943Y-17438174D02*
X5834467Y-17400079D01*
X5834467Y-17400079D02*
X5843991Y-17381031D01*
X5843991Y-17381031D02*
X5853515Y-17371508D01*
X5853515Y-17371508D02*
X5872562Y-17361984D01*
X6063039Y-17361984D02*
X6082086Y-17361984D01*
X6082086Y-17361984D02*
X6101134Y-17371508D01*
X6101134Y-17371508D02*
X6110658Y-17381031D01*
X6110658Y-17381031D02*
X6120182Y-17400079D01*
X6120182Y-17400079D02*
X6129705Y-17438174D01*
X6129705Y-17438174D02*
X6129705Y-17485793D01*
X6129705Y-17485793D02*
X6120182Y-17523889D01*
X6120182Y-17523889D02*
X6110658Y-17542936D01*
X6110658Y-17542936D02*
X6101134Y-17552460D01*
X6101134Y-17552460D02*
X6082086Y-17561984D01*
X6082086Y-17561984D02*
X6063039Y-17561984D01*
X6063039Y-17561984D02*
X6043991Y-17552460D01*
X6043991Y-17552460D02*
X6034467Y-17542936D01*
X6034467Y-17542936D02*
X6024943Y-17523889D01*
X6024943Y-17523889D02*
X6015420Y-17485793D01*
X6015420Y-17485793D02*
X6015420Y-17438174D01*
X6015420Y-17438174D02*
X6024943Y-17400079D01*
X6024943Y-17400079D02*
X6034467Y-17381031D01*
X6034467Y-17381031D02*
X6043991Y-17371508D01*
X6043991Y-17371508D02*
X6063039Y-17361984D01*
X6215420Y-17561984D02*
X6215420Y-17428650D01*
X6215420Y-17447698D02*
X6224943Y-17438174D01*
X6224943Y-17438174D02*
X6243991Y-17428650D01*
X6243991Y-17428650D02*
X6272563Y-17428650D01*
X6272563Y-17428650D02*
X6291610Y-17438174D01*
X6291610Y-17438174D02*
X6301134Y-17457222D01*
X6301134Y-17457222D02*
X6301134Y-17561984D01*
X6301134Y-17457222D02*
X6310658Y-17438174D01*
X6310658Y-17438174D02*
X6329705Y-17428650D01*
X6329705Y-17428650D02*
X6358277Y-17428650D01*
X6358277Y-17428650D02*
X6377324Y-17438174D01*
X6377324Y-17438174D02*
X6386848Y-17457222D01*
X6386848Y-17457222D02*
X6386848Y-17561984D01*
X6482086Y-17561984D02*
X6482086Y-17428650D01*
X6482086Y-17447698D02*
X6491610Y-17438174D01*
X6491610Y-17438174D02*
X6510658Y-17428650D01*
X6510658Y-17428650D02*
X6539229Y-17428650D01*
X6539229Y-17428650D02*
X6558277Y-17438174D01*
X6558277Y-17438174D02*
X6567801Y-17457222D01*
X6567801Y-17457222D02*
X6567801Y-17561984D01*
X6567801Y-17457222D02*
X6577324Y-17438174D01*
X6577324Y-17438174D02*
X6596372Y-17428650D01*
X6596372Y-17428650D02*
X6624943Y-17428650D01*
X6624943Y-17428650D02*
X6643991Y-17438174D01*
X6643991Y-17438174D02*
X6653515Y-17457222D01*
X6653515Y-17457222D02*
X6653515Y-17561984D01*
X7043991Y-17352460D02*
X6872563Y-17609603D01*
X7301134Y-17361984D02*
X7320182Y-17361984D01*
X7320182Y-17361984D02*
X7339229Y-17371508D01*
X7339229Y-17371508D02*
X7348753Y-17381031D01*
X7348753Y-17381031D02*
X7358277Y-17400079D01*
X7358277Y-17400079D02*
X7367801Y-17438174D01*
X7367801Y-17438174D02*
X7367801Y-17485793D01*
X7367801Y-17485793D02*
X7358277Y-17523889D01*
X7358277Y-17523889D02*
X7348753Y-17542936D01*
X7348753Y-17542936D02*
X7339229Y-17552460D01*
X7339229Y-17552460D02*
X7320182Y-17561984D01*
X7320182Y-17561984D02*
X7301134Y-17561984D01*
X7301134Y-17561984D02*
X7282086Y-17552460D01*
X7282086Y-17552460D02*
X7272563Y-17542936D01*
X7272563Y-17542936D02*
X7263039Y-17523889D01*
X7263039Y-17523889D02*
X7253515Y-17485793D01*
X7253515Y-17485793D02*
X7253515Y-17438174D01*
X7253515Y-17438174D02*
X7263039Y-17400079D01*
X7263039Y-17400079D02*
X7272563Y-17381031D01*
X7272563Y-17381031D02*
X7282086Y-17371508D01*
X7282086Y-17371508D02*
X7301134Y-17361984D01*
X7453515Y-17542936D02*
X7463039Y-17552460D01*
X7463039Y-17552460D02*
X7453515Y-17561984D01*
X7453515Y-17561984D02*
X7443991Y-17552460D01*
X7443991Y-17552460D02*
X7453515Y-17542936D01*
X7453515Y-17542936D02*
X7453515Y-17561984D01*
X7586848Y-17361984D02*
X7605896Y-17361984D01*
X7605896Y-17361984D02*
X7624944Y-17371508D01*
X7624944Y-17371508D02*
X7634467Y-17381031D01*
X7634467Y-17381031D02*
X7643991Y-17400079D01*
X7643991Y-17400079D02*
X7653515Y-17438174D01*
X7653515Y-17438174D02*
X7653515Y-17485793D01*
X7653515Y-17485793D02*
X7643991Y-17523889D01*
X7643991Y-17523889D02*
X7634467Y-17542936D01*
X7634467Y-17542936D02*
X7624944Y-17552460D01*
X7624944Y-17552460D02*
X7605896Y-17561984D01*
X7605896Y-17561984D02*
X7586848Y-17561984D01*
X7586848Y-17561984D02*
X7567801Y-17552460D01*
X7567801Y-17552460D02*
X7558277Y-17542936D01*
X7558277Y-17542936D02*
X7548753Y-17523889D01*
X7548753Y-17523889D02*
X7539229Y-17485793D01*
X7539229Y-17485793D02*
X7539229Y-17438174D01*
X7539229Y-17438174D02*
X7548753Y-17400079D01*
X7548753Y-17400079D02*
X7558277Y-17381031D01*
X7558277Y-17381031D02*
X7567801Y-17371508D01*
X7567801Y-17371508D02*
X7586848Y-17361984D01*
X7720182Y-17361984D02*
X7843991Y-17361984D01*
X7843991Y-17361984D02*
X7777325Y-17438174D01*
X7777325Y-17438174D02*
X7805896Y-17438174D01*
X7805896Y-17438174D02*
X7824944Y-17447698D01*
X7824944Y-17447698D02*
X7834467Y-17457222D01*
X7834467Y-17457222D02*
X7843991Y-17476270D01*
X7843991Y-17476270D02*
X7843991Y-17523889D01*
X7843991Y-17523889D02*
X7834467Y-17542936D01*
X7834467Y-17542936D02*
X7824944Y-17552460D01*
X7824944Y-17552460D02*
X7805896Y-17561984D01*
X7805896Y-17561984D02*
X7748753Y-17561984D01*
X7748753Y-17561984D02*
X7729706Y-17552460D01*
X7729706Y-17552460D02*
X7720182Y-17542936D01*
X7939229Y-17561984D02*
X7977325Y-17561984D01*
X7977325Y-17561984D02*
X7996372Y-17552460D01*
X7996372Y-17552460D02*
X8005896Y-17542936D01*
X8005896Y-17542936D02*
X8024944Y-17514365D01*
X8024944Y-17514365D02*
X8034467Y-17476270D01*
X8034467Y-17476270D02*
X8034467Y-17400079D01*
X8034467Y-17400079D02*
X8024944Y-17381031D01*
X8024944Y-17381031D02*
X8015420Y-17371508D01*
X8015420Y-17371508D02*
X7996372Y-17361984D01*
X7996372Y-17361984D02*
X7958277Y-17361984D01*
X7958277Y-17361984D02*
X7939229Y-17371508D01*
X7939229Y-17371508D02*
X7929706Y-17381031D01*
X7929706Y-17381031D02*
X7920182Y-17400079D01*
X7920182Y-17400079D02*
X7920182Y-17447698D01*
X7920182Y-17447698D02*
X7929706Y-17466746D01*
X7929706Y-17466746D02*
X7939229Y-17476270D01*
X7939229Y-17476270D02*
X7958277Y-17485793D01*
X7958277Y-17485793D02*
X7996372Y-17485793D01*
X7996372Y-17485793D02*
X8015420Y-17476270D01*
X8015420Y-17476270D02*
X8024944Y-17466746D01*
X8024944Y-17466746D02*
X8034467Y-17447698D01*
X8205896Y-17428650D02*
X8205896Y-17561984D01*
X8158277Y-17352460D02*
X8110658Y-17495317D01*
X8110658Y-17495317D02*
X8234467Y-17495317D01*
X8301134Y-17361984D02*
X8301134Y-17400079D01*
X8377325Y-17361984D02*
X8377325Y-17400079D01*
X8672563Y-17638174D02*
X8663039Y-17628650D01*
X8663039Y-17628650D02*
X8643991Y-17600079D01*
X8643991Y-17600079D02*
X8634468Y-17581031D01*
X8634468Y-17581031D02*
X8624944Y-17552460D01*
X8624944Y-17552460D02*
X8615420Y-17504841D01*
X8615420Y-17504841D02*
X8615420Y-17466746D01*
X8615420Y-17466746D02*
X8624944Y-17419127D01*
X8624944Y-17419127D02*
X8634468Y-17390555D01*
X8634468Y-17390555D02*
X8643991Y-17371508D01*
X8643991Y-17371508D02*
X8663039Y-17342936D01*
X8663039Y-17342936D02*
X8672563Y-17333412D01*
X8729706Y-17361984D02*
X8863039Y-17361984D01*
X8863039Y-17361984D02*
X8777325Y-17561984D01*
X8929706Y-17381031D02*
X8939230Y-17371508D01*
X8939230Y-17371508D02*
X8958277Y-17361984D01*
X8958277Y-17361984D02*
X9005896Y-17361984D01*
X9005896Y-17361984D02*
X9024944Y-17371508D01*
X9024944Y-17371508D02*
X9034468Y-17381031D01*
X9034468Y-17381031D02*
X9043991Y-17400079D01*
X9043991Y-17400079D02*
X9043991Y-17419127D01*
X9043991Y-17419127D02*
X9034468Y-17447698D01*
X9034468Y-17447698D02*
X8920182Y-17561984D01*
X8920182Y-17561984D02*
X9043991Y-17561984D01*
X9282087Y-17561984D02*
X9282087Y-17361984D01*
X9367801Y-17561984D02*
X9367801Y-17457222D01*
X9367801Y-17457222D02*
X9358277Y-17438174D01*
X9358277Y-17438174D02*
X9339230Y-17428650D01*
X9339230Y-17428650D02*
X9310658Y-17428650D01*
X9310658Y-17428650D02*
X9291611Y-17438174D01*
X9291611Y-17438174D02*
X9282087Y-17447698D01*
X9491611Y-17561984D02*
X9472563Y-17552460D01*
X9472563Y-17552460D02*
X9463039Y-17542936D01*
X9463039Y-17542936D02*
X9453515Y-17523889D01*
X9453515Y-17523889D02*
X9453515Y-17466746D01*
X9453515Y-17466746D02*
X9463039Y-17447698D01*
X9463039Y-17447698D02*
X9472563Y-17438174D01*
X9472563Y-17438174D02*
X9491611Y-17428650D01*
X9491611Y-17428650D02*
X9520182Y-17428650D01*
X9520182Y-17428650D02*
X9539230Y-17438174D01*
X9539230Y-17438174D02*
X9548753Y-17447698D01*
X9548753Y-17447698D02*
X9558277Y-17466746D01*
X9558277Y-17466746D02*
X9558277Y-17523889D01*
X9558277Y-17523889D02*
X9548753Y-17542936D01*
X9548753Y-17542936D02*
X9539230Y-17552460D01*
X9539230Y-17552460D02*
X9520182Y-17561984D01*
X9520182Y-17561984D02*
X9491611Y-17561984D01*
X9672563Y-17561984D02*
X9653515Y-17552460D01*
X9653515Y-17552460D02*
X9643992Y-17533412D01*
X9643992Y-17533412D02*
X9643992Y-17361984D01*
X9824944Y-17552460D02*
X9805896Y-17561984D01*
X9805896Y-17561984D02*
X9767801Y-17561984D01*
X9767801Y-17561984D02*
X9748753Y-17552460D01*
X9748753Y-17552460D02*
X9739230Y-17533412D01*
X9739230Y-17533412D02*
X9739230Y-17457222D01*
X9739230Y-17457222D02*
X9748753Y-17438174D01*
X9748753Y-17438174D02*
X9767801Y-17428650D01*
X9767801Y-17428650D02*
X9805896Y-17428650D01*
X9805896Y-17428650D02*
X9824944Y-17438174D01*
X9824944Y-17438174D02*
X9834468Y-17457222D01*
X9834468Y-17457222D02*
X9834468Y-17476270D01*
X9834468Y-17476270D02*
X9739230Y-17495317D01*
X9910658Y-17552460D02*
X9929706Y-17561984D01*
X9929706Y-17561984D02*
X9967801Y-17561984D01*
X9967801Y-17561984D02*
X9986849Y-17552460D01*
X9986849Y-17552460D02*
X9996373Y-17533412D01*
X9996373Y-17533412D02*
X9996373Y-17523889D01*
X9996373Y-17523889D02*
X9986849Y-17504841D01*
X9986849Y-17504841D02*
X9967801Y-17495317D01*
X9967801Y-17495317D02*
X9939230Y-17495317D01*
X9939230Y-17495317D02*
X9920182Y-17485793D01*
X9920182Y-17485793D02*
X9910658Y-17466746D01*
X9910658Y-17466746D02*
X9910658Y-17457222D01*
X9910658Y-17457222D02*
X9920182Y-17438174D01*
X9920182Y-17438174D02*
X9939230Y-17428650D01*
X9939230Y-17428650D02*
X9967801Y-17428650D01*
X9967801Y-17428650D02*
X9986849Y-17438174D01*
X10063039Y-17638174D02*
X10072563Y-17628650D01*
X10072563Y-17628650D02*
X10091611Y-17600079D01*
X10091611Y-17600079D02*
X10101134Y-17581031D01*
X10101134Y-17581031D02*
X10110658Y-17552460D01*
X10110658Y-17552460D02*
X10120182Y-17504841D01*
X10120182Y-17504841D02*
X10120182Y-17466746D01*
X10120182Y-17466746D02*
X10110658Y-17419127D01*
X10110658Y-17419127D02*
X10101134Y-17390555D01*
X10101134Y-17390555D02*
X10091611Y-17371508D01*
X10091611Y-17371508D02*
X10072563Y-17342936D01*
X10072563Y-17342936D02*
X10063039Y-17333412D01*
D13*
X5081391Y-17773391D02*
X5081391Y-17695609D01*
X5003609Y-17695609D01*
X5003609Y-17773391D01*
X5081391Y-17773391D01*
D11*
X5463039Y-17825984D02*
X5348753Y-17825984D01*
X5405896Y-17825984D02*
X5405896Y-17625984D01*
X5405896Y-17625984D02*
X5386848Y-17654555D01*
X5386848Y-17654555D02*
X5367801Y-17673603D01*
X5367801Y-17673603D02*
X5348753Y-17683127D01*
X5548753Y-17806936D02*
X5558277Y-17816460D01*
X5558277Y-17816460D02*
X5548753Y-17825984D01*
X5548753Y-17825984D02*
X5539229Y-17816460D01*
X5539229Y-17816460D02*
X5548753Y-17806936D01*
X5548753Y-17806936D02*
X5548753Y-17825984D01*
X5748753Y-17825984D02*
X5634467Y-17825984D01*
X5691610Y-17825984D02*
X5691610Y-17625984D01*
X5691610Y-17625984D02*
X5672562Y-17654555D01*
X5672562Y-17654555D02*
X5653515Y-17673603D01*
X5653515Y-17673603D02*
X5634467Y-17683127D01*
X5872562Y-17625984D02*
X5891610Y-17625984D01*
X5891610Y-17625984D02*
X5910658Y-17635508D01*
X5910658Y-17635508D02*
X5920182Y-17645031D01*
X5920182Y-17645031D02*
X5929705Y-17664079D01*
X5929705Y-17664079D02*
X5939229Y-17702174D01*
X5939229Y-17702174D02*
X5939229Y-17749793D01*
X5939229Y-17749793D02*
X5929705Y-17787889D01*
X5929705Y-17787889D02*
X5920182Y-17806936D01*
X5920182Y-17806936D02*
X5910658Y-17816460D01*
X5910658Y-17816460D02*
X5891610Y-17825984D01*
X5891610Y-17825984D02*
X5872562Y-17825984D01*
X5872562Y-17825984D02*
X5853515Y-17816460D01*
X5853515Y-17816460D02*
X5843991Y-17806936D01*
X5843991Y-17806936D02*
X5834467Y-17787889D01*
X5834467Y-17787889D02*
X5824943Y-17749793D01*
X5824943Y-17749793D02*
X5824943Y-17702174D01*
X5824943Y-17702174D02*
X5834467Y-17664079D01*
X5834467Y-17664079D02*
X5843991Y-17645031D01*
X5843991Y-17645031D02*
X5853515Y-17635508D01*
X5853515Y-17635508D02*
X5872562Y-17625984D01*
X6063039Y-17625984D02*
X6082086Y-17625984D01*
X6082086Y-17625984D02*
X6101134Y-17635508D01*
X6101134Y-17635508D02*
X6110658Y-17645031D01*
X6110658Y-17645031D02*
X6120182Y-17664079D01*
X6120182Y-17664079D02*
X6129705Y-17702174D01*
X6129705Y-17702174D02*
X6129705Y-17749793D01*
X6129705Y-17749793D02*
X6120182Y-17787889D01*
X6120182Y-17787889D02*
X6110658Y-17806936D01*
X6110658Y-17806936D02*
X6101134Y-17816460D01*
X6101134Y-17816460D02*
X6082086Y-17825984D01*
X6082086Y-17825984D02*
X6063039Y-17825984D01*
X6063039Y-17825984D02*
X6043991Y-17816460D01*
X6043991Y-17816460D02*
X6034467Y-17806936D01*
X6034467Y-17806936D02*
X6024943Y-17787889D01*
X6024943Y-17787889D02*
X6015420Y-17749793D01*
X6015420Y-17749793D02*
X6015420Y-17702174D01*
X6015420Y-17702174D02*
X6024943Y-17664079D01*
X6024943Y-17664079D02*
X6034467Y-17645031D01*
X6034467Y-17645031D02*
X6043991Y-17635508D01*
X6043991Y-17635508D02*
X6063039Y-17625984D01*
X6215420Y-17825984D02*
X6215420Y-17692650D01*
X6215420Y-17711698D02*
X6224943Y-17702174D01*
X6224943Y-17702174D02*
X6243991Y-17692650D01*
X6243991Y-17692650D02*
X6272563Y-17692650D01*
X6272563Y-17692650D02*
X6291610Y-17702174D01*
X6291610Y-17702174D02*
X6301134Y-17721222D01*
X6301134Y-17721222D02*
X6301134Y-17825984D01*
X6301134Y-17721222D02*
X6310658Y-17702174D01*
X6310658Y-17702174D02*
X6329705Y-17692650D01*
X6329705Y-17692650D02*
X6358277Y-17692650D01*
X6358277Y-17692650D02*
X6377324Y-17702174D01*
X6377324Y-17702174D02*
X6386848Y-17721222D01*
X6386848Y-17721222D02*
X6386848Y-17825984D01*
X6482086Y-17825984D02*
X6482086Y-17692650D01*
X6482086Y-17711698D02*
X6491610Y-17702174D01*
X6491610Y-17702174D02*
X6510658Y-17692650D01*
X6510658Y-17692650D02*
X6539229Y-17692650D01*
X6539229Y-17692650D02*
X6558277Y-17702174D01*
X6558277Y-17702174D02*
X6567801Y-17721222D01*
X6567801Y-17721222D02*
X6567801Y-17825984D01*
X6567801Y-17721222D02*
X6577324Y-17702174D01*
X6577324Y-17702174D02*
X6596372Y-17692650D01*
X6596372Y-17692650D02*
X6624943Y-17692650D01*
X6624943Y-17692650D02*
X6643991Y-17702174D01*
X6643991Y-17702174D02*
X6653515Y-17721222D01*
X6653515Y-17721222D02*
X6653515Y-17825984D01*
X7043991Y-17616460D02*
X6872563Y-17873603D01*
X7301134Y-17625984D02*
X7320182Y-17625984D01*
X7320182Y-17625984D02*
X7339229Y-17635508D01*
X7339229Y-17635508D02*
X7348753Y-17645031D01*
X7348753Y-17645031D02*
X7358277Y-17664079D01*
X7358277Y-17664079D02*
X7367801Y-17702174D01*
X7367801Y-17702174D02*
X7367801Y-17749793D01*
X7367801Y-17749793D02*
X7358277Y-17787889D01*
X7358277Y-17787889D02*
X7348753Y-17806936D01*
X7348753Y-17806936D02*
X7339229Y-17816460D01*
X7339229Y-17816460D02*
X7320182Y-17825984D01*
X7320182Y-17825984D02*
X7301134Y-17825984D01*
X7301134Y-17825984D02*
X7282086Y-17816460D01*
X7282086Y-17816460D02*
X7272563Y-17806936D01*
X7272563Y-17806936D02*
X7263039Y-17787889D01*
X7263039Y-17787889D02*
X7253515Y-17749793D01*
X7253515Y-17749793D02*
X7253515Y-17702174D01*
X7253515Y-17702174D02*
X7263039Y-17664079D01*
X7263039Y-17664079D02*
X7272563Y-17645031D01*
X7272563Y-17645031D02*
X7282086Y-17635508D01*
X7282086Y-17635508D02*
X7301134Y-17625984D01*
X7453515Y-17806936D02*
X7463039Y-17816460D01*
X7463039Y-17816460D02*
X7453515Y-17825984D01*
X7453515Y-17825984D02*
X7443991Y-17816460D01*
X7443991Y-17816460D02*
X7453515Y-17806936D01*
X7453515Y-17806936D02*
X7453515Y-17825984D01*
X7586848Y-17625984D02*
X7605896Y-17625984D01*
X7605896Y-17625984D02*
X7624944Y-17635508D01*
X7624944Y-17635508D02*
X7634467Y-17645031D01*
X7634467Y-17645031D02*
X7643991Y-17664079D01*
X7643991Y-17664079D02*
X7653515Y-17702174D01*
X7653515Y-17702174D02*
X7653515Y-17749793D01*
X7653515Y-17749793D02*
X7643991Y-17787889D01*
X7643991Y-17787889D02*
X7634467Y-17806936D01*
X7634467Y-17806936D02*
X7624944Y-17816460D01*
X7624944Y-17816460D02*
X7605896Y-17825984D01*
X7605896Y-17825984D02*
X7586848Y-17825984D01*
X7586848Y-17825984D02*
X7567801Y-17816460D01*
X7567801Y-17816460D02*
X7558277Y-17806936D01*
X7558277Y-17806936D02*
X7548753Y-17787889D01*
X7548753Y-17787889D02*
X7539229Y-17749793D01*
X7539229Y-17749793D02*
X7539229Y-17702174D01*
X7539229Y-17702174D02*
X7548753Y-17664079D01*
X7548753Y-17664079D02*
X7558277Y-17645031D01*
X7558277Y-17645031D02*
X7567801Y-17635508D01*
X7567801Y-17635508D02*
X7586848Y-17625984D01*
X7824944Y-17692650D02*
X7824944Y-17825984D01*
X7777325Y-17616460D02*
X7729706Y-17759317D01*
X7729706Y-17759317D02*
X7853515Y-17759317D01*
X7910658Y-17625984D02*
X8034467Y-17625984D01*
X8034467Y-17625984D02*
X7967801Y-17702174D01*
X7967801Y-17702174D02*
X7996372Y-17702174D01*
X7996372Y-17702174D02*
X8015420Y-17711698D01*
X8015420Y-17711698D02*
X8024944Y-17721222D01*
X8024944Y-17721222D02*
X8034467Y-17740270D01*
X8034467Y-17740270D02*
X8034467Y-17787889D01*
X8034467Y-17787889D02*
X8024944Y-17806936D01*
X8024944Y-17806936D02*
X8015420Y-17816460D01*
X8015420Y-17816460D02*
X7996372Y-17825984D01*
X7996372Y-17825984D02*
X7939229Y-17825984D01*
X7939229Y-17825984D02*
X7920182Y-17816460D01*
X7920182Y-17816460D02*
X7910658Y-17806936D01*
X8101134Y-17625984D02*
X8224944Y-17625984D01*
X8224944Y-17625984D02*
X8158277Y-17702174D01*
X8158277Y-17702174D02*
X8186848Y-17702174D01*
X8186848Y-17702174D02*
X8205896Y-17711698D01*
X8205896Y-17711698D02*
X8215420Y-17721222D01*
X8215420Y-17721222D02*
X8224944Y-17740270D01*
X8224944Y-17740270D02*
X8224944Y-17787889D01*
X8224944Y-17787889D02*
X8215420Y-17806936D01*
X8215420Y-17806936D02*
X8205896Y-17816460D01*
X8205896Y-17816460D02*
X8186848Y-17825984D01*
X8186848Y-17825984D02*
X8129706Y-17825984D01*
X8129706Y-17825984D02*
X8110658Y-17816460D01*
X8110658Y-17816460D02*
X8101134Y-17806936D01*
X8301134Y-17625984D02*
X8301134Y-17664079D01*
X8377325Y-17625984D02*
X8377325Y-17664079D01*
X8672563Y-17902174D02*
X8663039Y-17892650D01*
X8663039Y-17892650D02*
X8643991Y-17864079D01*
X8643991Y-17864079D02*
X8634468Y-17845031D01*
X8634468Y-17845031D02*
X8624944Y-17816460D01*
X8624944Y-17816460D02*
X8615420Y-17768841D01*
X8615420Y-17768841D02*
X8615420Y-17730746D01*
X8615420Y-17730746D02*
X8624944Y-17683127D01*
X8624944Y-17683127D02*
X8634468Y-17654555D01*
X8634468Y-17654555D02*
X8643991Y-17635508D01*
X8643991Y-17635508D02*
X8663039Y-17606936D01*
X8663039Y-17606936D02*
X8672563Y-17597412D01*
X8786849Y-17625984D02*
X8805896Y-17625984D01*
X8805896Y-17625984D02*
X8824944Y-17635508D01*
X8824944Y-17635508D02*
X8834468Y-17645031D01*
X8834468Y-17645031D02*
X8843991Y-17664079D01*
X8843991Y-17664079D02*
X8853515Y-17702174D01*
X8853515Y-17702174D02*
X8853515Y-17749793D01*
X8853515Y-17749793D02*
X8843991Y-17787889D01*
X8843991Y-17787889D02*
X8834468Y-17806936D01*
X8834468Y-17806936D02*
X8824944Y-17816460D01*
X8824944Y-17816460D02*
X8805896Y-17825984D01*
X8805896Y-17825984D02*
X8786849Y-17825984D01*
X8786849Y-17825984D02*
X8767801Y-17816460D01*
X8767801Y-17816460D02*
X8758277Y-17806936D01*
X8758277Y-17806936D02*
X8748753Y-17787889D01*
X8748753Y-17787889D02*
X8739230Y-17749793D01*
X8739230Y-17749793D02*
X8739230Y-17702174D01*
X8739230Y-17702174D02*
X8748753Y-17664079D01*
X8748753Y-17664079D02*
X8758277Y-17645031D01*
X8758277Y-17645031D02*
X8767801Y-17635508D01*
X8767801Y-17635508D02*
X8786849Y-17625984D01*
X9091611Y-17825984D02*
X9091611Y-17625984D01*
X9177325Y-17825984D02*
X9177325Y-17721222D01*
X9177325Y-17721222D02*
X9167801Y-17702174D01*
X9167801Y-17702174D02*
X9148753Y-17692650D01*
X9148753Y-17692650D02*
X9120182Y-17692650D01*
X9120182Y-17692650D02*
X9101134Y-17702174D01*
X9101134Y-17702174D02*
X9091611Y-17711698D01*
X9301134Y-17825984D02*
X9282087Y-17816460D01*
X9282087Y-17816460D02*
X9272563Y-17806936D01*
X9272563Y-17806936D02*
X9263039Y-17787889D01*
X9263039Y-17787889D02*
X9263039Y-17730746D01*
X9263039Y-17730746D02*
X9272563Y-17711698D01*
X9272563Y-17711698D02*
X9282087Y-17702174D01*
X9282087Y-17702174D02*
X9301134Y-17692650D01*
X9301134Y-17692650D02*
X9329706Y-17692650D01*
X9329706Y-17692650D02*
X9348753Y-17702174D01*
X9348753Y-17702174D02*
X9358277Y-17711698D01*
X9358277Y-17711698D02*
X9367801Y-17730746D01*
X9367801Y-17730746D02*
X9367801Y-17787889D01*
X9367801Y-17787889D02*
X9358277Y-17806936D01*
X9358277Y-17806936D02*
X9348753Y-17816460D01*
X9348753Y-17816460D02*
X9329706Y-17825984D01*
X9329706Y-17825984D02*
X9301134Y-17825984D01*
X9482087Y-17825984D02*
X9463039Y-17816460D01*
X9463039Y-17816460D02*
X9453515Y-17797412D01*
X9453515Y-17797412D02*
X9453515Y-17625984D01*
X9634468Y-17816460D02*
X9615420Y-17825984D01*
X9615420Y-17825984D02*
X9577325Y-17825984D01*
X9577325Y-17825984D02*
X9558277Y-17816460D01*
X9558277Y-17816460D02*
X9548753Y-17797412D01*
X9548753Y-17797412D02*
X9548753Y-17721222D01*
X9548753Y-17721222D02*
X9558277Y-17702174D01*
X9558277Y-17702174D02*
X9577325Y-17692650D01*
X9577325Y-17692650D02*
X9615420Y-17692650D01*
X9615420Y-17692650D02*
X9634468Y-17702174D01*
X9634468Y-17702174D02*
X9643992Y-17721222D01*
X9643992Y-17721222D02*
X9643992Y-17740270D01*
X9643992Y-17740270D02*
X9548753Y-17759317D01*
X9720182Y-17816460D02*
X9739230Y-17825984D01*
X9739230Y-17825984D02*
X9777325Y-17825984D01*
X9777325Y-17825984D02*
X9796373Y-17816460D01*
X9796373Y-17816460D02*
X9805896Y-17797412D01*
X9805896Y-17797412D02*
X9805896Y-17787889D01*
X9805896Y-17787889D02*
X9796373Y-17768841D01*
X9796373Y-17768841D02*
X9777325Y-17759317D01*
X9777325Y-17759317D02*
X9748753Y-17759317D01*
X9748753Y-17759317D02*
X9729706Y-17749793D01*
X9729706Y-17749793D02*
X9720182Y-17730746D01*
X9720182Y-17730746D02*
X9720182Y-17721222D01*
X9720182Y-17721222D02*
X9729706Y-17702174D01*
X9729706Y-17702174D02*
X9748753Y-17692650D01*
X9748753Y-17692650D02*
X9777325Y-17692650D01*
X9777325Y-17692650D02*
X9796373Y-17702174D01*
X10043992Y-17749793D02*
X10196373Y-17749793D01*
X10120182Y-17825984D02*
X10120182Y-17673603D01*
X10548754Y-17825984D02*
X10434468Y-17825984D01*
X10491611Y-17825984D02*
X10491611Y-17625984D01*
X10491611Y-17625984D02*
X10472563Y-17654555D01*
X10472563Y-17654555D02*
X10453515Y-17673603D01*
X10453515Y-17673603D02*
X10434468Y-17683127D01*
X10624944Y-17645031D02*
X10634468Y-17635508D01*
X10634468Y-17635508D02*
X10653515Y-17625984D01*
X10653515Y-17625984D02*
X10701135Y-17625984D01*
X10701135Y-17625984D02*
X10720182Y-17635508D01*
X10720182Y-17635508D02*
X10729706Y-17645031D01*
X10729706Y-17645031D02*
X10739230Y-17664079D01*
X10739230Y-17664079D02*
X10739230Y-17683127D01*
X10739230Y-17683127D02*
X10729706Y-17711698D01*
X10729706Y-17711698D02*
X10615420Y-17825984D01*
X10615420Y-17825984D02*
X10739230Y-17825984D01*
X10967801Y-17816460D02*
X10986849Y-17825984D01*
X10986849Y-17825984D02*
X11024944Y-17825984D01*
X11024944Y-17825984D02*
X11043992Y-17816460D01*
X11043992Y-17816460D02*
X11053516Y-17797412D01*
X11053516Y-17797412D02*
X11053516Y-17787889D01*
X11053516Y-17787889D02*
X11043992Y-17768841D01*
X11043992Y-17768841D02*
X11024944Y-17759317D01*
X11024944Y-17759317D02*
X10996373Y-17759317D01*
X10996373Y-17759317D02*
X10977325Y-17749793D01*
X10977325Y-17749793D02*
X10967801Y-17730746D01*
X10967801Y-17730746D02*
X10967801Y-17721222D01*
X10967801Y-17721222D02*
X10977325Y-17702174D01*
X10977325Y-17702174D02*
X10996373Y-17692650D01*
X10996373Y-17692650D02*
X11024944Y-17692650D01*
X11024944Y-17692650D02*
X11043992Y-17702174D01*
X11167801Y-17825984D02*
X11148754Y-17816460D01*
X11148754Y-17816460D02*
X11139230Y-17797412D01*
X11139230Y-17797412D02*
X11139230Y-17625984D01*
X11272563Y-17825984D02*
X11253515Y-17816460D01*
X11253515Y-17816460D02*
X11243992Y-17806936D01*
X11243992Y-17806936D02*
X11234468Y-17787889D01*
X11234468Y-17787889D02*
X11234468Y-17730746D01*
X11234468Y-17730746D02*
X11243992Y-17711698D01*
X11243992Y-17711698D02*
X11253515Y-17702174D01*
X11253515Y-17702174D02*
X11272563Y-17692650D01*
X11272563Y-17692650D02*
X11301135Y-17692650D01*
X11301135Y-17692650D02*
X11320182Y-17702174D01*
X11320182Y-17702174D02*
X11329706Y-17711698D01*
X11329706Y-17711698D02*
X11339230Y-17730746D01*
X11339230Y-17730746D02*
X11339230Y-17787889D01*
X11339230Y-17787889D02*
X11329706Y-17806936D01*
X11329706Y-17806936D02*
X11320182Y-17816460D01*
X11320182Y-17816460D02*
X11301135Y-17825984D01*
X11301135Y-17825984D02*
X11272563Y-17825984D01*
X11396373Y-17692650D02*
X11472563Y-17692650D01*
X11424944Y-17625984D02*
X11424944Y-17797412D01*
X11424944Y-17797412D02*
X11434468Y-17816460D01*
X11434468Y-17816460D02*
X11453515Y-17825984D01*
X11453515Y-17825984D02*
X11472563Y-17825984D01*
X11529706Y-17816460D02*
X11548754Y-17825984D01*
X11548754Y-17825984D02*
X11586849Y-17825984D01*
X11586849Y-17825984D02*
X11605896Y-17816460D01*
X11605896Y-17816460D02*
X11615420Y-17797412D01*
X11615420Y-17797412D02*
X11615420Y-17787889D01*
X11615420Y-17787889D02*
X11605896Y-17768841D01*
X11605896Y-17768841D02*
X11586849Y-17759317D01*
X11586849Y-17759317D02*
X11558277Y-17759317D01*
X11558277Y-17759317D02*
X11539230Y-17749793D01*
X11539230Y-17749793D02*
X11529706Y-17730746D01*
X11529706Y-17730746D02*
X11529706Y-17721222D01*
X11529706Y-17721222D02*
X11539230Y-17702174D01*
X11539230Y-17702174D02*
X11558277Y-17692650D01*
X11558277Y-17692650D02*
X11586849Y-17692650D01*
X11586849Y-17692650D02*
X11605896Y-17702174D01*
X11682087Y-17902174D02*
X11691611Y-17892650D01*
X11691611Y-17892650D02*
X11710658Y-17864079D01*
X11710658Y-17864079D02*
X11720182Y-17845031D01*
X11720182Y-17845031D02*
X11729706Y-17816460D01*
X11729706Y-17816460D02*
X11739230Y-17768841D01*
X11739230Y-17768841D02*
X11739230Y-17730746D01*
X11739230Y-17730746D02*
X11729706Y-17683127D01*
X11729706Y-17683127D02*
X11720182Y-17654555D01*
X11720182Y-17654555D02*
X11710658Y-17635508D01*
X11710658Y-17635508D02*
X11691611Y-17606936D01*
X11691611Y-17606936D02*
X11682087Y-17597412D01*
D14*
X5007500Y-18088500D02*
X5097500Y-17998500D01*
X5007500Y-17908500D01*
X4917500Y-17998500D01*
X5007500Y-18088500D01*
D11*
X5463039Y-18089984D02*
X5348753Y-18089984D01*
X5405896Y-18089984D02*
X5405896Y-17889984D01*
X5405896Y-17889984D02*
X5386848Y-17918555D01*
X5386848Y-17918555D02*
X5367801Y-17937603D01*
X5367801Y-17937603D02*
X5348753Y-17947127D01*
X5548753Y-18070936D02*
X5558277Y-18080460D01*
X5558277Y-18080460D02*
X5548753Y-18089984D01*
X5548753Y-18089984D02*
X5539229Y-18080460D01*
X5539229Y-18080460D02*
X5548753Y-18070936D01*
X5548753Y-18070936D02*
X5548753Y-18089984D01*
X5672562Y-17975698D02*
X5653515Y-17966174D01*
X5653515Y-17966174D02*
X5643991Y-17956650D01*
X5643991Y-17956650D02*
X5634467Y-17937603D01*
X5634467Y-17937603D02*
X5634467Y-17928079D01*
X5634467Y-17928079D02*
X5643991Y-17909031D01*
X5643991Y-17909031D02*
X5653515Y-17899508D01*
X5653515Y-17899508D02*
X5672562Y-17889984D01*
X5672562Y-17889984D02*
X5710658Y-17889984D01*
X5710658Y-17889984D02*
X5729705Y-17899508D01*
X5729705Y-17899508D02*
X5739229Y-17909031D01*
X5739229Y-17909031D02*
X5748753Y-17928079D01*
X5748753Y-17928079D02*
X5748753Y-17937603D01*
X5748753Y-17937603D02*
X5739229Y-17956650D01*
X5739229Y-17956650D02*
X5729705Y-17966174D01*
X5729705Y-17966174D02*
X5710658Y-17975698D01*
X5710658Y-17975698D02*
X5672562Y-17975698D01*
X5672562Y-17975698D02*
X5653515Y-17985222D01*
X5653515Y-17985222D02*
X5643991Y-17994746D01*
X5643991Y-17994746D02*
X5634467Y-18013793D01*
X5634467Y-18013793D02*
X5634467Y-18051889D01*
X5634467Y-18051889D02*
X5643991Y-18070936D01*
X5643991Y-18070936D02*
X5653515Y-18080460D01*
X5653515Y-18080460D02*
X5672562Y-18089984D01*
X5672562Y-18089984D02*
X5710658Y-18089984D01*
X5710658Y-18089984D02*
X5729705Y-18080460D01*
X5729705Y-18080460D02*
X5739229Y-18070936D01*
X5739229Y-18070936D02*
X5748753Y-18051889D01*
X5748753Y-18051889D02*
X5748753Y-18013793D01*
X5748753Y-18013793D02*
X5739229Y-17994746D01*
X5739229Y-17994746D02*
X5729705Y-17985222D01*
X5729705Y-17985222D02*
X5710658Y-17975698D01*
X5872562Y-17889984D02*
X5891610Y-17889984D01*
X5891610Y-17889984D02*
X5910658Y-17899508D01*
X5910658Y-17899508D02*
X5920182Y-17909031D01*
X5920182Y-17909031D02*
X5929705Y-17928079D01*
X5929705Y-17928079D02*
X5939229Y-17966174D01*
X5939229Y-17966174D02*
X5939229Y-18013793D01*
X5939229Y-18013793D02*
X5929705Y-18051889D01*
X5929705Y-18051889D02*
X5920182Y-18070936D01*
X5920182Y-18070936D02*
X5910658Y-18080460D01*
X5910658Y-18080460D02*
X5891610Y-18089984D01*
X5891610Y-18089984D02*
X5872562Y-18089984D01*
X5872562Y-18089984D02*
X5853515Y-18080460D01*
X5853515Y-18080460D02*
X5843991Y-18070936D01*
X5843991Y-18070936D02*
X5834467Y-18051889D01*
X5834467Y-18051889D02*
X5824943Y-18013793D01*
X5824943Y-18013793D02*
X5824943Y-17966174D01*
X5824943Y-17966174D02*
X5834467Y-17928079D01*
X5834467Y-17928079D02*
X5843991Y-17909031D01*
X5843991Y-17909031D02*
X5853515Y-17899508D01*
X5853515Y-17899508D02*
X5872562Y-17889984D01*
X6063039Y-17889984D02*
X6082086Y-17889984D01*
X6082086Y-17889984D02*
X6101134Y-17899508D01*
X6101134Y-17899508D02*
X6110658Y-17909031D01*
X6110658Y-17909031D02*
X6120182Y-17928079D01*
X6120182Y-17928079D02*
X6129705Y-17966174D01*
X6129705Y-17966174D02*
X6129705Y-18013793D01*
X6129705Y-18013793D02*
X6120182Y-18051889D01*
X6120182Y-18051889D02*
X6110658Y-18070936D01*
X6110658Y-18070936D02*
X6101134Y-18080460D01*
X6101134Y-18080460D02*
X6082086Y-18089984D01*
X6082086Y-18089984D02*
X6063039Y-18089984D01*
X6063039Y-18089984D02*
X6043991Y-18080460D01*
X6043991Y-18080460D02*
X6034467Y-18070936D01*
X6034467Y-18070936D02*
X6024943Y-18051889D01*
X6024943Y-18051889D02*
X6015420Y-18013793D01*
X6015420Y-18013793D02*
X6015420Y-17966174D01*
X6015420Y-17966174D02*
X6024943Y-17928079D01*
X6024943Y-17928079D02*
X6034467Y-17909031D01*
X6034467Y-17909031D02*
X6043991Y-17899508D01*
X6043991Y-17899508D02*
X6063039Y-17889984D01*
X6215420Y-18089984D02*
X6215420Y-17956650D01*
X6215420Y-17975698D02*
X6224943Y-17966174D01*
X6224943Y-17966174D02*
X6243991Y-17956650D01*
X6243991Y-17956650D02*
X6272563Y-17956650D01*
X6272563Y-17956650D02*
X6291610Y-17966174D01*
X6291610Y-17966174D02*
X6301134Y-17985222D01*
X6301134Y-17985222D02*
X6301134Y-18089984D01*
X6301134Y-17985222D02*
X6310658Y-17966174D01*
X6310658Y-17966174D02*
X6329705Y-17956650D01*
X6329705Y-17956650D02*
X6358277Y-17956650D01*
X6358277Y-17956650D02*
X6377324Y-17966174D01*
X6377324Y-17966174D02*
X6386848Y-17985222D01*
X6386848Y-17985222D02*
X6386848Y-18089984D01*
X6482086Y-18089984D02*
X6482086Y-17956650D01*
X6482086Y-17975698D02*
X6491610Y-17966174D01*
X6491610Y-17966174D02*
X6510658Y-17956650D01*
X6510658Y-17956650D02*
X6539229Y-17956650D01*
X6539229Y-17956650D02*
X6558277Y-17966174D01*
X6558277Y-17966174D02*
X6567801Y-17985222D01*
X6567801Y-17985222D02*
X6567801Y-18089984D01*
X6567801Y-17985222D02*
X6577324Y-17966174D01*
X6577324Y-17966174D02*
X6596372Y-17956650D01*
X6596372Y-17956650D02*
X6624943Y-17956650D01*
X6624943Y-17956650D02*
X6643991Y-17966174D01*
X6643991Y-17966174D02*
X6653515Y-17985222D01*
X6653515Y-17985222D02*
X6653515Y-18089984D01*
X7043991Y-17880460D02*
X6872563Y-18137603D01*
X7301134Y-17889984D02*
X7320182Y-17889984D01*
X7320182Y-17889984D02*
X7339229Y-17899508D01*
X7339229Y-17899508D02*
X7348753Y-17909031D01*
X7348753Y-17909031D02*
X7358277Y-17928079D01*
X7358277Y-17928079D02*
X7367801Y-17966174D01*
X7367801Y-17966174D02*
X7367801Y-18013793D01*
X7367801Y-18013793D02*
X7358277Y-18051889D01*
X7358277Y-18051889D02*
X7348753Y-18070936D01*
X7348753Y-18070936D02*
X7339229Y-18080460D01*
X7339229Y-18080460D02*
X7320182Y-18089984D01*
X7320182Y-18089984D02*
X7301134Y-18089984D01*
X7301134Y-18089984D02*
X7282086Y-18080460D01*
X7282086Y-18080460D02*
X7272563Y-18070936D01*
X7272563Y-18070936D02*
X7263039Y-18051889D01*
X7263039Y-18051889D02*
X7253515Y-18013793D01*
X7253515Y-18013793D02*
X7253515Y-17966174D01*
X7253515Y-17966174D02*
X7263039Y-17928079D01*
X7263039Y-17928079D02*
X7272563Y-17909031D01*
X7272563Y-17909031D02*
X7282086Y-17899508D01*
X7282086Y-17899508D02*
X7301134Y-17889984D01*
X7453515Y-18070936D02*
X7463039Y-18080460D01*
X7463039Y-18080460D02*
X7453515Y-18089984D01*
X7453515Y-18089984D02*
X7443991Y-18080460D01*
X7443991Y-18080460D02*
X7453515Y-18070936D01*
X7453515Y-18070936D02*
X7453515Y-18089984D01*
X7586848Y-17889984D02*
X7605896Y-17889984D01*
X7605896Y-17889984D02*
X7624944Y-17899508D01*
X7624944Y-17899508D02*
X7634467Y-17909031D01*
X7634467Y-17909031D02*
X7643991Y-17928079D01*
X7643991Y-17928079D02*
X7653515Y-17966174D01*
X7653515Y-17966174D02*
X7653515Y-18013793D01*
X7653515Y-18013793D02*
X7643991Y-18051889D01*
X7643991Y-18051889D02*
X7634467Y-18070936D01*
X7634467Y-18070936D02*
X7624944Y-18080460D01*
X7624944Y-18080460D02*
X7605896Y-18089984D01*
X7605896Y-18089984D02*
X7586848Y-18089984D01*
X7586848Y-18089984D02*
X7567801Y-18080460D01*
X7567801Y-18080460D02*
X7558277Y-18070936D01*
X7558277Y-18070936D02*
X7548753Y-18051889D01*
X7548753Y-18051889D02*
X7539229Y-18013793D01*
X7539229Y-18013793D02*
X7539229Y-17966174D01*
X7539229Y-17966174D02*
X7548753Y-17928079D01*
X7548753Y-17928079D02*
X7558277Y-17909031D01*
X7558277Y-17909031D02*
X7567801Y-17899508D01*
X7567801Y-17899508D02*
X7586848Y-17889984D01*
X7720182Y-17889984D02*
X7853515Y-17889984D01*
X7853515Y-17889984D02*
X7767801Y-18089984D01*
X7967801Y-17889984D02*
X7986848Y-17889984D01*
X7986848Y-17889984D02*
X8005896Y-17899508D01*
X8005896Y-17899508D02*
X8015420Y-17909031D01*
X8015420Y-17909031D02*
X8024944Y-17928079D01*
X8024944Y-17928079D02*
X8034467Y-17966174D01*
X8034467Y-17966174D02*
X8034467Y-18013793D01*
X8034467Y-18013793D02*
X8024944Y-18051889D01*
X8024944Y-18051889D02*
X8015420Y-18070936D01*
X8015420Y-18070936D02*
X8005896Y-18080460D01*
X8005896Y-18080460D02*
X7986848Y-18089984D01*
X7986848Y-18089984D02*
X7967801Y-18089984D01*
X7967801Y-18089984D02*
X7948753Y-18080460D01*
X7948753Y-18080460D02*
X7939229Y-18070936D01*
X7939229Y-18070936D02*
X7929706Y-18051889D01*
X7929706Y-18051889D02*
X7920182Y-18013793D01*
X7920182Y-18013793D02*
X7920182Y-17966174D01*
X7920182Y-17966174D02*
X7929706Y-17928079D01*
X7929706Y-17928079D02*
X7939229Y-17909031D01*
X7939229Y-17909031D02*
X7948753Y-17899508D01*
X7948753Y-17899508D02*
X7967801Y-17889984D01*
X8129706Y-18089984D02*
X8167801Y-18089984D01*
X8167801Y-18089984D02*
X8186848Y-18080460D01*
X8186848Y-18080460D02*
X8196372Y-18070936D01*
X8196372Y-18070936D02*
X8215420Y-18042365D01*
X8215420Y-18042365D02*
X8224944Y-18004270D01*
X8224944Y-18004270D02*
X8224944Y-17928079D01*
X8224944Y-17928079D02*
X8215420Y-17909031D01*
X8215420Y-17909031D02*
X8205896Y-17899508D01*
X8205896Y-17899508D02*
X8186848Y-17889984D01*
X8186848Y-17889984D02*
X8148753Y-17889984D01*
X8148753Y-17889984D02*
X8129706Y-17899508D01*
X8129706Y-17899508D02*
X8120182Y-17909031D01*
X8120182Y-17909031D02*
X8110658Y-17928079D01*
X8110658Y-17928079D02*
X8110658Y-17975698D01*
X8110658Y-17975698D02*
X8120182Y-17994746D01*
X8120182Y-17994746D02*
X8129706Y-18004270D01*
X8129706Y-18004270D02*
X8148753Y-18013793D01*
X8148753Y-18013793D02*
X8186848Y-18013793D01*
X8186848Y-18013793D02*
X8205896Y-18004270D01*
X8205896Y-18004270D02*
X8215420Y-17994746D01*
X8215420Y-17994746D02*
X8224944Y-17975698D01*
X8301134Y-17889984D02*
X8301134Y-17928079D01*
X8377325Y-17889984D02*
X8377325Y-17928079D01*
X8672563Y-18166174D02*
X8663039Y-18156650D01*
X8663039Y-18156650D02*
X8643991Y-18128079D01*
X8643991Y-18128079D02*
X8634468Y-18109031D01*
X8634468Y-18109031D02*
X8624944Y-18080460D01*
X8624944Y-18080460D02*
X8615420Y-18032841D01*
X8615420Y-18032841D02*
X8615420Y-17994746D01*
X8615420Y-17994746D02*
X8624944Y-17947127D01*
X8624944Y-17947127D02*
X8634468Y-17918555D01*
X8634468Y-17918555D02*
X8643991Y-17899508D01*
X8643991Y-17899508D02*
X8663039Y-17870936D01*
X8663039Y-17870936D02*
X8672563Y-17861412D01*
X8729706Y-17889984D02*
X8853515Y-17889984D01*
X8853515Y-17889984D02*
X8786849Y-17966174D01*
X8786849Y-17966174D02*
X8815420Y-17966174D01*
X8815420Y-17966174D02*
X8834468Y-17975698D01*
X8834468Y-17975698D02*
X8843991Y-17985222D01*
X8843991Y-17985222D02*
X8853515Y-18004270D01*
X8853515Y-18004270D02*
X8853515Y-18051889D01*
X8853515Y-18051889D02*
X8843991Y-18070936D01*
X8843991Y-18070936D02*
X8834468Y-18080460D01*
X8834468Y-18080460D02*
X8815420Y-18089984D01*
X8815420Y-18089984D02*
X8758277Y-18089984D01*
X8758277Y-18089984D02*
X8739230Y-18080460D01*
X8739230Y-18080460D02*
X8729706Y-18070936D01*
X9024944Y-17889984D02*
X8986849Y-17889984D01*
X8986849Y-17889984D02*
X8967801Y-17899508D01*
X8967801Y-17899508D02*
X8958277Y-17909031D01*
X8958277Y-17909031D02*
X8939230Y-17937603D01*
X8939230Y-17937603D02*
X8929706Y-17975698D01*
X8929706Y-17975698D02*
X8929706Y-18051889D01*
X8929706Y-18051889D02*
X8939230Y-18070936D01*
X8939230Y-18070936D02*
X8948753Y-18080460D01*
X8948753Y-18080460D02*
X8967801Y-18089984D01*
X8967801Y-18089984D02*
X9005896Y-18089984D01*
X9005896Y-18089984D02*
X9024944Y-18080460D01*
X9024944Y-18080460D02*
X9034468Y-18070936D01*
X9034468Y-18070936D02*
X9043991Y-18051889D01*
X9043991Y-18051889D02*
X9043991Y-18004270D01*
X9043991Y-18004270D02*
X9034468Y-17985222D01*
X9034468Y-17985222D02*
X9024944Y-17975698D01*
X9024944Y-17975698D02*
X9005896Y-17966174D01*
X9005896Y-17966174D02*
X8967801Y-17966174D01*
X8967801Y-17966174D02*
X8948753Y-17975698D01*
X8948753Y-17975698D02*
X8939230Y-17985222D01*
X8939230Y-17985222D02*
X8929706Y-18004270D01*
X9282087Y-18089984D02*
X9282087Y-17889984D01*
X9367801Y-18089984D02*
X9367801Y-17985222D01*
X9367801Y-17985222D02*
X9358277Y-17966174D01*
X9358277Y-17966174D02*
X9339230Y-17956650D01*
X9339230Y-17956650D02*
X9310658Y-17956650D01*
X9310658Y-17956650D02*
X9291611Y-17966174D01*
X9291611Y-17966174D02*
X9282087Y-17975698D01*
X9491611Y-18089984D02*
X9472563Y-18080460D01*
X9472563Y-18080460D02*
X9463039Y-18070936D01*
X9463039Y-18070936D02*
X9453515Y-18051889D01*
X9453515Y-18051889D02*
X9453515Y-17994746D01*
X9453515Y-17994746D02*
X9463039Y-17975698D01*
X9463039Y-17975698D02*
X9472563Y-17966174D01*
X9472563Y-17966174D02*
X9491611Y-17956650D01*
X9491611Y-17956650D02*
X9520182Y-17956650D01*
X9520182Y-17956650D02*
X9539230Y-17966174D01*
X9539230Y-17966174D02*
X9548753Y-17975698D01*
X9548753Y-17975698D02*
X9558277Y-17994746D01*
X9558277Y-17994746D02*
X9558277Y-18051889D01*
X9558277Y-18051889D02*
X9548753Y-18070936D01*
X9548753Y-18070936D02*
X9539230Y-18080460D01*
X9539230Y-18080460D02*
X9520182Y-18089984D01*
X9520182Y-18089984D02*
X9491611Y-18089984D01*
X9672563Y-18089984D02*
X9653515Y-18080460D01*
X9653515Y-18080460D02*
X9643992Y-18061412D01*
X9643992Y-18061412D02*
X9643992Y-17889984D01*
X9824944Y-18080460D02*
X9805896Y-18089984D01*
X9805896Y-18089984D02*
X9767801Y-18089984D01*
X9767801Y-18089984D02*
X9748753Y-18080460D01*
X9748753Y-18080460D02*
X9739230Y-18061412D01*
X9739230Y-18061412D02*
X9739230Y-17985222D01*
X9739230Y-17985222D02*
X9748753Y-17966174D01*
X9748753Y-17966174D02*
X9767801Y-17956650D01*
X9767801Y-17956650D02*
X9805896Y-17956650D01*
X9805896Y-17956650D02*
X9824944Y-17966174D01*
X9824944Y-17966174D02*
X9834468Y-17985222D01*
X9834468Y-17985222D02*
X9834468Y-18004270D01*
X9834468Y-18004270D02*
X9739230Y-18023317D01*
X9910658Y-18080460D02*
X9929706Y-18089984D01*
X9929706Y-18089984D02*
X9967801Y-18089984D01*
X9967801Y-18089984D02*
X9986849Y-18080460D01*
X9986849Y-18080460D02*
X9996373Y-18061412D01*
X9996373Y-18061412D02*
X9996373Y-18051889D01*
X9996373Y-18051889D02*
X9986849Y-18032841D01*
X9986849Y-18032841D02*
X9967801Y-18023317D01*
X9967801Y-18023317D02*
X9939230Y-18023317D01*
X9939230Y-18023317D02*
X9920182Y-18013793D01*
X9920182Y-18013793D02*
X9910658Y-17994746D01*
X9910658Y-17994746D02*
X9910658Y-17985222D01*
X9910658Y-17985222D02*
X9920182Y-17966174D01*
X9920182Y-17966174D02*
X9939230Y-17956650D01*
X9939230Y-17956650D02*
X9967801Y-17956650D01*
X9967801Y-17956650D02*
X9986849Y-17966174D01*
X10063039Y-18166174D02*
X10072563Y-18156650D01*
X10072563Y-18156650D02*
X10091611Y-18128079D01*
X10091611Y-18128079D02*
X10101134Y-18109031D01*
X10101134Y-18109031D02*
X10110658Y-18080460D01*
X10110658Y-18080460D02*
X10120182Y-18032841D01*
X10120182Y-18032841D02*
X10120182Y-17994746D01*
X10120182Y-17994746D02*
X10110658Y-17947127D01*
X10110658Y-17947127D02*
X10101134Y-17918555D01*
X10101134Y-17918555D02*
X10091611Y-17899508D01*
X10091611Y-17899508D02*
X10072563Y-17870936D01*
X10072563Y-17870936D02*
X10063039Y-17861412D01*
M02*
