%TF.GenerationSoftware,KiCad,Pcbnew,9.0.7*%
%TF.CreationDate,2026-02-21T19:23:07+01:00*%
%TF.ProjectId,DMH_VCLFO_v2_PCB_Controls,444d485f-5643-44c4-964f-5f76325f5043,1*%
%TF.SameCoordinates,Original*%
%TF.FileFunction,Drillmap*%
%TF.FilePolarity,Positive*%
%FSLAX45Y45*%
G04 Gerber Fmt 4.5, Leading zero omitted, Abs format (unit mm)*
G04 Created by KiCad (PCBNEW 9.0.7) date 2026-02-21 19:23:07*
%MOMM*%
%LPD*%
G01*
G04 APERTURE LIST*
%ADD10C,0.050000*%
%ADD11C,0.200000*%
G04 APERTURE END LIST*
D10*
X5100000Y-4250000D02*
X14900000Y-4250000D01*
X14900000Y-16300000D01*
X5100000Y-16300000D01*
X5100000Y-4250000D01*
D11*
X5358277Y-16613984D02*
X5358277Y-16413984D01*
X5358277Y-16413984D02*
X5405896Y-16413984D01*
X5405896Y-16413984D02*
X5434467Y-16423508D01*
X5434467Y-16423508D02*
X5453515Y-16442555D01*
X5453515Y-16442555D02*
X5463039Y-16461603D01*
X5463039Y-16461603D02*
X5472563Y-16499698D01*
X5472563Y-16499698D02*
X5472563Y-16528269D01*
X5472563Y-16528269D02*
X5463039Y-16566365D01*
X5463039Y-16566365D02*
X5453515Y-16585412D01*
X5453515Y-16585412D02*
X5434467Y-16604460D01*
X5434467Y-16604460D02*
X5405896Y-16613984D01*
X5405896Y-16613984D02*
X5358277Y-16613984D01*
X5558277Y-16613984D02*
X5558277Y-16480650D01*
X5558277Y-16518746D02*
X5567801Y-16499698D01*
X5567801Y-16499698D02*
X5577324Y-16490174D01*
X5577324Y-16490174D02*
X5596372Y-16480650D01*
X5596372Y-16480650D02*
X5615420Y-16480650D01*
X5682086Y-16613984D02*
X5682086Y-16480650D01*
X5682086Y-16413984D02*
X5672562Y-16423508D01*
X5672562Y-16423508D02*
X5682086Y-16433031D01*
X5682086Y-16433031D02*
X5691610Y-16423508D01*
X5691610Y-16423508D02*
X5682086Y-16413984D01*
X5682086Y-16413984D02*
X5682086Y-16433031D01*
X5805896Y-16613984D02*
X5786848Y-16604460D01*
X5786848Y-16604460D02*
X5777324Y-16585412D01*
X5777324Y-16585412D02*
X5777324Y-16413984D01*
X5910658Y-16613984D02*
X5891610Y-16604460D01*
X5891610Y-16604460D02*
X5882086Y-16585412D01*
X5882086Y-16585412D02*
X5882086Y-16413984D01*
X6139229Y-16613984D02*
X6139229Y-16413984D01*
X6139229Y-16413984D02*
X6205896Y-16556841D01*
X6205896Y-16556841D02*
X6272562Y-16413984D01*
X6272562Y-16413984D02*
X6272562Y-16613984D01*
X6453515Y-16613984D02*
X6453515Y-16509222D01*
X6453515Y-16509222D02*
X6443991Y-16490174D01*
X6443991Y-16490174D02*
X6424943Y-16480650D01*
X6424943Y-16480650D02*
X6386848Y-16480650D01*
X6386848Y-16480650D02*
X6367801Y-16490174D01*
X6453515Y-16604460D02*
X6434467Y-16613984D01*
X6434467Y-16613984D02*
X6386848Y-16613984D01*
X6386848Y-16613984D02*
X6367801Y-16604460D01*
X6367801Y-16604460D02*
X6358277Y-16585412D01*
X6358277Y-16585412D02*
X6358277Y-16566365D01*
X6358277Y-16566365D02*
X6367801Y-16547317D01*
X6367801Y-16547317D02*
X6386848Y-16537793D01*
X6386848Y-16537793D02*
X6434467Y-16537793D01*
X6434467Y-16537793D02*
X6453515Y-16528269D01*
X6548753Y-16480650D02*
X6548753Y-16680650D01*
X6548753Y-16490174D02*
X6567801Y-16480650D01*
X6567801Y-16480650D02*
X6605896Y-16480650D01*
X6605896Y-16480650D02*
X6624943Y-16490174D01*
X6624943Y-16490174D02*
X6634467Y-16499698D01*
X6634467Y-16499698D02*
X6643991Y-16518746D01*
X6643991Y-16518746D02*
X6643991Y-16575888D01*
X6643991Y-16575888D02*
X6634467Y-16594936D01*
X6634467Y-16594936D02*
X6624943Y-16604460D01*
X6624943Y-16604460D02*
X6605896Y-16613984D01*
X6605896Y-16613984D02*
X6567801Y-16613984D01*
X6567801Y-16613984D02*
X6548753Y-16604460D01*
X6729705Y-16594936D02*
X6739229Y-16604460D01*
X6739229Y-16604460D02*
X6729705Y-16613984D01*
X6729705Y-16613984D02*
X6720182Y-16604460D01*
X6720182Y-16604460D02*
X6729705Y-16594936D01*
X6729705Y-16594936D02*
X6729705Y-16613984D01*
X6729705Y-16490174D02*
X6739229Y-16499698D01*
X6739229Y-16499698D02*
X6729705Y-16509222D01*
X6729705Y-16509222D02*
X6720182Y-16499698D01*
X6720182Y-16499698D02*
X6729705Y-16490174D01*
X6729705Y-16490174D02*
X6729705Y-16509222D01*
M02*
