M48
; DRILL file {KiCad 9.0.7} date 2026-02-21T19:23:07+0100
; FORMAT={-:-/ absolute / metric / decimal}
; #@! TF.CreationDate,2026-02-21T19:23:07+01:00
; #@! TF.GenerationSoftware,Kicad,Pcbnew,9.0.7
; #@! TF.FileFunction,Plated,1,2,PTH
FMAT,2
METRIC
; #@! TA.AperFunction,Plated,PTH,ComponentDrill
T1C0.800
; #@! TA.AperFunction,Plated,PTH,ComponentDrill
T2C0.900
; #@! TA.AperFunction,Plated,PTH,ComponentDrill
T3C1.000
; #@! TA.AperFunction,Plated,PTH,ComponentDrill
T4C1.100
; #@! TA.AperFunction,Plated,PTH,ComponentDrill
T5C1.800
%
G90
G05
T1
X57.2Y-45.9
X57.2Y-76.9
X57.2Y-87.4
X57.2Y-118.4
X57.2Y-128.9
X57.2Y-159.9
X59.74Y-45.9
X59.74Y-76.9
X59.74Y-87.4
X59.74Y-118.4
X59.74Y-128.9
X59.74Y-159.9
X62.28Y-45.9
X62.28Y-76.9
X62.28Y-87.4
X62.28Y-118.4
X62.28Y-128.9
X62.28Y-159.9
X66.59Y-45.9
X66.59Y-87.5
X66.59Y-92.3
X66.59Y-128.9
X66.59Y-133.7
X66.69Y-50.8
X74.21Y-45.9
X74.21Y-87.5
X74.21Y-92.3
X74.21Y-128.9
X74.21Y-133.7
X74.31Y-50.8
X78.29Y-87.6
X78.39Y-45.9
X78.39Y-50.8
X78.39Y-55.8
X78.39Y-60.8
X78.39Y-92.4
X78.39Y-97.2
X78.39Y-102.1
X78.39Y-128.9
X78.39Y-133.7
X78.39Y-138.5
X78.39Y-143.3
X85.91Y-87.6
X86.01Y-45.9
X86.01Y-50.8
X86.01Y-55.8
X86.01Y-60.8
X86.01Y-92.4
X86.01Y-97.2
X86.01Y-102.1
X86.01Y-128.9
X86.01Y-133.7
X86.01Y-138.5
X86.01Y-143.3
X87.2Y-63.97
X87.2Y-66.51
X87.2Y-69.05
X87.2Y-71.67
X87.2Y-74.21
X87.2Y-76.75
X87.2Y-105.47
X87.2Y-108.01
X87.2Y-110.55
X87.2Y-113.11
X87.2Y-115.65
X87.2Y-118.19
X87.2Y-146.91
X87.2Y-149.45
X87.2Y-151.99
X87.2Y-154.61
X87.2Y-157.15
X87.2Y-159.69
X96.19Y-72.7
X96.19Y-77.5
X96.19Y-155.7
X96.19Y-160.4
X96.29Y-114.2
X96.29Y-119.0
X103.81Y-72.7
X103.81Y-77.5
X103.81Y-155.7
X103.81Y-160.4
X103.91Y-114.2
X103.91Y-119.0
T2
X80.48Y-72.5
X80.48Y-77.5
X80.48Y-114.0
X80.48Y-119.0
X80.48Y-155.5
X80.48Y-160.5
X83.02Y-72.5
X83.02Y-77.5
X83.02Y-114.0
X83.02Y-119.0
X83.02Y-155.5
X83.02Y-160.5
T3
X53.0Y-52.0
X53.0Y-54.54
X53.0Y-57.08
X53.0Y-59.62
X53.0Y-62.16
X53.0Y-64.7
X53.0Y-67.24
X53.0Y-69.78
X53.0Y-94.0
X53.0Y-96.54
X53.0Y-99.08
X53.0Y-101.62
X53.0Y-104.16
X53.0Y-106.7
X53.0Y-109.24
X53.0Y-111.78
X53.0Y-135.0
X53.0Y-137.54
X53.0Y-140.08
X53.0Y-142.62
X53.0Y-145.16
X53.0Y-147.7
X53.0Y-150.24
X53.0Y-152.78
X64.5Y-68.25
X64.5Y-109.75
X64.5Y-151.25
X67.0Y-68.25
X67.0Y-109.75
X67.0Y-151.25
X69.5Y-68.25
X69.5Y-109.75
X69.5Y-151.25
X93.675Y-53.925
X96.215Y-53.925
X97.5Y-68.25
X97.5Y-109.75
X97.5Y-151.25
X98.755Y-53.925
X100.0Y-68.25
X100.0Y-109.75
X100.0Y-151.25
X101.295Y-53.925
X102.5Y-68.25
X102.5Y-109.75
X102.5Y-151.25
X103.835Y-53.925
X106.375Y-53.925
X147.0Y-52.0
X147.0Y-54.54
X147.0Y-57.08
X147.0Y-59.62
X147.0Y-62.16
X147.0Y-64.7
X147.0Y-67.24
X147.0Y-69.78
X147.0Y-94.0
X147.0Y-96.54
X147.0Y-99.08
X147.0Y-101.62
X147.0Y-104.16
X147.0Y-106.7
X147.0Y-109.24
X147.0Y-111.78
X147.0Y-135.0
X147.0Y-137.54
X147.0Y-140.08
X147.0Y-142.62
X147.0Y-145.16
X147.0Y-147.7
X147.0Y-150.24
X147.0Y-152.78
T5
X124.75Y-47.05
X124.75Y-51.75
X124.75Y-56.45
X124.75Y-65.55
X124.75Y-70.25
X124.75Y-74.95
X124.75Y-88.55
X124.75Y-93.25
X124.75Y-97.95
X124.75Y-107.05
X124.75Y-111.75
X124.75Y-116.45
X124.75Y-130.05
X124.75Y-134.75
X124.75Y-139.45
X124.75Y-148.55
X124.75Y-153.25
X124.75Y-157.95
X141.25Y-47.05
X141.25Y-51.75
X141.25Y-56.45
X141.25Y-65.55
X141.25Y-70.25
X141.25Y-74.95
X141.25Y-88.55
X141.25Y-93.25
X141.25Y-97.95
X141.25Y-107.05
X141.25Y-111.75
X141.25Y-116.45
X141.25Y-130.05
X141.25Y-134.75
X141.25Y-139.45
X141.25Y-148.55
X141.25Y-153.25
X141.25Y-157.95
T4
X62.2Y-61.1G85X62.2Y-60.4
G05
X62.2Y-102.6G85X62.2Y-101.9
G05
X62.2Y-144.1G85X62.2Y-143.4
G05
X71.8Y-61.1G85X71.8Y-60.4
G05
X71.8Y-102.6G85X71.8Y-101.9
G05
X71.8Y-144.1G85X71.8Y-143.4
G05
X95.2Y-61.1G85X95.2Y-60.4
G05
X95.2Y-102.6G85X95.2Y-101.9
G05
X95.2Y-144.1G85X95.2Y-143.4
G05
X104.8Y-61.1G85X104.8Y-60.4
G05
X104.8Y-102.6G85X104.8Y-101.9
G05
X104.8Y-144.1G85X104.8Y-143.4
G05
M30
