%TF.GenerationSoftware,KiCad,Pcbnew,9.0.7*%
%TF.CreationDate,2026-02-21T19:23:01+01:00*%
%TF.ProjectId,DMH_VCLFO_v2_PCB_Controls,444d485f-5643-44c4-964f-5f76325f5043,1*%
%TF.SameCoordinates,Original*%
%TF.FileFunction,Legend,Bot*%
%TF.FilePolarity,Positive*%
%FSLAX46Y46*%
G04 Gerber Fmt 4.6, Leading zero omitted, Abs format (unit mm)*
G04 Created by KiCad (PCBNEW 9.0.7) date 2026-02-21 19:23:01*
%MOMM*%
%LPD*%
G01*
G04 APERTURE LIST*
%ADD10C,0.100000*%
%ADD11C,0.250000*%
%ADD12C,0.150000*%
%ADD13C,0.120000*%
%ADD14C,1.600000*%
%ADD15C,2.800000*%
%ADD16R,1.800000X1.800000*%
%ADD17C,1.800000*%
%ADD18R,1.500000X1.500000*%
%ADD19C,1.500000*%
%ADD20O,2.720000X3.240000*%
%ADD21C,1.440000*%
%ADD22R,1.700000X1.700000*%
%ADD23C,1.700000*%
G04 APERTURE END LIST*
D10*
X109900000Y-158500000D02*
X119900000Y-158500000D01*
X119900000Y-160500000D01*
X109900000Y-160500000D01*
X109900000Y-158500000D01*
G36*
X109900000Y-158500000D02*
G01*
X119900000Y-158500000D01*
X119900000Y-160500000D01*
X109900000Y-160500000D01*
X109900000Y-158500000D01*
G37*
D11*
X122709523Y-162449619D02*
X122709523Y-161449619D01*
X122709523Y-161449619D02*
X122376190Y-162163904D01*
X122376190Y-162163904D02*
X122042857Y-161449619D01*
X122042857Y-161449619D02*
X122042857Y-162449619D01*
X121566666Y-162449619D02*
X121566666Y-161449619D01*
X121471428Y-162068666D02*
X121185714Y-162449619D01*
X121185714Y-161782952D02*
X121566666Y-162163904D01*
X120233333Y-162449619D02*
X120804761Y-162449619D01*
X120519047Y-162449619D02*
X120519047Y-161449619D01*
X120519047Y-161449619D02*
X120614285Y-161592476D01*
X120614285Y-161592476D02*
X120709523Y-161687714D01*
X120709523Y-161687714D02*
X120804761Y-161735333D01*
X119804761Y-162354380D02*
X119757142Y-162402000D01*
X119757142Y-162402000D02*
X119804761Y-162449619D01*
X119804761Y-162449619D02*
X119852380Y-162402000D01*
X119852380Y-162402000D02*
X119804761Y-162354380D01*
X119804761Y-162354380D02*
X119804761Y-162449619D01*
X119138095Y-161449619D02*
X119042857Y-161449619D01*
X119042857Y-161449619D02*
X118947619Y-161497238D01*
X118947619Y-161497238D02*
X118900000Y-161544857D01*
X118900000Y-161544857D02*
X118852381Y-161640095D01*
X118852381Y-161640095D02*
X118804762Y-161830571D01*
X118804762Y-161830571D02*
X118804762Y-162068666D01*
X118804762Y-162068666D02*
X118852381Y-162259142D01*
X118852381Y-162259142D02*
X118900000Y-162354380D01*
X118900000Y-162354380D02*
X118947619Y-162402000D01*
X118947619Y-162402000D02*
X119042857Y-162449619D01*
X119042857Y-162449619D02*
X119138095Y-162449619D01*
X119138095Y-162449619D02*
X119233333Y-162402000D01*
X119233333Y-162402000D02*
X119280952Y-162354380D01*
X119280952Y-162354380D02*
X119328571Y-162259142D01*
X119328571Y-162259142D02*
X119376190Y-162068666D01*
X119376190Y-162068666D02*
X119376190Y-161830571D01*
X119376190Y-161830571D02*
X119328571Y-161640095D01*
X119328571Y-161640095D02*
X119280952Y-161544857D01*
X119280952Y-161544857D02*
X119233333Y-161497238D01*
X119233333Y-161497238D02*
X119138095Y-161449619D01*
X117614285Y-162068666D02*
X116852381Y-162068666D01*
X115614285Y-162449619D02*
X115614285Y-161449619D01*
X115614285Y-161449619D02*
X115280952Y-162163904D01*
X115280952Y-162163904D02*
X114947619Y-161449619D01*
X114947619Y-161449619D02*
X114947619Y-162449619D01*
X114042857Y-162449619D02*
X114042857Y-161925809D01*
X114042857Y-161925809D02*
X114090476Y-161830571D01*
X114090476Y-161830571D02*
X114185714Y-161782952D01*
X114185714Y-161782952D02*
X114376190Y-161782952D01*
X114376190Y-161782952D02*
X114471428Y-161830571D01*
X114042857Y-162402000D02*
X114138095Y-162449619D01*
X114138095Y-162449619D02*
X114376190Y-162449619D01*
X114376190Y-162449619D02*
X114471428Y-162402000D01*
X114471428Y-162402000D02*
X114519047Y-162306761D01*
X114519047Y-162306761D02*
X114519047Y-162211523D01*
X114519047Y-162211523D02*
X114471428Y-162116285D01*
X114471428Y-162116285D02*
X114376190Y-162068666D01*
X114376190Y-162068666D02*
X114138095Y-162068666D01*
X114138095Y-162068666D02*
X114042857Y-162021047D01*
X113566666Y-162449619D02*
X113566666Y-161782952D01*
X113566666Y-161973428D02*
X113519047Y-161878190D01*
X113519047Y-161878190D02*
X113471428Y-161830571D01*
X113471428Y-161830571D02*
X113376190Y-161782952D01*
X113376190Y-161782952D02*
X113280952Y-161782952D01*
X112519047Y-162402000D02*
X112614285Y-162449619D01*
X112614285Y-162449619D02*
X112804761Y-162449619D01*
X112804761Y-162449619D02*
X112899999Y-162402000D01*
X112899999Y-162402000D02*
X112947618Y-162354380D01*
X112947618Y-162354380D02*
X112995237Y-162259142D01*
X112995237Y-162259142D02*
X112995237Y-161973428D01*
X112995237Y-161973428D02*
X112947618Y-161878190D01*
X112947618Y-161878190D02*
X112899999Y-161830571D01*
X112899999Y-161830571D02*
X112804761Y-161782952D01*
X112804761Y-161782952D02*
X112614285Y-161782952D01*
X112614285Y-161782952D02*
X112519047Y-161830571D01*
X112090475Y-162449619D02*
X112090475Y-161449619D01*
X111661904Y-162449619D02*
X111661904Y-161925809D01*
X111661904Y-161925809D02*
X111709523Y-161830571D01*
X111709523Y-161830571D02*
X111804761Y-161782952D01*
X111804761Y-161782952D02*
X111947618Y-161782952D01*
X111947618Y-161782952D02*
X112042856Y-161830571D01*
X112042856Y-161830571D02*
X112090475Y-161878190D01*
X110471427Y-161544857D02*
X110423808Y-161497238D01*
X110423808Y-161497238D02*
X110328570Y-161449619D01*
X110328570Y-161449619D02*
X110090475Y-161449619D01*
X110090475Y-161449619D02*
X109995237Y-161497238D01*
X109995237Y-161497238D02*
X109947618Y-161544857D01*
X109947618Y-161544857D02*
X109899999Y-161640095D01*
X109899999Y-161640095D02*
X109899999Y-161735333D01*
X109899999Y-161735333D02*
X109947618Y-161878190D01*
X109947618Y-161878190D02*
X110519046Y-162449619D01*
X110519046Y-162449619D02*
X109899999Y-162449619D01*
X109280951Y-161449619D02*
X109185713Y-161449619D01*
X109185713Y-161449619D02*
X109090475Y-161497238D01*
X109090475Y-161497238D02*
X109042856Y-161544857D01*
X109042856Y-161544857D02*
X108995237Y-161640095D01*
X108995237Y-161640095D02*
X108947618Y-161830571D01*
X108947618Y-161830571D02*
X108947618Y-162068666D01*
X108947618Y-162068666D02*
X108995237Y-162259142D01*
X108995237Y-162259142D02*
X109042856Y-162354380D01*
X109042856Y-162354380D02*
X109090475Y-162402000D01*
X109090475Y-162402000D02*
X109185713Y-162449619D01*
X109185713Y-162449619D02*
X109280951Y-162449619D01*
X109280951Y-162449619D02*
X109376189Y-162402000D01*
X109376189Y-162402000D02*
X109423808Y-162354380D01*
X109423808Y-162354380D02*
X109471427Y-162259142D01*
X109471427Y-162259142D02*
X109519046Y-162068666D01*
X109519046Y-162068666D02*
X109519046Y-161830571D01*
X109519046Y-161830571D02*
X109471427Y-161640095D01*
X109471427Y-161640095D02*
X109423808Y-161544857D01*
X109423808Y-161544857D02*
X109376189Y-161497238D01*
X109376189Y-161497238D02*
X109280951Y-161449619D01*
X108566665Y-161544857D02*
X108519046Y-161497238D01*
X108519046Y-161497238D02*
X108423808Y-161449619D01*
X108423808Y-161449619D02*
X108185713Y-161449619D01*
X108185713Y-161449619D02*
X108090475Y-161497238D01*
X108090475Y-161497238D02*
X108042856Y-161544857D01*
X108042856Y-161544857D02*
X107995237Y-161640095D01*
X107995237Y-161640095D02*
X107995237Y-161735333D01*
X107995237Y-161735333D02*
X108042856Y-161878190D01*
X108042856Y-161878190D02*
X108614284Y-162449619D01*
X108614284Y-162449619D02*
X107995237Y-162449619D01*
X107138094Y-161449619D02*
X107328570Y-161449619D01*
X107328570Y-161449619D02*
X107423808Y-161497238D01*
X107423808Y-161497238D02*
X107471427Y-161544857D01*
X107471427Y-161544857D02*
X107566665Y-161687714D01*
X107566665Y-161687714D02*
X107614284Y-161878190D01*
X107614284Y-161878190D02*
X107614284Y-162259142D01*
X107614284Y-162259142D02*
X107566665Y-162354380D01*
X107566665Y-162354380D02*
X107519046Y-162402000D01*
X107519046Y-162402000D02*
X107423808Y-162449619D01*
X107423808Y-162449619D02*
X107233332Y-162449619D01*
X107233332Y-162449619D02*
X107138094Y-162402000D01*
X107138094Y-162402000D02*
X107090475Y-162354380D01*
X107090475Y-162354380D02*
X107042856Y-162259142D01*
X107042856Y-162259142D02*
X107042856Y-162021047D01*
X107042856Y-162021047D02*
X107090475Y-161925809D01*
X107090475Y-161925809D02*
X107138094Y-161878190D01*
X107138094Y-161878190D02*
X107233332Y-161830571D01*
X107233332Y-161830571D02*
X107423808Y-161830571D01*
X107423808Y-161830571D02*
X107519046Y-161878190D01*
X107519046Y-161878190D02*
X107566665Y-161925809D01*
X107566665Y-161925809D02*
X107614284Y-162021047D01*
D12*
X53809523Y-48684819D02*
X53809523Y-49399104D01*
X53809523Y-49399104D02*
X53857142Y-49541961D01*
X53857142Y-49541961D02*
X53952380Y-49637200D01*
X53952380Y-49637200D02*
X54095237Y-49684819D01*
X54095237Y-49684819D02*
X54190475Y-49684819D01*
X52809523Y-49684819D02*
X53380951Y-49684819D01*
X53095237Y-49684819D02*
X53095237Y-48684819D01*
X53095237Y-48684819D02*
X53190475Y-48827676D01*
X53190475Y-48827676D02*
X53285713Y-48922914D01*
X53285713Y-48922914D02*
X53380951Y-48970533D01*
X52333332Y-49684819D02*
X52142856Y-49684819D01*
X52142856Y-49684819D02*
X52047618Y-49637200D01*
X52047618Y-49637200D02*
X51999999Y-49589580D01*
X51999999Y-49589580D02*
X51904761Y-49446723D01*
X51904761Y-49446723D02*
X51857142Y-49256247D01*
X51857142Y-49256247D02*
X51857142Y-48875295D01*
X51857142Y-48875295D02*
X51904761Y-48780057D01*
X51904761Y-48780057D02*
X51952380Y-48732438D01*
X51952380Y-48732438D02*
X52047618Y-48684819D01*
X52047618Y-48684819D02*
X52238094Y-48684819D01*
X52238094Y-48684819D02*
X52333332Y-48732438D01*
X52333332Y-48732438D02*
X52380951Y-48780057D01*
X52380951Y-48780057D02*
X52428570Y-48875295D01*
X52428570Y-48875295D02*
X52428570Y-49113390D01*
X52428570Y-49113390D02*
X52380951Y-49208628D01*
X52380951Y-49208628D02*
X52333332Y-49256247D01*
X52333332Y-49256247D02*
X52238094Y-49303866D01*
X52238094Y-49303866D02*
X52047618Y-49303866D01*
X52047618Y-49303866D02*
X51952380Y-49256247D01*
X51952380Y-49256247D02*
X51904761Y-49208628D01*
X51904761Y-49208628D02*
X51857142Y-49113390D01*
X53809523Y-131684819D02*
X53809523Y-132399104D01*
X53809523Y-132399104D02*
X53857142Y-132541961D01*
X53857142Y-132541961D02*
X53952380Y-132637200D01*
X53952380Y-132637200D02*
X54095237Y-132684819D01*
X54095237Y-132684819D02*
X54190475Y-132684819D01*
X53380951Y-131780057D02*
X53333332Y-131732438D01*
X53333332Y-131732438D02*
X53238094Y-131684819D01*
X53238094Y-131684819D02*
X52999999Y-131684819D01*
X52999999Y-131684819D02*
X52904761Y-131732438D01*
X52904761Y-131732438D02*
X52857142Y-131780057D01*
X52857142Y-131780057D02*
X52809523Y-131875295D01*
X52809523Y-131875295D02*
X52809523Y-131970533D01*
X52809523Y-131970533D02*
X52857142Y-132113390D01*
X52857142Y-132113390D02*
X53428570Y-132684819D01*
X53428570Y-132684819D02*
X52809523Y-132684819D01*
X52333332Y-132684819D02*
X52142856Y-132684819D01*
X52142856Y-132684819D02*
X52047618Y-132637200D01*
X52047618Y-132637200D02*
X51999999Y-132589580D01*
X51999999Y-132589580D02*
X51904761Y-132446723D01*
X51904761Y-132446723D02*
X51857142Y-132256247D01*
X51857142Y-132256247D02*
X51857142Y-131875295D01*
X51857142Y-131875295D02*
X51904761Y-131780057D01*
X51904761Y-131780057D02*
X51952380Y-131732438D01*
X51952380Y-131732438D02*
X52047618Y-131684819D01*
X52047618Y-131684819D02*
X52238094Y-131684819D01*
X52238094Y-131684819D02*
X52333332Y-131732438D01*
X52333332Y-131732438D02*
X52380951Y-131780057D01*
X52380951Y-131780057D02*
X52428570Y-131875295D01*
X52428570Y-131875295D02*
X52428570Y-132113390D01*
X52428570Y-132113390D02*
X52380951Y-132208628D01*
X52380951Y-132208628D02*
X52333332Y-132256247D01*
X52333332Y-132256247D02*
X52238094Y-132303866D01*
X52238094Y-132303866D02*
X52047618Y-132303866D01*
X52047618Y-132303866D02*
X51952380Y-132256247D01*
X51952380Y-132256247D02*
X51904761Y-132208628D01*
X51904761Y-132208628D02*
X51857142Y-132113390D01*
X53809523Y-90684819D02*
X53809523Y-91399104D01*
X53809523Y-91399104D02*
X53857142Y-91541961D01*
X53857142Y-91541961D02*
X53952380Y-91637200D01*
X53952380Y-91637200D02*
X54095237Y-91684819D01*
X54095237Y-91684819D02*
X54190475Y-91684819D01*
X53380951Y-90780057D02*
X53333332Y-90732438D01*
X53333332Y-90732438D02*
X53238094Y-90684819D01*
X53238094Y-90684819D02*
X52999999Y-90684819D01*
X52999999Y-90684819D02*
X52904761Y-90732438D01*
X52904761Y-90732438D02*
X52857142Y-90780057D01*
X52857142Y-90780057D02*
X52809523Y-90875295D01*
X52809523Y-90875295D02*
X52809523Y-90970533D01*
X52809523Y-90970533D02*
X52857142Y-91113390D01*
X52857142Y-91113390D02*
X53428570Y-91684819D01*
X53428570Y-91684819D02*
X52809523Y-91684819D01*
X51952380Y-91018152D02*
X51952380Y-91684819D01*
X52190475Y-90637200D02*
X52428570Y-91351485D01*
X52428570Y-91351485D02*
X51809523Y-91351485D01*
X90359819Y-53115476D02*
X91074104Y-53115476D01*
X91074104Y-53115476D02*
X91216961Y-53067857D01*
X91216961Y-53067857D02*
X91312200Y-52972619D01*
X91312200Y-52972619D02*
X91359819Y-52829762D01*
X91359819Y-52829762D02*
X91359819Y-52734524D01*
X90359819Y-54067857D02*
X90359819Y-53591667D01*
X90359819Y-53591667D02*
X90836009Y-53544048D01*
X90836009Y-53544048D02*
X90788390Y-53591667D01*
X90788390Y-53591667D02*
X90740771Y-53686905D01*
X90740771Y-53686905D02*
X90740771Y-53925000D01*
X90740771Y-53925000D02*
X90788390Y-54020238D01*
X90788390Y-54020238D02*
X90836009Y-54067857D01*
X90836009Y-54067857D02*
X90931247Y-54115476D01*
X90931247Y-54115476D02*
X91169342Y-54115476D01*
X91169342Y-54115476D02*
X91264580Y-54067857D01*
X91264580Y-54067857D02*
X91312200Y-54020238D01*
X91312200Y-54020238D02*
X91359819Y-53925000D01*
X91359819Y-53925000D02*
X91359819Y-53686905D01*
X91359819Y-53686905D02*
X91312200Y-53591667D01*
X91312200Y-53591667D02*
X91264580Y-53544048D01*
X90693152Y-54972619D02*
X91359819Y-54972619D01*
X90312200Y-54734524D02*
X91026485Y-54496429D01*
X91026485Y-54496429D02*
X91026485Y-55115476D01*
X147809523Y-48684819D02*
X147809523Y-49399104D01*
X147809523Y-49399104D02*
X147857142Y-49541961D01*
X147857142Y-49541961D02*
X147952380Y-49637200D01*
X147952380Y-49637200D02*
X148095237Y-49684819D01*
X148095237Y-49684819D02*
X148190475Y-49684819D01*
X147380951Y-48780057D02*
X147333332Y-48732438D01*
X147333332Y-48732438D02*
X147238094Y-48684819D01*
X147238094Y-48684819D02*
X146999999Y-48684819D01*
X146999999Y-48684819D02*
X146904761Y-48732438D01*
X146904761Y-48732438D02*
X146857142Y-48780057D01*
X146857142Y-48780057D02*
X146809523Y-48875295D01*
X146809523Y-48875295D02*
X146809523Y-48970533D01*
X146809523Y-48970533D02*
X146857142Y-49113390D01*
X146857142Y-49113390D02*
X147428570Y-49684819D01*
X147428570Y-49684819D02*
X146809523Y-49684819D01*
X146190475Y-48684819D02*
X146095237Y-48684819D01*
X146095237Y-48684819D02*
X145999999Y-48732438D01*
X145999999Y-48732438D02*
X145952380Y-48780057D01*
X145952380Y-48780057D02*
X145904761Y-48875295D01*
X145904761Y-48875295D02*
X145857142Y-49065771D01*
X145857142Y-49065771D02*
X145857142Y-49303866D01*
X145857142Y-49303866D02*
X145904761Y-49494342D01*
X145904761Y-49494342D02*
X145952380Y-49589580D01*
X145952380Y-49589580D02*
X145999999Y-49637200D01*
X145999999Y-49637200D02*
X146095237Y-49684819D01*
X146095237Y-49684819D02*
X146190475Y-49684819D01*
X146190475Y-49684819D02*
X146285713Y-49637200D01*
X146285713Y-49637200D02*
X146333332Y-49589580D01*
X146333332Y-49589580D02*
X146380951Y-49494342D01*
X146380951Y-49494342D02*
X146428570Y-49303866D01*
X146428570Y-49303866D02*
X146428570Y-49065771D01*
X146428570Y-49065771D02*
X146380951Y-48875295D01*
X146380951Y-48875295D02*
X146333332Y-48780057D01*
X146333332Y-48780057D02*
X146285713Y-48732438D01*
X146285713Y-48732438D02*
X146190475Y-48684819D01*
X147809523Y-90684819D02*
X147809523Y-91399104D01*
X147809523Y-91399104D02*
X147857142Y-91541961D01*
X147857142Y-91541961D02*
X147952380Y-91637200D01*
X147952380Y-91637200D02*
X148095237Y-91684819D01*
X148095237Y-91684819D02*
X148190475Y-91684819D01*
X147380951Y-90780057D02*
X147333332Y-90732438D01*
X147333332Y-90732438D02*
X147238094Y-90684819D01*
X147238094Y-90684819D02*
X146999999Y-90684819D01*
X146999999Y-90684819D02*
X146904761Y-90732438D01*
X146904761Y-90732438D02*
X146857142Y-90780057D01*
X146857142Y-90780057D02*
X146809523Y-90875295D01*
X146809523Y-90875295D02*
X146809523Y-90970533D01*
X146809523Y-90970533D02*
X146857142Y-91113390D01*
X146857142Y-91113390D02*
X147428570Y-91684819D01*
X147428570Y-91684819D02*
X146809523Y-91684819D01*
X145904761Y-90684819D02*
X146380951Y-90684819D01*
X146380951Y-90684819D02*
X146428570Y-91161009D01*
X146428570Y-91161009D02*
X146380951Y-91113390D01*
X146380951Y-91113390D02*
X146285713Y-91065771D01*
X146285713Y-91065771D02*
X146047618Y-91065771D01*
X146047618Y-91065771D02*
X145952380Y-91113390D01*
X145952380Y-91113390D02*
X145904761Y-91161009D01*
X145904761Y-91161009D02*
X145857142Y-91256247D01*
X145857142Y-91256247D02*
X145857142Y-91494342D01*
X145857142Y-91494342D02*
X145904761Y-91589580D01*
X145904761Y-91589580D02*
X145952380Y-91637200D01*
X145952380Y-91637200D02*
X146047618Y-91684819D01*
X146047618Y-91684819D02*
X146285713Y-91684819D01*
X146285713Y-91684819D02*
X146380951Y-91637200D01*
X146380951Y-91637200D02*
X146428570Y-91589580D01*
X147809523Y-131684819D02*
X147809523Y-132399104D01*
X147809523Y-132399104D02*
X147857142Y-132541961D01*
X147857142Y-132541961D02*
X147952380Y-132637200D01*
X147952380Y-132637200D02*
X148095237Y-132684819D01*
X148095237Y-132684819D02*
X148190475Y-132684819D01*
X147428570Y-131684819D02*
X146809523Y-131684819D01*
X146809523Y-131684819D02*
X147142856Y-132065771D01*
X147142856Y-132065771D02*
X146999999Y-132065771D01*
X146999999Y-132065771D02*
X146904761Y-132113390D01*
X146904761Y-132113390D02*
X146857142Y-132161009D01*
X146857142Y-132161009D02*
X146809523Y-132256247D01*
X146809523Y-132256247D02*
X146809523Y-132494342D01*
X146809523Y-132494342D02*
X146857142Y-132589580D01*
X146857142Y-132589580D02*
X146904761Y-132637200D01*
X146904761Y-132637200D02*
X146999999Y-132684819D01*
X146999999Y-132684819D02*
X147285713Y-132684819D01*
X147285713Y-132684819D02*
X147380951Y-132637200D01*
X147380951Y-132637200D02*
X147428570Y-132589580D01*
X146190475Y-131684819D02*
X146095237Y-131684819D01*
X146095237Y-131684819D02*
X145999999Y-131732438D01*
X145999999Y-131732438D02*
X145952380Y-131780057D01*
X145952380Y-131780057D02*
X145904761Y-131875295D01*
X145904761Y-131875295D02*
X145857142Y-132065771D01*
X145857142Y-132065771D02*
X145857142Y-132303866D01*
X145857142Y-132303866D02*
X145904761Y-132494342D01*
X145904761Y-132494342D02*
X145952380Y-132589580D01*
X145952380Y-132589580D02*
X145999999Y-132637200D01*
X145999999Y-132637200D02*
X146095237Y-132684819D01*
X146095237Y-132684819D02*
X146190475Y-132684819D01*
X146190475Y-132684819D02*
X146285713Y-132637200D01*
X146285713Y-132637200D02*
X146333332Y-132589580D01*
X146333332Y-132589580D02*
X146380951Y-132494342D01*
X146380951Y-132494342D02*
X146428570Y-132303866D01*
X146428570Y-132303866D02*
X146428570Y-132065771D01*
X146428570Y-132065771D02*
X146380951Y-131875295D01*
X146380951Y-131875295D02*
X146333332Y-131780057D01*
X146333332Y-131780057D02*
X146285713Y-131732438D01*
X146285713Y-131732438D02*
X146190475Y-131684819D01*
D13*
%TO.C,J19*%
X51670000Y-50670000D02*
X51670000Y-52000000D01*
X51670000Y-53270000D02*
X51670000Y-71110000D01*
X53000000Y-50670000D02*
X51670000Y-50670000D01*
X54330000Y-53270000D02*
X51670000Y-53270000D01*
X54330000Y-53270000D02*
X54330000Y-71110000D01*
X54330000Y-71110000D02*
X51670000Y-71110000D01*
%TO.C,J29*%
X51670000Y-133670000D02*
X51670000Y-135000000D01*
X51670000Y-136270000D02*
X51670000Y-154110000D01*
X53000000Y-133670000D02*
X51670000Y-133670000D01*
X54330000Y-136270000D02*
X51670000Y-136270000D01*
X54330000Y-136270000D02*
X54330000Y-154110000D01*
X54330000Y-154110000D02*
X51670000Y-154110000D01*
%TO.C,J24*%
X51670000Y-92670000D02*
X51670000Y-94000000D01*
X51670000Y-95270000D02*
X51670000Y-113110000D01*
X53000000Y-92670000D02*
X51670000Y-92670000D01*
X54330000Y-95270000D02*
X51670000Y-95270000D01*
X54330000Y-95270000D02*
X54330000Y-113110000D01*
X54330000Y-113110000D02*
X51670000Y-113110000D01*
%TO.C,J54*%
X92345000Y-53925000D02*
X92345000Y-55255000D01*
X92345000Y-55255000D02*
X93675000Y-55255000D01*
X94945000Y-52595000D02*
X94945000Y-55255000D01*
X94945000Y-52595000D02*
X107705000Y-52595000D01*
X94945000Y-55255000D02*
X107705000Y-55255000D01*
X107705000Y-52595000D02*
X107705000Y-55255000D01*
%TO.C,J20*%
X145670000Y-50670000D02*
X145670000Y-52000000D01*
X145670000Y-53270000D02*
X145670000Y-71110000D01*
X147000000Y-50670000D02*
X145670000Y-50670000D01*
X148330000Y-53270000D02*
X145670000Y-53270000D01*
X148330000Y-53270000D02*
X148330000Y-71110000D01*
X148330000Y-71110000D02*
X145670000Y-71110000D01*
%TO.C,J25*%
X145670000Y-92670000D02*
X145670000Y-94000000D01*
X145670000Y-95270000D02*
X145670000Y-113110000D01*
X147000000Y-92670000D02*
X145670000Y-92670000D01*
X148330000Y-95270000D02*
X145670000Y-95270000D01*
X148330000Y-95270000D02*
X148330000Y-113110000D01*
X148330000Y-113110000D02*
X145670000Y-113110000D01*
%TO.C,J30*%
X145670000Y-133670000D02*
X145670000Y-135000000D01*
X145670000Y-136270000D02*
X145670000Y-154110000D01*
X147000000Y-133670000D02*
X145670000Y-133670000D01*
X148330000Y-136270000D02*
X145670000Y-136270000D01*
X148330000Y-136270000D02*
X148330000Y-154110000D01*
X148330000Y-154110000D02*
X145670000Y-154110000D01*
%TD*%
%LPC*%
D14*
%TO.C,R28*%
X96290000Y-119000000D03*
X103910000Y-119000000D03*
%TD*%
%TO.C,R9*%
X66590000Y-45900000D03*
X74210000Y-45900000D03*
%TD*%
D15*
%TO.C,SW2*%
X124750000Y-56450000D03*
X124750000Y-51750000D03*
X124750000Y-47050000D03*
%TD*%
D16*
%TO.C,D3*%
X80480000Y-114000000D03*
D17*
X83020000Y-114000000D03*
%TD*%
D14*
%TO.C,R49*%
X78390000Y-133700000D03*
X86010000Y-133700000D03*
%TD*%
%TO.C,R32*%
X78390000Y-92400000D03*
X86010000Y-92400000D03*
%TD*%
%TO.C,R29*%
X66590000Y-92300000D03*
X74210000Y-92300000D03*
%TD*%
%TO.C,R16*%
X78390000Y-45900000D03*
X86010000Y-45900000D03*
%TD*%
D16*
%TO.C,D1*%
X80480000Y-72500000D03*
D17*
X83020000Y-72500000D03*
%TD*%
D16*
%TO.C,D5*%
X80480000Y-155500000D03*
D17*
X83020000Y-155500000D03*
%TD*%
D15*
%TO.C,SW10*%
X124750000Y-139450000D03*
X124750000Y-134750000D03*
X124750000Y-130050000D03*
%TD*%
D18*
%TO.C,Q5*%
X87200000Y-151990000D03*
D19*
X87200000Y-149450000D03*
X87200000Y-146910000D03*
%TD*%
D14*
%TO.C,R31*%
X78390000Y-97200000D03*
X86010000Y-97200000D03*
%TD*%
%TO.C,R15*%
X78390000Y-50800000D03*
X86010000Y-50800000D03*
%TD*%
%TO.C,R13*%
X78390000Y-60800000D03*
X86010000Y-60800000D03*
%TD*%
D16*
%TO.C,D4*%
X80480000Y-119000000D03*
D17*
X83020000Y-119000000D03*
%TD*%
D20*
%TO.C,RV2*%
X95200000Y-60750000D03*
X104800000Y-60750000D03*
D16*
X97500000Y-68250000D03*
D17*
X100000000Y-68250000D03*
X102500000Y-68250000D03*
%TD*%
D15*
%TO.C,SW8*%
X141250000Y-116450000D03*
X141250000Y-111750000D03*
X141250000Y-107050000D03*
%TD*%
D21*
%TO.C,RV3*%
X57200000Y-45900000D03*
X59740000Y-45900000D03*
X62280000Y-45900000D03*
%TD*%
D20*
%TO.C,RV9*%
X62200000Y-143750000D03*
X71800000Y-143750000D03*
D16*
X64500000Y-151250000D03*
D17*
X67000000Y-151250000D03*
X69500000Y-151250000D03*
%TD*%
D20*
%TO.C,RV6*%
X95200000Y-102250000D03*
X104800000Y-102250000D03*
D16*
X97500000Y-109750000D03*
D17*
X100000000Y-109750000D03*
X102500000Y-109750000D03*
%TD*%
D14*
%TO.C,R48*%
X78390000Y-138500000D03*
X86010000Y-138500000D03*
%TD*%
%TO.C,R46*%
X66590000Y-133700000D03*
X74210000Y-133700000D03*
%TD*%
D15*
%TO.C,SW5*%
X124750000Y-116450000D03*
X124750000Y-111750000D03*
X124750000Y-107050000D03*
%TD*%
D16*
%TO.C,D6*%
X80480000Y-160500000D03*
D17*
X83020000Y-160500000D03*
%TD*%
D15*
%TO.C,SW4*%
X141250000Y-74950000D03*
X141250000Y-70250000D03*
X141250000Y-65550000D03*
%TD*%
%TO.C,SW12*%
X141250000Y-157950000D03*
X141250000Y-153250000D03*
X141250000Y-148550000D03*
%TD*%
D14*
%TO.C,R33*%
X78290000Y-87600000D03*
X85910000Y-87600000D03*
%TD*%
D16*
%TO.C,D2*%
X80480000Y-77500000D03*
D17*
X83020000Y-77500000D03*
%TD*%
D15*
%TO.C,SW9*%
X124750000Y-157950000D03*
X124750000Y-153250000D03*
X124750000Y-148550000D03*
%TD*%
%TO.C,SW7*%
X141250000Y-97950000D03*
X141250000Y-93250000D03*
X141250000Y-88550000D03*
%TD*%
D14*
%TO.C,R26*%
X66590000Y-87500000D03*
X74210000Y-87500000D03*
%TD*%
D21*
%TO.C,RV7*%
X57200000Y-87400000D03*
X59740000Y-87400000D03*
X62280000Y-87400000D03*
%TD*%
%TO.C,RV4*%
X57200000Y-76900000D03*
X59740000Y-76900000D03*
X62280000Y-76900000D03*
%TD*%
D14*
%TO.C,R50*%
X78390000Y-128900000D03*
X86010000Y-128900000D03*
%TD*%
D15*
%TO.C,SW11*%
X141250000Y-139450000D03*
X141250000Y-134750000D03*
X141250000Y-130050000D03*
%TD*%
D18*
%TO.C,Q3*%
X87200000Y-110550000D03*
D19*
X87200000Y-108010000D03*
X87200000Y-105470000D03*
%TD*%
D18*
%TO.C,Q6*%
X87200000Y-159690000D03*
D19*
X87200000Y-157150000D03*
X87200000Y-154610000D03*
%TD*%
D14*
%TO.C,R12*%
X66690000Y-50800000D03*
X74310000Y-50800000D03*
%TD*%
D21*
%TO.C,RV12*%
X57200000Y-159900000D03*
X59740000Y-159900000D03*
X62280000Y-159900000D03*
%TD*%
D18*
%TO.C,Q2*%
X87200000Y-76750000D03*
D19*
X87200000Y-74210000D03*
X87200000Y-71670000D03*
%TD*%
D14*
%TO.C,R47*%
X78390000Y-143300000D03*
X86010000Y-143300000D03*
%TD*%
D21*
%TO.C,RV8*%
X57200000Y-118400000D03*
X59740000Y-118400000D03*
X62280000Y-118400000D03*
%TD*%
D14*
%TO.C,R14*%
X78390000Y-55800000D03*
X86010000Y-55800000D03*
%TD*%
%TO.C,R45*%
X96190000Y-160400000D03*
X103810000Y-160400000D03*
%TD*%
D20*
%TO.C,RV10*%
X95200000Y-143750000D03*
X104800000Y-143750000D03*
D16*
X97500000Y-151250000D03*
D17*
X100000000Y-151250000D03*
X102500000Y-151250000D03*
%TD*%
D18*
%TO.C,Q1*%
X87200000Y-69050000D03*
D19*
X87200000Y-66510000D03*
X87200000Y-63970000D03*
%TD*%
D14*
%TO.C,R24*%
X96290000Y-114200000D03*
X103910000Y-114200000D03*
%TD*%
%TO.C,R43*%
X66590000Y-128900000D03*
X74210000Y-128900000D03*
%TD*%
%TO.C,R30*%
X78390000Y-102100000D03*
X86010000Y-102100000D03*
%TD*%
D15*
%TO.C,SW3*%
X141250000Y-56450000D03*
X141250000Y-51750000D03*
X141250000Y-47050000D03*
%TD*%
D20*
%TO.C,RV1*%
X62200000Y-60750000D03*
X71800000Y-60750000D03*
D16*
X64500000Y-68250000D03*
D17*
X67000000Y-68250000D03*
X69500000Y-68250000D03*
%TD*%
D21*
%TO.C,RV11*%
X57200000Y-128900000D03*
X59740000Y-128900000D03*
X62280000Y-128900000D03*
%TD*%
D14*
%TO.C,R11*%
X96190000Y-77500000D03*
X103810000Y-77500000D03*
%TD*%
%TO.C,R41*%
X96190000Y-155700000D03*
X103810000Y-155700000D03*
%TD*%
D18*
%TO.C,Q4*%
X87200000Y-118190000D03*
D19*
X87200000Y-115650000D03*
X87200000Y-113110000D03*
%TD*%
D15*
%TO.C,SW1*%
X124750000Y-74950000D03*
X124750000Y-70250000D03*
X124750000Y-65550000D03*
%TD*%
%TO.C,SW6*%
X124750000Y-97950000D03*
X124750000Y-93250000D03*
X124750000Y-88550000D03*
%TD*%
D14*
%TO.C,R7*%
X96190000Y-72700000D03*
X103810000Y-72700000D03*
%TD*%
D20*
%TO.C,RV5*%
X62200000Y-102250000D03*
X71800000Y-102250000D03*
D16*
X64500000Y-109750000D03*
D17*
X67000000Y-109750000D03*
X69500000Y-109750000D03*
%TD*%
D22*
%TO.C,J19*%
X53000000Y-52000000D03*
D23*
X53000000Y-54540000D03*
X53000000Y-57080000D03*
X53000000Y-59620000D03*
X53000000Y-62160000D03*
X53000000Y-64700000D03*
X53000000Y-67240000D03*
X53000000Y-69780000D03*
%TD*%
D22*
%TO.C,J29*%
X53000000Y-135000000D03*
D23*
X53000000Y-137540000D03*
X53000000Y-140080000D03*
X53000000Y-142620000D03*
X53000000Y-145160000D03*
X53000000Y-147700000D03*
X53000000Y-150240000D03*
X53000000Y-152780000D03*
%TD*%
D22*
%TO.C,J24*%
X53000000Y-94000000D03*
D23*
X53000000Y-96540000D03*
X53000000Y-99080000D03*
X53000000Y-101620000D03*
X53000000Y-104160000D03*
X53000000Y-106700000D03*
X53000000Y-109240000D03*
X53000000Y-111780000D03*
%TD*%
D22*
%TO.C,J54*%
X93675000Y-53925000D03*
D23*
X96215000Y-53925000D03*
X98755000Y-53925000D03*
X101295000Y-53925000D03*
X103835000Y-53925000D03*
X106375000Y-53925000D03*
%TD*%
D22*
%TO.C,J20*%
X147000000Y-52000000D03*
D23*
X147000000Y-54540000D03*
X147000000Y-57080000D03*
X147000000Y-59620000D03*
X147000000Y-62160000D03*
X147000000Y-64700000D03*
X147000000Y-67240000D03*
X147000000Y-69780000D03*
%TD*%
D22*
%TO.C,J25*%
X147000000Y-94000000D03*
D23*
X147000000Y-96540000D03*
X147000000Y-99080000D03*
X147000000Y-101620000D03*
X147000000Y-104160000D03*
X147000000Y-106700000D03*
X147000000Y-109240000D03*
X147000000Y-111780000D03*
%TD*%
D22*
%TO.C,J30*%
X147000000Y-135000000D03*
D23*
X147000000Y-137540000D03*
X147000000Y-140080000D03*
X147000000Y-142620000D03*
X147000000Y-145160000D03*
X147000000Y-147700000D03*
X147000000Y-150240000D03*
X147000000Y-152780000D03*
%TD*%
%LPD*%
M02*
