%TF.GenerationSoftware,KiCad,Pcbnew,9.0.7*%
%TF.CreationDate,2026-02-21T19:23:01+01:00*%
%TF.ProjectId,DMH_VCLFO_v2_PCB_Controls,444d485f-5643-44c4-964f-5f76325f5043,1*%
%TF.SameCoordinates,Original*%
%TF.FileFunction,Soldermask,Top*%
%TF.FilePolarity,Negative*%
%FSLAX46Y46*%
G04 Gerber Fmt 4.6, Leading zero omitted, Abs format (unit mm)*
G04 Created by KiCad (PCBNEW 9.0.7) date 2026-02-21 19:23:01*
%MOMM*%
%LPD*%
G01*
G04 APERTURE LIST*
%ADD10C,1.600000*%
%ADD11C,2.800000*%
%ADD12R,1.800000X1.800000*%
%ADD13C,1.800000*%
%ADD14R,1.500000X1.500000*%
%ADD15C,1.500000*%
%ADD16O,2.720000X3.240000*%
%ADD17C,1.440000*%
%ADD18R,1.700000X1.700000*%
%ADD19C,1.700000*%
G04 APERTURE END LIST*
D10*
%TO.C,R28*%
X96290000Y-119000000D03*
X103910000Y-119000000D03*
%TD*%
%TO.C,R9*%
X66590000Y-45900000D03*
X74210000Y-45900000D03*
%TD*%
D11*
%TO.C,SW2*%
X124750000Y-56450000D03*
X124750000Y-51750000D03*
X124750000Y-47050000D03*
%TD*%
D12*
%TO.C,D3*%
X80480000Y-114000000D03*
D13*
X83020000Y-114000000D03*
%TD*%
D10*
%TO.C,R49*%
X78390000Y-133700000D03*
X86010000Y-133700000D03*
%TD*%
%TO.C,R32*%
X78390000Y-92400000D03*
X86010000Y-92400000D03*
%TD*%
%TO.C,R29*%
X66590000Y-92300000D03*
X74210000Y-92300000D03*
%TD*%
%TO.C,R16*%
X78390000Y-45900000D03*
X86010000Y-45900000D03*
%TD*%
D12*
%TO.C,D1*%
X80480000Y-72500000D03*
D13*
X83020000Y-72500000D03*
%TD*%
D12*
%TO.C,D5*%
X80480000Y-155500000D03*
D13*
X83020000Y-155500000D03*
%TD*%
D11*
%TO.C,SW10*%
X124750000Y-139450000D03*
X124750000Y-134750000D03*
X124750000Y-130050000D03*
%TD*%
D14*
%TO.C,Q5*%
X87200000Y-151990000D03*
D15*
X87200000Y-149450000D03*
X87200000Y-146910000D03*
%TD*%
D10*
%TO.C,R31*%
X78390000Y-97200000D03*
X86010000Y-97200000D03*
%TD*%
%TO.C,R15*%
X78390000Y-50800000D03*
X86010000Y-50800000D03*
%TD*%
%TO.C,R13*%
X78390000Y-60800000D03*
X86010000Y-60800000D03*
%TD*%
D12*
%TO.C,D4*%
X80480000Y-119000000D03*
D13*
X83020000Y-119000000D03*
%TD*%
D16*
%TO.C,RV2*%
X95200000Y-60750000D03*
X104800000Y-60750000D03*
D12*
X97500000Y-68250000D03*
D13*
X100000000Y-68250000D03*
X102500000Y-68250000D03*
%TD*%
D11*
%TO.C,SW8*%
X141250000Y-116450000D03*
X141250000Y-111750000D03*
X141250000Y-107050000D03*
%TD*%
D17*
%TO.C,RV3*%
X57200000Y-45900000D03*
X59740000Y-45900000D03*
X62280000Y-45900000D03*
%TD*%
D16*
%TO.C,RV9*%
X62200000Y-143750000D03*
X71800000Y-143750000D03*
D12*
X64500000Y-151250000D03*
D13*
X67000000Y-151250000D03*
X69500000Y-151250000D03*
%TD*%
D16*
%TO.C,RV6*%
X95200000Y-102250000D03*
X104800000Y-102250000D03*
D12*
X97500000Y-109750000D03*
D13*
X100000000Y-109750000D03*
X102500000Y-109750000D03*
%TD*%
D10*
%TO.C,R48*%
X78390000Y-138500000D03*
X86010000Y-138500000D03*
%TD*%
%TO.C,R46*%
X66590000Y-133700000D03*
X74210000Y-133700000D03*
%TD*%
D11*
%TO.C,SW5*%
X124750000Y-116450000D03*
X124750000Y-111750000D03*
X124750000Y-107050000D03*
%TD*%
D12*
%TO.C,D6*%
X80480000Y-160500000D03*
D13*
X83020000Y-160500000D03*
%TD*%
D11*
%TO.C,SW4*%
X141250000Y-74950000D03*
X141250000Y-70250000D03*
X141250000Y-65550000D03*
%TD*%
%TO.C,SW12*%
X141250000Y-157950000D03*
X141250000Y-153250000D03*
X141250000Y-148550000D03*
%TD*%
D10*
%TO.C,R33*%
X78290000Y-87600000D03*
X85910000Y-87600000D03*
%TD*%
D12*
%TO.C,D2*%
X80480000Y-77500000D03*
D13*
X83020000Y-77500000D03*
%TD*%
D11*
%TO.C,SW9*%
X124750000Y-157950000D03*
X124750000Y-153250000D03*
X124750000Y-148550000D03*
%TD*%
%TO.C,SW7*%
X141250000Y-97950000D03*
X141250000Y-93250000D03*
X141250000Y-88550000D03*
%TD*%
D10*
%TO.C,R26*%
X66590000Y-87500000D03*
X74210000Y-87500000D03*
%TD*%
D17*
%TO.C,RV7*%
X57200000Y-87400000D03*
X59740000Y-87400000D03*
X62280000Y-87400000D03*
%TD*%
%TO.C,RV4*%
X57200000Y-76900000D03*
X59740000Y-76900000D03*
X62280000Y-76900000D03*
%TD*%
D10*
%TO.C,R50*%
X78390000Y-128900000D03*
X86010000Y-128900000D03*
%TD*%
D11*
%TO.C,SW11*%
X141250000Y-139450000D03*
X141250000Y-134750000D03*
X141250000Y-130050000D03*
%TD*%
D14*
%TO.C,Q3*%
X87200000Y-110550000D03*
D15*
X87200000Y-108010000D03*
X87200000Y-105470000D03*
%TD*%
D14*
%TO.C,Q6*%
X87200000Y-159690000D03*
D15*
X87200000Y-157150000D03*
X87200000Y-154610000D03*
%TD*%
D10*
%TO.C,R12*%
X66690000Y-50800000D03*
X74310000Y-50800000D03*
%TD*%
D17*
%TO.C,RV12*%
X57200000Y-159900000D03*
X59740000Y-159900000D03*
X62280000Y-159900000D03*
%TD*%
D14*
%TO.C,Q2*%
X87200000Y-76750000D03*
D15*
X87200000Y-74210000D03*
X87200000Y-71670000D03*
%TD*%
D10*
%TO.C,R47*%
X78390000Y-143300000D03*
X86010000Y-143300000D03*
%TD*%
D17*
%TO.C,RV8*%
X57200000Y-118400000D03*
X59740000Y-118400000D03*
X62280000Y-118400000D03*
%TD*%
D10*
%TO.C,R14*%
X78390000Y-55800000D03*
X86010000Y-55800000D03*
%TD*%
%TO.C,R45*%
X96190000Y-160400000D03*
X103810000Y-160400000D03*
%TD*%
D16*
%TO.C,RV10*%
X95200000Y-143750000D03*
X104800000Y-143750000D03*
D12*
X97500000Y-151250000D03*
D13*
X100000000Y-151250000D03*
X102500000Y-151250000D03*
%TD*%
D14*
%TO.C,Q1*%
X87200000Y-69050000D03*
D15*
X87200000Y-66510000D03*
X87200000Y-63970000D03*
%TD*%
D10*
%TO.C,R24*%
X96290000Y-114200000D03*
X103910000Y-114200000D03*
%TD*%
%TO.C,R43*%
X66590000Y-128900000D03*
X74210000Y-128900000D03*
%TD*%
%TO.C,R30*%
X78390000Y-102100000D03*
X86010000Y-102100000D03*
%TD*%
D11*
%TO.C,SW3*%
X141250000Y-56450000D03*
X141250000Y-51750000D03*
X141250000Y-47050000D03*
%TD*%
D16*
%TO.C,RV1*%
X62200000Y-60750000D03*
X71800000Y-60750000D03*
D12*
X64500000Y-68250000D03*
D13*
X67000000Y-68250000D03*
X69500000Y-68250000D03*
%TD*%
D17*
%TO.C,RV11*%
X57200000Y-128900000D03*
X59740000Y-128900000D03*
X62280000Y-128900000D03*
%TD*%
D10*
%TO.C,R11*%
X96190000Y-77500000D03*
X103810000Y-77500000D03*
%TD*%
%TO.C,R41*%
X96190000Y-155700000D03*
X103810000Y-155700000D03*
%TD*%
D14*
%TO.C,Q4*%
X87200000Y-118190000D03*
D15*
X87200000Y-115650000D03*
X87200000Y-113110000D03*
%TD*%
D11*
%TO.C,SW1*%
X124750000Y-74950000D03*
X124750000Y-70250000D03*
X124750000Y-65550000D03*
%TD*%
%TO.C,SW6*%
X124750000Y-97950000D03*
X124750000Y-93250000D03*
X124750000Y-88550000D03*
%TD*%
D10*
%TO.C,R7*%
X96190000Y-72700000D03*
X103810000Y-72700000D03*
%TD*%
D16*
%TO.C,RV5*%
X62200000Y-102250000D03*
X71800000Y-102250000D03*
D12*
X64500000Y-109750000D03*
D13*
X67000000Y-109750000D03*
X69500000Y-109750000D03*
%TD*%
D18*
%TO.C,J19*%
X53000000Y-52000000D03*
D19*
X53000000Y-54540000D03*
X53000000Y-57080000D03*
X53000000Y-59620000D03*
X53000000Y-62160000D03*
X53000000Y-64700000D03*
X53000000Y-67240000D03*
X53000000Y-69780000D03*
%TD*%
D18*
%TO.C,J29*%
X53000000Y-135000000D03*
D19*
X53000000Y-137540000D03*
X53000000Y-140080000D03*
X53000000Y-142620000D03*
X53000000Y-145160000D03*
X53000000Y-147700000D03*
X53000000Y-150240000D03*
X53000000Y-152780000D03*
%TD*%
D18*
%TO.C,J24*%
X53000000Y-94000000D03*
D19*
X53000000Y-96540000D03*
X53000000Y-99080000D03*
X53000000Y-101620000D03*
X53000000Y-104160000D03*
X53000000Y-106700000D03*
X53000000Y-109240000D03*
X53000000Y-111780000D03*
%TD*%
D18*
%TO.C,J54*%
X93675000Y-53925000D03*
D19*
X96215000Y-53925000D03*
X98755000Y-53925000D03*
X101295000Y-53925000D03*
X103835000Y-53925000D03*
X106375000Y-53925000D03*
%TD*%
D18*
%TO.C,J20*%
X147000000Y-52000000D03*
D19*
X147000000Y-54540000D03*
X147000000Y-57080000D03*
X147000000Y-59620000D03*
X147000000Y-62160000D03*
X147000000Y-64700000D03*
X147000000Y-67240000D03*
X147000000Y-69780000D03*
%TD*%
D18*
%TO.C,J25*%
X147000000Y-94000000D03*
D19*
X147000000Y-96540000D03*
X147000000Y-99080000D03*
X147000000Y-101620000D03*
X147000000Y-104160000D03*
X147000000Y-106700000D03*
X147000000Y-109240000D03*
X147000000Y-111780000D03*
%TD*%
D18*
%TO.C,J30*%
X147000000Y-135000000D03*
D19*
X147000000Y-137540000D03*
X147000000Y-140080000D03*
X147000000Y-142620000D03*
X147000000Y-145160000D03*
X147000000Y-147700000D03*
X147000000Y-150240000D03*
X147000000Y-152780000D03*
%TD*%
M02*
