%TF.GenerationSoftware,KiCad,Pcbnew,9.0.7*%
%TF.CreationDate,2026-02-21T19:30:22+01:00*%
%TF.ProjectId,DMH_VCLFO_PANEL,444d485f-5643-44c4-964f-5f50414e454c,rev?*%
%TF.SameCoordinates,Original*%
%TF.FileFunction,Soldermask,Top*%
%TF.FilePolarity,Negative*%
%FSLAX46Y46*%
G04 Gerber Fmt 4.6, Leading zero omitted, Abs format (unit mm)*
G04 Created by KiCad (PCBNEW 9.0.7) date 2026-02-21 19:30:22*
%MOMM*%
%LPD*%
G01*
G04 APERTURE LIST*
%ADD10C,0.500000*%
%ADD11C,12.000000*%
%ADD12C,4.000000*%
%ADD13C,2.900000*%
%ADD14C,13.000000*%
%ADD15C,3.100000*%
%ADD16O,2.500000X1.500000*%
%ADD17C,2.500000*%
G04 APERTURE END LIST*
D10*
%TO.C,H30*%
X53050000Y-208750000D03*
X54710000Y-204720000D03*
X54720000Y-212790000D03*
X58750000Y-203050000D03*
D11*
X58750000Y-208750000D03*
D10*
X58750000Y-214450000D03*
X62780000Y-212790000D03*
X62790000Y-204720000D03*
X64450000Y-208750000D03*
%TD*%
D12*
%TO.C,H3*%
X53500000Y-226500000D03*
%TD*%
D10*
%TO.C,H11*%
X135550000Y-171750000D03*
X137210000Y-167720000D03*
X137220000Y-175790000D03*
X141250000Y-166050000D03*
D11*
X141250000Y-171750000D03*
D10*
X141250000Y-177450000D03*
X145280000Y-175790000D03*
X145290000Y-167720000D03*
X146950000Y-171750000D03*
%TD*%
%TO.C,H21*%
X69550000Y-171750000D03*
X71210000Y-167720000D03*
X71220000Y-175790000D03*
X75250000Y-166050000D03*
D11*
X75250000Y-171750000D03*
D10*
X75250000Y-177450000D03*
X79280000Y-175790000D03*
X79290000Y-167720000D03*
X80950000Y-171750000D03*
%TD*%
D13*
%TO.C,H42*%
X124750000Y-87150000D03*
D14*
X124750000Y-93250000D03*
%TD*%
D10*
%TO.C,H33*%
X119050000Y-208750000D03*
X120710000Y-204720000D03*
X120720000Y-212790000D03*
X124750000Y-203050000D03*
D11*
X124750000Y-208750000D03*
D10*
X124750000Y-214450000D03*
X128780000Y-212790000D03*
X128790000Y-204720000D03*
X130450000Y-208750000D03*
%TD*%
D13*
%TO.C,H29*%
X141250000Y-147150000D03*
D14*
X141250000Y-153250000D03*
%TD*%
D15*
%TO.C,H36*%
X81750000Y-77500000D03*
%TD*%
D10*
%TO.C,H34*%
X135550000Y-208750000D03*
X137210000Y-204720000D03*
X137220000Y-212790000D03*
X141250000Y-203050000D03*
D11*
X141250000Y-208750000D03*
D10*
X141250000Y-214450000D03*
X145280000Y-212790000D03*
X145290000Y-204720000D03*
X146950000Y-208750000D03*
%TD*%
D11*
%TO.C,H13*%
X67000000Y-60750000D03*
D16*
X67000000Y-66750000D03*
%TD*%
D13*
%TO.C,H19*%
X141250000Y-105650000D03*
D14*
X141250000Y-111750000D03*
%TD*%
D15*
%TO.C,H38*%
X81750000Y-160500000D03*
%TD*%
%TO.C,H37*%
X81750000Y-119000000D03*
%TD*%
%TO.C,H25*%
X81750000Y-155500000D03*
%TD*%
D13*
%TO.C,H41*%
X124750000Y-45650000D03*
D14*
X124750000Y-51750000D03*
%TD*%
D15*
%TO.C,H14*%
X81750000Y-72500000D03*
%TD*%
D17*
%TO.C,H49*%
X56250000Y-158750000D03*
%TD*%
D13*
%TO.C,H27*%
X141250000Y-128650000D03*
D14*
X141250000Y-134750000D03*
%TD*%
D10*
%TO.C,H10*%
X119050000Y-171750000D03*
X120710000Y-167720000D03*
X120720000Y-175790000D03*
X124750000Y-166050000D03*
D11*
X124750000Y-171750000D03*
D10*
X124750000Y-177450000D03*
X128780000Y-175790000D03*
X128790000Y-167720000D03*
X130450000Y-171750000D03*
%TD*%
D11*
%TO.C,H16*%
X100000000Y-102250000D03*
D16*
X100000000Y-108250000D03*
%TD*%
D10*
%TO.C,H22*%
X102550000Y-190250000D03*
X104210000Y-186220000D03*
X104220000Y-194290000D03*
X108250000Y-184550000D03*
D11*
X108250000Y-190250000D03*
D10*
X108250000Y-195950000D03*
X112280000Y-194290000D03*
X112290000Y-186220000D03*
X113950000Y-190250000D03*
%TD*%
%TO.C,H9*%
X102550000Y-171750000D03*
X104210000Y-167720000D03*
X104220000Y-175790000D03*
X108250000Y-166050000D03*
D11*
X108250000Y-171750000D03*
D10*
X108250000Y-177450000D03*
X112280000Y-175790000D03*
X112290000Y-167720000D03*
X113950000Y-171750000D03*
%TD*%
D15*
%TO.C,H15*%
X81750000Y-114000000D03*
%TD*%
D11*
%TO.C,H26*%
X100000000Y-143750000D03*
D16*
X100000000Y-149750000D03*
%TD*%
D13*
%TO.C,H46*%
X124750000Y-147150000D03*
D14*
X124750000Y-153250000D03*
%TD*%
D11*
%TO.C,H28*%
X67000000Y-143750000D03*
D16*
X67000000Y-149750000D03*
%TD*%
D10*
%TO.C,H20*%
X53050000Y-190250000D03*
X54710000Y-186220000D03*
X54720000Y-194290000D03*
X58750000Y-184550000D03*
D11*
X58750000Y-190250000D03*
D10*
X58750000Y-195950000D03*
X62780000Y-194290000D03*
X62790000Y-186220000D03*
X64450000Y-190250000D03*
%TD*%
D13*
%TO.C,H6*%
X141250000Y-64150000D03*
D14*
X141250000Y-70250000D03*
%TD*%
D10*
%TO.C,H24*%
X135550000Y-190250000D03*
X137210000Y-186220000D03*
X137220000Y-194290000D03*
X141250000Y-184550000D03*
D11*
X141250000Y-190250000D03*
D10*
X141250000Y-195950000D03*
X145280000Y-194290000D03*
X145290000Y-186220000D03*
X146950000Y-190250000D03*
%TD*%
D13*
%TO.C,H45*%
X124750000Y-105650000D03*
D14*
X124750000Y-111750000D03*
%TD*%
D10*
%TO.C,H39*%
X86050000Y-190250000D03*
X87710000Y-186220000D03*
X87720000Y-194290000D03*
X91750000Y-184550000D03*
D11*
X91750000Y-190250000D03*
D10*
X91750000Y-195950000D03*
X95780000Y-194290000D03*
X95790000Y-186220000D03*
X97450000Y-190250000D03*
%TD*%
D17*
%TO.C,H52*%
X56250000Y-127750000D03*
%TD*%
D10*
%TO.C,H8*%
X86050000Y-171750000D03*
X87710000Y-167720000D03*
X87720000Y-175790000D03*
X91750000Y-166050000D03*
D11*
X91750000Y-171750000D03*
D10*
X91750000Y-177450000D03*
X95780000Y-175790000D03*
X95790000Y-167720000D03*
X97450000Y-171750000D03*
%TD*%
%TO.C,H35*%
X69550000Y-208750000D03*
X71210000Y-204720000D03*
X71220000Y-212790000D03*
X75250000Y-203050000D03*
D11*
X75250000Y-208750000D03*
D10*
X75250000Y-214450000D03*
X79280000Y-212790000D03*
X79290000Y-204720000D03*
X80950000Y-208750000D03*
%TD*%
%TO.C,H23*%
X119050000Y-190250000D03*
X120710000Y-186220000D03*
X120720000Y-194290000D03*
X124750000Y-184550000D03*
D11*
X124750000Y-190250000D03*
D10*
X124750000Y-195950000D03*
X128780000Y-194290000D03*
X128790000Y-186220000D03*
X130450000Y-190250000D03*
%TD*%
D17*
%TO.C,H48*%
X56250000Y-117250000D03*
%TD*%
D10*
%TO.C,H5*%
X53050000Y-171750000D03*
X54710000Y-167720000D03*
X54720000Y-175790000D03*
X58750000Y-166050000D03*
D11*
X58750000Y-171750000D03*
D10*
X58750000Y-177450000D03*
X62780000Y-175790000D03*
X62790000Y-167720000D03*
X64450000Y-171750000D03*
%TD*%
D17*
%TO.C,H51*%
X56250000Y-86250000D03*
%TD*%
D13*
%TO.C,H44*%
X125000000Y-64150000D03*
D14*
X125000000Y-70250000D03*
%TD*%
D10*
%TO.C,H32*%
X102550000Y-208750000D03*
X104210000Y-204720000D03*
X104220000Y-212790000D03*
X108250000Y-203050000D03*
D11*
X108250000Y-208750000D03*
D10*
X108250000Y-214450000D03*
X112280000Y-212790000D03*
X112290000Y-204720000D03*
X113950000Y-208750000D03*
%TD*%
D13*
%TO.C,H7*%
X141250000Y-45650000D03*
D14*
X141250000Y-51750000D03*
%TD*%
D10*
%TO.C,H31*%
X69550000Y-190250000D03*
X71210000Y-186220000D03*
X71220000Y-194290000D03*
X75250000Y-184550000D03*
D11*
X75250000Y-190250000D03*
D10*
X75250000Y-195950000D03*
X79280000Y-194290000D03*
X79290000Y-186220000D03*
X80950000Y-190250000D03*
%TD*%
D12*
%TO.C,H2*%
X146500000Y-33500000D03*
%TD*%
%TO.C,H4*%
X146500000Y-226500000D03*
%TD*%
D17*
%TO.C,H50*%
X56250000Y-44750000D03*
%TD*%
D13*
%TO.C,H43*%
X124750000Y-128650000D03*
D14*
X124750000Y-134750000D03*
%TD*%
D11*
%TO.C,H12*%
X100000000Y-60750000D03*
D16*
X100000000Y-66750000D03*
%TD*%
D10*
%TO.C,H40*%
X86050000Y-208750000D03*
X87710000Y-204720000D03*
X87720000Y-212790000D03*
X91750000Y-203050000D03*
D11*
X91750000Y-208750000D03*
D10*
X91750000Y-214450000D03*
X95780000Y-212790000D03*
X95790000Y-204720000D03*
X97450000Y-208750000D03*
%TD*%
D12*
%TO.C,H1*%
X53500000Y-33500000D03*
%TD*%
D17*
%TO.C,H47*%
X56250000Y-75750000D03*
%TD*%
D13*
%TO.C,H17*%
X141250000Y-87150000D03*
D14*
X141250000Y-93250000D03*
%TD*%
D11*
%TO.C,H18*%
X67000000Y-102250000D03*
D16*
X67000000Y-108250000D03*
%TD*%
M02*
