%TF.GenerationSoftware,KiCad,Pcbnew,9.0.7*%
%TF.CreationDate,2026-02-21T19:30:22+01:00*%
%TF.ProjectId,DMH_VCLFO_PANEL,444d485f-5643-44c4-964f-5f50414e454c,rev?*%
%TF.SameCoordinates,Original*%
%TF.FileFunction,Copper,L2,Bot*%
%TF.FilePolarity,Positive*%
%FSLAX46Y46*%
G04 Gerber Fmt 4.6, Leading zero omitted, Abs format (unit mm)*
G04 Created by KiCad (PCBNEW 9.0.7) date 2026-02-21 19:30:22*
%MOMM*%
%LPD*%
G01*
G04 APERTURE LIST*
%TA.AperFunction,ComponentPad*%
%ADD10C,0.500000*%
%TD*%
%TA.AperFunction,ConnectorPad*%
%ADD11C,12.000000*%
%TD*%
%TA.AperFunction,ComponentPad*%
%ADD12C,4.000000*%
%TD*%
%TA.AperFunction,ComponentPad*%
%ADD13C,2.900000*%
%TD*%
%TA.AperFunction,ComponentPad*%
%ADD14C,13.000000*%
%TD*%
%TA.AperFunction,ComponentPad*%
%ADD15O,2.500000X1.500000*%
%TD*%
%TA.AperFunction,SMDPad,CuDef*%
%ADD16R,5.000000X10.000000*%
%TD*%
G04 APERTURE END LIST*
D10*
%TO.P,H30,1,1*%
%TO.N,GND*%
X53050000Y-208750000D03*
X54710000Y-204720000D03*
X54720000Y-212790000D03*
X58750000Y-203050000D03*
D11*
X58750000Y-208750000D03*
D10*
X58750000Y-214450000D03*
X62780000Y-212790000D03*
X62790000Y-204720000D03*
X64450000Y-208750000D03*
%TD*%
D12*
%TO.P,H3,1,1*%
%TO.N,GND*%
X53500000Y-226500000D03*
%TD*%
D10*
%TO.P,H11,1,1*%
%TO.N,GND*%
X135550000Y-171750000D03*
X137210000Y-167720000D03*
X137220000Y-175790000D03*
X141250000Y-166050000D03*
D11*
X141250000Y-171750000D03*
D10*
X141250000Y-177450000D03*
X145280000Y-175790000D03*
X145290000Y-167720000D03*
X146950000Y-171750000D03*
%TD*%
%TO.P,H21,1,1*%
%TO.N,GND*%
X69550000Y-171750000D03*
X71210000Y-167720000D03*
X71220000Y-175790000D03*
X75250000Y-166050000D03*
D11*
X75250000Y-171750000D03*
D10*
X75250000Y-177450000D03*
X79280000Y-175790000D03*
X79290000Y-167720000D03*
X80950000Y-171750000D03*
%TD*%
D13*
%TO.P,H42,1,1*%
%TO.N,GND*%
X124750000Y-87150000D03*
D14*
X124750000Y-93250000D03*
%TD*%
D10*
%TO.P,H33,1,1*%
%TO.N,GND*%
X119050000Y-208750000D03*
X120710000Y-204720000D03*
X120720000Y-212790000D03*
X124750000Y-203050000D03*
D11*
X124750000Y-208750000D03*
D10*
X124750000Y-214450000D03*
X128780000Y-212790000D03*
X128790000Y-204720000D03*
X130450000Y-208750000D03*
%TD*%
D13*
%TO.P,H29,1,1*%
%TO.N,GND*%
X141250000Y-147150000D03*
D14*
X141250000Y-153250000D03*
%TD*%
D10*
%TO.P,H34,1,1*%
%TO.N,GND*%
X135550000Y-208750000D03*
X137210000Y-204720000D03*
X137220000Y-212790000D03*
X141250000Y-203050000D03*
D11*
X141250000Y-208750000D03*
D10*
X141250000Y-214450000D03*
X145280000Y-212790000D03*
X145290000Y-204720000D03*
X146950000Y-208750000D03*
%TD*%
D11*
%TO.P,H13,1,1*%
%TO.N,GND*%
X67000000Y-60750000D03*
D15*
X67000000Y-66750000D03*
%TD*%
D13*
%TO.P,H19,1,1*%
%TO.N,GND*%
X141250000Y-105650000D03*
D14*
X141250000Y-111750000D03*
%TD*%
D13*
%TO.P,H41,1,1*%
%TO.N,GND*%
X124750000Y-45650000D03*
D14*
X124750000Y-51750000D03*
%TD*%
D13*
%TO.P,H27,1,1*%
%TO.N,GND*%
X141250000Y-128650000D03*
D14*
X141250000Y-134750000D03*
%TD*%
D10*
%TO.P,H10,1,1*%
%TO.N,GND*%
X119050000Y-171750000D03*
X120710000Y-167720000D03*
X120720000Y-175790000D03*
X124750000Y-166050000D03*
D11*
X124750000Y-171750000D03*
D10*
X124750000Y-177450000D03*
X128780000Y-175790000D03*
X128790000Y-167720000D03*
X130450000Y-171750000D03*
%TD*%
D11*
%TO.P,H16,1,1*%
%TO.N,GND*%
X100000000Y-102250000D03*
D15*
X100000000Y-108250000D03*
%TD*%
D10*
%TO.P,H22,1,1*%
%TO.N,GND*%
X102550000Y-190250000D03*
X104210000Y-186220000D03*
X104220000Y-194290000D03*
X108250000Y-184550000D03*
D11*
X108250000Y-190250000D03*
D10*
X108250000Y-195950000D03*
X112280000Y-194290000D03*
X112290000Y-186220000D03*
X113950000Y-190250000D03*
%TD*%
%TO.P,H9,1,1*%
%TO.N,GND*%
X102550000Y-171750000D03*
X104210000Y-167720000D03*
X104220000Y-175790000D03*
X108250000Y-166050000D03*
D11*
X108250000Y-171750000D03*
D10*
X108250000Y-177450000D03*
X112280000Y-175790000D03*
X112290000Y-167720000D03*
X113950000Y-171750000D03*
%TD*%
D11*
%TO.P,H26,1,1*%
%TO.N,GND*%
X100000000Y-143750000D03*
D15*
X100000000Y-149750000D03*
%TD*%
D13*
%TO.P,H46,1,1*%
%TO.N,GND*%
X124750000Y-147150000D03*
D14*
X124750000Y-153250000D03*
%TD*%
D11*
%TO.P,H28,1,1*%
%TO.N,GND*%
X67000000Y-143750000D03*
D15*
X67000000Y-149750000D03*
%TD*%
D10*
%TO.P,H20,1,1*%
%TO.N,GND*%
X53050000Y-190250000D03*
X54710000Y-186220000D03*
X54720000Y-194290000D03*
X58750000Y-184550000D03*
D11*
X58750000Y-190250000D03*
D10*
X58750000Y-195950000D03*
X62780000Y-194290000D03*
X62790000Y-186220000D03*
X64450000Y-190250000D03*
%TD*%
D13*
%TO.P,H6,1,1*%
%TO.N,GND*%
X141250000Y-64150000D03*
D14*
X141250000Y-70250000D03*
%TD*%
D10*
%TO.P,H24,1,1*%
%TO.N,GND*%
X135550000Y-190250000D03*
X137210000Y-186220000D03*
X137220000Y-194290000D03*
X141250000Y-184550000D03*
D11*
X141250000Y-190250000D03*
D10*
X141250000Y-195950000D03*
X145280000Y-194290000D03*
X145290000Y-186220000D03*
X146950000Y-190250000D03*
%TD*%
D13*
%TO.P,H45,1,1*%
%TO.N,GND*%
X124750000Y-105650000D03*
D14*
X124750000Y-111750000D03*
%TD*%
D10*
%TO.P,H39,1,1*%
%TO.N,GND*%
X86050000Y-190250000D03*
X87710000Y-186220000D03*
X87720000Y-194290000D03*
X91750000Y-184550000D03*
D11*
X91750000Y-190250000D03*
D10*
X91750000Y-195950000D03*
X95780000Y-194290000D03*
X95790000Y-186220000D03*
X97450000Y-190250000D03*
%TD*%
%TO.P,H8,1,1*%
%TO.N,GND*%
X86050000Y-171750000D03*
X87710000Y-167720000D03*
X87720000Y-175790000D03*
X91750000Y-166050000D03*
D11*
X91750000Y-171750000D03*
D10*
X91750000Y-177450000D03*
X95780000Y-175790000D03*
X95790000Y-167720000D03*
X97450000Y-171750000D03*
%TD*%
%TO.P,H35,1,1*%
%TO.N,GND*%
X69550000Y-208750000D03*
X71210000Y-204720000D03*
X71220000Y-212790000D03*
X75250000Y-203050000D03*
D11*
X75250000Y-208750000D03*
D10*
X75250000Y-214450000D03*
X79280000Y-212790000D03*
X79290000Y-204720000D03*
X80950000Y-208750000D03*
%TD*%
%TO.P,H23,1,1*%
%TO.N,GND*%
X119050000Y-190250000D03*
X120710000Y-186220000D03*
X120720000Y-194290000D03*
X124750000Y-184550000D03*
D11*
X124750000Y-190250000D03*
D10*
X124750000Y-195950000D03*
X128780000Y-194290000D03*
X128790000Y-186220000D03*
X130450000Y-190250000D03*
%TD*%
%TO.P,H5,1,1*%
%TO.N,GND*%
X53050000Y-171750000D03*
X54710000Y-167720000D03*
X54720000Y-175790000D03*
X58750000Y-166050000D03*
D11*
X58750000Y-171750000D03*
D10*
X58750000Y-177450000D03*
X62780000Y-175790000D03*
X62790000Y-167720000D03*
X64450000Y-171750000D03*
%TD*%
D13*
%TO.P,H44,1,1*%
%TO.N,GND*%
X125000000Y-64150000D03*
D14*
X125000000Y-70250000D03*
%TD*%
D10*
%TO.P,H32,1,1*%
%TO.N,GND*%
X102550000Y-208750000D03*
X104210000Y-204720000D03*
X104220000Y-212790000D03*
X108250000Y-203050000D03*
D11*
X108250000Y-208750000D03*
D10*
X108250000Y-214450000D03*
X112280000Y-212790000D03*
X112290000Y-204720000D03*
X113950000Y-208750000D03*
%TD*%
D13*
%TO.P,H7,1,1*%
%TO.N,GND*%
X141250000Y-45650000D03*
D14*
X141250000Y-51750000D03*
%TD*%
D10*
%TO.P,H31,1,1*%
%TO.N,GND*%
X69550000Y-190250000D03*
X71210000Y-186220000D03*
X71220000Y-194290000D03*
X75250000Y-184550000D03*
D11*
X75250000Y-190250000D03*
D10*
X75250000Y-195950000D03*
X79280000Y-194290000D03*
X79290000Y-186220000D03*
X80950000Y-190250000D03*
%TD*%
D12*
%TO.P,H2,1,1*%
%TO.N,GND*%
X146500000Y-33500000D03*
%TD*%
%TO.P,H4,1,1*%
%TO.N,GND*%
X146500000Y-226500000D03*
%TD*%
D13*
%TO.P,H43,1,1*%
%TO.N,GND*%
X124750000Y-128650000D03*
D14*
X124750000Y-134750000D03*
%TD*%
D11*
%TO.P,H12,1,1*%
%TO.N,GND*%
X100000000Y-60750000D03*
D15*
X100000000Y-66750000D03*
%TD*%
D10*
%TO.P,H40,1,1*%
%TO.N,GND*%
X86050000Y-208750000D03*
X87710000Y-204720000D03*
X87720000Y-212790000D03*
X91750000Y-203050000D03*
D11*
X91750000Y-208750000D03*
D10*
X91750000Y-214450000D03*
X95780000Y-212790000D03*
X95790000Y-204720000D03*
X97450000Y-208750000D03*
%TD*%
D12*
%TO.P,H1,1,1*%
%TO.N,GND*%
X53500000Y-33500000D03*
%TD*%
D13*
%TO.P,H17,1,1*%
%TO.N,GND*%
X141250000Y-87150000D03*
D14*
X141250000Y-93250000D03*
%TD*%
D11*
%TO.P,H18,1,1*%
%TO.N,GND*%
X67000000Y-102250000D03*
D15*
X67000000Y-108250000D03*
%TD*%
D16*
%TO.P,J0,1,Pin_1*%
%TO.N,GND*%
X55000000Y-142545670D03*
%TD*%
%TA.AperFunction,Conductor*%
%TO.N,GND*%
G36*
X149442539Y-30520185D02*
G01*
X149488294Y-30572989D01*
X149499500Y-30624500D01*
X149499500Y-229375500D01*
X149479815Y-229442539D01*
X149427011Y-229488294D01*
X149375500Y-229499500D01*
X50624500Y-229499500D01*
X50557461Y-229479815D01*
X50511706Y-229427011D01*
X50500500Y-229375500D01*
X50500500Y-208537814D01*
X53349500Y-208537814D01*
X53349500Y-208558097D01*
X53349500Y-208962186D01*
X53382796Y-209385250D01*
X53449182Y-209804398D01*
X53548250Y-210217045D01*
X53548254Y-210217056D01*
X53679385Y-210620641D01*
X53746000Y-210781463D01*
X53841789Y-211012716D01*
X54034450Y-211390835D01*
X54034457Y-211390848D01*
X54034460Y-211390853D01*
X54057375Y-211428246D01*
X54256184Y-211752672D01*
X54256192Y-211752683D01*
X54256198Y-211752692D01*
X54505617Y-212095989D01*
X54505627Y-212096003D01*
X54628919Y-212240358D01*
X54781231Y-212418692D01*
X55081308Y-212718769D01*
X55081314Y-212718774D01*
X55403996Y-212994372D01*
X55404010Y-212994382D01*
X55611749Y-213145313D01*
X55747328Y-213243816D01*
X55875685Y-213322473D01*
X56109146Y-213465539D01*
X56109151Y-213465542D01*
X56109156Y-213465544D01*
X56109165Y-213465550D01*
X56487284Y-213658211D01*
X56879353Y-213820612D01*
X56879358Y-213820614D01*
X56981979Y-213853957D01*
X57282955Y-213951750D01*
X57695602Y-214050818D01*
X58114750Y-214117204D01*
X58537814Y-214150500D01*
X58537822Y-214150500D01*
X58962178Y-214150500D01*
X58962186Y-214150500D01*
X59385250Y-214117204D01*
X59804398Y-214050818D01*
X60217045Y-213951750D01*
X60620647Y-213820612D01*
X61012716Y-213658211D01*
X61390835Y-213465550D01*
X61752672Y-213243816D01*
X62095997Y-212994377D01*
X62418692Y-212718769D01*
X62718769Y-212418692D01*
X62994377Y-212095997D01*
X63243816Y-211752672D01*
X63465550Y-211390835D01*
X63658211Y-211012716D01*
X63820612Y-210620647D01*
X63951750Y-210217045D01*
X64050818Y-209804398D01*
X64117204Y-209385250D01*
X64150500Y-208962186D01*
X64150500Y-208537814D01*
X69849500Y-208537814D01*
X69849500Y-208558097D01*
X69849500Y-208962186D01*
X69882796Y-209385250D01*
X69949182Y-209804398D01*
X70048250Y-210217045D01*
X70048254Y-210217056D01*
X70179385Y-210620641D01*
X70246000Y-210781463D01*
X70341789Y-211012716D01*
X70534450Y-211390835D01*
X70534457Y-211390848D01*
X70534460Y-211390853D01*
X70557375Y-211428246D01*
X70756184Y-211752672D01*
X70756192Y-211752683D01*
X70756198Y-211752692D01*
X71005617Y-212095989D01*
X71005627Y-212096003D01*
X71128919Y-212240358D01*
X71281231Y-212418692D01*
X71581308Y-212718769D01*
X71581314Y-212718774D01*
X71903996Y-212994372D01*
X71904010Y-212994382D01*
X72111749Y-213145313D01*
X72247328Y-213243816D01*
X72375685Y-213322473D01*
X72609146Y-213465539D01*
X72609151Y-213465542D01*
X72609156Y-213465544D01*
X72609165Y-213465550D01*
X72987284Y-213658211D01*
X73379353Y-213820612D01*
X73379358Y-213820614D01*
X73481979Y-213853957D01*
X73782955Y-213951750D01*
X74195602Y-214050818D01*
X74614750Y-214117204D01*
X75037814Y-214150500D01*
X75037822Y-214150500D01*
X75462178Y-214150500D01*
X75462186Y-214150500D01*
X75885250Y-214117204D01*
X76304398Y-214050818D01*
X76717045Y-213951750D01*
X77120647Y-213820612D01*
X77512716Y-213658211D01*
X77890835Y-213465550D01*
X78252672Y-213243816D01*
X78595997Y-212994377D01*
X78918692Y-212718769D01*
X79218769Y-212418692D01*
X79494377Y-212095997D01*
X79743816Y-211752672D01*
X79965550Y-211390835D01*
X80158211Y-211012716D01*
X80320612Y-210620647D01*
X80451750Y-210217045D01*
X80550818Y-209804398D01*
X80617204Y-209385250D01*
X80650500Y-208962186D01*
X80650500Y-208537814D01*
X86349500Y-208537814D01*
X86349500Y-208558097D01*
X86349500Y-208962186D01*
X86382796Y-209385250D01*
X86449182Y-209804398D01*
X86548250Y-210217045D01*
X86548254Y-210217056D01*
X86679385Y-210620641D01*
X86746000Y-210781463D01*
X86841789Y-211012716D01*
X87034450Y-211390835D01*
X87034457Y-211390848D01*
X87034460Y-211390853D01*
X87057375Y-211428246D01*
X87256184Y-211752672D01*
X87256192Y-211752683D01*
X87256198Y-211752692D01*
X87505617Y-212095989D01*
X87505627Y-212096003D01*
X87628919Y-212240358D01*
X87781231Y-212418692D01*
X88081308Y-212718769D01*
X88081314Y-212718774D01*
X88403996Y-212994372D01*
X88404010Y-212994382D01*
X88611749Y-213145313D01*
X88747328Y-213243816D01*
X88875685Y-213322473D01*
X89109146Y-213465539D01*
X89109151Y-213465542D01*
X89109156Y-213465544D01*
X89109165Y-213465550D01*
X89487284Y-213658211D01*
X89879353Y-213820612D01*
X89879358Y-213820614D01*
X89981979Y-213853957D01*
X90282955Y-213951750D01*
X90695602Y-214050818D01*
X91114750Y-214117204D01*
X91537814Y-214150500D01*
X91537822Y-214150500D01*
X91962178Y-214150500D01*
X91962186Y-214150500D01*
X92385250Y-214117204D01*
X92804398Y-214050818D01*
X93217045Y-213951750D01*
X93620647Y-213820612D01*
X94012716Y-213658211D01*
X94390835Y-213465550D01*
X94752672Y-213243816D01*
X95095997Y-212994377D01*
X95418692Y-212718769D01*
X95718769Y-212418692D01*
X95994377Y-212095997D01*
X96243816Y-211752672D01*
X96465550Y-211390835D01*
X96658211Y-211012716D01*
X96820612Y-210620647D01*
X96951750Y-210217045D01*
X97050818Y-209804398D01*
X97117204Y-209385250D01*
X97150500Y-208962186D01*
X97150500Y-208537814D01*
X102849500Y-208537814D01*
X102849500Y-208558097D01*
X102849500Y-208962186D01*
X102882796Y-209385250D01*
X102949182Y-209804398D01*
X103048250Y-210217045D01*
X103048254Y-210217056D01*
X103179385Y-210620641D01*
X103246000Y-210781463D01*
X103341789Y-211012716D01*
X103534450Y-211390835D01*
X103534457Y-211390848D01*
X103534460Y-211390853D01*
X103557375Y-211428246D01*
X103756184Y-211752672D01*
X103756192Y-211752683D01*
X103756198Y-211752692D01*
X104005617Y-212095989D01*
X104005627Y-212096003D01*
X104128919Y-212240358D01*
X104281231Y-212418692D01*
X104581308Y-212718769D01*
X104581314Y-212718774D01*
X104903996Y-212994372D01*
X104904010Y-212994382D01*
X105111749Y-213145313D01*
X105247328Y-213243816D01*
X105375685Y-213322473D01*
X105609146Y-213465539D01*
X105609151Y-213465542D01*
X105609156Y-213465544D01*
X105609165Y-213465550D01*
X105987284Y-213658211D01*
X106379353Y-213820612D01*
X106379358Y-213820614D01*
X106481979Y-213853957D01*
X106782955Y-213951750D01*
X107195602Y-214050818D01*
X107614750Y-214117204D01*
X108037814Y-214150500D01*
X108037822Y-214150500D01*
X108462178Y-214150500D01*
X108462186Y-214150500D01*
X108885250Y-214117204D01*
X109304398Y-214050818D01*
X109717045Y-213951750D01*
X110120647Y-213820612D01*
X110512716Y-213658211D01*
X110890835Y-213465550D01*
X111252672Y-213243816D01*
X111595997Y-212994377D01*
X111918692Y-212718769D01*
X112218769Y-212418692D01*
X112494377Y-212095997D01*
X112743816Y-211752672D01*
X112965550Y-211390835D01*
X113158211Y-211012716D01*
X113320612Y-210620647D01*
X113451750Y-210217045D01*
X113550818Y-209804398D01*
X113617204Y-209385250D01*
X113650500Y-208962186D01*
X113650500Y-208537814D01*
X119349500Y-208537814D01*
X119349500Y-208558097D01*
X119349500Y-208962186D01*
X119382796Y-209385250D01*
X119449182Y-209804398D01*
X119548250Y-210217045D01*
X119548254Y-210217056D01*
X119679385Y-210620641D01*
X119746000Y-210781463D01*
X119841789Y-211012716D01*
X120034450Y-211390835D01*
X120034457Y-211390848D01*
X120034460Y-211390853D01*
X120057375Y-211428246D01*
X120256184Y-211752672D01*
X120256192Y-211752683D01*
X120256198Y-211752692D01*
X120505617Y-212095989D01*
X120505627Y-212096003D01*
X120628919Y-212240358D01*
X120781231Y-212418692D01*
X121081308Y-212718769D01*
X121081314Y-212718774D01*
X121403996Y-212994372D01*
X121404010Y-212994382D01*
X121611749Y-213145313D01*
X121747328Y-213243816D01*
X121875685Y-213322473D01*
X122109146Y-213465539D01*
X122109151Y-213465542D01*
X122109156Y-213465544D01*
X122109165Y-213465550D01*
X122487284Y-213658211D01*
X122879353Y-213820612D01*
X122879358Y-213820614D01*
X122981979Y-213853957D01*
X123282955Y-213951750D01*
X123695602Y-214050818D01*
X124114750Y-214117204D01*
X124537814Y-214150500D01*
X124537822Y-214150500D01*
X124962178Y-214150500D01*
X124962186Y-214150500D01*
X125385250Y-214117204D01*
X125804398Y-214050818D01*
X126217045Y-213951750D01*
X126620647Y-213820612D01*
X127012716Y-213658211D01*
X127390835Y-213465550D01*
X127752672Y-213243816D01*
X128095997Y-212994377D01*
X128418692Y-212718769D01*
X128718769Y-212418692D01*
X128994377Y-212095997D01*
X129243816Y-211752672D01*
X129465550Y-211390835D01*
X129658211Y-211012716D01*
X129820612Y-210620647D01*
X129951750Y-210217045D01*
X130050818Y-209804398D01*
X130117204Y-209385250D01*
X130150500Y-208962186D01*
X130150500Y-208537814D01*
X135849500Y-208537814D01*
X135849500Y-208558097D01*
X135849500Y-208962186D01*
X135882796Y-209385250D01*
X135949182Y-209804398D01*
X136048250Y-210217045D01*
X136048254Y-210217056D01*
X136179385Y-210620641D01*
X136246000Y-210781463D01*
X136341789Y-211012716D01*
X136534450Y-211390835D01*
X136534457Y-211390848D01*
X136534460Y-211390853D01*
X136557375Y-211428246D01*
X136756184Y-211752672D01*
X136756192Y-211752683D01*
X136756198Y-211752692D01*
X137005617Y-212095989D01*
X137005627Y-212096003D01*
X137128919Y-212240358D01*
X137281231Y-212418692D01*
X137581308Y-212718769D01*
X137581314Y-212718774D01*
X137903996Y-212994372D01*
X137904010Y-212994382D01*
X138111749Y-213145313D01*
X138247328Y-213243816D01*
X138375685Y-213322473D01*
X138609146Y-213465539D01*
X138609151Y-213465542D01*
X138609156Y-213465544D01*
X138609165Y-213465550D01*
X138987284Y-213658211D01*
X139379353Y-213820612D01*
X139379358Y-213820614D01*
X139481979Y-213853957D01*
X139782955Y-213951750D01*
X140195602Y-214050818D01*
X140614750Y-214117204D01*
X141037814Y-214150500D01*
X141037822Y-214150500D01*
X141462178Y-214150500D01*
X141462186Y-214150500D01*
X141885250Y-214117204D01*
X142304398Y-214050818D01*
X142717045Y-213951750D01*
X143120647Y-213820612D01*
X143512716Y-213658211D01*
X143890835Y-213465550D01*
X144252672Y-213243816D01*
X144595997Y-212994377D01*
X144918692Y-212718769D01*
X145218769Y-212418692D01*
X145494377Y-212095997D01*
X145743816Y-211752672D01*
X145965550Y-211390835D01*
X146158211Y-211012716D01*
X146320612Y-210620647D01*
X146451750Y-210217045D01*
X146550818Y-209804398D01*
X146617204Y-209385250D01*
X146650500Y-208962186D01*
X146650500Y-208537814D01*
X146617204Y-208114750D01*
X146550818Y-207695602D01*
X146451750Y-207282955D01*
X146320612Y-206879353D01*
X146158211Y-206487284D01*
X145965550Y-206109165D01*
X145965544Y-206109156D01*
X145965542Y-206109151D01*
X145965539Y-206109146D01*
X145743823Y-205747340D01*
X145743816Y-205747328D01*
X145494377Y-205404003D01*
X145494372Y-205403996D01*
X145218774Y-205081314D01*
X145218769Y-205081308D01*
X144918692Y-204781231D01*
X144918685Y-204781225D01*
X144596003Y-204505627D01*
X144595989Y-204505617D01*
X144252692Y-204256198D01*
X144252683Y-204256192D01*
X144252672Y-204256184D01*
X144252659Y-204256176D01*
X143890853Y-204034460D01*
X143890848Y-204034457D01*
X143890838Y-204034452D01*
X143890835Y-204034450D01*
X143512716Y-203841789D01*
X143512702Y-203841783D01*
X143120641Y-203679385D01*
X142833478Y-203586081D01*
X142717045Y-203548250D01*
X142304398Y-203449182D01*
X141885250Y-203382796D01*
X141462191Y-203349500D01*
X141462186Y-203349500D01*
X141037814Y-203349500D01*
X141037808Y-203349500D01*
X140614749Y-203382796D01*
X140614748Y-203382796D01*
X140195607Y-203449181D01*
X140195604Y-203449181D01*
X140195602Y-203449182D01*
X140047817Y-203484661D01*
X139782966Y-203548247D01*
X139782960Y-203548248D01*
X139782955Y-203548250D01*
X139782943Y-203548254D01*
X139379358Y-203679385D01*
X138987297Y-203841783D01*
X138987284Y-203841789D01*
X138609151Y-204034457D01*
X138609146Y-204034460D01*
X138247340Y-204256176D01*
X138247307Y-204256198D01*
X137904010Y-204505617D01*
X137903996Y-204505627D01*
X137581314Y-204781225D01*
X137581300Y-204781238D01*
X137281238Y-205081300D01*
X137281225Y-205081314D01*
X137005627Y-205403996D01*
X137005617Y-205404010D01*
X136756198Y-205747307D01*
X136756176Y-205747340D01*
X136534460Y-206109146D01*
X136534457Y-206109151D01*
X136341789Y-206487284D01*
X136341783Y-206487297D01*
X136179385Y-206879358D01*
X136048254Y-207282943D01*
X136048247Y-207282966D01*
X135949181Y-207695607D01*
X135933000Y-207797774D01*
X135882796Y-208114750D01*
X135849500Y-208537814D01*
X130150500Y-208537814D01*
X130117204Y-208114750D01*
X130050818Y-207695602D01*
X129951750Y-207282955D01*
X129820612Y-206879353D01*
X129658211Y-206487284D01*
X129465550Y-206109165D01*
X129465544Y-206109156D01*
X129465542Y-206109151D01*
X129465539Y-206109146D01*
X129243823Y-205747340D01*
X129243816Y-205747328D01*
X128994377Y-205404003D01*
X128994372Y-205403996D01*
X128718774Y-205081314D01*
X128718769Y-205081308D01*
X128418692Y-204781231D01*
X128418685Y-204781225D01*
X128096003Y-204505627D01*
X128095989Y-204505617D01*
X127752692Y-204256198D01*
X127752683Y-204256192D01*
X127752672Y-204256184D01*
X127752659Y-204256176D01*
X127390853Y-204034460D01*
X127390848Y-204034457D01*
X127390838Y-204034452D01*
X127390835Y-204034450D01*
X127012716Y-203841789D01*
X127012702Y-203841783D01*
X126620641Y-203679385D01*
X126333478Y-203586081D01*
X126217045Y-203548250D01*
X125804398Y-203449182D01*
X125385250Y-203382796D01*
X124962191Y-203349500D01*
X124962186Y-203349500D01*
X124537814Y-203349500D01*
X124537808Y-203349500D01*
X124114749Y-203382796D01*
X124114748Y-203382796D01*
X123695607Y-203449181D01*
X123695604Y-203449181D01*
X123695602Y-203449182D01*
X123547817Y-203484661D01*
X123282966Y-203548247D01*
X123282960Y-203548248D01*
X123282955Y-203548250D01*
X123282943Y-203548254D01*
X122879358Y-203679385D01*
X122487297Y-203841783D01*
X122487284Y-203841789D01*
X122109151Y-204034457D01*
X122109146Y-204034460D01*
X121747340Y-204256176D01*
X121747307Y-204256198D01*
X121404010Y-204505617D01*
X121403996Y-204505627D01*
X121081314Y-204781225D01*
X121081300Y-204781238D01*
X120781238Y-205081300D01*
X120781225Y-205081314D01*
X120505627Y-205403996D01*
X120505617Y-205404010D01*
X120256198Y-205747307D01*
X120256176Y-205747340D01*
X120034460Y-206109146D01*
X120034457Y-206109151D01*
X119841789Y-206487284D01*
X119841783Y-206487297D01*
X119679385Y-206879358D01*
X119548254Y-207282943D01*
X119548247Y-207282966D01*
X119449181Y-207695607D01*
X119433000Y-207797774D01*
X119382796Y-208114750D01*
X119349500Y-208537814D01*
X113650500Y-208537814D01*
X113617204Y-208114750D01*
X113550818Y-207695602D01*
X113451750Y-207282955D01*
X113320612Y-206879353D01*
X113158211Y-206487284D01*
X112965550Y-206109165D01*
X112965544Y-206109156D01*
X112965542Y-206109151D01*
X112965539Y-206109146D01*
X112743823Y-205747340D01*
X112743816Y-205747328D01*
X112494377Y-205404003D01*
X112494372Y-205403996D01*
X112218774Y-205081314D01*
X112218769Y-205081308D01*
X111918692Y-204781231D01*
X111918685Y-204781225D01*
X111596003Y-204505627D01*
X111595989Y-204505617D01*
X111252692Y-204256198D01*
X111252683Y-204256192D01*
X111252672Y-204256184D01*
X111252659Y-204256176D01*
X110890853Y-204034460D01*
X110890848Y-204034457D01*
X110890838Y-204034452D01*
X110890835Y-204034450D01*
X110512716Y-203841789D01*
X110512702Y-203841783D01*
X110120641Y-203679385D01*
X109833478Y-203586081D01*
X109717045Y-203548250D01*
X109304398Y-203449182D01*
X108885250Y-203382796D01*
X108462191Y-203349500D01*
X108462186Y-203349500D01*
X108037814Y-203349500D01*
X108037808Y-203349500D01*
X107614749Y-203382796D01*
X107614748Y-203382796D01*
X107195607Y-203449181D01*
X107195604Y-203449181D01*
X107195602Y-203449182D01*
X107047817Y-203484661D01*
X106782966Y-203548247D01*
X106782960Y-203548248D01*
X106782955Y-203548250D01*
X106782943Y-203548254D01*
X106379358Y-203679385D01*
X105987297Y-203841783D01*
X105987284Y-203841789D01*
X105609151Y-204034457D01*
X105609146Y-204034460D01*
X105247340Y-204256176D01*
X105247307Y-204256198D01*
X104904010Y-204505617D01*
X104903996Y-204505627D01*
X104581314Y-204781225D01*
X104581300Y-204781238D01*
X104281238Y-205081300D01*
X104281225Y-205081314D01*
X104005627Y-205403996D01*
X104005617Y-205404010D01*
X103756198Y-205747307D01*
X103756176Y-205747340D01*
X103534460Y-206109146D01*
X103534457Y-206109151D01*
X103341789Y-206487284D01*
X103341783Y-206487297D01*
X103179385Y-206879358D01*
X103048254Y-207282943D01*
X103048247Y-207282966D01*
X102949181Y-207695607D01*
X102933000Y-207797774D01*
X102882796Y-208114750D01*
X102849500Y-208537814D01*
X97150500Y-208537814D01*
X97117204Y-208114750D01*
X97050818Y-207695602D01*
X96951750Y-207282955D01*
X96820612Y-206879353D01*
X96658211Y-206487284D01*
X96465550Y-206109165D01*
X96465544Y-206109156D01*
X96465542Y-206109151D01*
X96465539Y-206109146D01*
X96243823Y-205747340D01*
X96243816Y-205747328D01*
X95994377Y-205404003D01*
X95994372Y-205403996D01*
X95718774Y-205081314D01*
X95718769Y-205081308D01*
X95418692Y-204781231D01*
X95418685Y-204781225D01*
X95096003Y-204505627D01*
X95095989Y-204505617D01*
X94752692Y-204256198D01*
X94752683Y-204256192D01*
X94752672Y-204256184D01*
X94752659Y-204256176D01*
X94390853Y-204034460D01*
X94390848Y-204034457D01*
X94390838Y-204034452D01*
X94390835Y-204034450D01*
X94012716Y-203841789D01*
X94012702Y-203841783D01*
X93620641Y-203679385D01*
X93333478Y-203586081D01*
X93217045Y-203548250D01*
X92804398Y-203449182D01*
X92385250Y-203382796D01*
X91962191Y-203349500D01*
X91962186Y-203349500D01*
X91537814Y-203349500D01*
X91537808Y-203349500D01*
X91114749Y-203382796D01*
X91114748Y-203382796D01*
X90695607Y-203449181D01*
X90695604Y-203449181D01*
X90695602Y-203449182D01*
X90547817Y-203484661D01*
X90282966Y-203548247D01*
X90282960Y-203548248D01*
X90282955Y-203548250D01*
X90282943Y-203548254D01*
X89879358Y-203679385D01*
X89487297Y-203841783D01*
X89487284Y-203841789D01*
X89109151Y-204034457D01*
X89109146Y-204034460D01*
X88747340Y-204256176D01*
X88747307Y-204256198D01*
X88404010Y-204505617D01*
X88403996Y-204505627D01*
X88081314Y-204781225D01*
X88081300Y-204781238D01*
X87781238Y-205081300D01*
X87781225Y-205081314D01*
X87505627Y-205403996D01*
X87505617Y-205404010D01*
X87256198Y-205747307D01*
X87256176Y-205747340D01*
X87034460Y-206109146D01*
X87034457Y-206109151D01*
X86841789Y-206487284D01*
X86841783Y-206487297D01*
X86679385Y-206879358D01*
X86548254Y-207282943D01*
X86548247Y-207282966D01*
X86449181Y-207695607D01*
X86433000Y-207797774D01*
X86382796Y-208114750D01*
X86349500Y-208537814D01*
X80650500Y-208537814D01*
X80617204Y-208114750D01*
X80550818Y-207695602D01*
X80451750Y-207282955D01*
X80320612Y-206879353D01*
X80158211Y-206487284D01*
X79965550Y-206109165D01*
X79965544Y-206109156D01*
X79965542Y-206109151D01*
X79965539Y-206109146D01*
X79743823Y-205747340D01*
X79743816Y-205747328D01*
X79494377Y-205404003D01*
X79494372Y-205403996D01*
X79218774Y-205081314D01*
X79218769Y-205081308D01*
X78918692Y-204781231D01*
X78918685Y-204781225D01*
X78596003Y-204505627D01*
X78595989Y-204505617D01*
X78252692Y-204256198D01*
X78252683Y-204256192D01*
X78252672Y-204256184D01*
X78252659Y-204256176D01*
X77890853Y-204034460D01*
X77890848Y-204034457D01*
X77890838Y-204034452D01*
X77890835Y-204034450D01*
X77512716Y-203841789D01*
X77512702Y-203841783D01*
X77120641Y-203679385D01*
X76833478Y-203586081D01*
X76717045Y-203548250D01*
X76304398Y-203449182D01*
X75885250Y-203382796D01*
X75462191Y-203349500D01*
X75462186Y-203349500D01*
X75037814Y-203349500D01*
X75037808Y-203349500D01*
X74614749Y-203382796D01*
X74614748Y-203382796D01*
X74195607Y-203449181D01*
X74195604Y-203449181D01*
X74195602Y-203449182D01*
X74047817Y-203484661D01*
X73782966Y-203548247D01*
X73782960Y-203548248D01*
X73782955Y-203548250D01*
X73782943Y-203548254D01*
X73379358Y-203679385D01*
X72987297Y-203841783D01*
X72987284Y-203841789D01*
X72609151Y-204034457D01*
X72609146Y-204034460D01*
X72247340Y-204256176D01*
X72247307Y-204256198D01*
X71904010Y-204505617D01*
X71903996Y-204505627D01*
X71581314Y-204781225D01*
X71581300Y-204781238D01*
X71281238Y-205081300D01*
X71281225Y-205081314D01*
X71005627Y-205403996D01*
X71005617Y-205404010D01*
X70756198Y-205747307D01*
X70756176Y-205747340D01*
X70534460Y-206109146D01*
X70534457Y-206109151D01*
X70341789Y-206487284D01*
X70341783Y-206487297D01*
X70179385Y-206879358D01*
X70048254Y-207282943D01*
X70048247Y-207282966D01*
X69949181Y-207695607D01*
X69933000Y-207797774D01*
X69882796Y-208114750D01*
X69849500Y-208537814D01*
X64150500Y-208537814D01*
X64117204Y-208114750D01*
X64050818Y-207695602D01*
X63951750Y-207282955D01*
X63820612Y-206879353D01*
X63658211Y-206487284D01*
X63465550Y-206109165D01*
X63465544Y-206109156D01*
X63465542Y-206109151D01*
X63465539Y-206109146D01*
X63243823Y-205747340D01*
X63243816Y-205747328D01*
X62994377Y-205404003D01*
X62994372Y-205403996D01*
X62718774Y-205081314D01*
X62718769Y-205081308D01*
X62418692Y-204781231D01*
X62418685Y-204781225D01*
X62096003Y-204505627D01*
X62095989Y-204505617D01*
X61752692Y-204256198D01*
X61752683Y-204256192D01*
X61752672Y-204256184D01*
X61752659Y-204256176D01*
X61390853Y-204034460D01*
X61390848Y-204034457D01*
X61390838Y-204034452D01*
X61390835Y-204034450D01*
X61012716Y-203841789D01*
X61012702Y-203841783D01*
X60620641Y-203679385D01*
X60333478Y-203586081D01*
X60217045Y-203548250D01*
X59804398Y-203449182D01*
X59385250Y-203382796D01*
X58962191Y-203349500D01*
X58962186Y-203349500D01*
X58537814Y-203349500D01*
X58537808Y-203349500D01*
X58114749Y-203382796D01*
X58114748Y-203382796D01*
X57695607Y-203449181D01*
X57695604Y-203449181D01*
X57695602Y-203449182D01*
X57547817Y-203484661D01*
X57282966Y-203548247D01*
X57282960Y-203548248D01*
X57282955Y-203548250D01*
X57282943Y-203548254D01*
X56879358Y-203679385D01*
X56487297Y-203841783D01*
X56487284Y-203841789D01*
X56109151Y-204034457D01*
X56109146Y-204034460D01*
X55747340Y-204256176D01*
X55747307Y-204256198D01*
X55404010Y-204505617D01*
X55403996Y-204505627D01*
X55081314Y-204781225D01*
X55081300Y-204781238D01*
X54781238Y-205081300D01*
X54781225Y-205081314D01*
X54505627Y-205403996D01*
X54505617Y-205404010D01*
X54256198Y-205747307D01*
X54256176Y-205747340D01*
X54034460Y-206109146D01*
X54034457Y-206109151D01*
X53841789Y-206487284D01*
X53841783Y-206487297D01*
X53679385Y-206879358D01*
X53548254Y-207282943D01*
X53548247Y-207282966D01*
X53449181Y-207695607D01*
X53433000Y-207797774D01*
X53382796Y-208114750D01*
X53349500Y-208537814D01*
X50500500Y-208537814D01*
X50500500Y-190037814D01*
X53349500Y-190037814D01*
X53349500Y-190058097D01*
X53349500Y-190462186D01*
X53382796Y-190885250D01*
X53449182Y-191304398D01*
X53548250Y-191717045D01*
X53548254Y-191717056D01*
X53679385Y-192120641D01*
X53746000Y-192281463D01*
X53841789Y-192512716D01*
X54034450Y-192890835D01*
X54034457Y-192890848D01*
X54034460Y-192890853D01*
X54057375Y-192928246D01*
X54256184Y-193252672D01*
X54256192Y-193252683D01*
X54256198Y-193252692D01*
X54505617Y-193595989D01*
X54505627Y-193596003D01*
X54628919Y-193740358D01*
X54781231Y-193918692D01*
X55081308Y-194218769D01*
X55081314Y-194218774D01*
X55403996Y-194494372D01*
X55404010Y-194494382D01*
X55611749Y-194645313D01*
X55747328Y-194743816D01*
X55875685Y-194822473D01*
X56109146Y-194965539D01*
X56109151Y-194965542D01*
X56109156Y-194965544D01*
X56109165Y-194965550D01*
X56487284Y-195158211D01*
X56879353Y-195320612D01*
X56879358Y-195320614D01*
X56981979Y-195353957D01*
X57282955Y-195451750D01*
X57695602Y-195550818D01*
X58114750Y-195617204D01*
X58537814Y-195650500D01*
X58537822Y-195650500D01*
X58962178Y-195650500D01*
X58962186Y-195650500D01*
X59385250Y-195617204D01*
X59804398Y-195550818D01*
X60217045Y-195451750D01*
X60620647Y-195320612D01*
X61012716Y-195158211D01*
X61390835Y-194965550D01*
X61752672Y-194743816D01*
X62095997Y-194494377D01*
X62418692Y-194218769D01*
X62718769Y-193918692D01*
X62994377Y-193595997D01*
X63243816Y-193252672D01*
X63465550Y-192890835D01*
X63658211Y-192512716D01*
X63820612Y-192120647D01*
X63951750Y-191717045D01*
X64050818Y-191304398D01*
X64117204Y-190885250D01*
X64150500Y-190462186D01*
X64150500Y-190037814D01*
X69849500Y-190037814D01*
X69849500Y-190058097D01*
X69849500Y-190462186D01*
X69882796Y-190885250D01*
X69949182Y-191304398D01*
X70048250Y-191717045D01*
X70048254Y-191717056D01*
X70179385Y-192120641D01*
X70246000Y-192281463D01*
X70341789Y-192512716D01*
X70534450Y-192890835D01*
X70534457Y-192890848D01*
X70534460Y-192890853D01*
X70557375Y-192928246D01*
X70756184Y-193252672D01*
X70756192Y-193252683D01*
X70756198Y-193252692D01*
X71005617Y-193595989D01*
X71005627Y-193596003D01*
X71128919Y-193740358D01*
X71281231Y-193918692D01*
X71581308Y-194218769D01*
X71581314Y-194218774D01*
X71903996Y-194494372D01*
X71904010Y-194494382D01*
X72111749Y-194645313D01*
X72247328Y-194743816D01*
X72375685Y-194822473D01*
X72609146Y-194965539D01*
X72609151Y-194965542D01*
X72609156Y-194965544D01*
X72609165Y-194965550D01*
X72987284Y-195158211D01*
X73379353Y-195320612D01*
X73379358Y-195320614D01*
X73481979Y-195353957D01*
X73782955Y-195451750D01*
X74195602Y-195550818D01*
X74614750Y-195617204D01*
X75037814Y-195650500D01*
X75037822Y-195650500D01*
X75462178Y-195650500D01*
X75462186Y-195650500D01*
X75885250Y-195617204D01*
X76304398Y-195550818D01*
X76717045Y-195451750D01*
X77120647Y-195320612D01*
X77512716Y-195158211D01*
X77890835Y-194965550D01*
X78252672Y-194743816D01*
X78595997Y-194494377D01*
X78918692Y-194218769D01*
X79218769Y-193918692D01*
X79494377Y-193595997D01*
X79743816Y-193252672D01*
X79965550Y-192890835D01*
X80158211Y-192512716D01*
X80320612Y-192120647D01*
X80451750Y-191717045D01*
X80550818Y-191304398D01*
X80617204Y-190885250D01*
X80650500Y-190462186D01*
X80650500Y-190037814D01*
X86349500Y-190037814D01*
X86349500Y-190058097D01*
X86349500Y-190462186D01*
X86382796Y-190885250D01*
X86449182Y-191304398D01*
X86548250Y-191717045D01*
X86548254Y-191717056D01*
X86679385Y-192120641D01*
X86746000Y-192281463D01*
X86841789Y-192512716D01*
X87034450Y-192890835D01*
X87034457Y-192890848D01*
X87034460Y-192890853D01*
X87057375Y-192928246D01*
X87256184Y-193252672D01*
X87256192Y-193252683D01*
X87256198Y-193252692D01*
X87505617Y-193595989D01*
X87505627Y-193596003D01*
X87628919Y-193740358D01*
X87781231Y-193918692D01*
X88081308Y-194218769D01*
X88081314Y-194218774D01*
X88403996Y-194494372D01*
X88404010Y-194494382D01*
X88611749Y-194645313D01*
X88747328Y-194743816D01*
X88875685Y-194822473D01*
X89109146Y-194965539D01*
X89109151Y-194965542D01*
X89109156Y-194965544D01*
X89109165Y-194965550D01*
X89487284Y-195158211D01*
X89879353Y-195320612D01*
X89879358Y-195320614D01*
X89981979Y-195353957D01*
X90282955Y-195451750D01*
X90695602Y-195550818D01*
X91114750Y-195617204D01*
X91537814Y-195650500D01*
X91537822Y-195650500D01*
X91962178Y-195650500D01*
X91962186Y-195650500D01*
X92385250Y-195617204D01*
X92804398Y-195550818D01*
X93217045Y-195451750D01*
X93620647Y-195320612D01*
X94012716Y-195158211D01*
X94390835Y-194965550D01*
X94752672Y-194743816D01*
X95095997Y-194494377D01*
X95418692Y-194218769D01*
X95718769Y-193918692D01*
X95994377Y-193595997D01*
X96243816Y-193252672D01*
X96465550Y-192890835D01*
X96658211Y-192512716D01*
X96820612Y-192120647D01*
X96951750Y-191717045D01*
X97050818Y-191304398D01*
X97117204Y-190885250D01*
X97150500Y-190462186D01*
X97150500Y-190037814D01*
X102849500Y-190037814D01*
X102849500Y-190058097D01*
X102849500Y-190462186D01*
X102882796Y-190885250D01*
X102949182Y-191304398D01*
X103048250Y-191717045D01*
X103048254Y-191717056D01*
X103179385Y-192120641D01*
X103246000Y-192281463D01*
X103341789Y-192512716D01*
X103534450Y-192890835D01*
X103534457Y-192890848D01*
X103534460Y-192890853D01*
X103557375Y-192928246D01*
X103756184Y-193252672D01*
X103756192Y-193252683D01*
X103756198Y-193252692D01*
X104005617Y-193595989D01*
X104005627Y-193596003D01*
X104128919Y-193740358D01*
X104281231Y-193918692D01*
X104581308Y-194218769D01*
X104581314Y-194218774D01*
X104903996Y-194494372D01*
X104904010Y-194494382D01*
X105111749Y-194645313D01*
X105247328Y-194743816D01*
X105375685Y-194822473D01*
X105609146Y-194965539D01*
X105609151Y-194965542D01*
X105609156Y-194965544D01*
X105609165Y-194965550D01*
X105987284Y-195158211D01*
X106379353Y-195320612D01*
X106379358Y-195320614D01*
X106481979Y-195353957D01*
X106782955Y-195451750D01*
X107195602Y-195550818D01*
X107614750Y-195617204D01*
X108037814Y-195650500D01*
X108037822Y-195650500D01*
X108462178Y-195650500D01*
X108462186Y-195650500D01*
X108885250Y-195617204D01*
X109304398Y-195550818D01*
X109717045Y-195451750D01*
X110120647Y-195320612D01*
X110512716Y-195158211D01*
X110890835Y-194965550D01*
X111252672Y-194743816D01*
X111595997Y-194494377D01*
X111918692Y-194218769D01*
X112218769Y-193918692D01*
X112494377Y-193595997D01*
X112743816Y-193252672D01*
X112965550Y-192890835D01*
X113158211Y-192512716D01*
X113320612Y-192120647D01*
X113451750Y-191717045D01*
X113550818Y-191304398D01*
X113617204Y-190885250D01*
X113650500Y-190462186D01*
X113650500Y-190037814D01*
X119349500Y-190037814D01*
X119349500Y-190058097D01*
X119349500Y-190462186D01*
X119382796Y-190885250D01*
X119449182Y-191304398D01*
X119548250Y-191717045D01*
X119548254Y-191717056D01*
X119679385Y-192120641D01*
X119746000Y-192281463D01*
X119841789Y-192512716D01*
X120034450Y-192890835D01*
X120034457Y-192890848D01*
X120034460Y-192890853D01*
X120057375Y-192928246D01*
X120256184Y-193252672D01*
X120256192Y-193252683D01*
X120256198Y-193252692D01*
X120505617Y-193595989D01*
X120505627Y-193596003D01*
X120628919Y-193740358D01*
X120781231Y-193918692D01*
X121081308Y-194218769D01*
X121081314Y-194218774D01*
X121403996Y-194494372D01*
X121404010Y-194494382D01*
X121611749Y-194645313D01*
X121747328Y-194743816D01*
X121875685Y-194822473D01*
X122109146Y-194965539D01*
X122109151Y-194965542D01*
X122109156Y-194965544D01*
X122109165Y-194965550D01*
X122487284Y-195158211D01*
X122879353Y-195320612D01*
X122879358Y-195320614D01*
X122981979Y-195353957D01*
X123282955Y-195451750D01*
X123695602Y-195550818D01*
X124114750Y-195617204D01*
X124537814Y-195650500D01*
X124537822Y-195650500D01*
X124962178Y-195650500D01*
X124962186Y-195650500D01*
X125385250Y-195617204D01*
X125804398Y-195550818D01*
X126217045Y-195451750D01*
X126620647Y-195320612D01*
X127012716Y-195158211D01*
X127390835Y-194965550D01*
X127752672Y-194743816D01*
X128095997Y-194494377D01*
X128418692Y-194218769D01*
X128718769Y-193918692D01*
X128994377Y-193595997D01*
X129243816Y-193252672D01*
X129465550Y-192890835D01*
X129658211Y-192512716D01*
X129820612Y-192120647D01*
X129951750Y-191717045D01*
X130050818Y-191304398D01*
X130117204Y-190885250D01*
X130150500Y-190462186D01*
X130150500Y-190037814D01*
X135849500Y-190037814D01*
X135849500Y-190058097D01*
X135849500Y-190462186D01*
X135882796Y-190885250D01*
X135949182Y-191304398D01*
X136048250Y-191717045D01*
X136048254Y-191717056D01*
X136179385Y-192120641D01*
X136246000Y-192281463D01*
X136341789Y-192512716D01*
X136534450Y-192890835D01*
X136534457Y-192890848D01*
X136534460Y-192890853D01*
X136557375Y-192928246D01*
X136756184Y-193252672D01*
X136756192Y-193252683D01*
X136756198Y-193252692D01*
X137005617Y-193595989D01*
X137005627Y-193596003D01*
X137128919Y-193740358D01*
X137281231Y-193918692D01*
X137581308Y-194218769D01*
X137581314Y-194218774D01*
X137903996Y-194494372D01*
X137904010Y-194494382D01*
X138111749Y-194645313D01*
X138247328Y-194743816D01*
X138375685Y-194822473D01*
X138609146Y-194965539D01*
X138609151Y-194965542D01*
X138609156Y-194965544D01*
X138609165Y-194965550D01*
X138987284Y-195158211D01*
X139379353Y-195320612D01*
X139379358Y-195320614D01*
X139481979Y-195353957D01*
X139782955Y-195451750D01*
X140195602Y-195550818D01*
X140614750Y-195617204D01*
X141037814Y-195650500D01*
X141037822Y-195650500D01*
X141462178Y-195650500D01*
X141462186Y-195650500D01*
X141885250Y-195617204D01*
X142304398Y-195550818D01*
X142717045Y-195451750D01*
X143120647Y-195320612D01*
X143512716Y-195158211D01*
X143890835Y-194965550D01*
X144252672Y-194743816D01*
X144595997Y-194494377D01*
X144918692Y-194218769D01*
X145218769Y-193918692D01*
X145494377Y-193595997D01*
X145743816Y-193252672D01*
X145965550Y-192890835D01*
X146158211Y-192512716D01*
X146320612Y-192120647D01*
X146451750Y-191717045D01*
X146550818Y-191304398D01*
X146617204Y-190885250D01*
X146650500Y-190462186D01*
X146650500Y-190037814D01*
X146617204Y-189614750D01*
X146550818Y-189195602D01*
X146451750Y-188782955D01*
X146320612Y-188379353D01*
X146158211Y-187987284D01*
X145965550Y-187609165D01*
X145965544Y-187609156D01*
X145965542Y-187609151D01*
X145965539Y-187609146D01*
X145743823Y-187247340D01*
X145743816Y-187247328D01*
X145494377Y-186904003D01*
X145494372Y-186903996D01*
X145218774Y-186581314D01*
X145218769Y-186581308D01*
X144918692Y-186281231D01*
X144918685Y-186281225D01*
X144596003Y-186005627D01*
X144595989Y-186005617D01*
X144252692Y-185756198D01*
X144252683Y-185756192D01*
X144252672Y-185756184D01*
X144252659Y-185756176D01*
X143890853Y-185534460D01*
X143890848Y-185534457D01*
X143890838Y-185534452D01*
X143890835Y-185534450D01*
X143512716Y-185341789D01*
X143512702Y-185341783D01*
X143120641Y-185179385D01*
X142833478Y-185086081D01*
X142717045Y-185048250D01*
X142304398Y-184949182D01*
X141885250Y-184882796D01*
X141462191Y-184849500D01*
X141462186Y-184849500D01*
X141037814Y-184849500D01*
X141037808Y-184849500D01*
X140614749Y-184882796D01*
X140614748Y-184882796D01*
X140195607Y-184949181D01*
X140195604Y-184949181D01*
X140195602Y-184949182D01*
X140047817Y-184984661D01*
X139782966Y-185048247D01*
X139782960Y-185048248D01*
X139782955Y-185048250D01*
X139782943Y-185048254D01*
X139379358Y-185179385D01*
X138987297Y-185341783D01*
X138987284Y-185341789D01*
X138609151Y-185534457D01*
X138609146Y-185534460D01*
X138247340Y-185756176D01*
X138247307Y-185756198D01*
X137904010Y-186005617D01*
X137903996Y-186005627D01*
X137581314Y-186281225D01*
X137581300Y-186281238D01*
X137281238Y-186581300D01*
X137281225Y-186581314D01*
X137005627Y-186903996D01*
X137005617Y-186904010D01*
X136756198Y-187247307D01*
X136756176Y-187247340D01*
X136534460Y-187609146D01*
X136534457Y-187609151D01*
X136341789Y-187987284D01*
X136341783Y-187987297D01*
X136179385Y-188379358D01*
X136048254Y-188782943D01*
X136048247Y-188782966D01*
X135949181Y-189195607D01*
X135933000Y-189297774D01*
X135882796Y-189614750D01*
X135849500Y-190037814D01*
X130150500Y-190037814D01*
X130117204Y-189614750D01*
X130050818Y-189195602D01*
X129951750Y-188782955D01*
X129820612Y-188379353D01*
X129658211Y-187987284D01*
X129465550Y-187609165D01*
X129465544Y-187609156D01*
X129465542Y-187609151D01*
X129465539Y-187609146D01*
X129243823Y-187247340D01*
X129243816Y-187247328D01*
X128994377Y-186904003D01*
X128994372Y-186903996D01*
X128718774Y-186581314D01*
X128718769Y-186581308D01*
X128418692Y-186281231D01*
X128418685Y-186281225D01*
X128096003Y-186005627D01*
X128095989Y-186005617D01*
X127752692Y-185756198D01*
X127752683Y-185756192D01*
X127752672Y-185756184D01*
X127752659Y-185756176D01*
X127390853Y-185534460D01*
X127390848Y-185534457D01*
X127390838Y-185534452D01*
X127390835Y-185534450D01*
X127012716Y-185341789D01*
X127012702Y-185341783D01*
X126620641Y-185179385D01*
X126333478Y-185086081D01*
X126217045Y-185048250D01*
X125804398Y-184949182D01*
X125385250Y-184882796D01*
X124962191Y-184849500D01*
X124962186Y-184849500D01*
X124537814Y-184849500D01*
X124537808Y-184849500D01*
X124114749Y-184882796D01*
X124114748Y-184882796D01*
X123695607Y-184949181D01*
X123695604Y-184949181D01*
X123695602Y-184949182D01*
X123547817Y-184984661D01*
X123282966Y-185048247D01*
X123282960Y-185048248D01*
X123282955Y-185048250D01*
X123282943Y-185048254D01*
X122879358Y-185179385D01*
X122487297Y-185341783D01*
X122487284Y-185341789D01*
X122109151Y-185534457D01*
X122109146Y-185534460D01*
X121747340Y-185756176D01*
X121747307Y-185756198D01*
X121404010Y-186005617D01*
X121403996Y-186005627D01*
X121081314Y-186281225D01*
X121081300Y-186281238D01*
X120781238Y-186581300D01*
X120781225Y-186581314D01*
X120505627Y-186903996D01*
X120505617Y-186904010D01*
X120256198Y-187247307D01*
X120256176Y-187247340D01*
X120034460Y-187609146D01*
X120034457Y-187609151D01*
X119841789Y-187987284D01*
X119841783Y-187987297D01*
X119679385Y-188379358D01*
X119548254Y-188782943D01*
X119548247Y-188782966D01*
X119449181Y-189195607D01*
X119433000Y-189297774D01*
X119382796Y-189614750D01*
X119349500Y-190037814D01*
X113650500Y-190037814D01*
X113617204Y-189614750D01*
X113550818Y-189195602D01*
X113451750Y-188782955D01*
X113320612Y-188379353D01*
X113158211Y-187987284D01*
X112965550Y-187609165D01*
X112965544Y-187609156D01*
X112965542Y-187609151D01*
X112965539Y-187609146D01*
X112743823Y-187247340D01*
X112743816Y-187247328D01*
X112494377Y-186904003D01*
X112494372Y-186903996D01*
X112218774Y-186581314D01*
X112218769Y-186581308D01*
X111918692Y-186281231D01*
X111918685Y-186281225D01*
X111596003Y-186005627D01*
X111595989Y-186005617D01*
X111252692Y-185756198D01*
X111252683Y-185756192D01*
X111252672Y-185756184D01*
X111252659Y-185756176D01*
X110890853Y-185534460D01*
X110890848Y-185534457D01*
X110890838Y-185534452D01*
X110890835Y-185534450D01*
X110512716Y-185341789D01*
X110512702Y-185341783D01*
X110120641Y-185179385D01*
X109833478Y-185086081D01*
X109717045Y-185048250D01*
X109304398Y-184949182D01*
X108885250Y-184882796D01*
X108462191Y-184849500D01*
X108462186Y-184849500D01*
X108037814Y-184849500D01*
X108037808Y-184849500D01*
X107614749Y-184882796D01*
X107614748Y-184882796D01*
X107195607Y-184949181D01*
X107195604Y-184949181D01*
X107195602Y-184949182D01*
X107047817Y-184984661D01*
X106782966Y-185048247D01*
X106782960Y-185048248D01*
X106782955Y-185048250D01*
X106782943Y-185048254D01*
X106379358Y-185179385D01*
X105987297Y-185341783D01*
X105987284Y-185341789D01*
X105609151Y-185534457D01*
X105609146Y-185534460D01*
X105247340Y-185756176D01*
X105247307Y-185756198D01*
X104904010Y-186005617D01*
X104903996Y-186005627D01*
X104581314Y-186281225D01*
X104581300Y-186281238D01*
X104281238Y-186581300D01*
X104281225Y-186581314D01*
X104005627Y-186903996D01*
X104005617Y-186904010D01*
X103756198Y-187247307D01*
X103756176Y-187247340D01*
X103534460Y-187609146D01*
X103534457Y-187609151D01*
X103341789Y-187987284D01*
X103341783Y-187987297D01*
X103179385Y-188379358D01*
X103048254Y-188782943D01*
X103048247Y-188782966D01*
X102949181Y-189195607D01*
X102933000Y-189297774D01*
X102882796Y-189614750D01*
X102849500Y-190037814D01*
X97150500Y-190037814D01*
X97117204Y-189614750D01*
X97050818Y-189195602D01*
X96951750Y-188782955D01*
X96820612Y-188379353D01*
X96658211Y-187987284D01*
X96465550Y-187609165D01*
X96465544Y-187609156D01*
X96465542Y-187609151D01*
X96465539Y-187609146D01*
X96243823Y-187247340D01*
X96243816Y-187247328D01*
X95994377Y-186904003D01*
X95994372Y-186903996D01*
X95718774Y-186581314D01*
X95718769Y-186581308D01*
X95418692Y-186281231D01*
X95418685Y-186281225D01*
X95096003Y-186005627D01*
X95095989Y-186005617D01*
X94752692Y-185756198D01*
X94752683Y-185756192D01*
X94752672Y-185756184D01*
X94752659Y-185756176D01*
X94390853Y-185534460D01*
X94390848Y-185534457D01*
X94390838Y-185534452D01*
X94390835Y-185534450D01*
X94012716Y-185341789D01*
X94012702Y-185341783D01*
X93620641Y-185179385D01*
X93333478Y-185086081D01*
X93217045Y-185048250D01*
X92804398Y-184949182D01*
X92385250Y-184882796D01*
X91962191Y-184849500D01*
X91962186Y-184849500D01*
X91537814Y-184849500D01*
X91537808Y-184849500D01*
X91114749Y-184882796D01*
X91114748Y-184882796D01*
X90695607Y-184949181D01*
X90695604Y-184949181D01*
X90695602Y-184949182D01*
X90547817Y-184984661D01*
X90282966Y-185048247D01*
X90282960Y-185048248D01*
X90282955Y-185048250D01*
X90282943Y-185048254D01*
X89879358Y-185179385D01*
X89487297Y-185341783D01*
X89487284Y-185341789D01*
X89109151Y-185534457D01*
X89109146Y-185534460D01*
X88747340Y-185756176D01*
X88747307Y-185756198D01*
X88404010Y-186005617D01*
X88403996Y-186005627D01*
X88081314Y-186281225D01*
X88081300Y-186281238D01*
X87781238Y-186581300D01*
X87781225Y-186581314D01*
X87505627Y-186903996D01*
X87505617Y-186904010D01*
X87256198Y-187247307D01*
X87256176Y-187247340D01*
X87034460Y-187609146D01*
X87034457Y-187609151D01*
X86841789Y-187987284D01*
X86841783Y-187987297D01*
X86679385Y-188379358D01*
X86548254Y-188782943D01*
X86548247Y-188782966D01*
X86449181Y-189195607D01*
X86433000Y-189297774D01*
X86382796Y-189614750D01*
X86349500Y-190037814D01*
X80650500Y-190037814D01*
X80617204Y-189614750D01*
X80550818Y-189195602D01*
X80451750Y-188782955D01*
X80320612Y-188379353D01*
X80158211Y-187987284D01*
X79965550Y-187609165D01*
X79965544Y-187609156D01*
X79965542Y-187609151D01*
X79965539Y-187609146D01*
X79743823Y-187247340D01*
X79743816Y-187247328D01*
X79494377Y-186904003D01*
X79494372Y-186903996D01*
X79218774Y-186581314D01*
X79218769Y-186581308D01*
X78918692Y-186281231D01*
X78918685Y-186281225D01*
X78596003Y-186005627D01*
X78595989Y-186005617D01*
X78252692Y-185756198D01*
X78252683Y-185756192D01*
X78252672Y-185756184D01*
X78252659Y-185756176D01*
X77890853Y-185534460D01*
X77890848Y-185534457D01*
X77890838Y-185534452D01*
X77890835Y-185534450D01*
X77512716Y-185341789D01*
X77512702Y-185341783D01*
X77120641Y-185179385D01*
X76833478Y-185086081D01*
X76717045Y-185048250D01*
X76304398Y-184949182D01*
X75885250Y-184882796D01*
X75462191Y-184849500D01*
X75462186Y-184849500D01*
X75037814Y-184849500D01*
X75037808Y-184849500D01*
X74614749Y-184882796D01*
X74614748Y-184882796D01*
X74195607Y-184949181D01*
X74195604Y-184949181D01*
X74195602Y-184949182D01*
X74047817Y-184984661D01*
X73782966Y-185048247D01*
X73782960Y-185048248D01*
X73782955Y-185048250D01*
X73782943Y-185048254D01*
X73379358Y-185179385D01*
X72987297Y-185341783D01*
X72987284Y-185341789D01*
X72609151Y-185534457D01*
X72609146Y-185534460D01*
X72247340Y-185756176D01*
X72247307Y-185756198D01*
X71904010Y-186005617D01*
X71903996Y-186005627D01*
X71581314Y-186281225D01*
X71581300Y-186281238D01*
X71281238Y-186581300D01*
X71281225Y-186581314D01*
X71005627Y-186903996D01*
X71005617Y-186904010D01*
X70756198Y-187247307D01*
X70756176Y-187247340D01*
X70534460Y-187609146D01*
X70534457Y-187609151D01*
X70341789Y-187987284D01*
X70341783Y-187987297D01*
X70179385Y-188379358D01*
X70048254Y-188782943D01*
X70048247Y-188782966D01*
X69949181Y-189195607D01*
X69933000Y-189297774D01*
X69882796Y-189614750D01*
X69849500Y-190037814D01*
X64150500Y-190037814D01*
X64117204Y-189614750D01*
X64050818Y-189195602D01*
X63951750Y-188782955D01*
X63820612Y-188379353D01*
X63658211Y-187987284D01*
X63465550Y-187609165D01*
X63465544Y-187609156D01*
X63465542Y-187609151D01*
X63465539Y-187609146D01*
X63243823Y-187247340D01*
X63243816Y-187247328D01*
X62994377Y-186904003D01*
X62994372Y-186903996D01*
X62718774Y-186581314D01*
X62718769Y-186581308D01*
X62418692Y-186281231D01*
X62418685Y-186281225D01*
X62096003Y-186005627D01*
X62095989Y-186005617D01*
X61752692Y-185756198D01*
X61752683Y-185756192D01*
X61752672Y-185756184D01*
X61752659Y-185756176D01*
X61390853Y-185534460D01*
X61390848Y-185534457D01*
X61390838Y-185534452D01*
X61390835Y-185534450D01*
X61012716Y-185341789D01*
X61012702Y-185341783D01*
X60620641Y-185179385D01*
X60333478Y-185086081D01*
X60217045Y-185048250D01*
X59804398Y-184949182D01*
X59385250Y-184882796D01*
X58962191Y-184849500D01*
X58962186Y-184849500D01*
X58537814Y-184849500D01*
X58537808Y-184849500D01*
X58114749Y-184882796D01*
X58114748Y-184882796D01*
X57695607Y-184949181D01*
X57695604Y-184949181D01*
X57695602Y-184949182D01*
X57547817Y-184984661D01*
X57282966Y-185048247D01*
X57282960Y-185048248D01*
X57282955Y-185048250D01*
X57282943Y-185048254D01*
X56879358Y-185179385D01*
X56487297Y-185341783D01*
X56487284Y-185341789D01*
X56109151Y-185534457D01*
X56109146Y-185534460D01*
X55747340Y-185756176D01*
X55747307Y-185756198D01*
X55404010Y-186005617D01*
X55403996Y-186005627D01*
X55081314Y-186281225D01*
X55081300Y-186281238D01*
X54781238Y-186581300D01*
X54781225Y-186581314D01*
X54505627Y-186903996D01*
X54505617Y-186904010D01*
X54256198Y-187247307D01*
X54256176Y-187247340D01*
X54034460Y-187609146D01*
X54034457Y-187609151D01*
X53841789Y-187987284D01*
X53841783Y-187987297D01*
X53679385Y-188379358D01*
X53548254Y-188782943D01*
X53548247Y-188782966D01*
X53449181Y-189195607D01*
X53433000Y-189297774D01*
X53382796Y-189614750D01*
X53349500Y-190037814D01*
X50500500Y-190037814D01*
X50500500Y-171537814D01*
X53349500Y-171537814D01*
X53349500Y-171558097D01*
X53349500Y-171962186D01*
X53382796Y-172385250D01*
X53449182Y-172804398D01*
X53548250Y-173217045D01*
X53548254Y-173217056D01*
X53679385Y-173620641D01*
X53746000Y-173781463D01*
X53841789Y-174012716D01*
X54034450Y-174390835D01*
X54034457Y-174390848D01*
X54034460Y-174390853D01*
X54057375Y-174428246D01*
X54256184Y-174752672D01*
X54256192Y-174752683D01*
X54256198Y-174752692D01*
X54505617Y-175095989D01*
X54505627Y-175096003D01*
X54628919Y-175240358D01*
X54781231Y-175418692D01*
X55081308Y-175718769D01*
X55081314Y-175718774D01*
X55403996Y-175994372D01*
X55404010Y-175994382D01*
X55611749Y-176145313D01*
X55747328Y-176243816D01*
X55875685Y-176322473D01*
X56109146Y-176465539D01*
X56109151Y-176465542D01*
X56109156Y-176465544D01*
X56109165Y-176465550D01*
X56487284Y-176658211D01*
X56879353Y-176820612D01*
X56879358Y-176820614D01*
X56981979Y-176853957D01*
X57282955Y-176951750D01*
X57695602Y-177050818D01*
X58114750Y-177117204D01*
X58537814Y-177150500D01*
X58537822Y-177150500D01*
X58962178Y-177150500D01*
X58962186Y-177150500D01*
X59385250Y-177117204D01*
X59804398Y-177050818D01*
X60217045Y-176951750D01*
X60620647Y-176820612D01*
X61012716Y-176658211D01*
X61390835Y-176465550D01*
X61752672Y-176243816D01*
X62095997Y-175994377D01*
X62418692Y-175718769D01*
X62718769Y-175418692D01*
X62994377Y-175095997D01*
X63243816Y-174752672D01*
X63465550Y-174390835D01*
X63658211Y-174012716D01*
X63820612Y-173620647D01*
X63951750Y-173217045D01*
X64050818Y-172804398D01*
X64117204Y-172385250D01*
X64150500Y-171962186D01*
X64150500Y-171537814D01*
X69849500Y-171537814D01*
X69849500Y-171558097D01*
X69849500Y-171962186D01*
X69882796Y-172385250D01*
X69949182Y-172804398D01*
X70048250Y-173217045D01*
X70048254Y-173217056D01*
X70179385Y-173620641D01*
X70246000Y-173781463D01*
X70341789Y-174012716D01*
X70534450Y-174390835D01*
X70534457Y-174390848D01*
X70534460Y-174390853D01*
X70557375Y-174428246D01*
X70756184Y-174752672D01*
X70756192Y-174752683D01*
X70756198Y-174752692D01*
X71005617Y-175095989D01*
X71005627Y-175096003D01*
X71128919Y-175240358D01*
X71281231Y-175418692D01*
X71581308Y-175718769D01*
X71581314Y-175718774D01*
X71903996Y-175994372D01*
X71904010Y-175994382D01*
X72111749Y-176145313D01*
X72247328Y-176243816D01*
X72375685Y-176322473D01*
X72609146Y-176465539D01*
X72609151Y-176465542D01*
X72609156Y-176465544D01*
X72609165Y-176465550D01*
X72987284Y-176658211D01*
X73379353Y-176820612D01*
X73379358Y-176820614D01*
X73481979Y-176853957D01*
X73782955Y-176951750D01*
X74195602Y-177050818D01*
X74614750Y-177117204D01*
X75037814Y-177150500D01*
X75037822Y-177150500D01*
X75462178Y-177150500D01*
X75462186Y-177150500D01*
X75885250Y-177117204D01*
X76304398Y-177050818D01*
X76717045Y-176951750D01*
X77120647Y-176820612D01*
X77512716Y-176658211D01*
X77890835Y-176465550D01*
X78252672Y-176243816D01*
X78595997Y-175994377D01*
X78918692Y-175718769D01*
X79218769Y-175418692D01*
X79494377Y-175095997D01*
X79743816Y-174752672D01*
X79965550Y-174390835D01*
X80158211Y-174012716D01*
X80320612Y-173620647D01*
X80451750Y-173217045D01*
X80550818Y-172804398D01*
X80617204Y-172385250D01*
X80650500Y-171962186D01*
X80650500Y-171537814D01*
X86349500Y-171537814D01*
X86349500Y-171558097D01*
X86349500Y-171962186D01*
X86382796Y-172385250D01*
X86449182Y-172804398D01*
X86548250Y-173217045D01*
X86548254Y-173217056D01*
X86679385Y-173620641D01*
X86746000Y-173781463D01*
X86841789Y-174012716D01*
X87034450Y-174390835D01*
X87034457Y-174390848D01*
X87034460Y-174390853D01*
X87057375Y-174428246D01*
X87256184Y-174752672D01*
X87256192Y-174752683D01*
X87256198Y-174752692D01*
X87505617Y-175095989D01*
X87505627Y-175096003D01*
X87628919Y-175240358D01*
X87781231Y-175418692D01*
X88081308Y-175718769D01*
X88081314Y-175718774D01*
X88403996Y-175994372D01*
X88404010Y-175994382D01*
X88611749Y-176145313D01*
X88747328Y-176243816D01*
X88875685Y-176322473D01*
X89109146Y-176465539D01*
X89109151Y-176465542D01*
X89109156Y-176465544D01*
X89109165Y-176465550D01*
X89487284Y-176658211D01*
X89879353Y-176820612D01*
X89879358Y-176820614D01*
X89981979Y-176853957D01*
X90282955Y-176951750D01*
X90695602Y-177050818D01*
X91114750Y-177117204D01*
X91537814Y-177150500D01*
X91537822Y-177150500D01*
X91962178Y-177150500D01*
X91962186Y-177150500D01*
X92385250Y-177117204D01*
X92804398Y-177050818D01*
X93217045Y-176951750D01*
X93620647Y-176820612D01*
X94012716Y-176658211D01*
X94390835Y-176465550D01*
X94752672Y-176243816D01*
X95095997Y-175994377D01*
X95418692Y-175718769D01*
X95718769Y-175418692D01*
X95994377Y-175095997D01*
X96243816Y-174752672D01*
X96465550Y-174390835D01*
X96658211Y-174012716D01*
X96820612Y-173620647D01*
X96951750Y-173217045D01*
X97050818Y-172804398D01*
X97117204Y-172385250D01*
X97150500Y-171962186D01*
X97150500Y-171537814D01*
X102849500Y-171537814D01*
X102849500Y-171558097D01*
X102849500Y-171962186D01*
X102882796Y-172385250D01*
X102949182Y-172804398D01*
X103048250Y-173217045D01*
X103048254Y-173217056D01*
X103179385Y-173620641D01*
X103246000Y-173781463D01*
X103341789Y-174012716D01*
X103534450Y-174390835D01*
X103534457Y-174390848D01*
X103534460Y-174390853D01*
X103557375Y-174428246D01*
X103756184Y-174752672D01*
X103756192Y-174752683D01*
X103756198Y-174752692D01*
X104005617Y-175095989D01*
X104005627Y-175096003D01*
X104128919Y-175240358D01*
X104281231Y-175418692D01*
X104581308Y-175718769D01*
X104581314Y-175718774D01*
X104903996Y-175994372D01*
X104904010Y-175994382D01*
X105111749Y-176145313D01*
X105247328Y-176243816D01*
X105375685Y-176322473D01*
X105609146Y-176465539D01*
X105609151Y-176465542D01*
X105609156Y-176465544D01*
X105609165Y-176465550D01*
X105987284Y-176658211D01*
X106379353Y-176820612D01*
X106379358Y-176820614D01*
X106481979Y-176853957D01*
X106782955Y-176951750D01*
X107195602Y-177050818D01*
X107614750Y-177117204D01*
X108037814Y-177150500D01*
X108037822Y-177150500D01*
X108462178Y-177150500D01*
X108462186Y-177150500D01*
X108885250Y-177117204D01*
X109304398Y-177050818D01*
X109717045Y-176951750D01*
X110120647Y-176820612D01*
X110512716Y-176658211D01*
X110890835Y-176465550D01*
X111252672Y-176243816D01*
X111595997Y-175994377D01*
X111918692Y-175718769D01*
X112218769Y-175418692D01*
X112494377Y-175095997D01*
X112743816Y-174752672D01*
X112965550Y-174390835D01*
X113158211Y-174012716D01*
X113320612Y-173620647D01*
X113451750Y-173217045D01*
X113550818Y-172804398D01*
X113617204Y-172385250D01*
X113650500Y-171962186D01*
X113650500Y-171537814D01*
X119349500Y-171537814D01*
X119349500Y-171558097D01*
X119349500Y-171962186D01*
X119382796Y-172385250D01*
X119449182Y-172804398D01*
X119548250Y-173217045D01*
X119548254Y-173217056D01*
X119679385Y-173620641D01*
X119746000Y-173781463D01*
X119841789Y-174012716D01*
X120034450Y-174390835D01*
X120034457Y-174390848D01*
X120034460Y-174390853D01*
X120057375Y-174428246D01*
X120256184Y-174752672D01*
X120256192Y-174752683D01*
X120256198Y-174752692D01*
X120505617Y-175095989D01*
X120505627Y-175096003D01*
X120628919Y-175240358D01*
X120781231Y-175418692D01*
X121081308Y-175718769D01*
X121081314Y-175718774D01*
X121403996Y-175994372D01*
X121404010Y-175994382D01*
X121611749Y-176145313D01*
X121747328Y-176243816D01*
X121875685Y-176322473D01*
X122109146Y-176465539D01*
X122109151Y-176465542D01*
X122109156Y-176465544D01*
X122109165Y-176465550D01*
X122487284Y-176658211D01*
X122879353Y-176820612D01*
X122879358Y-176820614D01*
X122981979Y-176853957D01*
X123282955Y-176951750D01*
X123695602Y-177050818D01*
X124114750Y-177117204D01*
X124537814Y-177150500D01*
X124537822Y-177150500D01*
X124962178Y-177150500D01*
X124962186Y-177150500D01*
X125385250Y-177117204D01*
X125804398Y-177050818D01*
X126217045Y-176951750D01*
X126620647Y-176820612D01*
X127012716Y-176658211D01*
X127390835Y-176465550D01*
X127752672Y-176243816D01*
X128095997Y-175994377D01*
X128418692Y-175718769D01*
X128718769Y-175418692D01*
X128994377Y-175095997D01*
X129243816Y-174752672D01*
X129465550Y-174390835D01*
X129658211Y-174012716D01*
X129820612Y-173620647D01*
X129951750Y-173217045D01*
X130050818Y-172804398D01*
X130117204Y-172385250D01*
X130150500Y-171962186D01*
X130150500Y-171537814D01*
X135849500Y-171537814D01*
X135849500Y-171558097D01*
X135849500Y-171962186D01*
X135882796Y-172385250D01*
X135949182Y-172804398D01*
X136048250Y-173217045D01*
X136048254Y-173217056D01*
X136179385Y-173620641D01*
X136246000Y-173781463D01*
X136341789Y-174012716D01*
X136534450Y-174390835D01*
X136534457Y-174390848D01*
X136534460Y-174390853D01*
X136557375Y-174428246D01*
X136756184Y-174752672D01*
X136756192Y-174752683D01*
X136756198Y-174752692D01*
X137005617Y-175095989D01*
X137005627Y-175096003D01*
X137128919Y-175240358D01*
X137281231Y-175418692D01*
X137581308Y-175718769D01*
X137581314Y-175718774D01*
X137903996Y-175994372D01*
X137904010Y-175994382D01*
X138111749Y-176145313D01*
X138247328Y-176243816D01*
X138375685Y-176322473D01*
X138609146Y-176465539D01*
X138609151Y-176465542D01*
X138609156Y-176465544D01*
X138609165Y-176465550D01*
X138987284Y-176658211D01*
X139379353Y-176820612D01*
X139379358Y-176820614D01*
X139481979Y-176853957D01*
X139782955Y-176951750D01*
X140195602Y-177050818D01*
X140614750Y-177117204D01*
X141037814Y-177150500D01*
X141037822Y-177150500D01*
X141462178Y-177150500D01*
X141462186Y-177150500D01*
X141885250Y-177117204D01*
X142304398Y-177050818D01*
X142717045Y-176951750D01*
X143120647Y-176820612D01*
X143512716Y-176658211D01*
X143890835Y-176465550D01*
X144252672Y-176243816D01*
X144595997Y-175994377D01*
X144918692Y-175718769D01*
X145218769Y-175418692D01*
X145494377Y-175095997D01*
X145743816Y-174752672D01*
X145965550Y-174390835D01*
X146158211Y-174012716D01*
X146320612Y-173620647D01*
X146451750Y-173217045D01*
X146550818Y-172804398D01*
X146617204Y-172385250D01*
X146650500Y-171962186D01*
X146650500Y-171537814D01*
X146617204Y-171114750D01*
X146550818Y-170695602D01*
X146451750Y-170282955D01*
X146320612Y-169879353D01*
X146158211Y-169487284D01*
X145965550Y-169109165D01*
X145965544Y-169109156D01*
X145965542Y-169109151D01*
X145965539Y-169109146D01*
X145743823Y-168747340D01*
X145743816Y-168747328D01*
X145494377Y-168404003D01*
X145494372Y-168403996D01*
X145218774Y-168081314D01*
X145218769Y-168081308D01*
X144918692Y-167781231D01*
X144918685Y-167781225D01*
X144596003Y-167505627D01*
X144595989Y-167505617D01*
X144252692Y-167256198D01*
X144252683Y-167256192D01*
X144252672Y-167256184D01*
X144252659Y-167256176D01*
X143890853Y-167034460D01*
X143890848Y-167034457D01*
X143890838Y-167034452D01*
X143890835Y-167034450D01*
X143512716Y-166841789D01*
X143512702Y-166841783D01*
X143120641Y-166679385D01*
X142833478Y-166586081D01*
X142717045Y-166548250D01*
X142304398Y-166449182D01*
X141885250Y-166382796D01*
X141462191Y-166349500D01*
X141462186Y-166349500D01*
X141037814Y-166349500D01*
X141037808Y-166349500D01*
X140614749Y-166382796D01*
X140614748Y-166382796D01*
X140195607Y-166449181D01*
X140195604Y-166449181D01*
X140195602Y-166449182D01*
X140047817Y-166484661D01*
X139782966Y-166548247D01*
X139782960Y-166548248D01*
X139782955Y-166548250D01*
X139782943Y-166548254D01*
X139379358Y-166679385D01*
X138987297Y-166841783D01*
X138987284Y-166841789D01*
X138609151Y-167034457D01*
X138609146Y-167034460D01*
X138247340Y-167256176D01*
X138247307Y-167256198D01*
X137904010Y-167505617D01*
X137903996Y-167505627D01*
X137581314Y-167781225D01*
X137581300Y-167781238D01*
X137281238Y-168081300D01*
X137281225Y-168081314D01*
X137005627Y-168403996D01*
X137005617Y-168404010D01*
X136756198Y-168747307D01*
X136756176Y-168747340D01*
X136534460Y-169109146D01*
X136534457Y-169109151D01*
X136341789Y-169487284D01*
X136341783Y-169487297D01*
X136179385Y-169879358D01*
X136048254Y-170282943D01*
X136048247Y-170282966D01*
X135949181Y-170695607D01*
X135933000Y-170797774D01*
X135882796Y-171114750D01*
X135849500Y-171537814D01*
X130150500Y-171537814D01*
X130117204Y-171114750D01*
X130050818Y-170695602D01*
X129951750Y-170282955D01*
X129820612Y-169879353D01*
X129658211Y-169487284D01*
X129465550Y-169109165D01*
X129465544Y-169109156D01*
X129465542Y-169109151D01*
X129465539Y-169109146D01*
X129243823Y-168747340D01*
X129243816Y-168747328D01*
X128994377Y-168404003D01*
X128994372Y-168403996D01*
X128718774Y-168081314D01*
X128718769Y-168081308D01*
X128418692Y-167781231D01*
X128418685Y-167781225D01*
X128096003Y-167505627D01*
X128095989Y-167505617D01*
X127752692Y-167256198D01*
X127752683Y-167256192D01*
X127752672Y-167256184D01*
X127752659Y-167256176D01*
X127390853Y-167034460D01*
X127390848Y-167034457D01*
X127390838Y-167034452D01*
X127390835Y-167034450D01*
X127012716Y-166841789D01*
X127012702Y-166841783D01*
X126620641Y-166679385D01*
X126333478Y-166586081D01*
X126217045Y-166548250D01*
X125804398Y-166449182D01*
X125385250Y-166382796D01*
X124962191Y-166349500D01*
X124962186Y-166349500D01*
X124537814Y-166349500D01*
X124537808Y-166349500D01*
X124114749Y-166382796D01*
X124114748Y-166382796D01*
X123695607Y-166449181D01*
X123695604Y-166449181D01*
X123695602Y-166449182D01*
X123547817Y-166484661D01*
X123282966Y-166548247D01*
X123282960Y-166548248D01*
X123282955Y-166548250D01*
X123282943Y-166548254D01*
X122879358Y-166679385D01*
X122487297Y-166841783D01*
X122487284Y-166841789D01*
X122109151Y-167034457D01*
X122109146Y-167034460D01*
X121747340Y-167256176D01*
X121747307Y-167256198D01*
X121404010Y-167505617D01*
X121403996Y-167505627D01*
X121081314Y-167781225D01*
X121081300Y-167781238D01*
X120781238Y-168081300D01*
X120781225Y-168081314D01*
X120505627Y-168403996D01*
X120505617Y-168404010D01*
X120256198Y-168747307D01*
X120256176Y-168747340D01*
X120034460Y-169109146D01*
X120034457Y-169109151D01*
X119841789Y-169487284D01*
X119841783Y-169487297D01*
X119679385Y-169879358D01*
X119548254Y-170282943D01*
X119548247Y-170282966D01*
X119449181Y-170695607D01*
X119433000Y-170797774D01*
X119382796Y-171114750D01*
X119349500Y-171537814D01*
X113650500Y-171537814D01*
X113617204Y-171114750D01*
X113550818Y-170695602D01*
X113451750Y-170282955D01*
X113320612Y-169879353D01*
X113158211Y-169487284D01*
X112965550Y-169109165D01*
X112965544Y-169109156D01*
X112965542Y-169109151D01*
X112965539Y-169109146D01*
X112743823Y-168747340D01*
X112743816Y-168747328D01*
X112494377Y-168404003D01*
X112494372Y-168403996D01*
X112218774Y-168081314D01*
X112218769Y-168081308D01*
X111918692Y-167781231D01*
X111918685Y-167781225D01*
X111596003Y-167505627D01*
X111595989Y-167505617D01*
X111252692Y-167256198D01*
X111252683Y-167256192D01*
X111252672Y-167256184D01*
X111252659Y-167256176D01*
X110890853Y-167034460D01*
X110890848Y-167034457D01*
X110890838Y-167034452D01*
X110890835Y-167034450D01*
X110512716Y-166841789D01*
X110512702Y-166841783D01*
X110120641Y-166679385D01*
X109833478Y-166586081D01*
X109717045Y-166548250D01*
X109304398Y-166449182D01*
X108885250Y-166382796D01*
X108462191Y-166349500D01*
X108462186Y-166349500D01*
X108037814Y-166349500D01*
X108037808Y-166349500D01*
X107614749Y-166382796D01*
X107614748Y-166382796D01*
X107195607Y-166449181D01*
X107195604Y-166449181D01*
X107195602Y-166449182D01*
X107047817Y-166484661D01*
X106782966Y-166548247D01*
X106782960Y-166548248D01*
X106782955Y-166548250D01*
X106782943Y-166548254D01*
X106379358Y-166679385D01*
X105987297Y-166841783D01*
X105987284Y-166841789D01*
X105609151Y-167034457D01*
X105609146Y-167034460D01*
X105247340Y-167256176D01*
X105247307Y-167256198D01*
X104904010Y-167505617D01*
X104903996Y-167505627D01*
X104581314Y-167781225D01*
X104581300Y-167781238D01*
X104281238Y-168081300D01*
X104281225Y-168081314D01*
X104005627Y-168403996D01*
X104005617Y-168404010D01*
X103756198Y-168747307D01*
X103756176Y-168747340D01*
X103534460Y-169109146D01*
X103534457Y-169109151D01*
X103341789Y-169487284D01*
X103341783Y-169487297D01*
X103179385Y-169879358D01*
X103048254Y-170282943D01*
X103048247Y-170282966D01*
X102949181Y-170695607D01*
X102933000Y-170797774D01*
X102882796Y-171114750D01*
X102849500Y-171537814D01*
X97150500Y-171537814D01*
X97117204Y-171114750D01*
X97050818Y-170695602D01*
X96951750Y-170282955D01*
X96820612Y-169879353D01*
X96658211Y-169487284D01*
X96465550Y-169109165D01*
X96465544Y-169109156D01*
X96465542Y-169109151D01*
X96465539Y-169109146D01*
X96243823Y-168747340D01*
X96243816Y-168747328D01*
X95994377Y-168404003D01*
X95994372Y-168403996D01*
X95718774Y-168081314D01*
X95718769Y-168081308D01*
X95418692Y-167781231D01*
X95418685Y-167781225D01*
X95096003Y-167505627D01*
X95095989Y-167505617D01*
X94752692Y-167256198D01*
X94752683Y-167256192D01*
X94752672Y-167256184D01*
X94752659Y-167256176D01*
X94390853Y-167034460D01*
X94390848Y-167034457D01*
X94390838Y-167034452D01*
X94390835Y-167034450D01*
X94012716Y-166841789D01*
X94012702Y-166841783D01*
X93620641Y-166679385D01*
X93333478Y-166586081D01*
X93217045Y-166548250D01*
X92804398Y-166449182D01*
X92385250Y-166382796D01*
X91962191Y-166349500D01*
X91962186Y-166349500D01*
X91537814Y-166349500D01*
X91537808Y-166349500D01*
X91114749Y-166382796D01*
X91114748Y-166382796D01*
X90695607Y-166449181D01*
X90695604Y-166449181D01*
X90695602Y-166449182D01*
X90547817Y-166484661D01*
X90282966Y-166548247D01*
X90282960Y-166548248D01*
X90282955Y-166548250D01*
X90282943Y-166548254D01*
X89879358Y-166679385D01*
X89487297Y-166841783D01*
X89487284Y-166841789D01*
X89109151Y-167034457D01*
X89109146Y-167034460D01*
X88747340Y-167256176D01*
X88747307Y-167256198D01*
X88404010Y-167505617D01*
X88403996Y-167505627D01*
X88081314Y-167781225D01*
X88081300Y-167781238D01*
X87781238Y-168081300D01*
X87781225Y-168081314D01*
X87505627Y-168403996D01*
X87505617Y-168404010D01*
X87256198Y-168747307D01*
X87256176Y-168747340D01*
X87034460Y-169109146D01*
X87034457Y-169109151D01*
X86841789Y-169487284D01*
X86841783Y-169487297D01*
X86679385Y-169879358D01*
X86548254Y-170282943D01*
X86548247Y-170282966D01*
X86449181Y-170695607D01*
X86433000Y-170797774D01*
X86382796Y-171114750D01*
X86349500Y-171537814D01*
X80650500Y-171537814D01*
X80617204Y-171114750D01*
X80550818Y-170695602D01*
X80451750Y-170282955D01*
X80320612Y-169879353D01*
X80158211Y-169487284D01*
X79965550Y-169109165D01*
X79965544Y-169109156D01*
X79965542Y-169109151D01*
X79965539Y-169109146D01*
X79743823Y-168747340D01*
X79743816Y-168747328D01*
X79494377Y-168404003D01*
X79494372Y-168403996D01*
X79218774Y-168081314D01*
X79218769Y-168081308D01*
X78918692Y-167781231D01*
X78918685Y-167781225D01*
X78596003Y-167505627D01*
X78595989Y-167505617D01*
X78252692Y-167256198D01*
X78252683Y-167256192D01*
X78252672Y-167256184D01*
X78252659Y-167256176D01*
X77890853Y-167034460D01*
X77890848Y-167034457D01*
X77890838Y-167034452D01*
X77890835Y-167034450D01*
X77512716Y-166841789D01*
X77512702Y-166841783D01*
X77120641Y-166679385D01*
X76833478Y-166586081D01*
X76717045Y-166548250D01*
X76304398Y-166449182D01*
X75885250Y-166382796D01*
X75462191Y-166349500D01*
X75462186Y-166349500D01*
X75037814Y-166349500D01*
X75037808Y-166349500D01*
X74614749Y-166382796D01*
X74614748Y-166382796D01*
X74195607Y-166449181D01*
X74195604Y-166449181D01*
X74195602Y-166449182D01*
X74047817Y-166484661D01*
X73782966Y-166548247D01*
X73782960Y-166548248D01*
X73782955Y-166548250D01*
X73782943Y-166548254D01*
X73379358Y-166679385D01*
X72987297Y-166841783D01*
X72987284Y-166841789D01*
X72609151Y-167034457D01*
X72609146Y-167034460D01*
X72247340Y-167256176D01*
X72247307Y-167256198D01*
X71904010Y-167505617D01*
X71903996Y-167505627D01*
X71581314Y-167781225D01*
X71581300Y-167781238D01*
X71281238Y-168081300D01*
X71281225Y-168081314D01*
X71005627Y-168403996D01*
X71005617Y-168404010D01*
X70756198Y-168747307D01*
X70756176Y-168747340D01*
X70534460Y-169109146D01*
X70534457Y-169109151D01*
X70341789Y-169487284D01*
X70341783Y-169487297D01*
X70179385Y-169879358D01*
X70048254Y-170282943D01*
X70048247Y-170282966D01*
X69949181Y-170695607D01*
X69933000Y-170797774D01*
X69882796Y-171114750D01*
X69849500Y-171537814D01*
X64150500Y-171537814D01*
X64117204Y-171114750D01*
X64050818Y-170695602D01*
X63951750Y-170282955D01*
X63820612Y-169879353D01*
X63658211Y-169487284D01*
X63465550Y-169109165D01*
X63465544Y-169109156D01*
X63465542Y-169109151D01*
X63465539Y-169109146D01*
X63243823Y-168747340D01*
X63243816Y-168747328D01*
X62994377Y-168404003D01*
X62994372Y-168403996D01*
X62718774Y-168081314D01*
X62718769Y-168081308D01*
X62418692Y-167781231D01*
X62418685Y-167781225D01*
X62096003Y-167505627D01*
X62095989Y-167505617D01*
X61752692Y-167256198D01*
X61752683Y-167256192D01*
X61752672Y-167256184D01*
X61752659Y-167256176D01*
X61390853Y-167034460D01*
X61390848Y-167034457D01*
X61390838Y-167034452D01*
X61390835Y-167034450D01*
X61012716Y-166841789D01*
X61012702Y-166841783D01*
X60620641Y-166679385D01*
X60333478Y-166586081D01*
X60217045Y-166548250D01*
X59804398Y-166449182D01*
X59385250Y-166382796D01*
X58962191Y-166349500D01*
X58962186Y-166349500D01*
X58537814Y-166349500D01*
X58537808Y-166349500D01*
X58114749Y-166382796D01*
X58114748Y-166382796D01*
X57695607Y-166449181D01*
X57695604Y-166449181D01*
X57695602Y-166449182D01*
X57547817Y-166484661D01*
X57282966Y-166548247D01*
X57282960Y-166548248D01*
X57282955Y-166548250D01*
X57282943Y-166548254D01*
X56879358Y-166679385D01*
X56487297Y-166841783D01*
X56487284Y-166841789D01*
X56109151Y-167034457D01*
X56109146Y-167034460D01*
X55747340Y-167256176D01*
X55747307Y-167256198D01*
X55404010Y-167505617D01*
X55403996Y-167505627D01*
X55081314Y-167781225D01*
X55081300Y-167781238D01*
X54781238Y-168081300D01*
X54781225Y-168081314D01*
X54505627Y-168403996D01*
X54505617Y-168404010D01*
X54256198Y-168747307D01*
X54256176Y-168747340D01*
X54034460Y-169109146D01*
X54034457Y-169109151D01*
X53841789Y-169487284D01*
X53841783Y-169487297D01*
X53679385Y-169879358D01*
X53548254Y-170282943D01*
X53548247Y-170282966D01*
X53449181Y-170695607D01*
X53433000Y-170797774D01*
X53382796Y-171114750D01*
X53349500Y-171537814D01*
X50500500Y-171537814D01*
X50500500Y-160381995D01*
X79949500Y-160381995D01*
X79949500Y-160618004D01*
X79949501Y-160618020D01*
X79980306Y-160852010D01*
X80041394Y-161079993D01*
X80131714Y-161298045D01*
X80131719Y-161298056D01*
X80202677Y-161420957D01*
X80249727Y-161502450D01*
X80249729Y-161502453D01*
X80249730Y-161502454D01*
X80393406Y-161689697D01*
X80393412Y-161689704D01*
X80560295Y-161856587D01*
X80560301Y-161856592D01*
X80747550Y-162000273D01*
X80878918Y-162076118D01*
X80951943Y-162118280D01*
X80951948Y-162118282D01*
X80951951Y-162118284D01*
X81170007Y-162208606D01*
X81397986Y-162269693D01*
X81631989Y-162300500D01*
X81631996Y-162300500D01*
X81868004Y-162300500D01*
X81868011Y-162300500D01*
X82102014Y-162269693D01*
X82329993Y-162208606D01*
X82548049Y-162118284D01*
X82752450Y-162000273D01*
X82939699Y-161856592D01*
X83106592Y-161689699D01*
X83250273Y-161502450D01*
X83368284Y-161298049D01*
X83458606Y-161079993D01*
X83519693Y-160852014D01*
X83550500Y-160618011D01*
X83550500Y-160381989D01*
X83519693Y-160147986D01*
X83458606Y-159920007D01*
X83368284Y-159701951D01*
X83368282Y-159701948D01*
X83368280Y-159701943D01*
X83326118Y-159628918D01*
X83250273Y-159497550D01*
X83106592Y-159310301D01*
X83106587Y-159310295D01*
X82939704Y-159143412D01*
X82939697Y-159143406D01*
X82752454Y-158999730D01*
X82752453Y-158999729D01*
X82752450Y-158999727D01*
X82670957Y-158952677D01*
X82548056Y-158881719D01*
X82548045Y-158881714D01*
X82329993Y-158791394D01*
X82102010Y-158730306D01*
X81868020Y-158699501D01*
X81868017Y-158699500D01*
X81868011Y-158699500D01*
X81631989Y-158699500D01*
X81631983Y-158699500D01*
X81631979Y-158699501D01*
X81397989Y-158730306D01*
X81170006Y-158791394D01*
X80951954Y-158881714D01*
X80951943Y-158881719D01*
X80747545Y-158999730D01*
X80560302Y-159143406D01*
X80560295Y-159143412D01*
X80393412Y-159310295D01*
X80393406Y-159310302D01*
X80249730Y-159497545D01*
X80131719Y-159701943D01*
X80131714Y-159701954D01*
X80041394Y-159920006D01*
X79980306Y-160147989D01*
X79949501Y-160381979D01*
X79949500Y-160381995D01*
X50500500Y-160381995D01*
X50500500Y-158631902D01*
X54749500Y-158631902D01*
X54749500Y-158868097D01*
X54786446Y-159101368D01*
X54859433Y-159325996D01*
X54946845Y-159497550D01*
X54966657Y-159536433D01*
X55105483Y-159727510D01*
X55272490Y-159894517D01*
X55463567Y-160033343D01*
X55562991Y-160084002D01*
X55674003Y-160140566D01*
X55674005Y-160140566D01*
X55674008Y-160140568D01*
X55794412Y-160179689D01*
X55898631Y-160213553D01*
X56131903Y-160250500D01*
X56131908Y-160250500D01*
X56368097Y-160250500D01*
X56601368Y-160213553D01*
X56825992Y-160140568D01*
X57036433Y-160033343D01*
X57227510Y-159894517D01*
X57394517Y-159727510D01*
X57533343Y-159536433D01*
X57640568Y-159325992D01*
X57713553Y-159101368D01*
X57729651Y-158999730D01*
X57750500Y-158868097D01*
X57750500Y-158631902D01*
X57713553Y-158398631D01*
X57640566Y-158174003D01*
X57533342Y-157963566D01*
X57394517Y-157772490D01*
X57227510Y-157605483D01*
X57036433Y-157466657D01*
X56825996Y-157359433D01*
X56601368Y-157286446D01*
X56368097Y-157249500D01*
X56368092Y-157249500D01*
X56131908Y-157249500D01*
X56131903Y-157249500D01*
X55898631Y-157286446D01*
X55674003Y-157359433D01*
X55463566Y-157466657D01*
X55354550Y-157545862D01*
X55272490Y-157605483D01*
X55272488Y-157605485D01*
X55272487Y-157605485D01*
X55105485Y-157772487D01*
X55105485Y-157772488D01*
X55105483Y-157772490D01*
X55045862Y-157854550D01*
X54966657Y-157963566D01*
X54859433Y-158174003D01*
X54786446Y-158398631D01*
X54749500Y-158631902D01*
X50500500Y-158631902D01*
X50500500Y-155381995D01*
X79949500Y-155381995D01*
X79949500Y-155618004D01*
X79949501Y-155618020D01*
X79980306Y-155852010D01*
X80041394Y-156079993D01*
X80131714Y-156298045D01*
X80131719Y-156298056D01*
X80202677Y-156420957D01*
X80249727Y-156502450D01*
X80249729Y-156502453D01*
X80249730Y-156502454D01*
X80393406Y-156689697D01*
X80393412Y-156689704D01*
X80560295Y-156856587D01*
X80560301Y-156856592D01*
X80747550Y-157000273D01*
X80878918Y-157076118D01*
X80951943Y-157118280D01*
X80951948Y-157118282D01*
X80951951Y-157118284D01*
X81170007Y-157208606D01*
X81397986Y-157269693D01*
X81631989Y-157300500D01*
X81631996Y-157300500D01*
X81868004Y-157300500D01*
X81868011Y-157300500D01*
X82102014Y-157269693D01*
X82329993Y-157208606D01*
X82548049Y-157118284D01*
X82752450Y-157000273D01*
X82939699Y-156856592D01*
X83106592Y-156689699D01*
X83250273Y-156502450D01*
X83368284Y-156298049D01*
X83458606Y-156079993D01*
X83519693Y-155852014D01*
X83550500Y-155618011D01*
X83550500Y-155381989D01*
X83519693Y-155147986D01*
X83458606Y-154920007D01*
X83368284Y-154701951D01*
X83368282Y-154701948D01*
X83368280Y-154701943D01*
X83326118Y-154628918D01*
X83250273Y-154497550D01*
X83106592Y-154310301D01*
X83106587Y-154310295D01*
X82939704Y-154143412D01*
X82939697Y-154143406D01*
X82752454Y-153999730D01*
X82752453Y-153999729D01*
X82752450Y-153999727D01*
X82670957Y-153952677D01*
X82548056Y-153881719D01*
X82548045Y-153881714D01*
X82329993Y-153791394D01*
X82102010Y-153730306D01*
X81868020Y-153699501D01*
X81868017Y-153699500D01*
X81868011Y-153699500D01*
X81631989Y-153699500D01*
X81631983Y-153699500D01*
X81631979Y-153699501D01*
X81397989Y-153730306D01*
X81170006Y-153791394D01*
X80951954Y-153881714D01*
X80951943Y-153881719D01*
X80747545Y-153999730D01*
X80560302Y-154143406D01*
X80560295Y-154143412D01*
X80393412Y-154310295D01*
X80393406Y-154310302D01*
X80249730Y-154497545D01*
X80131719Y-154701943D01*
X80131714Y-154701954D01*
X80041394Y-154920006D01*
X79980306Y-155147989D01*
X79949501Y-155381979D01*
X79949500Y-155381995D01*
X50500500Y-155381995D01*
X50500500Y-147593514D01*
X52000000Y-147593514D01*
X52006401Y-147653042D01*
X52006403Y-147653049D01*
X52056645Y-147787756D01*
X52056649Y-147787763D01*
X52142809Y-147902857D01*
X52142812Y-147902860D01*
X52257906Y-147989020D01*
X52257913Y-147989024D01*
X52392620Y-148039266D01*
X52392627Y-148039268D01*
X52452155Y-148045669D01*
X52452172Y-148045670D01*
X54750000Y-148045670D01*
X55250000Y-148045670D01*
X57547828Y-148045670D01*
X57547844Y-148045669D01*
X57607372Y-148039268D01*
X57607379Y-148039266D01*
X57742086Y-147989024D01*
X57742093Y-147989020D01*
X57857187Y-147902860D01*
X57857190Y-147902857D01*
X57943350Y-147787763D01*
X57943354Y-147787756D01*
X57993596Y-147653049D01*
X57993598Y-147653042D01*
X57999999Y-147593514D01*
X58000000Y-147593497D01*
X58000000Y-143553471D01*
X62999500Y-143553471D01*
X62999500Y-143946528D01*
X63038026Y-144337702D01*
X63114704Y-144723194D01*
X63114707Y-144723205D01*
X63228810Y-145099354D01*
X63379230Y-145462499D01*
X63379232Y-145462504D01*
X63564511Y-145809137D01*
X63564522Y-145809155D01*
X63782887Y-146135960D01*
X63782897Y-146135974D01*
X64032254Y-146439817D01*
X64310182Y-146717745D01*
X64310187Y-146717749D01*
X64310188Y-146717750D01*
X64614031Y-146967107D01*
X64940851Y-147185482D01*
X64940860Y-147185487D01*
X64940862Y-147185488D01*
X65287495Y-147370767D01*
X65287497Y-147370767D01*
X65287503Y-147370771D01*
X65650647Y-147521190D01*
X66026785Y-147635290D01*
X66026791Y-147635291D01*
X66026794Y-147635292D01*
X66026805Y-147635295D01*
X66412297Y-147711973D01*
X66803468Y-147750500D01*
X66803471Y-147750500D01*
X67196529Y-147750500D01*
X67196532Y-147750500D01*
X67587703Y-147711973D01*
X67662748Y-147697045D01*
X67973194Y-147635295D01*
X67973205Y-147635292D01*
X67973205Y-147635291D01*
X67973215Y-147635290D01*
X68349353Y-147521190D01*
X68712497Y-147370771D01*
X69059149Y-147185482D01*
X69385969Y-146967107D01*
X69689812Y-146717750D01*
X69967750Y-146439812D01*
X70217107Y-146135969D01*
X70435482Y-145809149D01*
X70620771Y-145462497D01*
X70771190Y-145099353D01*
X70885290Y-144723215D01*
X70885292Y-144723205D01*
X70885295Y-144723194D01*
X70961973Y-144337702D01*
X71000500Y-143946528D01*
X71000500Y-143553471D01*
X95999500Y-143553471D01*
X95999500Y-143946528D01*
X96038026Y-144337702D01*
X96114704Y-144723194D01*
X96114707Y-144723205D01*
X96228810Y-145099354D01*
X96379230Y-145462499D01*
X96379232Y-145462504D01*
X96564511Y-145809137D01*
X96564522Y-145809155D01*
X96782887Y-146135960D01*
X96782897Y-146135974D01*
X97032254Y-146439817D01*
X97310182Y-146717745D01*
X97310187Y-146717749D01*
X97310188Y-146717750D01*
X97614031Y-146967107D01*
X97940851Y-147185482D01*
X97940860Y-147185487D01*
X97940862Y-147185488D01*
X98287495Y-147370767D01*
X98287497Y-147370767D01*
X98287503Y-147370771D01*
X98650647Y-147521190D01*
X99026785Y-147635290D01*
X99026791Y-147635291D01*
X99026794Y-147635292D01*
X99026805Y-147635295D01*
X99412297Y-147711973D01*
X99803468Y-147750500D01*
X99803471Y-147750500D01*
X100196529Y-147750500D01*
X100196532Y-147750500D01*
X100587703Y-147711973D01*
X100662748Y-147697045D01*
X100973194Y-147635295D01*
X100973205Y-147635292D01*
X100973205Y-147635291D01*
X100973215Y-147635290D01*
X101349353Y-147521190D01*
X101712497Y-147370771D01*
X102059149Y-147185482D01*
X102385969Y-146967107D01*
X102689812Y-146717750D01*
X102967750Y-146439812D01*
X103217107Y-146135969D01*
X103435482Y-145809149D01*
X103620771Y-145462497D01*
X103771190Y-145099353D01*
X103885290Y-144723215D01*
X103885292Y-144723205D01*
X103885295Y-144723194D01*
X103961973Y-144337702D01*
X104000500Y-143946528D01*
X104000500Y-143553471D01*
X103961973Y-143162297D01*
X103885295Y-142776805D01*
X103885292Y-142776794D01*
X103885291Y-142776791D01*
X103885290Y-142776785D01*
X103771190Y-142400647D01*
X103620771Y-142037503D01*
X103608355Y-142014275D01*
X103435488Y-141690862D01*
X103435487Y-141690860D01*
X103435482Y-141690851D01*
X103217107Y-141364031D01*
X102967750Y-141060188D01*
X102967749Y-141060187D01*
X102967745Y-141060182D01*
X102689817Y-140782254D01*
X102385974Y-140532897D01*
X102385973Y-140532896D01*
X102385969Y-140532893D01*
X102059149Y-140314518D01*
X102059144Y-140314515D01*
X102059137Y-140314511D01*
X101712504Y-140129232D01*
X101712499Y-140129230D01*
X101349354Y-139978810D01*
X100973205Y-139864707D01*
X100973194Y-139864704D01*
X100587702Y-139788026D01*
X100293089Y-139759010D01*
X100196532Y-139749500D01*
X99803468Y-139749500D01*
X99714251Y-139758287D01*
X99412297Y-139788026D01*
X99026805Y-139864704D01*
X99026794Y-139864707D01*
X98650645Y-139978810D01*
X98287500Y-140129230D01*
X98287495Y-140129232D01*
X97940862Y-140314511D01*
X97940844Y-140314522D01*
X97614039Y-140532887D01*
X97614025Y-140532897D01*
X97310182Y-140782254D01*
X97032254Y-141060182D01*
X96782897Y-141364025D01*
X96782887Y-141364039D01*
X96564522Y-141690844D01*
X96564511Y-141690862D01*
X96379232Y-142037495D01*
X96379230Y-142037500D01*
X96228810Y-142400645D01*
X96114707Y-142776794D01*
X96114704Y-142776805D01*
X96038026Y-143162297D01*
X95999500Y-143553471D01*
X71000500Y-143553471D01*
X70961973Y-143162297D01*
X70885295Y-142776805D01*
X70885292Y-142776794D01*
X70885291Y-142776791D01*
X70885290Y-142776785D01*
X70771190Y-142400647D01*
X70620771Y-142037503D01*
X70608355Y-142014275D01*
X70435488Y-141690862D01*
X70435487Y-141690860D01*
X70435482Y-141690851D01*
X70217107Y-141364031D01*
X69967750Y-141060188D01*
X69967749Y-141060187D01*
X69967745Y-141060182D01*
X69689817Y-140782254D01*
X69385974Y-140532897D01*
X69385973Y-140532896D01*
X69385969Y-140532893D01*
X69059149Y-140314518D01*
X69059144Y-140314515D01*
X69059137Y-140314511D01*
X68712504Y-140129232D01*
X68712499Y-140129230D01*
X68349354Y-139978810D01*
X67973205Y-139864707D01*
X67973194Y-139864704D01*
X67587702Y-139788026D01*
X67293089Y-139759010D01*
X67196532Y-139749500D01*
X66803468Y-139749500D01*
X66714251Y-139758287D01*
X66412297Y-139788026D01*
X66026805Y-139864704D01*
X66026794Y-139864707D01*
X65650645Y-139978810D01*
X65287500Y-140129230D01*
X65287495Y-140129232D01*
X64940862Y-140314511D01*
X64940844Y-140314522D01*
X64614039Y-140532887D01*
X64614025Y-140532897D01*
X64310182Y-140782254D01*
X64032254Y-141060182D01*
X63782897Y-141364025D01*
X63782887Y-141364039D01*
X63564522Y-141690844D01*
X63564511Y-141690862D01*
X63379232Y-142037495D01*
X63379230Y-142037500D01*
X63228810Y-142400645D01*
X63114707Y-142776794D01*
X63114704Y-142776805D01*
X63038026Y-143162297D01*
X62999500Y-143553471D01*
X58000000Y-143553471D01*
X58000000Y-142795670D01*
X55250000Y-142795670D01*
X55250000Y-148045670D01*
X54750000Y-148045670D01*
X54750000Y-142795670D01*
X52000000Y-142795670D01*
X52000000Y-147593514D01*
X50500500Y-147593514D01*
X50500500Y-137497825D01*
X52000000Y-137497825D01*
X52000000Y-142295670D01*
X54750000Y-142295670D01*
X55250000Y-142295670D01*
X58000000Y-142295670D01*
X58000000Y-137497842D01*
X57999999Y-137497825D01*
X57993598Y-137438297D01*
X57993596Y-137438290D01*
X57943354Y-137303583D01*
X57943350Y-137303576D01*
X57857190Y-137188482D01*
X57857187Y-137188479D01*
X57742093Y-137102319D01*
X57742086Y-137102315D01*
X57607379Y-137052073D01*
X57607372Y-137052071D01*
X57547844Y-137045670D01*
X55250000Y-137045670D01*
X55250000Y-142295670D01*
X54750000Y-142295670D01*
X54750000Y-137045670D01*
X52452155Y-137045670D01*
X52392627Y-137052071D01*
X52392620Y-137052073D01*
X52257913Y-137102315D01*
X52257906Y-137102319D01*
X52142812Y-137188479D01*
X52142809Y-137188482D01*
X52056649Y-137303576D01*
X52056645Y-137303583D01*
X52006403Y-137438290D01*
X52006401Y-137438297D01*
X52000000Y-137497825D01*
X50500500Y-137497825D01*
X50500500Y-127631902D01*
X54749500Y-127631902D01*
X54749500Y-127868097D01*
X54786446Y-128101368D01*
X54859433Y-128325996D01*
X54966657Y-128536433D01*
X55105483Y-128727510D01*
X55272490Y-128894517D01*
X55463567Y-129033343D01*
X55562991Y-129084002D01*
X55674003Y-129140566D01*
X55674005Y-129140566D01*
X55674008Y-129140568D01*
X55794412Y-129179689D01*
X55898631Y-129213553D01*
X56131903Y-129250500D01*
X56131908Y-129250500D01*
X56368097Y-129250500D01*
X56601368Y-129213553D01*
X56825992Y-129140568D01*
X57036433Y-129033343D01*
X57227510Y-128894517D01*
X57394517Y-128727510D01*
X57533343Y-128536433D01*
X57640568Y-128325992D01*
X57713553Y-128101368D01*
X57750500Y-127868097D01*
X57750500Y-127631902D01*
X57713553Y-127398631D01*
X57640566Y-127174003D01*
X57533342Y-126963566D01*
X57394517Y-126772490D01*
X57227510Y-126605483D01*
X57036433Y-126466657D01*
X56825996Y-126359433D01*
X56601368Y-126286446D01*
X56368097Y-126249500D01*
X56368092Y-126249500D01*
X56131908Y-126249500D01*
X56131903Y-126249500D01*
X55898631Y-126286446D01*
X55674003Y-126359433D01*
X55463566Y-126466657D01*
X55354550Y-126545862D01*
X55272490Y-126605483D01*
X55272488Y-126605485D01*
X55272487Y-126605485D01*
X55105485Y-126772487D01*
X55105485Y-126772488D01*
X55105483Y-126772490D01*
X55045862Y-126854550D01*
X54966657Y-126963566D01*
X54859433Y-127174003D01*
X54786446Y-127398631D01*
X54749500Y-127631902D01*
X50500500Y-127631902D01*
X50500500Y-118881995D01*
X79949500Y-118881995D01*
X79949500Y-119118004D01*
X79949501Y-119118020D01*
X79980306Y-119352010D01*
X80041394Y-119579993D01*
X80131714Y-119798045D01*
X80131719Y-119798056D01*
X80202677Y-119920957D01*
X80249727Y-120002450D01*
X80249729Y-120002453D01*
X80249730Y-120002454D01*
X80393406Y-120189697D01*
X80393412Y-120189704D01*
X80560295Y-120356587D01*
X80560301Y-120356592D01*
X80747550Y-120500273D01*
X80878918Y-120576118D01*
X80951943Y-120618280D01*
X80951948Y-120618282D01*
X80951951Y-120618284D01*
X81170007Y-120708606D01*
X81397986Y-120769693D01*
X81631989Y-120800500D01*
X81631996Y-120800500D01*
X81868004Y-120800500D01*
X81868011Y-120800500D01*
X82102014Y-120769693D01*
X82329993Y-120708606D01*
X82548049Y-120618284D01*
X82752450Y-120500273D01*
X82939699Y-120356592D01*
X83106592Y-120189699D01*
X83250273Y-120002450D01*
X83368284Y-119798049D01*
X83458606Y-119579993D01*
X83519693Y-119352014D01*
X83550500Y-119118011D01*
X83550500Y-118881989D01*
X83519693Y-118647986D01*
X83458606Y-118420007D01*
X83368284Y-118201951D01*
X83368282Y-118201948D01*
X83368280Y-118201943D01*
X83326118Y-118128918D01*
X83250273Y-117997550D01*
X83106592Y-117810301D01*
X83106587Y-117810295D01*
X82939704Y-117643412D01*
X82939697Y-117643406D01*
X82752454Y-117499730D01*
X82752453Y-117499729D01*
X82752450Y-117499727D01*
X82670957Y-117452677D01*
X82548056Y-117381719D01*
X82548045Y-117381714D01*
X82329993Y-117291394D01*
X82102010Y-117230306D01*
X81868020Y-117199501D01*
X81868017Y-117199500D01*
X81868011Y-117199500D01*
X81631989Y-117199500D01*
X81631983Y-117199500D01*
X81631979Y-117199501D01*
X81397989Y-117230306D01*
X81170006Y-117291394D01*
X80951954Y-117381714D01*
X80951943Y-117381719D01*
X80747545Y-117499730D01*
X80560302Y-117643406D01*
X80560295Y-117643412D01*
X80393412Y-117810295D01*
X80393406Y-117810302D01*
X80249730Y-117997545D01*
X80131719Y-118201943D01*
X80131714Y-118201954D01*
X80041394Y-118420006D01*
X79980306Y-118647989D01*
X79949501Y-118881979D01*
X79949500Y-118881995D01*
X50500500Y-118881995D01*
X50500500Y-117131902D01*
X54749500Y-117131902D01*
X54749500Y-117368097D01*
X54786446Y-117601368D01*
X54859433Y-117825996D01*
X54946845Y-117997550D01*
X54966657Y-118036433D01*
X55105483Y-118227510D01*
X55272490Y-118394517D01*
X55463567Y-118533343D01*
X55562991Y-118584002D01*
X55674003Y-118640566D01*
X55674005Y-118640566D01*
X55674008Y-118640568D01*
X55794412Y-118679689D01*
X55898631Y-118713553D01*
X56131903Y-118750500D01*
X56131908Y-118750500D01*
X56368097Y-118750500D01*
X56601368Y-118713553D01*
X56825992Y-118640568D01*
X57036433Y-118533343D01*
X57227510Y-118394517D01*
X57394517Y-118227510D01*
X57533343Y-118036433D01*
X57640568Y-117825992D01*
X57713553Y-117601368D01*
X57729651Y-117499730D01*
X57750500Y-117368097D01*
X57750500Y-117131902D01*
X57713553Y-116898631D01*
X57640566Y-116674003D01*
X57533342Y-116463566D01*
X57394517Y-116272490D01*
X57227510Y-116105483D01*
X57036433Y-115966657D01*
X56825996Y-115859433D01*
X56601368Y-115786446D01*
X56368097Y-115749500D01*
X56368092Y-115749500D01*
X56131908Y-115749500D01*
X56131903Y-115749500D01*
X55898631Y-115786446D01*
X55674003Y-115859433D01*
X55463566Y-115966657D01*
X55354550Y-116045862D01*
X55272490Y-116105483D01*
X55272488Y-116105485D01*
X55272487Y-116105485D01*
X55105485Y-116272487D01*
X55105485Y-116272488D01*
X55105483Y-116272490D01*
X55045862Y-116354550D01*
X54966657Y-116463566D01*
X54859433Y-116674003D01*
X54786446Y-116898631D01*
X54749500Y-117131902D01*
X50500500Y-117131902D01*
X50500500Y-113881995D01*
X79949500Y-113881995D01*
X79949500Y-114118004D01*
X79949501Y-114118020D01*
X79980306Y-114352010D01*
X80041394Y-114579993D01*
X80131714Y-114798045D01*
X80131719Y-114798056D01*
X80202677Y-114920957D01*
X80249727Y-115002450D01*
X80249729Y-115002453D01*
X80249730Y-115002454D01*
X80393406Y-115189697D01*
X80393412Y-115189704D01*
X80560295Y-115356587D01*
X80560301Y-115356592D01*
X80747550Y-115500273D01*
X80878918Y-115576118D01*
X80951943Y-115618280D01*
X80951948Y-115618282D01*
X80951951Y-115618284D01*
X81170007Y-115708606D01*
X81397986Y-115769693D01*
X81631989Y-115800500D01*
X81631996Y-115800500D01*
X81868004Y-115800500D01*
X81868011Y-115800500D01*
X82102014Y-115769693D01*
X82329993Y-115708606D01*
X82548049Y-115618284D01*
X82752450Y-115500273D01*
X82939699Y-115356592D01*
X83106592Y-115189699D01*
X83250273Y-115002450D01*
X83368284Y-114798049D01*
X83458606Y-114579993D01*
X83519693Y-114352014D01*
X83550500Y-114118011D01*
X83550500Y-113881989D01*
X83519693Y-113647986D01*
X83458606Y-113420007D01*
X83368284Y-113201951D01*
X83368282Y-113201948D01*
X83368280Y-113201943D01*
X83326118Y-113128918D01*
X83250273Y-112997550D01*
X83106592Y-112810301D01*
X83106587Y-112810295D01*
X82939704Y-112643412D01*
X82939697Y-112643406D01*
X82752454Y-112499730D01*
X82752453Y-112499729D01*
X82752450Y-112499727D01*
X82670957Y-112452677D01*
X82548056Y-112381719D01*
X82548045Y-112381714D01*
X82329993Y-112291394D01*
X82102010Y-112230306D01*
X81868020Y-112199501D01*
X81868017Y-112199500D01*
X81868011Y-112199500D01*
X81631989Y-112199500D01*
X81631983Y-112199500D01*
X81631979Y-112199501D01*
X81397989Y-112230306D01*
X81170006Y-112291394D01*
X80951954Y-112381714D01*
X80951943Y-112381719D01*
X80747545Y-112499730D01*
X80560302Y-112643406D01*
X80560295Y-112643412D01*
X80393412Y-112810295D01*
X80393406Y-112810302D01*
X80249730Y-112997545D01*
X80131719Y-113201943D01*
X80131714Y-113201954D01*
X80041394Y-113420006D01*
X79980306Y-113647989D01*
X79949501Y-113881979D01*
X79949500Y-113881995D01*
X50500500Y-113881995D01*
X50500500Y-102053471D01*
X62999500Y-102053471D01*
X62999500Y-102446528D01*
X63038026Y-102837702D01*
X63114704Y-103223194D01*
X63114707Y-103223205D01*
X63228810Y-103599354D01*
X63379230Y-103962499D01*
X63379232Y-103962504D01*
X63564511Y-104309137D01*
X63564522Y-104309155D01*
X63782887Y-104635960D01*
X63782897Y-104635974D01*
X64032254Y-104939817D01*
X64310182Y-105217745D01*
X64310187Y-105217749D01*
X64310188Y-105217750D01*
X64614031Y-105467107D01*
X64940851Y-105685482D01*
X64940860Y-105685487D01*
X64940862Y-105685488D01*
X65287495Y-105870767D01*
X65287497Y-105870767D01*
X65287503Y-105870771D01*
X65650647Y-106021190D01*
X66026785Y-106135290D01*
X66026791Y-106135291D01*
X66026794Y-106135292D01*
X66026805Y-106135295D01*
X66412297Y-106211973D01*
X66803468Y-106250500D01*
X66803471Y-106250500D01*
X67196529Y-106250500D01*
X67196532Y-106250500D01*
X67587703Y-106211973D01*
X67662748Y-106197045D01*
X67973194Y-106135295D01*
X67973205Y-106135292D01*
X67973205Y-106135291D01*
X67973215Y-106135290D01*
X68349353Y-106021190D01*
X68712497Y-105870771D01*
X69059149Y-105685482D01*
X69385969Y-105467107D01*
X69689812Y-105217750D01*
X69967750Y-104939812D01*
X70217107Y-104635969D01*
X70435482Y-104309149D01*
X70620771Y-103962497D01*
X70771190Y-103599353D01*
X70885290Y-103223215D01*
X70885292Y-103223205D01*
X70885295Y-103223194D01*
X70961973Y-102837702D01*
X71000500Y-102446528D01*
X71000500Y-102053471D01*
X95999500Y-102053471D01*
X95999500Y-102446528D01*
X96038026Y-102837702D01*
X96114704Y-103223194D01*
X96114707Y-103223205D01*
X96228810Y-103599354D01*
X96379230Y-103962499D01*
X96379232Y-103962504D01*
X96564511Y-104309137D01*
X96564522Y-104309155D01*
X96782887Y-104635960D01*
X96782897Y-104635974D01*
X97032254Y-104939817D01*
X97310182Y-105217745D01*
X97310187Y-105217749D01*
X97310188Y-105217750D01*
X97614031Y-105467107D01*
X97940851Y-105685482D01*
X97940860Y-105685487D01*
X97940862Y-105685488D01*
X98287495Y-105870767D01*
X98287497Y-105870767D01*
X98287503Y-105870771D01*
X98650647Y-106021190D01*
X99026785Y-106135290D01*
X99026791Y-106135291D01*
X99026794Y-106135292D01*
X99026805Y-106135295D01*
X99412297Y-106211973D01*
X99803468Y-106250500D01*
X99803471Y-106250500D01*
X100196529Y-106250500D01*
X100196532Y-106250500D01*
X100587703Y-106211973D01*
X100662748Y-106197045D01*
X100973194Y-106135295D01*
X100973205Y-106135292D01*
X100973205Y-106135291D01*
X100973215Y-106135290D01*
X101349353Y-106021190D01*
X101712497Y-105870771D01*
X102059149Y-105685482D01*
X102385969Y-105467107D01*
X102689812Y-105217750D01*
X102967750Y-104939812D01*
X103217107Y-104635969D01*
X103435482Y-104309149D01*
X103620771Y-103962497D01*
X103771190Y-103599353D01*
X103885290Y-103223215D01*
X103885292Y-103223205D01*
X103885295Y-103223194D01*
X103961973Y-102837702D01*
X104000500Y-102446528D01*
X104000500Y-102053471D01*
X103961973Y-101662297D01*
X103885295Y-101276805D01*
X103885292Y-101276794D01*
X103885291Y-101276791D01*
X103885290Y-101276785D01*
X103771190Y-100900647D01*
X103620771Y-100537503D01*
X103608355Y-100514275D01*
X103435488Y-100190862D01*
X103435487Y-100190860D01*
X103435482Y-100190851D01*
X103217107Y-99864031D01*
X102967750Y-99560188D01*
X102967749Y-99560187D01*
X102967745Y-99560182D01*
X102689817Y-99282254D01*
X102385974Y-99032897D01*
X102385973Y-99032896D01*
X102385969Y-99032893D01*
X102059149Y-98814518D01*
X102059144Y-98814515D01*
X102059137Y-98814511D01*
X101712504Y-98629232D01*
X101712499Y-98629230D01*
X101349354Y-98478810D01*
X100973205Y-98364707D01*
X100973194Y-98364704D01*
X100587702Y-98288026D01*
X100293089Y-98259010D01*
X100196532Y-98249500D01*
X99803468Y-98249500D01*
X99714251Y-98258287D01*
X99412297Y-98288026D01*
X99026805Y-98364704D01*
X99026794Y-98364707D01*
X98650645Y-98478810D01*
X98287500Y-98629230D01*
X98287495Y-98629232D01*
X97940862Y-98814511D01*
X97940844Y-98814522D01*
X97614039Y-99032887D01*
X97614025Y-99032897D01*
X97310182Y-99282254D01*
X97032254Y-99560182D01*
X96782897Y-99864025D01*
X96782887Y-99864039D01*
X96564522Y-100190844D01*
X96564511Y-100190862D01*
X96379232Y-100537495D01*
X96379230Y-100537500D01*
X96228810Y-100900645D01*
X96114707Y-101276794D01*
X96114704Y-101276805D01*
X96038026Y-101662297D01*
X95999500Y-102053471D01*
X71000500Y-102053471D01*
X70961973Y-101662297D01*
X70885295Y-101276805D01*
X70885292Y-101276794D01*
X70885291Y-101276791D01*
X70885290Y-101276785D01*
X70771190Y-100900647D01*
X70620771Y-100537503D01*
X70608355Y-100514275D01*
X70435488Y-100190862D01*
X70435487Y-100190860D01*
X70435482Y-100190851D01*
X70217107Y-99864031D01*
X69967750Y-99560188D01*
X69967749Y-99560187D01*
X69967745Y-99560182D01*
X69689817Y-99282254D01*
X69385974Y-99032897D01*
X69385973Y-99032896D01*
X69385969Y-99032893D01*
X69059149Y-98814518D01*
X69059144Y-98814515D01*
X69059137Y-98814511D01*
X68712504Y-98629232D01*
X68712499Y-98629230D01*
X68349354Y-98478810D01*
X67973205Y-98364707D01*
X67973194Y-98364704D01*
X67587702Y-98288026D01*
X67293089Y-98259010D01*
X67196532Y-98249500D01*
X66803468Y-98249500D01*
X66714251Y-98258287D01*
X66412297Y-98288026D01*
X66026805Y-98364704D01*
X66026794Y-98364707D01*
X65650645Y-98478810D01*
X65287500Y-98629230D01*
X65287495Y-98629232D01*
X64940862Y-98814511D01*
X64940844Y-98814522D01*
X64614039Y-99032887D01*
X64614025Y-99032897D01*
X64310182Y-99282254D01*
X64032254Y-99560182D01*
X63782897Y-99864025D01*
X63782887Y-99864039D01*
X63564522Y-100190844D01*
X63564511Y-100190862D01*
X63379232Y-100537495D01*
X63379230Y-100537500D01*
X63228810Y-100900645D01*
X63114707Y-101276794D01*
X63114704Y-101276805D01*
X63038026Y-101662297D01*
X62999500Y-102053471D01*
X50500500Y-102053471D01*
X50500500Y-86131902D01*
X54749500Y-86131902D01*
X54749500Y-86368097D01*
X54786446Y-86601368D01*
X54859433Y-86825996D01*
X54966657Y-87036433D01*
X55105483Y-87227510D01*
X55272490Y-87394517D01*
X55463567Y-87533343D01*
X55562991Y-87584002D01*
X55674003Y-87640566D01*
X55674005Y-87640566D01*
X55674008Y-87640568D01*
X55794412Y-87679689D01*
X55898631Y-87713553D01*
X56131903Y-87750500D01*
X56131908Y-87750500D01*
X56368097Y-87750500D01*
X56601368Y-87713553D01*
X56825992Y-87640568D01*
X57036433Y-87533343D01*
X57227510Y-87394517D01*
X57394517Y-87227510D01*
X57533343Y-87036433D01*
X57640568Y-86825992D01*
X57713553Y-86601368D01*
X57750500Y-86368097D01*
X57750500Y-86131902D01*
X57713553Y-85898631D01*
X57640566Y-85674003D01*
X57533342Y-85463566D01*
X57394517Y-85272490D01*
X57227510Y-85105483D01*
X57036433Y-84966657D01*
X56825996Y-84859433D01*
X56601368Y-84786446D01*
X56368097Y-84749500D01*
X56368092Y-84749500D01*
X56131908Y-84749500D01*
X56131903Y-84749500D01*
X55898631Y-84786446D01*
X55674003Y-84859433D01*
X55463566Y-84966657D01*
X55354550Y-85045862D01*
X55272490Y-85105483D01*
X55272488Y-85105485D01*
X55272487Y-85105485D01*
X55105485Y-85272487D01*
X55105485Y-85272488D01*
X55105483Y-85272490D01*
X55045862Y-85354550D01*
X54966657Y-85463566D01*
X54859433Y-85674003D01*
X54786446Y-85898631D01*
X54749500Y-86131902D01*
X50500500Y-86131902D01*
X50500500Y-77381995D01*
X79949500Y-77381995D01*
X79949500Y-77618004D01*
X79949501Y-77618020D01*
X79980306Y-77852010D01*
X80041394Y-78079993D01*
X80131714Y-78298045D01*
X80131719Y-78298056D01*
X80202677Y-78420957D01*
X80249727Y-78502450D01*
X80249729Y-78502453D01*
X80249730Y-78502454D01*
X80393406Y-78689697D01*
X80393412Y-78689704D01*
X80560295Y-78856587D01*
X80560301Y-78856592D01*
X80747550Y-79000273D01*
X80878918Y-79076118D01*
X80951943Y-79118280D01*
X80951948Y-79118282D01*
X80951951Y-79118284D01*
X81170007Y-79208606D01*
X81397986Y-79269693D01*
X81631989Y-79300500D01*
X81631996Y-79300500D01*
X81868004Y-79300500D01*
X81868011Y-79300500D01*
X82102014Y-79269693D01*
X82329993Y-79208606D01*
X82548049Y-79118284D01*
X82752450Y-79000273D01*
X82939699Y-78856592D01*
X83106592Y-78689699D01*
X83250273Y-78502450D01*
X83368284Y-78298049D01*
X83458606Y-78079993D01*
X83519693Y-77852014D01*
X83550500Y-77618011D01*
X83550500Y-77381989D01*
X83519693Y-77147986D01*
X83458606Y-76920007D01*
X83368284Y-76701951D01*
X83368282Y-76701948D01*
X83368280Y-76701943D01*
X83326118Y-76628918D01*
X83250273Y-76497550D01*
X83106592Y-76310301D01*
X83106587Y-76310295D01*
X82939704Y-76143412D01*
X82939697Y-76143406D01*
X82752454Y-75999730D01*
X82752453Y-75999729D01*
X82752450Y-75999727D01*
X82670957Y-75952677D01*
X82548056Y-75881719D01*
X82548045Y-75881714D01*
X82329993Y-75791394D01*
X82102010Y-75730306D01*
X81868020Y-75699501D01*
X81868017Y-75699500D01*
X81868011Y-75699500D01*
X81631989Y-75699500D01*
X81631983Y-75699500D01*
X81631979Y-75699501D01*
X81397989Y-75730306D01*
X81170006Y-75791394D01*
X80951954Y-75881714D01*
X80951943Y-75881719D01*
X80747545Y-75999730D01*
X80560302Y-76143406D01*
X80560295Y-76143412D01*
X80393412Y-76310295D01*
X80393406Y-76310302D01*
X80249730Y-76497545D01*
X80131719Y-76701943D01*
X80131714Y-76701954D01*
X80041394Y-76920006D01*
X79980306Y-77147989D01*
X79949501Y-77381979D01*
X79949500Y-77381995D01*
X50500500Y-77381995D01*
X50500500Y-75631902D01*
X54749500Y-75631902D01*
X54749500Y-75868097D01*
X54786446Y-76101368D01*
X54859433Y-76325996D01*
X54946845Y-76497550D01*
X54966657Y-76536433D01*
X55105483Y-76727510D01*
X55272490Y-76894517D01*
X55463567Y-77033343D01*
X55562991Y-77084002D01*
X55674003Y-77140566D01*
X55674005Y-77140566D01*
X55674008Y-77140568D01*
X55794412Y-77179689D01*
X55898631Y-77213553D01*
X56131903Y-77250500D01*
X56131908Y-77250500D01*
X56368097Y-77250500D01*
X56601368Y-77213553D01*
X56825992Y-77140568D01*
X57036433Y-77033343D01*
X57227510Y-76894517D01*
X57394517Y-76727510D01*
X57533343Y-76536433D01*
X57640568Y-76325992D01*
X57713553Y-76101368D01*
X57729651Y-75999730D01*
X57750500Y-75868097D01*
X57750500Y-75631902D01*
X57713553Y-75398631D01*
X57640566Y-75174003D01*
X57533342Y-74963566D01*
X57394517Y-74772490D01*
X57227510Y-74605483D01*
X57036433Y-74466657D01*
X56825996Y-74359433D01*
X56601368Y-74286446D01*
X56368097Y-74249500D01*
X56368092Y-74249500D01*
X56131908Y-74249500D01*
X56131903Y-74249500D01*
X55898631Y-74286446D01*
X55674003Y-74359433D01*
X55463566Y-74466657D01*
X55354550Y-74545862D01*
X55272490Y-74605483D01*
X55272488Y-74605485D01*
X55272487Y-74605485D01*
X55105485Y-74772487D01*
X55105485Y-74772488D01*
X55105483Y-74772490D01*
X55045862Y-74854550D01*
X54966657Y-74963566D01*
X54859433Y-75174003D01*
X54786446Y-75398631D01*
X54749500Y-75631902D01*
X50500500Y-75631902D01*
X50500500Y-72381995D01*
X79949500Y-72381995D01*
X79949500Y-72618004D01*
X79949501Y-72618020D01*
X79980306Y-72852010D01*
X80041394Y-73079993D01*
X80131714Y-73298045D01*
X80131719Y-73298056D01*
X80202677Y-73420957D01*
X80249727Y-73502450D01*
X80249729Y-73502453D01*
X80249730Y-73502454D01*
X80393406Y-73689697D01*
X80393412Y-73689704D01*
X80560295Y-73856587D01*
X80560301Y-73856592D01*
X80747550Y-74000273D01*
X80878918Y-74076118D01*
X80951943Y-74118280D01*
X80951948Y-74118282D01*
X80951951Y-74118284D01*
X81170007Y-74208606D01*
X81397986Y-74269693D01*
X81631989Y-74300500D01*
X81631996Y-74300500D01*
X81868004Y-74300500D01*
X81868011Y-74300500D01*
X82102014Y-74269693D01*
X82329993Y-74208606D01*
X82548049Y-74118284D01*
X82752450Y-74000273D01*
X82939699Y-73856592D01*
X83106592Y-73689699D01*
X83250273Y-73502450D01*
X83368284Y-73298049D01*
X83458606Y-73079993D01*
X83519693Y-72852014D01*
X83550500Y-72618011D01*
X83550500Y-72381989D01*
X83519693Y-72147986D01*
X83458606Y-71920007D01*
X83368284Y-71701951D01*
X83368282Y-71701948D01*
X83368280Y-71701943D01*
X83326118Y-71628918D01*
X83250273Y-71497550D01*
X83106592Y-71310301D01*
X83106587Y-71310295D01*
X82939704Y-71143412D01*
X82939697Y-71143406D01*
X82752454Y-70999730D01*
X82752453Y-70999729D01*
X82752450Y-70999727D01*
X82670957Y-70952677D01*
X82548056Y-70881719D01*
X82548045Y-70881714D01*
X82329993Y-70791394D01*
X82102010Y-70730306D01*
X81868020Y-70699501D01*
X81868017Y-70699500D01*
X81868011Y-70699500D01*
X81631989Y-70699500D01*
X81631983Y-70699500D01*
X81631979Y-70699501D01*
X81397989Y-70730306D01*
X81170006Y-70791394D01*
X80951954Y-70881714D01*
X80951943Y-70881719D01*
X80747545Y-70999730D01*
X80560302Y-71143406D01*
X80560295Y-71143412D01*
X80393412Y-71310295D01*
X80393406Y-71310302D01*
X80249730Y-71497545D01*
X80131719Y-71701943D01*
X80131714Y-71701954D01*
X80041394Y-71920006D01*
X79980306Y-72147989D01*
X79949501Y-72381979D01*
X79949500Y-72381995D01*
X50500500Y-72381995D01*
X50500500Y-60553471D01*
X62999500Y-60553471D01*
X62999500Y-60946528D01*
X63038026Y-61337702D01*
X63114704Y-61723194D01*
X63114707Y-61723205D01*
X63228810Y-62099354D01*
X63379230Y-62462499D01*
X63379232Y-62462504D01*
X63564511Y-62809137D01*
X63564522Y-62809155D01*
X63782887Y-63135960D01*
X63782897Y-63135974D01*
X64032254Y-63439817D01*
X64310182Y-63717745D01*
X64310187Y-63717749D01*
X64310188Y-63717750D01*
X64614031Y-63967107D01*
X64940851Y-64185482D01*
X64940860Y-64185487D01*
X64940862Y-64185488D01*
X65287495Y-64370767D01*
X65287497Y-64370767D01*
X65287503Y-64370771D01*
X65650647Y-64521190D01*
X66026785Y-64635290D01*
X66026791Y-64635291D01*
X66026794Y-64635292D01*
X66026805Y-64635295D01*
X66412297Y-64711973D01*
X66803468Y-64750500D01*
X66803471Y-64750500D01*
X67196529Y-64750500D01*
X67196532Y-64750500D01*
X67587703Y-64711973D01*
X67662748Y-64697045D01*
X67973194Y-64635295D01*
X67973205Y-64635292D01*
X67973205Y-64635291D01*
X67973215Y-64635290D01*
X68349353Y-64521190D01*
X68712497Y-64370771D01*
X69059149Y-64185482D01*
X69385969Y-63967107D01*
X69689812Y-63717750D01*
X69967750Y-63439812D01*
X70217107Y-63135969D01*
X70435482Y-62809149D01*
X70620771Y-62462497D01*
X70771190Y-62099353D01*
X70885290Y-61723215D01*
X70885292Y-61723205D01*
X70885295Y-61723194D01*
X70961973Y-61337702D01*
X71000500Y-60946528D01*
X71000500Y-60553471D01*
X95999500Y-60553471D01*
X95999500Y-60946528D01*
X96038026Y-61337702D01*
X96114704Y-61723194D01*
X96114707Y-61723205D01*
X96228810Y-62099354D01*
X96379230Y-62462499D01*
X96379232Y-62462504D01*
X96564511Y-62809137D01*
X96564522Y-62809155D01*
X96782887Y-63135960D01*
X96782897Y-63135974D01*
X97032254Y-63439817D01*
X97310182Y-63717745D01*
X97310187Y-63717749D01*
X97310188Y-63717750D01*
X97614031Y-63967107D01*
X97940851Y-64185482D01*
X97940860Y-64185487D01*
X97940862Y-64185488D01*
X98287495Y-64370767D01*
X98287497Y-64370767D01*
X98287503Y-64370771D01*
X98650647Y-64521190D01*
X99026785Y-64635290D01*
X99026791Y-64635291D01*
X99026794Y-64635292D01*
X99026805Y-64635295D01*
X99412297Y-64711973D01*
X99803468Y-64750500D01*
X99803471Y-64750500D01*
X100196529Y-64750500D01*
X100196532Y-64750500D01*
X100587703Y-64711973D01*
X100662748Y-64697045D01*
X100973194Y-64635295D01*
X100973205Y-64635292D01*
X100973205Y-64635291D01*
X100973215Y-64635290D01*
X101349353Y-64521190D01*
X101712497Y-64370771D01*
X102059149Y-64185482D01*
X102385969Y-63967107D01*
X102689812Y-63717750D01*
X102967750Y-63439812D01*
X103217107Y-63135969D01*
X103435482Y-62809149D01*
X103620771Y-62462497D01*
X103771190Y-62099353D01*
X103885290Y-61723215D01*
X103885292Y-61723205D01*
X103885295Y-61723194D01*
X103961973Y-61337702D01*
X104000500Y-60946528D01*
X104000500Y-60553471D01*
X103961973Y-60162297D01*
X103885295Y-59776805D01*
X103885292Y-59776794D01*
X103885291Y-59776791D01*
X103885290Y-59776785D01*
X103771190Y-59400647D01*
X103620771Y-59037503D01*
X103608355Y-59014275D01*
X103435488Y-58690862D01*
X103435487Y-58690860D01*
X103435482Y-58690851D01*
X103217107Y-58364031D01*
X102967750Y-58060188D01*
X102967749Y-58060187D01*
X102967745Y-58060182D01*
X102689817Y-57782254D01*
X102385974Y-57532897D01*
X102385973Y-57532896D01*
X102385969Y-57532893D01*
X102059149Y-57314518D01*
X102059144Y-57314515D01*
X102059137Y-57314511D01*
X101712504Y-57129232D01*
X101712499Y-57129230D01*
X101349354Y-56978810D01*
X100973205Y-56864707D01*
X100973194Y-56864704D01*
X100587702Y-56788026D01*
X100293089Y-56759010D01*
X100196532Y-56749500D01*
X99803468Y-56749500D01*
X99714251Y-56758287D01*
X99412297Y-56788026D01*
X99026805Y-56864704D01*
X99026794Y-56864707D01*
X98650645Y-56978810D01*
X98287500Y-57129230D01*
X98287495Y-57129232D01*
X97940862Y-57314511D01*
X97940844Y-57314522D01*
X97614039Y-57532887D01*
X97614025Y-57532897D01*
X97310182Y-57782254D01*
X97032254Y-58060182D01*
X96782897Y-58364025D01*
X96782887Y-58364039D01*
X96564522Y-58690844D01*
X96564511Y-58690862D01*
X96379232Y-59037495D01*
X96379230Y-59037500D01*
X96228810Y-59400645D01*
X96114707Y-59776794D01*
X96114704Y-59776805D01*
X96038026Y-60162297D01*
X95999500Y-60553471D01*
X71000500Y-60553471D01*
X70961973Y-60162297D01*
X70885295Y-59776805D01*
X70885292Y-59776794D01*
X70885291Y-59776791D01*
X70885290Y-59776785D01*
X70771190Y-59400647D01*
X70620771Y-59037503D01*
X70608355Y-59014275D01*
X70435488Y-58690862D01*
X70435487Y-58690860D01*
X70435482Y-58690851D01*
X70217107Y-58364031D01*
X69967750Y-58060188D01*
X69967749Y-58060187D01*
X69967745Y-58060182D01*
X69689817Y-57782254D01*
X69385974Y-57532897D01*
X69385973Y-57532896D01*
X69385969Y-57532893D01*
X69059149Y-57314518D01*
X69059144Y-57314515D01*
X69059137Y-57314511D01*
X68712504Y-57129232D01*
X68712499Y-57129230D01*
X68349354Y-56978810D01*
X67973205Y-56864707D01*
X67973194Y-56864704D01*
X67587702Y-56788026D01*
X67293089Y-56759010D01*
X67196532Y-56749500D01*
X66803468Y-56749500D01*
X66714251Y-56758287D01*
X66412297Y-56788026D01*
X66026805Y-56864704D01*
X66026794Y-56864707D01*
X65650645Y-56978810D01*
X65287500Y-57129230D01*
X65287495Y-57129232D01*
X64940862Y-57314511D01*
X64940844Y-57314522D01*
X64614039Y-57532887D01*
X64614025Y-57532897D01*
X64310182Y-57782254D01*
X64032254Y-58060182D01*
X63782897Y-58364025D01*
X63782887Y-58364039D01*
X63564522Y-58690844D01*
X63564511Y-58690862D01*
X63379232Y-59037495D01*
X63379230Y-59037500D01*
X63228810Y-59400645D01*
X63114707Y-59776794D01*
X63114704Y-59776805D01*
X63038026Y-60162297D01*
X62999500Y-60553471D01*
X50500500Y-60553471D01*
X50500500Y-44631902D01*
X54749500Y-44631902D01*
X54749500Y-44868097D01*
X54786446Y-45101368D01*
X54859433Y-45325996D01*
X54966657Y-45536433D01*
X55105483Y-45727510D01*
X55272490Y-45894517D01*
X55463567Y-46033343D01*
X55562991Y-46084002D01*
X55674003Y-46140566D01*
X55674005Y-46140566D01*
X55674008Y-46140568D01*
X55794412Y-46179689D01*
X55898631Y-46213553D01*
X56131903Y-46250500D01*
X56131908Y-46250500D01*
X56368097Y-46250500D01*
X56601368Y-46213553D01*
X56825992Y-46140568D01*
X57036433Y-46033343D01*
X57227510Y-45894517D01*
X57394517Y-45727510D01*
X57533343Y-45536433D01*
X57640568Y-45325992D01*
X57713553Y-45101368D01*
X57750500Y-44868097D01*
X57750500Y-44631902D01*
X57713553Y-44398631D01*
X57640566Y-44174003D01*
X57533342Y-43963566D01*
X57394517Y-43772490D01*
X57227510Y-43605483D01*
X57036433Y-43466657D01*
X56825996Y-43359433D01*
X56601368Y-43286446D01*
X56368097Y-43249500D01*
X56368092Y-43249500D01*
X56131908Y-43249500D01*
X56131903Y-43249500D01*
X55898631Y-43286446D01*
X55674003Y-43359433D01*
X55463566Y-43466657D01*
X55354550Y-43545862D01*
X55272490Y-43605483D01*
X55272488Y-43605485D01*
X55272487Y-43605485D01*
X55105485Y-43772487D01*
X55105485Y-43772488D01*
X55105483Y-43772490D01*
X55045862Y-43854550D01*
X54966657Y-43963566D01*
X54859433Y-44174003D01*
X54786446Y-44398631D01*
X54749500Y-44631902D01*
X50500500Y-44631902D01*
X50500500Y-30624500D01*
X50520185Y-30557461D01*
X50572989Y-30511706D01*
X50624500Y-30500500D01*
X149375500Y-30500500D01*
X149442539Y-30520185D01*
G37*
%TD.AperFunction*%
%TD*%
M02*
