%TF.GenerationSoftware,KiCad,Pcbnew,9.0.7*%
%TF.CreationDate,2026-02-21T19:30:22+01:00*%
%TF.ProjectId,DMH_VCLFO_PANEL,444d485f-5643-44c4-964f-5f50414e454c,rev?*%
%TF.SameCoordinates,Original*%
%TF.FileFunction,Legend,Bot*%
%TF.FilePolarity,Positive*%
%FSLAX46Y46*%
G04 Gerber Fmt 4.6, Leading zero omitted, Abs format (unit mm)*
G04 Created by KiCad (PCBNEW 9.0.7) date 2026-02-21 19:30:22*
%MOMM*%
%LPD*%
G01*
G04 APERTURE LIST*
%ADD10C,0.100000*%
%ADD11C,0.300000*%
%ADD12C,0.200000*%
%ADD13C,0.500000*%
%ADD14C,12.000000*%
%ADD15C,4.000000*%
%ADD16C,2.900000*%
%ADD17C,13.000000*%
%ADD18C,3.100000*%
%ADD19O,2.500000X1.500000*%
%ADD20C,2.500000*%
%ADD21R,5.000000X10.000000*%
G04 APERTURE END LIST*
D10*
X95000000Y-225500000D02*
X105000000Y-225500000D01*
X105000000Y-227500000D01*
X95000000Y-227500000D01*
X95000000Y-225500000D01*
G36*
X95000000Y-225500000D02*
G01*
X105000000Y-225500000D01*
X105000000Y-227500000D01*
X95000000Y-227500000D01*
X95000000Y-225500000D01*
G37*
D11*
X111714284Y-223678328D02*
X111714284Y-222178328D01*
X111714284Y-222178328D02*
X111214284Y-223249757D01*
X111214284Y-223249757D02*
X110714284Y-222178328D01*
X110714284Y-222178328D02*
X110714284Y-223678328D01*
X109999998Y-223678328D02*
X109999998Y-222178328D01*
X109857141Y-223106900D02*
X109428569Y-223678328D01*
X109428569Y-222678328D02*
X109999998Y-223249757D01*
X107999997Y-223678328D02*
X108857140Y-223678328D01*
X108428569Y-223678328D02*
X108428569Y-222178328D01*
X108428569Y-222178328D02*
X108571426Y-222392614D01*
X108571426Y-222392614D02*
X108714283Y-222535471D01*
X108714283Y-222535471D02*
X108857140Y-222606900D01*
X107357141Y-223535471D02*
X107285712Y-223606900D01*
X107285712Y-223606900D02*
X107357141Y-223678328D01*
X107357141Y-223678328D02*
X107428569Y-223606900D01*
X107428569Y-223606900D02*
X107357141Y-223535471D01*
X107357141Y-223535471D02*
X107357141Y-223678328D01*
X106357140Y-222178328D02*
X106214283Y-222178328D01*
X106214283Y-222178328D02*
X106071426Y-222249757D01*
X106071426Y-222249757D02*
X105999998Y-222321185D01*
X105999998Y-222321185D02*
X105928569Y-222464042D01*
X105928569Y-222464042D02*
X105857140Y-222749757D01*
X105857140Y-222749757D02*
X105857140Y-223106900D01*
X105857140Y-223106900D02*
X105928569Y-223392614D01*
X105928569Y-223392614D02*
X105999998Y-223535471D01*
X105999998Y-223535471D02*
X106071426Y-223606900D01*
X106071426Y-223606900D02*
X106214283Y-223678328D01*
X106214283Y-223678328D02*
X106357140Y-223678328D01*
X106357140Y-223678328D02*
X106499998Y-223606900D01*
X106499998Y-223606900D02*
X106571426Y-223535471D01*
X106571426Y-223535471D02*
X106642855Y-223392614D01*
X106642855Y-223392614D02*
X106714283Y-223106900D01*
X106714283Y-223106900D02*
X106714283Y-222749757D01*
X106714283Y-222749757D02*
X106642855Y-222464042D01*
X106642855Y-222464042D02*
X106571426Y-222321185D01*
X106571426Y-222321185D02*
X106499998Y-222249757D01*
X106499998Y-222249757D02*
X106357140Y-222178328D01*
X104071427Y-223106900D02*
X102928570Y-223106900D01*
X101071427Y-223678328D02*
X101071427Y-222178328D01*
X101071427Y-222178328D02*
X100571427Y-223249757D01*
X100571427Y-223249757D02*
X100071427Y-222178328D01*
X100071427Y-222178328D02*
X100071427Y-223678328D01*
X98714284Y-223678328D02*
X98714284Y-222892614D01*
X98714284Y-222892614D02*
X98785712Y-222749757D01*
X98785712Y-222749757D02*
X98928569Y-222678328D01*
X98928569Y-222678328D02*
X99214284Y-222678328D01*
X99214284Y-222678328D02*
X99357141Y-222749757D01*
X98714284Y-223606900D02*
X98857141Y-223678328D01*
X98857141Y-223678328D02*
X99214284Y-223678328D01*
X99214284Y-223678328D02*
X99357141Y-223606900D01*
X99357141Y-223606900D02*
X99428569Y-223464042D01*
X99428569Y-223464042D02*
X99428569Y-223321185D01*
X99428569Y-223321185D02*
X99357141Y-223178328D01*
X99357141Y-223178328D02*
X99214284Y-223106900D01*
X99214284Y-223106900D02*
X98857141Y-223106900D01*
X98857141Y-223106900D02*
X98714284Y-223035471D01*
X97999998Y-223678328D02*
X97999998Y-222678328D01*
X97999998Y-222964042D02*
X97928569Y-222821185D01*
X97928569Y-222821185D02*
X97857141Y-222749757D01*
X97857141Y-222749757D02*
X97714283Y-222678328D01*
X97714283Y-222678328D02*
X97571426Y-222678328D01*
X96428570Y-223606900D02*
X96571427Y-223678328D01*
X96571427Y-223678328D02*
X96857141Y-223678328D01*
X96857141Y-223678328D02*
X96999998Y-223606900D01*
X96999998Y-223606900D02*
X97071427Y-223535471D01*
X97071427Y-223535471D02*
X97142855Y-223392614D01*
X97142855Y-223392614D02*
X97142855Y-222964042D01*
X97142855Y-222964042D02*
X97071427Y-222821185D01*
X97071427Y-222821185D02*
X96999998Y-222749757D01*
X96999998Y-222749757D02*
X96857141Y-222678328D01*
X96857141Y-222678328D02*
X96571427Y-222678328D01*
X96571427Y-222678328D02*
X96428570Y-222749757D01*
X95785713Y-223678328D02*
X95785713Y-222178328D01*
X95142856Y-223678328D02*
X95142856Y-222892614D01*
X95142856Y-222892614D02*
X95214284Y-222749757D01*
X95214284Y-222749757D02*
X95357141Y-222678328D01*
X95357141Y-222678328D02*
X95571427Y-222678328D01*
X95571427Y-222678328D02*
X95714284Y-222749757D01*
X95714284Y-222749757D02*
X95785713Y-222821185D01*
X93357141Y-222321185D02*
X93285713Y-222249757D01*
X93285713Y-222249757D02*
X93142856Y-222178328D01*
X93142856Y-222178328D02*
X92785713Y-222178328D01*
X92785713Y-222178328D02*
X92642856Y-222249757D01*
X92642856Y-222249757D02*
X92571427Y-222321185D01*
X92571427Y-222321185D02*
X92499998Y-222464042D01*
X92499998Y-222464042D02*
X92499998Y-222606900D01*
X92499998Y-222606900D02*
X92571427Y-222821185D01*
X92571427Y-222821185D02*
X93428570Y-223678328D01*
X93428570Y-223678328D02*
X92499998Y-223678328D01*
X91571427Y-222178328D02*
X91428570Y-222178328D01*
X91428570Y-222178328D02*
X91285713Y-222249757D01*
X91285713Y-222249757D02*
X91214285Y-222321185D01*
X91214285Y-222321185D02*
X91142856Y-222464042D01*
X91142856Y-222464042D02*
X91071427Y-222749757D01*
X91071427Y-222749757D02*
X91071427Y-223106900D01*
X91071427Y-223106900D02*
X91142856Y-223392614D01*
X91142856Y-223392614D02*
X91214285Y-223535471D01*
X91214285Y-223535471D02*
X91285713Y-223606900D01*
X91285713Y-223606900D02*
X91428570Y-223678328D01*
X91428570Y-223678328D02*
X91571427Y-223678328D01*
X91571427Y-223678328D02*
X91714285Y-223606900D01*
X91714285Y-223606900D02*
X91785713Y-223535471D01*
X91785713Y-223535471D02*
X91857142Y-223392614D01*
X91857142Y-223392614D02*
X91928570Y-223106900D01*
X91928570Y-223106900D02*
X91928570Y-222749757D01*
X91928570Y-222749757D02*
X91857142Y-222464042D01*
X91857142Y-222464042D02*
X91785713Y-222321185D01*
X91785713Y-222321185D02*
X91714285Y-222249757D01*
X91714285Y-222249757D02*
X91571427Y-222178328D01*
X90499999Y-222321185D02*
X90428571Y-222249757D01*
X90428571Y-222249757D02*
X90285714Y-222178328D01*
X90285714Y-222178328D02*
X89928571Y-222178328D01*
X89928571Y-222178328D02*
X89785714Y-222249757D01*
X89785714Y-222249757D02*
X89714285Y-222321185D01*
X89714285Y-222321185D02*
X89642856Y-222464042D01*
X89642856Y-222464042D02*
X89642856Y-222606900D01*
X89642856Y-222606900D02*
X89714285Y-222821185D01*
X89714285Y-222821185D02*
X90571428Y-223678328D01*
X90571428Y-223678328D02*
X89642856Y-223678328D01*
X88357143Y-222178328D02*
X88642857Y-222178328D01*
X88642857Y-222178328D02*
X88785714Y-222249757D01*
X88785714Y-222249757D02*
X88857143Y-222321185D01*
X88857143Y-222321185D02*
X89000000Y-222535471D01*
X89000000Y-222535471D02*
X89071428Y-222821185D01*
X89071428Y-222821185D02*
X89071428Y-223392614D01*
X89071428Y-223392614D02*
X89000000Y-223535471D01*
X89000000Y-223535471D02*
X88928571Y-223606900D01*
X88928571Y-223606900D02*
X88785714Y-223678328D01*
X88785714Y-223678328D02*
X88500000Y-223678328D01*
X88500000Y-223678328D02*
X88357143Y-223606900D01*
X88357143Y-223606900D02*
X88285714Y-223535471D01*
X88285714Y-223535471D02*
X88214285Y-223392614D01*
X88214285Y-223392614D02*
X88214285Y-223035471D01*
X88214285Y-223035471D02*
X88285714Y-222892614D01*
X88285714Y-222892614D02*
X88357143Y-222821185D01*
X88357143Y-222821185D02*
X88500000Y-222749757D01*
X88500000Y-222749757D02*
X88785714Y-222749757D01*
X88785714Y-222749757D02*
X88928571Y-222821185D01*
X88928571Y-222821185D02*
X89000000Y-222892614D01*
X89000000Y-222892614D02*
X89071428Y-223035471D01*
D12*
X55761904Y-148445508D02*
X55857142Y-148397889D01*
X55857142Y-148397889D02*
X55999999Y-148397889D01*
X55999999Y-148397889D02*
X56142856Y-148445508D01*
X56142856Y-148445508D02*
X56238094Y-148540746D01*
X56238094Y-148540746D02*
X56285713Y-148635984D01*
X56285713Y-148635984D02*
X56333332Y-148826460D01*
X56333332Y-148826460D02*
X56333332Y-148969317D01*
X56333332Y-148969317D02*
X56285713Y-149159793D01*
X56285713Y-149159793D02*
X56238094Y-149255031D01*
X56238094Y-149255031D02*
X56142856Y-149350270D01*
X56142856Y-149350270D02*
X55999999Y-149397889D01*
X55999999Y-149397889D02*
X55904761Y-149397889D01*
X55904761Y-149397889D02*
X55761904Y-149350270D01*
X55761904Y-149350270D02*
X55714285Y-149302650D01*
X55714285Y-149302650D02*
X55714285Y-148969317D01*
X55714285Y-148969317D02*
X55904761Y-148969317D01*
X55285713Y-149397889D02*
X55285713Y-148397889D01*
X55285713Y-148397889D02*
X54714285Y-149397889D01*
X54714285Y-149397889D02*
X54714285Y-148397889D01*
X54238094Y-149397889D02*
X54238094Y-148397889D01*
X54238094Y-148397889D02*
X53999999Y-148397889D01*
X53999999Y-148397889D02*
X53857142Y-148445508D01*
X53857142Y-148445508D02*
X53761904Y-148540746D01*
X53761904Y-148540746D02*
X53714285Y-148635984D01*
X53714285Y-148635984D02*
X53666666Y-148826460D01*
X53666666Y-148826460D02*
X53666666Y-148969317D01*
X53666666Y-148969317D02*
X53714285Y-149159793D01*
X53714285Y-149159793D02*
X53761904Y-149255031D01*
X53761904Y-149255031D02*
X53857142Y-149350270D01*
X53857142Y-149350270D02*
X53999999Y-149397889D01*
X53999999Y-149397889D02*
X54238094Y-149397889D01*
%LPC*%
D13*
%TO.C,H30*%
X53050000Y-208750000D03*
X54710000Y-204720000D03*
X54720000Y-212790000D03*
X58750000Y-203050000D03*
D14*
X58750000Y-208750000D03*
D13*
X58750000Y-214450000D03*
X62780000Y-212790000D03*
X62790000Y-204720000D03*
X64450000Y-208750000D03*
%TD*%
D15*
%TO.C,H3*%
X53500000Y-226500000D03*
%TD*%
D13*
%TO.C,H11*%
X135550000Y-171750000D03*
X137210000Y-167720000D03*
X137220000Y-175790000D03*
X141250000Y-166050000D03*
D14*
X141250000Y-171750000D03*
D13*
X141250000Y-177450000D03*
X145280000Y-175790000D03*
X145290000Y-167720000D03*
X146950000Y-171750000D03*
%TD*%
%TO.C,H21*%
X69550000Y-171750000D03*
X71210000Y-167720000D03*
X71220000Y-175790000D03*
X75250000Y-166050000D03*
D14*
X75250000Y-171750000D03*
D13*
X75250000Y-177450000D03*
X79280000Y-175790000D03*
X79290000Y-167720000D03*
X80950000Y-171750000D03*
%TD*%
D16*
%TO.C,H42*%
X124750000Y-87150000D03*
D17*
X124750000Y-93250000D03*
%TD*%
D13*
%TO.C,H33*%
X119050000Y-208750000D03*
X120710000Y-204720000D03*
X120720000Y-212790000D03*
X124750000Y-203050000D03*
D14*
X124750000Y-208750000D03*
D13*
X124750000Y-214450000D03*
X128780000Y-212790000D03*
X128790000Y-204720000D03*
X130450000Y-208750000D03*
%TD*%
D16*
%TO.C,H29*%
X141250000Y-147150000D03*
D17*
X141250000Y-153250000D03*
%TD*%
D18*
%TO.C,H36*%
X81750000Y-77500000D03*
%TD*%
D13*
%TO.C,H34*%
X135550000Y-208750000D03*
X137210000Y-204720000D03*
X137220000Y-212790000D03*
X141250000Y-203050000D03*
D14*
X141250000Y-208750000D03*
D13*
X141250000Y-214450000D03*
X145280000Y-212790000D03*
X145290000Y-204720000D03*
X146950000Y-208750000D03*
%TD*%
D14*
%TO.C,H13*%
X67000000Y-60750000D03*
D19*
X67000000Y-66750000D03*
%TD*%
D16*
%TO.C,H19*%
X141250000Y-105650000D03*
D17*
X141250000Y-111750000D03*
%TD*%
D18*
%TO.C,H38*%
X81750000Y-160500000D03*
%TD*%
%TO.C,H37*%
X81750000Y-119000000D03*
%TD*%
%TO.C,H25*%
X81750000Y-155500000D03*
%TD*%
D16*
%TO.C,H41*%
X124750000Y-45650000D03*
D17*
X124750000Y-51750000D03*
%TD*%
D18*
%TO.C,H14*%
X81750000Y-72500000D03*
%TD*%
D20*
%TO.C,H49*%
X56250000Y-158750000D03*
%TD*%
D16*
%TO.C,H27*%
X141250000Y-128650000D03*
D17*
X141250000Y-134750000D03*
%TD*%
D13*
%TO.C,H10*%
X119050000Y-171750000D03*
X120710000Y-167720000D03*
X120720000Y-175790000D03*
X124750000Y-166050000D03*
D14*
X124750000Y-171750000D03*
D13*
X124750000Y-177450000D03*
X128780000Y-175790000D03*
X128790000Y-167720000D03*
X130450000Y-171750000D03*
%TD*%
D14*
%TO.C,H16*%
X100000000Y-102250000D03*
D19*
X100000000Y-108250000D03*
%TD*%
D13*
%TO.C,H22*%
X102550000Y-190250000D03*
X104210000Y-186220000D03*
X104220000Y-194290000D03*
X108250000Y-184550000D03*
D14*
X108250000Y-190250000D03*
D13*
X108250000Y-195950000D03*
X112280000Y-194290000D03*
X112290000Y-186220000D03*
X113950000Y-190250000D03*
%TD*%
%TO.C,H9*%
X102550000Y-171750000D03*
X104210000Y-167720000D03*
X104220000Y-175790000D03*
X108250000Y-166050000D03*
D14*
X108250000Y-171750000D03*
D13*
X108250000Y-177450000D03*
X112280000Y-175790000D03*
X112290000Y-167720000D03*
X113950000Y-171750000D03*
%TD*%
D18*
%TO.C,H15*%
X81750000Y-114000000D03*
%TD*%
D14*
%TO.C,H26*%
X100000000Y-143750000D03*
D19*
X100000000Y-149750000D03*
%TD*%
D16*
%TO.C,H46*%
X124750000Y-147150000D03*
D17*
X124750000Y-153250000D03*
%TD*%
D14*
%TO.C,H28*%
X67000000Y-143750000D03*
D19*
X67000000Y-149750000D03*
%TD*%
D13*
%TO.C,H20*%
X53050000Y-190250000D03*
X54710000Y-186220000D03*
X54720000Y-194290000D03*
X58750000Y-184550000D03*
D14*
X58750000Y-190250000D03*
D13*
X58750000Y-195950000D03*
X62780000Y-194290000D03*
X62790000Y-186220000D03*
X64450000Y-190250000D03*
%TD*%
D16*
%TO.C,H6*%
X141250000Y-64150000D03*
D17*
X141250000Y-70250000D03*
%TD*%
D13*
%TO.C,H24*%
X135550000Y-190250000D03*
X137210000Y-186220000D03*
X137220000Y-194290000D03*
X141250000Y-184550000D03*
D14*
X141250000Y-190250000D03*
D13*
X141250000Y-195950000D03*
X145280000Y-194290000D03*
X145290000Y-186220000D03*
X146950000Y-190250000D03*
%TD*%
D16*
%TO.C,H45*%
X124750000Y-105650000D03*
D17*
X124750000Y-111750000D03*
%TD*%
D13*
%TO.C,H39*%
X86050000Y-190250000D03*
X87710000Y-186220000D03*
X87720000Y-194290000D03*
X91750000Y-184550000D03*
D14*
X91750000Y-190250000D03*
D13*
X91750000Y-195950000D03*
X95780000Y-194290000D03*
X95790000Y-186220000D03*
X97450000Y-190250000D03*
%TD*%
D20*
%TO.C,H52*%
X56250000Y-127750000D03*
%TD*%
D13*
%TO.C,H8*%
X86050000Y-171750000D03*
X87710000Y-167720000D03*
X87720000Y-175790000D03*
X91750000Y-166050000D03*
D14*
X91750000Y-171750000D03*
D13*
X91750000Y-177450000D03*
X95780000Y-175790000D03*
X95790000Y-167720000D03*
X97450000Y-171750000D03*
%TD*%
%TO.C,H35*%
X69550000Y-208750000D03*
X71210000Y-204720000D03*
X71220000Y-212790000D03*
X75250000Y-203050000D03*
D14*
X75250000Y-208750000D03*
D13*
X75250000Y-214450000D03*
X79280000Y-212790000D03*
X79290000Y-204720000D03*
X80950000Y-208750000D03*
%TD*%
%TO.C,H23*%
X119050000Y-190250000D03*
X120710000Y-186220000D03*
X120720000Y-194290000D03*
X124750000Y-184550000D03*
D14*
X124750000Y-190250000D03*
D13*
X124750000Y-195950000D03*
X128780000Y-194290000D03*
X128790000Y-186220000D03*
X130450000Y-190250000D03*
%TD*%
D20*
%TO.C,H48*%
X56250000Y-117250000D03*
%TD*%
D13*
%TO.C,H5*%
X53050000Y-171750000D03*
X54710000Y-167720000D03*
X54720000Y-175790000D03*
X58750000Y-166050000D03*
D14*
X58750000Y-171750000D03*
D13*
X58750000Y-177450000D03*
X62780000Y-175790000D03*
X62790000Y-167720000D03*
X64450000Y-171750000D03*
%TD*%
D20*
%TO.C,H51*%
X56250000Y-86250000D03*
%TD*%
D16*
%TO.C,H44*%
X125000000Y-64150000D03*
D17*
X125000000Y-70250000D03*
%TD*%
D13*
%TO.C,H32*%
X102550000Y-208750000D03*
X104210000Y-204720000D03*
X104220000Y-212790000D03*
X108250000Y-203050000D03*
D14*
X108250000Y-208750000D03*
D13*
X108250000Y-214450000D03*
X112280000Y-212790000D03*
X112290000Y-204720000D03*
X113950000Y-208750000D03*
%TD*%
D16*
%TO.C,H7*%
X141250000Y-45650000D03*
D17*
X141250000Y-51750000D03*
%TD*%
D13*
%TO.C,H31*%
X69550000Y-190250000D03*
X71210000Y-186220000D03*
X71220000Y-194290000D03*
X75250000Y-184550000D03*
D14*
X75250000Y-190250000D03*
D13*
X75250000Y-195950000D03*
X79280000Y-194290000D03*
X79290000Y-186220000D03*
X80950000Y-190250000D03*
%TD*%
D15*
%TO.C,H2*%
X146500000Y-33500000D03*
%TD*%
%TO.C,H4*%
X146500000Y-226500000D03*
%TD*%
D20*
%TO.C,H50*%
X56250000Y-44750000D03*
%TD*%
D16*
%TO.C,H43*%
X124750000Y-128650000D03*
D17*
X124750000Y-134750000D03*
%TD*%
D14*
%TO.C,H12*%
X100000000Y-60750000D03*
D19*
X100000000Y-66750000D03*
%TD*%
D13*
%TO.C,H40*%
X86050000Y-208750000D03*
X87710000Y-204720000D03*
X87720000Y-212790000D03*
X91750000Y-203050000D03*
D14*
X91750000Y-208750000D03*
D13*
X91750000Y-214450000D03*
X95780000Y-212790000D03*
X95790000Y-204720000D03*
X97450000Y-208750000D03*
%TD*%
D15*
%TO.C,H1*%
X53500000Y-33500000D03*
%TD*%
D20*
%TO.C,H47*%
X56250000Y-75750000D03*
%TD*%
D16*
%TO.C,H17*%
X141250000Y-87150000D03*
D17*
X141250000Y-93250000D03*
%TD*%
D14*
%TO.C,H18*%
X67000000Y-102250000D03*
D19*
X67000000Y-108250000D03*
%TD*%
D21*
%TO.C,J0*%
X55000000Y-142545670D03*
%TD*%
%LPD*%
M02*
