M48
; DRILL file {KiCad 9.0.7} date 2026-02-21T19:30:31+0100
; FORMAT={-:-/ absolute / metric / decimal}
; #@! TF.CreationDate,2026-02-21T19:30:31+01:00
; #@! TF.GenerationSoftware,Kicad,Pcbnew,9.0.7
; #@! TF.FileFunction,Plated,1,2,PTH
FMAT,2
METRIC
; #@! TA.AperFunction,Plated,PTH,ComponentDrill
T1C0.300
; #@! TA.AperFunction,Plated,PTH,ComponentDrill
T2C1.000
; #@! TA.AperFunction,Plated,PTH,ComponentDrill
T3C2.400
; #@! TA.AperFunction,Plated,PTH,ComponentDrill
T4C3.200
; #@! TA.AperFunction,Plated,PTH,ComponentDrill
T5C6.400
%
G90
G05
T1
X53.05Y-171.75
X53.05Y-190.25
X53.05Y-208.75
X54.71Y-167.72
X54.71Y-186.22
X54.71Y-204.72
X54.72Y-175.79
X54.72Y-194.29
X54.72Y-212.79
X58.75Y-166.05
X58.75Y-177.45
X58.75Y-184.55
X58.75Y-195.95
X58.75Y-203.05
X58.75Y-214.45
X62.78Y-175.79
X62.78Y-194.29
X62.78Y-212.79
X62.79Y-167.72
X62.79Y-186.22
X62.79Y-204.72
X64.45Y-171.75
X64.45Y-190.25
X64.45Y-208.75
X69.55Y-171.75
X69.55Y-190.25
X69.55Y-208.75
X71.21Y-167.72
X71.21Y-186.22
X71.21Y-204.72
X71.22Y-175.79
X71.22Y-194.29
X71.22Y-212.79
X75.25Y-166.05
X75.25Y-177.45
X75.25Y-184.55
X75.25Y-195.95
X75.25Y-203.05
X75.25Y-214.45
X79.28Y-175.79
X79.28Y-194.29
X79.28Y-212.79
X79.29Y-167.72
X79.29Y-186.22
X79.29Y-204.72
X80.95Y-171.75
X80.95Y-190.25
X80.95Y-208.75
X86.05Y-171.75
X86.05Y-190.25
X86.05Y-208.75
X87.71Y-167.72
X87.71Y-186.22
X87.71Y-204.72
X87.72Y-175.79
X87.72Y-194.29
X87.72Y-212.79
X91.75Y-166.05
X91.75Y-177.45
X91.75Y-184.55
X91.75Y-195.95
X91.75Y-203.05
X91.75Y-214.45
X95.78Y-175.79
X95.78Y-194.29
X95.78Y-212.79
X95.79Y-167.72
X95.79Y-186.22
X95.79Y-204.72
X97.45Y-171.75
X97.45Y-190.25
X97.45Y-208.75
X102.55Y-171.75
X102.55Y-190.25
X102.55Y-208.75
X104.21Y-167.72
X104.21Y-186.22
X104.21Y-204.72
X104.22Y-175.79
X104.22Y-194.29
X104.22Y-212.79
X108.25Y-166.05
X108.25Y-177.45
X108.25Y-184.55
X108.25Y-195.95
X108.25Y-203.05
X108.25Y-214.45
X112.28Y-175.79
X112.28Y-194.29
X112.28Y-212.79
X112.29Y-167.72
X112.29Y-186.22
X112.29Y-204.72
X113.95Y-171.75
X113.95Y-190.25
X113.95Y-208.75
X119.05Y-171.75
X119.05Y-190.25
X119.05Y-208.75
X120.71Y-167.72
X120.71Y-186.22
X120.71Y-204.72
X120.72Y-175.79
X120.72Y-194.29
X120.72Y-212.79
X124.75Y-166.05
X124.75Y-177.45
X124.75Y-184.55
X124.75Y-195.95
X124.75Y-203.05
X124.75Y-214.45
X128.78Y-175.79
X128.78Y-194.29
X128.78Y-212.79
X128.79Y-167.72
X128.79Y-186.22
X128.79Y-204.72
X130.45Y-171.75
X130.45Y-190.25
X130.45Y-208.75
X135.55Y-171.75
X135.55Y-190.25
X135.55Y-208.75
X137.21Y-167.72
X137.21Y-186.22
X137.21Y-204.72
X137.22Y-175.79
X137.22Y-194.29
X137.22Y-212.79
X141.25Y-166.05
X141.25Y-177.45
X141.25Y-184.55
X141.25Y-195.95
X141.25Y-203.05
X141.25Y-214.45
X145.28Y-175.79
X145.28Y-194.29
X145.28Y-212.79
X145.29Y-167.72
X145.29Y-186.22
X145.29Y-204.72
X146.95Y-171.75
X146.95Y-190.25
X146.95Y-208.75
T3
X124.75Y-45.65
X124.75Y-87.15
X124.75Y-105.65
X124.75Y-128.65
X124.75Y-147.15
X125.0Y-64.15
X141.25Y-45.65
X141.25Y-64.15
X141.25Y-87.15
X141.25Y-105.65
X141.25Y-128.65
X141.25Y-147.15
T4
X53.5Y-33.5
X53.5Y-226.5
X146.5Y-33.5
X146.5Y-226.5
T5
X124.75Y-51.75
X124.75Y-93.25
X124.75Y-111.75
X124.75Y-134.75
X124.75Y-153.25
X125.0Y-70.25
X141.25Y-51.75
X141.25Y-70.25
X141.25Y-93.25
X141.25Y-111.75
X141.25Y-134.75
X141.25Y-153.25
T2
X66.5Y-66.75G85X67.5Y-66.75
G05
X66.5Y-108.25G85X67.5Y-108.25
G05
X66.5Y-149.75G85X67.5Y-149.75
G05
X99.5Y-66.75G85X100.5Y-66.75
G05
X99.5Y-108.25G85X100.5Y-108.25
G05
X99.5Y-149.75G85X100.5Y-149.75
G05
M30
