%TF.GenerationSoftware,KiCad,Pcbnew,9.0.7*%
%TF.CreationDate,2026-02-21T19:30:22+01:00*%
%TF.ProjectId,DMH_VCLFO_PANEL,444d485f-5643-44c4-964f-5f50414e454c,rev?*%
%TF.SameCoordinates,Original*%
%TF.FileFunction,Profile,NP*%
%FSLAX46Y46*%
G04 Gerber Fmt 4.6, Leading zero omitted, Abs format (unit mm)*
G04 Created by KiCad (PCBNEW 9.0.7) date 2026-02-21 19:30:22*
%MOMM*%
%LPD*%
G01*
G04 APERTURE LIST*
%TA.AperFunction,Profile*%
%ADD10C,0.050000*%
%TD*%
G04 APERTURE END LIST*
D10*
X50000000Y-30000000D02*
X150000000Y-30000000D01*
X150000000Y-230000000D01*
X50000000Y-230000000D01*
X50000000Y-30000000D01*
%TO.C,H30*%
X63650000Y-208750000D02*
G75*
G02*
X53850000Y-208750000I-4900000J0D01*
G01*
X53850000Y-208750000D02*
G75*
G02*
X63650000Y-208750000I4900000J0D01*
G01*
%TO.C,H11*%
X146150000Y-171750000D02*
G75*
G02*
X136350000Y-171750000I-4900000J0D01*
G01*
X136350000Y-171750000D02*
G75*
G02*
X146150000Y-171750000I4900000J0D01*
G01*
%TO.C,H21*%
X80150000Y-171750000D02*
G75*
G02*
X70350000Y-171750000I-4900000J0D01*
G01*
X70350000Y-171750000D02*
G75*
G02*
X80150000Y-171750000I4900000J0D01*
G01*
%TO.C,H33*%
X129650000Y-208750000D02*
G75*
G02*
X119850000Y-208750000I-4900000J0D01*
G01*
X119850000Y-208750000D02*
G75*
G02*
X129650000Y-208750000I4900000J0D01*
G01*
%TO.C,H34*%
X146150000Y-208750000D02*
G75*
G02*
X136350000Y-208750000I-4900000J0D01*
G01*
X136350000Y-208750000D02*
G75*
G02*
X146150000Y-208750000I4900000J0D01*
G01*
%TO.C,H13*%
X70500000Y-60750000D02*
G75*
G02*
X63500000Y-60750000I-3500000J0D01*
G01*
X63500000Y-60750000D02*
G75*
G02*
X70500000Y-60750000I3500000J0D01*
G01*
%TO.C,H10*%
X129650000Y-171750000D02*
G75*
G02*
X119850000Y-171750000I-4900000J0D01*
G01*
X119850000Y-171750000D02*
G75*
G02*
X129650000Y-171750000I4900000J0D01*
G01*
%TO.C,H16*%
X103500000Y-102250000D02*
G75*
G02*
X96500000Y-102250000I-3500000J0D01*
G01*
X96500000Y-102250000D02*
G75*
G02*
X103500000Y-102250000I3500000J0D01*
G01*
%TO.C,H22*%
X113150000Y-190250000D02*
G75*
G02*
X103350000Y-190250000I-4900000J0D01*
G01*
X103350000Y-190250000D02*
G75*
G02*
X113150000Y-190250000I4900000J0D01*
G01*
%TO.C,H9*%
X113150000Y-171750000D02*
G75*
G02*
X103350000Y-171750000I-4900000J0D01*
G01*
X103350000Y-171750000D02*
G75*
G02*
X113150000Y-171750000I4900000J0D01*
G01*
%TO.C,H26*%
X103500000Y-143750000D02*
G75*
G02*
X96500000Y-143750000I-3500000J0D01*
G01*
X96500000Y-143750000D02*
G75*
G02*
X103500000Y-143750000I3500000J0D01*
G01*
%TO.C,H28*%
X70500000Y-143750000D02*
G75*
G02*
X63500000Y-143750000I-3500000J0D01*
G01*
X63500000Y-143750000D02*
G75*
G02*
X70500000Y-143750000I3500000J0D01*
G01*
%TO.C,H20*%
X63650000Y-190250000D02*
G75*
G02*
X53850000Y-190250000I-4900000J0D01*
G01*
X53850000Y-190250000D02*
G75*
G02*
X63650000Y-190250000I4900000J0D01*
G01*
%TO.C,H24*%
X146150000Y-190250000D02*
G75*
G02*
X136350000Y-190250000I-4900000J0D01*
G01*
X136350000Y-190250000D02*
G75*
G02*
X146150000Y-190250000I4900000J0D01*
G01*
%TO.C,H39*%
X96650000Y-190250000D02*
G75*
G02*
X86850000Y-190250000I-4900000J0D01*
G01*
X86850000Y-190250000D02*
G75*
G02*
X96650000Y-190250000I4900000J0D01*
G01*
%TO.C,H8*%
X96650000Y-171750000D02*
G75*
G02*
X86850000Y-171750000I-4900000J0D01*
G01*
X86850000Y-171750000D02*
G75*
G02*
X96650000Y-171750000I4900000J0D01*
G01*
%TO.C,H35*%
X80150000Y-208750000D02*
G75*
G02*
X70350000Y-208750000I-4900000J0D01*
G01*
X70350000Y-208750000D02*
G75*
G02*
X80150000Y-208750000I4900000J0D01*
G01*
%TO.C,H23*%
X129650000Y-190250000D02*
G75*
G02*
X119850000Y-190250000I-4900000J0D01*
G01*
X119850000Y-190250000D02*
G75*
G02*
X129650000Y-190250000I4900000J0D01*
G01*
%TO.C,H5*%
X63650000Y-171750000D02*
G75*
G02*
X53850000Y-171750000I-4900000J0D01*
G01*
X53850000Y-171750000D02*
G75*
G02*
X63650000Y-171750000I4900000J0D01*
G01*
%TO.C,H32*%
X113150000Y-208750000D02*
G75*
G02*
X103350000Y-208750000I-4900000J0D01*
G01*
X103350000Y-208750000D02*
G75*
G02*
X113150000Y-208750000I4900000J0D01*
G01*
%TO.C,H31*%
X80150000Y-190250000D02*
G75*
G02*
X70350000Y-190250000I-4900000J0D01*
G01*
X70350000Y-190250000D02*
G75*
G02*
X80150000Y-190250000I4900000J0D01*
G01*
%TO.C,H12*%
X103500000Y-60750000D02*
G75*
G02*
X96500000Y-60750000I-3500000J0D01*
G01*
X96500000Y-60750000D02*
G75*
G02*
X103500000Y-60750000I3500000J0D01*
G01*
%TO.C,H40*%
X96650000Y-208750000D02*
G75*
G02*
X86850000Y-208750000I-4900000J0D01*
G01*
X86850000Y-208750000D02*
G75*
G02*
X96650000Y-208750000I4900000J0D01*
G01*
%TO.C,H18*%
X70500000Y-102250000D02*
G75*
G02*
X63500000Y-102250000I-3500000J0D01*
G01*
X63500000Y-102250000D02*
G75*
G02*
X70500000Y-102250000I3500000J0D01*
G01*
%TD*%
M02*
