%TF.GenerationSoftware,KiCad,Pcbnew,9.0.7*%
%TF.CreationDate,2026-02-21T19:27:00+01:00*%
%TF.ProjectId,DMH_VCLFO_v2_PCB_Submodule,444d485f-5643-44c4-964f-5f76325f5043,1*%
%TF.SameCoordinates,Original*%
%TF.FileFunction,Legend,Top*%
%TF.FilePolarity,Positive*%
%FSLAX46Y46*%
G04 Gerber Fmt 4.6, Leading zero omitted, Abs format (unit mm)*
G04 Created by KiCad (PCBNEW 9.0.7) date 2026-02-21 19:27:00*
%MOMM*%
%LPD*%
G01*
G04 APERTURE LIST*
G04 Aperture macros list*
%AMRoundRect*
0 Rectangle with rounded corners*
0 $1 Rounding radius*
0 $2 $3 $4 $5 $6 $7 $8 $9 X,Y pos of 4 corners*
0 Add a 4 corners polygon primitive as box body*
4,1,4,$2,$3,$4,$5,$6,$7,$8,$9,$2,$3,0*
0 Add four circle primitives for the rounded corners*
1,1,$1+$1,$2,$3*
1,1,$1+$1,$4,$5*
1,1,$1+$1,$6,$7*
1,1,$1+$1,$8,$9*
0 Add four rect primitives between the rounded corners*
20,1,$1+$1,$2,$3,$4,$5,0*
20,1,$1+$1,$4,$5,$6,$7,0*
20,1,$1+$1,$6,$7,$8,$9,0*
20,1,$1+$1,$8,$9,$2,$3,0*%
G04 Aperture macros list end*
%ADD10C,0.150000*%
%ADD11C,0.120000*%
%ADD12R,1.700000X1.700000*%
%ADD13C,1.700000*%
%ADD14C,1.600000*%
%ADD15R,1.500000X1.500000*%
%ADD16C,1.500000*%
%ADD17RoundRect,0.250000X0.550000X0.550000X-0.550000X0.550000X-0.550000X-0.550000X0.550000X-0.550000X0*%
%ADD18R,1.500000X1.050000*%
%ADD19O,1.500000X1.050000*%
%ADD20R,1.050000X1.500000*%
%ADD21O,1.050000X1.500000*%
%ADD22RoundRect,0.250000X-0.550000X-0.550000X0.550000X-0.550000X0.550000X0.550000X-0.550000X0.550000X0*%
%ADD23C,1.400000*%
%ADD24C,1.440000*%
G04 APERTURE END LIST*
D10*
X132454819Y-33909523D02*
X133169104Y-33909523D01*
X133169104Y-33909523D02*
X133311961Y-33957142D01*
X133311961Y-33957142D02*
X133407200Y-34052380D01*
X133407200Y-34052380D02*
X133454819Y-34195237D01*
X133454819Y-34195237D02*
X133454819Y-34290475D01*
X132454819Y-33528570D02*
X132454819Y-32909523D01*
X132454819Y-32909523D02*
X132835771Y-33242856D01*
X132835771Y-33242856D02*
X132835771Y-33099999D01*
X132835771Y-33099999D02*
X132883390Y-33004761D01*
X132883390Y-33004761D02*
X132931009Y-32957142D01*
X132931009Y-32957142D02*
X133026247Y-32909523D01*
X133026247Y-32909523D02*
X133264342Y-32909523D01*
X133264342Y-32909523D02*
X133359580Y-32957142D01*
X133359580Y-32957142D02*
X133407200Y-33004761D01*
X133407200Y-33004761D02*
X133454819Y-33099999D01*
X133454819Y-33099999D02*
X133454819Y-33385713D01*
X133454819Y-33385713D02*
X133407200Y-33480951D01*
X133407200Y-33480951D02*
X133359580Y-33528570D01*
X132883390Y-32338094D02*
X132835771Y-32433332D01*
X132835771Y-32433332D02*
X132788152Y-32480951D01*
X132788152Y-32480951D02*
X132692914Y-32528570D01*
X132692914Y-32528570D02*
X132645295Y-32528570D01*
X132645295Y-32528570D02*
X132550057Y-32480951D01*
X132550057Y-32480951D02*
X132502438Y-32433332D01*
X132502438Y-32433332D02*
X132454819Y-32338094D01*
X132454819Y-32338094D02*
X132454819Y-32147618D01*
X132454819Y-32147618D02*
X132502438Y-32052380D01*
X132502438Y-32052380D02*
X132550057Y-32004761D01*
X132550057Y-32004761D02*
X132645295Y-31957142D01*
X132645295Y-31957142D02*
X132692914Y-31957142D01*
X132692914Y-31957142D02*
X132788152Y-32004761D01*
X132788152Y-32004761D02*
X132835771Y-32052380D01*
X132835771Y-32052380D02*
X132883390Y-32147618D01*
X132883390Y-32147618D02*
X132883390Y-32338094D01*
X132883390Y-32338094D02*
X132931009Y-32433332D01*
X132931009Y-32433332D02*
X132978628Y-32480951D01*
X132978628Y-32480951D02*
X133073866Y-32528570D01*
X133073866Y-32528570D02*
X133264342Y-32528570D01*
X133264342Y-32528570D02*
X133359580Y-32480951D01*
X133359580Y-32480951D02*
X133407200Y-32433332D01*
X133407200Y-32433332D02*
X133454819Y-32338094D01*
X133454819Y-32338094D02*
X133454819Y-32147618D01*
X133454819Y-32147618D02*
X133407200Y-32052380D01*
X133407200Y-32052380D02*
X133359580Y-32004761D01*
X133359580Y-32004761D02*
X133264342Y-31957142D01*
X133264342Y-31957142D02*
X133073866Y-31957142D01*
X133073866Y-31957142D02*
X132978628Y-32004761D01*
X132978628Y-32004761D02*
X132931009Y-32052380D01*
X132931009Y-32052380D02*
X132883390Y-32147618D01*
X67454819Y-33909523D02*
X68169104Y-33909523D01*
X68169104Y-33909523D02*
X68311961Y-33957142D01*
X68311961Y-33957142D02*
X68407200Y-34052380D01*
X68407200Y-34052380D02*
X68454819Y-34195237D01*
X68454819Y-34195237D02*
X68454819Y-34290475D01*
X67454819Y-33528570D02*
X67454819Y-32909523D01*
X67454819Y-32909523D02*
X67835771Y-33242856D01*
X67835771Y-33242856D02*
X67835771Y-33099999D01*
X67835771Y-33099999D02*
X67883390Y-33004761D01*
X67883390Y-33004761D02*
X67931009Y-32957142D01*
X67931009Y-32957142D02*
X68026247Y-32909523D01*
X68026247Y-32909523D02*
X68264342Y-32909523D01*
X68264342Y-32909523D02*
X68359580Y-32957142D01*
X68359580Y-32957142D02*
X68407200Y-33004761D01*
X68407200Y-33004761D02*
X68454819Y-33099999D01*
X68454819Y-33099999D02*
X68454819Y-33385713D01*
X68454819Y-33385713D02*
X68407200Y-33480951D01*
X68407200Y-33480951D02*
X68359580Y-33528570D01*
X67454819Y-32052380D02*
X67454819Y-32242856D01*
X67454819Y-32242856D02*
X67502438Y-32338094D01*
X67502438Y-32338094D02*
X67550057Y-32385713D01*
X67550057Y-32385713D02*
X67692914Y-32480951D01*
X67692914Y-32480951D02*
X67883390Y-32528570D01*
X67883390Y-32528570D02*
X68264342Y-32528570D01*
X68264342Y-32528570D02*
X68359580Y-32480951D01*
X68359580Y-32480951D02*
X68407200Y-32433332D01*
X68407200Y-32433332D02*
X68454819Y-32338094D01*
X68454819Y-32338094D02*
X68454819Y-32147618D01*
X68454819Y-32147618D02*
X68407200Y-32052380D01*
X68407200Y-32052380D02*
X68359580Y-32004761D01*
X68359580Y-32004761D02*
X68264342Y-31957142D01*
X68264342Y-31957142D02*
X68026247Y-31957142D01*
X68026247Y-31957142D02*
X67931009Y-32004761D01*
X67931009Y-32004761D02*
X67883390Y-32052380D01*
X67883390Y-32052380D02*
X67835771Y-32147618D01*
X67835771Y-32147618D02*
X67835771Y-32338094D01*
X67835771Y-32338094D02*
X67883390Y-32433332D01*
X67883390Y-32433332D02*
X67931009Y-32480951D01*
X67931009Y-32480951D02*
X68026247Y-32528570D01*
X56454819Y-33909523D02*
X57169104Y-33909523D01*
X57169104Y-33909523D02*
X57311961Y-33957142D01*
X57311961Y-33957142D02*
X57407200Y-34052380D01*
X57407200Y-34052380D02*
X57454819Y-34195237D01*
X57454819Y-34195237D02*
X57454819Y-34290475D01*
X56454819Y-33528570D02*
X56454819Y-32909523D01*
X56454819Y-32909523D02*
X56835771Y-33242856D01*
X56835771Y-33242856D02*
X56835771Y-33099999D01*
X56835771Y-33099999D02*
X56883390Y-33004761D01*
X56883390Y-33004761D02*
X56931009Y-32957142D01*
X56931009Y-32957142D02*
X57026247Y-32909523D01*
X57026247Y-32909523D02*
X57264342Y-32909523D01*
X57264342Y-32909523D02*
X57359580Y-32957142D01*
X57359580Y-32957142D02*
X57407200Y-33004761D01*
X57407200Y-33004761D02*
X57454819Y-33099999D01*
X57454819Y-33099999D02*
X57454819Y-33385713D01*
X57454819Y-33385713D02*
X57407200Y-33480951D01*
X57407200Y-33480951D02*
X57359580Y-33528570D01*
X56788152Y-32052380D02*
X57454819Y-32052380D01*
X56407200Y-32290475D02*
X57121485Y-32528570D01*
X57121485Y-32528570D02*
X57121485Y-31909523D01*
D11*
%TO.C,J38*%
X133730000Y-36270000D02*
X133730000Y-35000000D01*
X134570000Y-31382642D02*
X134570000Y-31070000D01*
X134570000Y-33840000D02*
X134570000Y-33537358D01*
X135000000Y-36270000D02*
X133730000Y-36270000D01*
X135430000Y-31382642D02*
X135430000Y-31070000D01*
X135430000Y-33840000D02*
X135430000Y-33537358D01*
X136270000Y-31070000D02*
X136270000Y-28310000D01*
X137110000Y-22310000D02*
X137970000Y-22310000D01*
X137110000Y-28310000D02*
X137110000Y-22310000D01*
X137110000Y-31382642D02*
X137110000Y-31070000D01*
X137110000Y-33922642D02*
X137110000Y-33537358D01*
X137970000Y-22310000D02*
X137970000Y-28310000D01*
X137970000Y-31382642D02*
X137970000Y-31070000D01*
X137970000Y-33922642D02*
X137970000Y-33537358D01*
X138810000Y-31070000D02*
X138810000Y-28310000D01*
X139650000Y-22310000D02*
X140510000Y-22310000D01*
X139650000Y-28310000D02*
X139650000Y-22310000D01*
X139650000Y-31382642D02*
X139650000Y-31070000D01*
X139650000Y-33922642D02*
X139650000Y-33537358D01*
X140510000Y-22310000D02*
X140510000Y-28310000D01*
X140510000Y-31382642D02*
X140510000Y-31070000D01*
X140510000Y-33922642D02*
X140510000Y-33537358D01*
X133620000Y-31070000D02*
X141460000Y-31070000D01*
X141460000Y-28310000D01*
X133620000Y-28310000D01*
X133620000Y-31070000D01*
X134570000Y-28310000D02*
X135430000Y-28310000D01*
X135430000Y-22310000D01*
X134570000Y-22310000D01*
X134570000Y-28310000D01*
G36*
X134570000Y-28310000D02*
G01*
X135430000Y-28310000D01*
X135430000Y-22310000D01*
X134570000Y-22310000D01*
X134570000Y-28310000D01*
G37*
%TO.C,J36*%
X68730000Y-36270000D02*
X68730000Y-35000000D01*
X69570000Y-31382642D02*
X69570000Y-31070000D01*
X69570000Y-33840000D02*
X69570000Y-33537358D01*
X70000000Y-36270000D02*
X68730000Y-36270000D01*
X70430000Y-31382642D02*
X70430000Y-31070000D01*
X70430000Y-33840000D02*
X70430000Y-33537358D01*
X71270000Y-31070000D02*
X71270000Y-28310000D01*
X72110000Y-22310000D02*
X72970000Y-22310000D01*
X72110000Y-28310000D02*
X72110000Y-22310000D01*
X72110000Y-31382642D02*
X72110000Y-31070000D01*
X72110000Y-33922642D02*
X72110000Y-33537358D01*
X72970000Y-22310000D02*
X72970000Y-28310000D01*
X72970000Y-31382642D02*
X72970000Y-31070000D01*
X72970000Y-33922642D02*
X72970000Y-33537358D01*
X73810000Y-31070000D02*
X73810000Y-28310000D01*
X74650000Y-22310000D02*
X75510000Y-22310000D01*
X74650000Y-28310000D02*
X74650000Y-22310000D01*
X74650000Y-31382642D02*
X74650000Y-31070000D01*
X74650000Y-33922642D02*
X74650000Y-33537358D01*
X75510000Y-22310000D02*
X75510000Y-28310000D01*
X75510000Y-31382642D02*
X75510000Y-31070000D01*
X75510000Y-33922642D02*
X75510000Y-33537358D01*
X68620000Y-31070000D02*
X76460000Y-31070000D01*
X76460000Y-28310000D01*
X68620000Y-28310000D01*
X68620000Y-31070000D01*
X69570000Y-28310000D02*
X70430000Y-28310000D01*
X70430000Y-22310000D01*
X69570000Y-22310000D01*
X69570000Y-28310000D01*
G36*
X69570000Y-28310000D02*
G01*
X70430000Y-28310000D01*
X70430000Y-22310000D01*
X69570000Y-22310000D01*
X69570000Y-28310000D01*
G37*
%TO.C,J34*%
X57730000Y-36270000D02*
X57730000Y-35000000D01*
X58570000Y-31382642D02*
X58570000Y-31070000D01*
X58570000Y-33840000D02*
X58570000Y-33537358D01*
X59000000Y-36270000D02*
X57730000Y-36270000D01*
X59430000Y-31382642D02*
X59430000Y-31070000D01*
X59430000Y-33840000D02*
X59430000Y-33537358D01*
X60270000Y-31070000D02*
X60270000Y-28310000D01*
X61110000Y-22310000D02*
X61970000Y-22310000D01*
X61110000Y-28310000D02*
X61110000Y-22310000D01*
X61110000Y-31382642D02*
X61110000Y-31070000D01*
X61110000Y-33922642D02*
X61110000Y-33537358D01*
X61970000Y-22310000D02*
X61970000Y-28310000D01*
X61970000Y-31382642D02*
X61970000Y-31070000D01*
X61970000Y-33922642D02*
X61970000Y-33537358D01*
X62810000Y-31070000D02*
X62810000Y-28310000D01*
X63650000Y-22310000D02*
X64510000Y-22310000D01*
X63650000Y-28310000D02*
X63650000Y-22310000D01*
X63650000Y-31382642D02*
X63650000Y-31070000D01*
X63650000Y-33922642D02*
X63650000Y-33537358D01*
X64510000Y-22310000D02*
X64510000Y-28310000D01*
X64510000Y-31382642D02*
X64510000Y-31070000D01*
X64510000Y-33922642D02*
X64510000Y-33537358D01*
X57620000Y-31070000D02*
X65460000Y-31070000D01*
X65460000Y-28310000D01*
X57620000Y-28310000D01*
X57620000Y-31070000D01*
X58570000Y-28310000D02*
X59430000Y-28310000D01*
X59430000Y-22310000D01*
X58570000Y-22310000D01*
X58570000Y-28310000D01*
G36*
X58570000Y-28310000D02*
G01*
X59430000Y-28310000D01*
X59430000Y-22310000D01*
X58570000Y-22310000D01*
X58570000Y-28310000D01*
G37*
%TD*%
%LPC*%
D12*
%TO.C,J38*%
X135000000Y-35000000D03*
D13*
X135000000Y-32460000D03*
X137540000Y-35000000D03*
X137540000Y-32460000D03*
X140080000Y-35000000D03*
X140080000Y-32460000D03*
%TD*%
D12*
%TO.C,J36*%
X70000000Y-35000000D03*
D13*
X70000000Y-32460000D03*
X72540000Y-35000000D03*
X72540000Y-32460000D03*
X75080000Y-35000000D03*
X75080000Y-32460000D03*
%TD*%
D12*
%TO.C,J34*%
X59000000Y-35000000D03*
D13*
X59000000Y-32460000D03*
X61540000Y-35000000D03*
X61540000Y-32460000D03*
X64080000Y-35000000D03*
X64080000Y-32460000D03*
%TD*%
D14*
%TO.C,R74*%
X138990000Y-67300000D03*
X146610000Y-67300000D03*
%TD*%
%TO.C,R80*%
X61210000Y-56900000D03*
X53590000Y-56900000D03*
%TD*%
D15*
%TO.C,Q15*%
X56940000Y-96300000D03*
D16*
X54400000Y-96300000D03*
X51860000Y-96300000D03*
%TD*%
D14*
%TO.C,C2*%
X111850000Y-42500000D03*
X114350000Y-42500000D03*
%TD*%
%TO.C,C15*%
X129400000Y-52600000D03*
X134400000Y-52600000D03*
%TD*%
%TO.C,C3*%
X138500000Y-81100000D03*
X138500000Y-76100000D03*
%TD*%
%TO.C,R87*%
X85590000Y-72300000D03*
X93210000Y-72300000D03*
%TD*%
%TO.C,R78*%
X125210000Y-67100000D03*
X117590000Y-67100000D03*
%TD*%
%TO.C,R77*%
X125210000Y-72200000D03*
X117590000Y-72200000D03*
%TD*%
%TO.C,R89*%
X85590000Y-67200000D03*
X93210000Y-67200000D03*
%TD*%
D17*
%TO.C,D11*%
X125210000Y-77000000D03*
D14*
X117590000Y-77000000D03*
%TD*%
%TO.C,R71*%
X147210000Y-92900000D03*
X139590000Y-92900000D03*
%TD*%
%TO.C,R59*%
X106790000Y-72200000D03*
X114410000Y-72200000D03*
%TD*%
D15*
%TO.C,Q14*%
X56940000Y-88500000D03*
D16*
X54400000Y-88500000D03*
X51860000Y-88500000D03*
%TD*%
D17*
%TO.C,D12*%
X93210000Y-52600000D03*
D14*
X85590000Y-52600000D03*
%TD*%
D17*
%TO.C,D8*%
X114310000Y-82200000D03*
D14*
X106690000Y-82200000D03*
%TD*%
%TO.C,R63*%
X106790000Y-47200000D03*
X114410000Y-47200000D03*
%TD*%
D15*
%TO.C,Q12*%
X59250000Y-95450000D03*
D16*
X61790000Y-95450000D03*
X64330000Y-95450000D03*
%TD*%
D14*
%TO.C,C17*%
X97500000Y-77000000D03*
X102500000Y-77000000D03*
%TD*%
%TO.C,R94*%
X74790000Y-62100000D03*
X82410000Y-62100000D03*
%TD*%
D18*
%TO.C,Q17*%
X78700000Y-71930000D03*
D19*
X78700000Y-73200000D03*
X78700000Y-74470000D03*
%TD*%
D14*
%TO.C,R54*%
X117590000Y-57000000D03*
X125210000Y-57000000D03*
%TD*%
%TO.C,R75*%
X138890000Y-72200000D03*
X146510000Y-72200000D03*
%TD*%
D20*
%TO.C,Q10*%
X58770000Y-42800000D03*
D21*
X57500000Y-42800000D03*
X56230000Y-42800000D03*
%TD*%
D14*
%TO.C,C12*%
X79950000Y-52600000D03*
X82450000Y-52600000D03*
%TD*%
D20*
%TO.C,Q9*%
X141430000Y-79000000D03*
D21*
X142700000Y-79000000D03*
X143970000Y-79000000D03*
%TD*%
D14*
%TO.C,C18*%
X129500000Y-76600000D03*
X134500000Y-76600000D03*
%TD*%
%TO.C,C6*%
X123900000Y-62100000D03*
X118900000Y-62100000D03*
%TD*%
%TO.C,C14*%
X97500000Y-52600000D03*
X102500000Y-52600000D03*
%TD*%
%TO.C,C5*%
X65600000Y-39500000D03*
X70600000Y-39500000D03*
%TD*%
%TO.C,R91*%
X103810000Y-82200000D03*
X96190000Y-82200000D03*
%TD*%
%TO.C,R85*%
X53590000Y-67200000D03*
X61210000Y-67200000D03*
%TD*%
%TO.C,C7*%
X65600000Y-46100000D03*
X70600000Y-46100000D03*
%TD*%
%TO.C,R65*%
X138990000Y-57500000D03*
X146610000Y-57500000D03*
%TD*%
D22*
%TO.C,U12*%
X128190000Y-72215000D03*
D14*
X128190000Y-69675000D03*
X128190000Y-67135000D03*
X128190000Y-64595000D03*
X128190000Y-62055000D03*
X128190000Y-59515000D03*
X128190000Y-56975000D03*
X135810000Y-56975000D03*
X135810000Y-59515000D03*
X135810000Y-62055000D03*
X135810000Y-64595000D03*
X135810000Y-67135000D03*
X135810000Y-69675000D03*
X135810000Y-72215000D03*
%TD*%
%TO.C,R96*%
X52000000Y-83910000D03*
X52000000Y-76290000D03*
%TD*%
%TO.C,R57*%
X128190000Y-43100000D03*
X135810000Y-43100000D03*
%TD*%
%TO.C,R62*%
X96190000Y-48100000D03*
X103810000Y-48100000D03*
%TD*%
%TO.C,R92*%
X93210000Y-57000000D03*
X85590000Y-57000000D03*
%TD*%
D22*
%TO.C,D10*%
X128190000Y-85400000D03*
D14*
X135810000Y-85400000D03*
%TD*%
%TO.C,R76*%
X56700000Y-76290000D03*
X56700000Y-83910000D03*
%TD*%
%TO.C,R84*%
X60800000Y-70090000D03*
X60800000Y-77710000D03*
%TD*%
D15*
%TO.C,Q16*%
X91950000Y-62150000D03*
D16*
X89410000Y-62150000D03*
X86870000Y-62150000D03*
%TD*%
D14*
%TO.C,R81*%
X85590000Y-82200000D03*
X93210000Y-82200000D03*
%TD*%
%TO.C,R55*%
X106790000Y-56900000D03*
X114410000Y-56900000D03*
%TD*%
%TO.C,R64*%
X117590000Y-47200000D03*
X125210000Y-47200000D03*
%TD*%
%TO.C,R93*%
X74790000Y-67200000D03*
X82410000Y-67200000D03*
%TD*%
D22*
%TO.C,D7*%
X96190000Y-43100000D03*
D14*
X103810000Y-43100000D03*
%TD*%
%TO.C,C63*%
X65600000Y-42800000D03*
X70600000Y-42800000D03*
%TD*%
%TO.C,R70*%
X128190000Y-81100000D03*
X135810000Y-81100000D03*
%TD*%
D15*
%TO.C,Q13*%
X59250000Y-87650000D03*
D16*
X61790000Y-87650000D03*
X64330000Y-87650000D03*
%TD*%
D14*
%TO.C,C8*%
X92350000Y-77000000D03*
X94850000Y-77000000D03*
%TD*%
%TO.C,R72*%
X61310000Y-52300000D03*
X53690000Y-52300000D03*
%TD*%
%TO.C,R88*%
X74790000Y-77600000D03*
X82410000Y-77600000D03*
%TD*%
%TO.C,R58*%
X96190000Y-38500000D03*
X103810000Y-38500000D03*
%TD*%
%TO.C,R82*%
X93210000Y-48000000D03*
X85590000Y-48000000D03*
%TD*%
%TO.C,R95*%
X64190000Y-82300000D03*
X71810000Y-82300000D03*
%TD*%
%TO.C,C11*%
X76550000Y-82300000D03*
X74050000Y-82300000D03*
%TD*%
%TO.C,R83*%
X85590000Y-43100000D03*
X93210000Y-43100000D03*
%TD*%
%TO.C,R60*%
X114310000Y-77000000D03*
X106690000Y-77000000D03*
%TD*%
%TO.C,C13*%
X65500000Y-52600000D03*
X70500000Y-52600000D03*
%TD*%
%TO.C,R67*%
X138980000Y-48050000D03*
X146600000Y-48050000D03*
%TD*%
%TO.C,R53*%
X106690000Y-87200000D03*
X114310000Y-87200000D03*
%TD*%
%TO.C,C4*%
X146800000Y-81100000D03*
X146800000Y-76100000D03*
%TD*%
%TO.C,R90*%
X74790000Y-57000000D03*
X82410000Y-57000000D03*
%TD*%
%TO.C,C10*%
X73850000Y-52600000D03*
X76350000Y-52600000D03*
%TD*%
%TO.C,R79*%
X53590000Y-62000000D03*
X61210000Y-62000000D03*
%TD*%
D23*
%TO.C,TH1*%
X57195000Y-92000000D03*
X59095000Y-92000000D03*
%TD*%
D14*
%TO.C,R56*%
X125210000Y-35500000D03*
X117590000Y-35500000D03*
%TD*%
D22*
%TO.C,U11*%
X96190000Y-72215000D03*
D14*
X96190000Y-69675000D03*
X96190000Y-67135000D03*
X96190000Y-64595000D03*
X96190000Y-62055000D03*
X96190000Y-59515000D03*
X96190000Y-56975000D03*
X103810000Y-56975000D03*
X103810000Y-59515000D03*
X103810000Y-62055000D03*
X103810000Y-64595000D03*
X103810000Y-67135000D03*
X103810000Y-69675000D03*
X103810000Y-72215000D03*
%TD*%
D15*
%TO.C,Q11*%
X129460000Y-92050000D03*
D16*
X132000000Y-92050000D03*
X134540000Y-92050000D03*
%TD*%
D14*
%TO.C,R86*%
X61310000Y-47700000D03*
X53690000Y-47700000D03*
%TD*%
%TO.C,C16*%
X65500000Y-77000000D03*
X70500000Y-77000000D03*
%TD*%
D24*
%TO.C,RV14*%
X146495000Y-38140000D03*
X146495000Y-35600000D03*
X146495000Y-33060000D03*
%TD*%
D14*
%TO.C,R61*%
X128190000Y-48000000D03*
X135810000Y-48000000D03*
%TD*%
D22*
%TO.C,D9*%
X106790000Y-67100000D03*
D14*
X114410000Y-67100000D03*
%TD*%
D24*
%TO.C,RV13*%
X123940000Y-41405000D03*
X121400000Y-41405000D03*
X118860000Y-41405000D03*
%TD*%
D15*
%TO.C,Q7*%
X118860000Y-52150000D03*
D16*
X121400000Y-52150000D03*
X123940000Y-52150000D03*
%TD*%
D14*
%TO.C,R52*%
X114410000Y-62000000D03*
X106790000Y-62000000D03*
%TD*%
%TO.C,C1*%
X97500000Y-33900000D03*
X102500000Y-33900000D03*
%TD*%
%TO.C,R73*%
X138990000Y-62200000D03*
X146610000Y-62200000D03*
%TD*%
%TO.C,R66*%
X138990000Y-52700000D03*
X146610000Y-52700000D03*
%TD*%
%TO.C,R68*%
X114410000Y-52000000D03*
X106790000Y-52000000D03*
%TD*%
D15*
%TO.C,Q8*%
X140260000Y-43100000D03*
D16*
X142800000Y-43100000D03*
X145340000Y-43100000D03*
%TD*%
D14*
%TO.C,R69*%
X139590000Y-85300000D03*
X147210000Y-85300000D03*
%TD*%
D22*
%TO.C,U10*%
X64190000Y-72215000D03*
D14*
X64190000Y-69675000D03*
X64190000Y-67135000D03*
X64190000Y-64595000D03*
X64190000Y-62055000D03*
X64190000Y-59515000D03*
X64190000Y-56975000D03*
X71810000Y-56975000D03*
X71810000Y-59515000D03*
X71810000Y-62055000D03*
X71810000Y-64595000D03*
X71810000Y-67135000D03*
X71810000Y-69675000D03*
X71810000Y-72215000D03*
%TD*%
%TO.C,C9*%
X66750000Y-49400000D03*
X69250000Y-49400000D03*
%TD*%
%LPD*%
M02*
