M48
; DRILL file {KiCad 9.0.7} date 2026-02-21T19:27:05+0100
; FORMAT={-:-/ absolute / metric / decimal}
; #@! TF.CreationDate,2026-02-21T19:27:05+01:00
; #@! TF.GenerationSoftware,Kicad,Pcbnew,9.0.7
; #@! TF.FileFunction,Plated,1,2,PTH
FMAT,2
METRIC
; #@! TA.AperFunction,Plated,PTH,ComponentDrill
T1C0.700
; #@! TA.AperFunction,Plated,PTH,ComponentDrill
T2C0.750
; #@! TA.AperFunction,Plated,PTH,ComponentDrill
T3C0.800
; #@! TA.AperFunction,Plated,PTH,ComponentDrill
T4C1.000
%
G90
G05
T1
X57.195Y-92.0
X59.095Y-92.0
T2
X56.23Y-42.8
X57.5Y-42.8
X58.77Y-42.8
X78.7Y-71.93
X78.7Y-73.2
X78.7Y-74.47
X141.43Y-79.0
X142.7Y-79.0
X143.97Y-79.0
T3
X51.86Y-88.5
X51.86Y-96.3
X52.0Y-76.29
X52.0Y-83.91
X53.59Y-56.9
X53.59Y-62.0
X53.59Y-67.2
X53.69Y-47.7
X53.69Y-52.3
X54.4Y-88.5
X54.4Y-96.3
X56.7Y-76.29
X56.7Y-83.91
X56.94Y-88.5
X56.94Y-96.3
X59.25Y-87.65
X59.25Y-95.45
X60.8Y-70.09
X60.8Y-77.71
X61.21Y-56.9
X61.21Y-62.0
X61.21Y-67.2
X61.31Y-47.7
X61.31Y-52.3
X61.79Y-87.65
X61.79Y-95.45
X64.19Y-56.975
X64.19Y-59.515
X64.19Y-62.055
X64.19Y-64.595
X64.19Y-67.135
X64.19Y-69.675
X64.19Y-72.215
X64.19Y-82.3
X64.33Y-87.65
X64.33Y-95.45
X65.5Y-52.6
X65.5Y-77.0
X65.6Y-39.5
X65.6Y-42.8
X65.6Y-46.1
X66.75Y-49.4
X69.25Y-49.4
X70.5Y-52.6
X70.5Y-77.0
X70.6Y-39.5
X70.6Y-42.8
X70.6Y-46.1
X71.81Y-56.975
X71.81Y-59.515
X71.81Y-62.055
X71.81Y-64.595
X71.81Y-67.135
X71.81Y-69.675
X71.81Y-72.215
X71.81Y-82.3
X73.85Y-52.6
X74.05Y-82.3
X74.79Y-57.0
X74.79Y-62.1
X74.79Y-67.2
X74.79Y-77.6
X76.35Y-52.6
X76.55Y-82.3
X79.95Y-52.6
X82.41Y-57.0
X82.41Y-62.1
X82.41Y-67.2
X82.41Y-77.6
X82.45Y-52.6
X85.59Y-43.1
X85.59Y-48.0
X85.59Y-52.6
X85.59Y-57.0
X85.59Y-67.2
X85.59Y-72.3
X85.59Y-82.2
X86.87Y-62.15
X89.41Y-62.15
X91.95Y-62.15
X92.35Y-77.0
X93.21Y-43.1
X93.21Y-48.0
X93.21Y-52.6
X93.21Y-57.0
X93.21Y-67.2
X93.21Y-72.3
X93.21Y-82.2
X94.85Y-77.0
X96.19Y-38.5
X96.19Y-43.1
X96.19Y-48.1
X96.19Y-56.975
X96.19Y-59.515
X96.19Y-62.055
X96.19Y-64.595
X96.19Y-67.135
X96.19Y-69.675
X96.19Y-72.215
X96.19Y-82.2
X97.5Y-33.9
X97.5Y-52.6
X97.5Y-77.0
X102.5Y-33.9
X102.5Y-52.6
X102.5Y-77.0
X103.81Y-38.5
X103.81Y-43.1
X103.81Y-48.1
X103.81Y-56.975
X103.81Y-59.515
X103.81Y-62.055
X103.81Y-64.595
X103.81Y-67.135
X103.81Y-69.675
X103.81Y-72.215
X103.81Y-82.2
X106.69Y-77.0
X106.69Y-82.2
X106.69Y-87.2
X106.79Y-47.2
X106.79Y-52.0
X106.79Y-56.9
X106.79Y-62.0
X106.79Y-67.1
X106.79Y-72.2
X111.85Y-42.5
X114.31Y-77.0
X114.31Y-82.2
X114.31Y-87.2
X114.35Y-42.5
X114.41Y-47.2
X114.41Y-52.0
X114.41Y-56.9
X114.41Y-62.0
X114.41Y-67.1
X114.41Y-72.2
X117.59Y-35.5
X117.59Y-47.2
X117.59Y-57.0
X117.59Y-67.1
X117.59Y-72.2
X117.59Y-77.0
X118.86Y-41.405
X118.86Y-52.15
X118.9Y-62.1
X121.4Y-41.405
X121.4Y-52.15
X123.9Y-62.1
X123.94Y-41.405
X123.94Y-52.15
X125.21Y-35.5
X125.21Y-47.2
X125.21Y-57.0
X125.21Y-67.1
X125.21Y-72.2
X125.21Y-77.0
X128.19Y-43.1
X128.19Y-48.0
X128.19Y-56.975
X128.19Y-59.515
X128.19Y-62.055
X128.19Y-64.595
X128.19Y-67.135
X128.19Y-69.675
X128.19Y-72.215
X128.19Y-81.1
X128.19Y-85.4
X129.4Y-52.6
X129.46Y-92.05
X129.5Y-76.6
X132.0Y-92.05
X134.4Y-52.6
X134.5Y-76.6
X134.54Y-92.05
X135.81Y-43.1
X135.81Y-48.0
X135.81Y-56.975
X135.81Y-59.515
X135.81Y-62.055
X135.81Y-64.595
X135.81Y-67.135
X135.81Y-69.675
X135.81Y-72.215
X135.81Y-81.1
X135.81Y-85.4
X138.5Y-76.1
X138.5Y-81.1
X138.89Y-72.2
X138.98Y-48.05
X138.99Y-52.7
X138.99Y-57.5
X138.99Y-62.2
X138.99Y-67.3
X139.59Y-85.3
X139.59Y-92.9
X140.26Y-43.1
X142.8Y-43.1
X145.34Y-43.1
X146.495Y-33.06
X146.495Y-35.6
X146.495Y-38.14
X146.51Y-72.2
X146.6Y-48.05
X146.61Y-52.7
X146.61Y-57.5
X146.61Y-62.2
X146.61Y-67.3
X146.8Y-76.1
X146.8Y-81.1
X147.21Y-85.3
X147.21Y-92.9
T4
X59.0Y-32.46
X59.0Y-35.0
X61.54Y-32.46
X61.54Y-35.0
X64.08Y-32.46
X64.08Y-35.0
X70.0Y-32.46
X70.0Y-35.0
X72.54Y-32.46
X72.54Y-35.0
X75.08Y-32.46
X75.08Y-35.0
X135.0Y-32.46
X135.0Y-35.0
X137.54Y-32.46
X137.54Y-35.0
X140.08Y-32.46
X140.08Y-35.0
M30
